<?xml version="1.0" standalone="no"?>
<!DOCTYPE svg PUBLIC "-//W3C//DTD SVG 20010904//EN"
 "http://www.w3.org/TR/2001/REC-SVG-20010904/DTD/svg10.dtd">
<svg version="1.0" xmlns="http://www.w3.org/2000/svg"
 width="1024.000000pt" height="1024.000000pt" viewBox="0 0 1024.000000 1024.000000"
 preserveAspectRatio="xMidYMid meet">
<metadata>
Created by potrace 1.14, written by Peter Selinger 2001-2017
</metadata>
<g transform="translate(0.000000,1024.000000) scale(0.100000,-0.100000)"
fill="#000000" stroke="none">
<path d="M0 6616 l0 -3064 739 0 c618 1 741 3 745 14 3 8 1 14 -5 14 -6 0 -6
7 -1 18 4 9 7 42 5 72 -2 30 -3 60 -3 65 0 6 1 81 3 168 1 86 -2 157 -6 157
-4 0 -4 8 1 18 4 9 7 42 5 72 -4 62 -4 58 0 143 2 34 -1 69 -5 78 -4 9 -4 19
-1 23 10 10 10 76 0 76 -4 0 -5 5 -1 12 12 19 11 78 -1 78 -7 0 -7 3 0 8 12 8
14 452 2 452 -4 0 -4 8 1 18 4 9 7 42 5 72 -4 62 -4 58 0 143 2 34 -1 69 -5
78 -4 9 -4 19 -1 23 10 10 10 76 0 76 -4 0 -5 6 0 13 11 18 10 71 -2 79 -7 5
-7 8 0 8 9 0 13 252 5 285 -1 6 -1 12 0 15 6 16 4 80 -3 80 -4 0 -5 5 -1 12
11 17 12 169 2 191 -5 9 -5 17 -1 17 5 0 8 20 7 44 -1 34 2 43 12 39 8 -3 12
-9 9 -13 -3 -4 2 -10 10 -14 8 -3 15 -10 15 -15 0 -6 10 -21 23 -34 12 -14 45
-54 72 -91 28 -36 53 -66 58 -66 4 0 7 -4 7 -10 0 -5 28 -45 63 -88 34 -43 72
-92 84 -108 12 -16 31 -40 42 -54 11 -14 52 -65 91 -115 39 -49 77 -98 85
-108 8 -9 15 -22 15 -27 0 -6 4 -10 8 -10 5 0 21 -18 38 -41 16 -22 44 -57 61
-77 18 -20 33 -40 33 -43 0 -3 9 -17 21 -30 11 -13 33 -39 47 -58 15 -19 55
-70 90 -113 34 -43 62 -81 62 -84 0 -3 10 -16 23 -29 12 -13 32 -37 44 -52 12
-15 33 -42 47 -59 14 -18 26 -36 26 -42 0 -6 4 -12 9 -14 5 -1 44 -48 87 -103
43 -55 82 -104 86 -110 4 -5 40 -50 79 -100 38 -49 75 -97 82 -105 7 -9 32
-42 57 -75 25 -33 57 -73 72 -90 16 -16 28 -33 28 -36 0 -3 10 -17 21 -30 12
-13 33 -40 48 -59 14 -19 28 -37 31 -40 4 -3 19 -23 36 -45 16 -22 34 -45 39
-51 6 -6 21 -26 35 -44 14 -18 53 -69 88 -112 34 -43 62 -83 62 -88 0 -6 3
-10 8 -10 4 0 36 -38 72 -85 l65 -84 55 0 c117 2 111 4 105 -43 -2 -24 -7 -54
-10 -68 -2 -13 -7 -42 -10 -65 -4 -22 -8 -51 -10 -65 -2 -14 -6 -43 -10 -65
-3 -23 -8 -52 -11 -65 -2 -14 -7 -41 -9 -60 -2 -19 -9 -66 -16 -105 -6 -38
-13 -86 -15 -105 -1 -19 -3 -35 -4 -35 -2 0 -7 -30 -16 -85 -3 -25 -8 -56 -10
-70 -2 -14 -6 -38 -8 -55 -3 -16 -7 -39 -9 -50 -3 -11 -8 -45 -12 -75 -4 -30
-9 -62 -10 -71 -6 -28 -14 -82 -21 -134 -3 -27 -8 -53 -10 -56 -2 -4 -6 -33
-10 -65 -3 -32 -7 -61 -10 -65 -2 -4 -6 -27 -8 -51 -3 -24 -7 -57 -10 -73 -3
-17 -7 -48 -11 -70 -3 -23 -8 -52 -10 -65 -6 -31 -11 -61 -20 -120 -4 -25 -8
-56 -10 -70 -3 -14 -7 -43 -10 -65 -2 -22 -7 -53 -10 -70 -3 -16 -7 -43 -10
-60 -3 -16 -7 -41 -10 -55 -3 -13 -7 -42 -10 -65 -3 -22 -10 -65 -15 -95 -5
-30 -12 -77 -16 -105 -3 -27 -8 -59 -10 -70 -2 -10 -6 -37 -9 -60 -3 -22 -13
-80 -21 -128 -8 -48 -12 -92 -9 -97 3 -6 2 -10 -2 -10 -5 0 -9 -8 -10 -17 -1
-22 -11 -99 -18 -133 -3 -14 -8 -44 -11 -68 l-6 -42 753 2 c744 3 752 3 755
23 1 11 5 45 8 75 3 30 8 66 10 80 3 14 7 52 11 85 3 33 9 78 11 100 3 22 7
56 9 75 2 19 4 35 5 35 1 0 8 65 15 130 4 50 15 142 20 175 5 29 15 112 19
155 2 17 6 53 10 80 11 87 17 139 22 190 2 27 7 61 9 75 3 14 7 54 10 90 4 36
8 76 11 90 2 14 7 48 9 75 3 28 8 66 11 85 3 19 8 53 10 75 2 22 5 56 8 75 2
19 7 62 11 95 5 55 9 83 21 170 2 17 7 55 9 85 3 30 8 68 11 85 6 32 10 61 19
165 3 36 8 76 10 90 3 14 7 50 10 80 3 30 8 66 10 80 5 27 17 127 21 175 1 17
3 30 4 30 1 0 3 25 6 55 6 76 10 85 29 66 8 -8 15 -17 15 -20 0 -2 58 -92 128
-198 180 -270 186 -279 197 -297 6 -9 57 -86 113 -171 56 -85 108 -163 115
-174 7 -10 20 -29 30 -41 9 -13 17 -28 17 -34 0 -6 5 -11 10 -11 6 0 10 -6 10
-14 0 -8 4 -16 8 -18 5 -1 29 -34 53 -73 23 -38 46 -72 49 -75 3 -3 39 -57 80
-120 41 -63 78 -116 83 -118 4 -2 7 -7 7 -12 0 -7 111 -175 539 -820 20 -30
38 -57 41 -60 7 -7 29 -42 37 -60 4 -8 11 -19 15 -25 5 -5 17 -20 28 -33 l19
-24 78 117 c43 64 87 131 98 148 10 18 23 33 27 35 4 2 8 9 8 16 0 7 8 21 18
32 25 29 82 113 82 122 0 5 8 17 18 28 25 29 102 144 102 154 0 5 4 10 8 12 5
2 30 37 56 78 27 41 54 78 60 82 6 4 7 8 1 8 -7 0 -7 3 0 8 6 4 29 36 52 72
24 36 48 72 55 80 13 15 29 39 49 78 7 12 16 22 21 22 4 0 8 5 8 10 0 9 35 66
50 80 3 3 30 43 60 90 30 47 57 87 60 90 14 14 50 70 50 79 0 5 3 11 8 13 4 1
88 125 187 273 99 149 183 275 188 280 4 6 35 53 70 105 34 52 67 101 74 108
7 7 13 17 13 22 0 5 6 15 13 22 7 7 28 38 47 68 32 51 59 86 61 78 5 -21 9
-54 15 -108 3 -35 8 -73 10 -84 2 -11 6 -45 9 -76 3 -30 8 -71 10 -90 6 -37
12 -91 19 -162 3 -24 7 -59 10 -78 3 -19 7 -55 10 -80 3 -25 9 -65 12 -90 3
-25 7 -65 9 -90 2 -25 4 -45 5 -45 3 0 9 -40 14 -95 6 -71 14 -143 22 -200 4
-25 8 -58 9 -75 3 -31 12 -105 20 -165 3 -19 7 -60 9 -90 2 -30 7 -66 10 -80
6 -29 15 -100 21 -180 3 -30 8 -66 11 -80 3 -14 8 -45 10 -70 2 -25 6 -65 9
-90 3 -25 8 -65 11 -90 3 -25 7 -60 10 -78 11 -84 16 -130 19 -172 2 -25 4
-45 5 -45 2 0 7 -38 14 -110 3 -33 8 -71 10 -85 3 -14 7 -52 11 -84 3 -33 8
-73 10 -90 3 -17 7 -51 10 -76 3 -25 7 -54 9 -65 3 -11 5 -23 5 -27 1 -5 339
-8 752 -8 526 0 748 3 744 11 -4 5 -9 23 -11 40 -2 16 -6 44 -9 62 -4 17 -8
43 -10 57 -12 85 -15 107 -19 125 -2 11 -7 40 -10 65 -3 25 -9 59 -12 75 -3
17 -7 46 -9 65 -2 19 -4 35 -5 35 -2 0 -3 12 -14 90 -3 17 -7 41 -11 55 -3 14
-8 45 -10 70 -2 25 -4 45 -5 45 -1 0 -3 12 -5 26 -2 15 -6 44 -10 65 -4 22 -9
53 -11 69 -2 17 -9 57 -15 90 -6 33 -13 74 -15 90 -7 63 -12 102 -23 160 -6
33 -13 76 -15 95 -12 84 -27 176 -31 190 -2 8 -6 35 -9 60 -3 25 -8 54 -10 65
-3 19 -13 83 -22 155 -4 33 -7 47 -19 110 -3 14 -7 43 -10 65 -4 39 -12 86
-21 135 -3 14 -7 45 -11 70 -3 25 -6 50 -7 57 -1 7 -5 15 -8 19 -4 3 -4 12 -1
20 3 8 2 22 -2 32 -4 9 -9 33 -10 52 -2 19 -10 76 -19 125 -15 85 -19 113 -31
203 -3 20 -7 48 -10 62 -5 24 -7 37 -21 130 -3 25 -8 54 -10 65 -4 23 -9 60
-19 130 -4 28 -9 59 -11 70 -2 11 -7 43 -10 70 -4 28 -10 55 -15 61 -5 6 -6
13 -3 16 3 3 1 32 -5 64 -6 33 -13 77 -16 99 -3 22 -7 51 -10 65 -3 14 -8 45
-11 70 -3 25 -8 56 -10 70 -8 36 -19 106 -30 186 -3 22 -7 48 -8 59 -2 11 -6
34 -9 50 -4 17 -9 50 -12 75 -3 25 -8 56 -10 70 -2 14 -7 41 -9 60 -3 19 -8
46 -11 60 -3 14 -7 43 -10 65 -3 22 -7 56 -11 75 -3 19 -7 46 -9 60 -6 36 -16
102 -20 125 -2 11 -8 54 -15 95 -6 41 -14 89 -16 105 -3 17 -7 44 -9 60 -1 17
-4 30 -5 30 -1 0 -4 20 -14 95 -3 25 -8 56 -11 70 -3 14 -8 45 -11 69 -3 24
-9 66 -15 94 -5 27 -7 53 -4 57 3 5 1 11 -4 15 -5 3 -9 13 -9 23 0 9 -2 34 -6
55 -3 20 -8 54 -11 75 -3 20 -7 48 -10 62 -3 14 -8 42 -11 64 -3 21 -7 48 -10
60 -2 11 -6 42 -9 67 -3 25 -8 56 -10 70 -9 42 -15 84 -20 124 -2 22 -4 40 -5
40 -3 0 -8 31 -14 89 -4 31 -11 67 -15 78 -7 20 -9 20 -27 -10 -10 -18 -22
-32 -26 -32 -4 0 -8 -5 -8 -10 0 -6 -21 -39 -47 -74 -27 -35 -54 -72 -61 -82
-6 -11 -57 -82 -111 -159 -55 -77 -119 -168 -143 -203 -24 -34 -48 -68 -54
-75 -5 -7 -32 -44 -60 -83 -87 -126 -238 -339 -243 -344 -4 -3 -20 -25 -36
-50 -16 -25 -32 -47 -35 -50 -3 -3 -19 -25 -35 -50 -17 -25 -33 -49 -38 -55
-41 -54 -107 -147 -107 -151 0 -3 -6 -11 -12 -19 -7 -7 -31 -39 -53 -71 -22
-31 -55 -77 -72 -101 -18 -24 -33 -46 -33 -49 0 -2 -4 -10 -10 -17 -46 -57
-60 -76 -60 -85 0 -6 -4 -12 -8 -14 -5 -1 -35 -41 -68 -88 -32 -47 -67 -94
-76 -104 -10 -11 -18 -25 -18 -32 0 -7 -4 -14 -8 -16 -5 -1 -23 -25 -42 -53
-19 -27 -39 -56 -46 -62 -7 -7 -23 -29 -35 -50 -13 -21 -29 -45 -36 -53 -7 -8
-58 -80 -114 -160 -57 -80 -125 -177 -153 -216 -28 -39 -58 -82 -66 -94 -16
-24 -63 -87 -80 -107 -5 -7 -10 -17 -10 -23 0 -5 -4 -10 -10 -10 -5 0 -10 -5
-10 -11 0 -6 -6 -17 -12 -24 -30 -33 -38 -45 -38 -54 0 -6 -6 -14 -12 -18 -7
-4 -31 -35 -53 -68 -34 -51 -85 -123 -113 -160 -4 -5 -61 -85 -125 -178 -65
-92 -120 -167 -122 -167 -6 0 -95 129 -95 138 0 6 -4 12 -8 14 -5 2 -39 46
-76 98 -37 52 -74 103 -82 113 -7 9 -14 21 -14 26 0 5 -3 11 -7 13 -5 2 -28
32 -53 68 -24 36 -48 70 -53 75 -4 6 -49 69 -99 140 -50 72 -128 181 -172 243
-45 62 -92 130 -105 150 -13 20 -28 39 -33 40 -4 2 -8 8 -8 13 0 5 -26 45 -57
88 -32 44 -65 89 -73 101 -8 12 -30 42 -47 66 -18 23 -33 45 -33 48 0 3 -7 14
-15 23 -8 10 -51 70 -95 133 -44 63 -92 129 -105 145 -14 17 -25 36 -25 43 0
6 -4 12 -8 12 -4 0 -16 15 -27 33 -10 17 -24 37 -29 44 -14 16 -29 35 -41 55
-16 25 -98 142 -107 153 -5 6 -31 42 -58 80 -27 39 -53 75 -57 81 -9 11 -23
33 -54 82 -12 17 -25 32 -29 32 -5 0 -12 10 -16 22 -3 12 -17 33 -30 47 -13
14 -24 31 -24 38 0 6 -4 13 -8 15 -4 2 -28 32 -52 68 -25 36 -49 69 -53 75
-12 15 -76 105 -137 192 -30 43 -57 80 -60 83 -3 3 -9 12 -15 21 -35 57 -80
119 -87 119 -4 0 -8 6 -8 13 0 7 -8 22 -17 33 -10 11 -22 27 -28 36 -5 9 -68
99 -140 199 -71 101 -138 196 -148 212 -10 16 -20 27 -23 24 -5 -5 -27 -129
-40 -227 -3 -25 -8 -54 -10 -65 -2 -11 -7 -40 -10 -65 -3 -25 -8 -53 -10 -63
-3 -10 -7 -32 -9 -50 -2 -18 -6 -50 -10 -72 -10 -67 -26 -168 -32 -208 -6 -45
-11 -72 -13 -72 -1 0 -3 -13 -5 -30 -9 -68 -15 -111 -20 -134 -2 -14 -7 -45
-10 -70 -3 -25 -7 -56 -9 -67 -3 -12 -7 -37 -10 -55 -3 -19 -7 -43 -10 -54 -2
-11 -7 -42 -10 -70 -16 -108 -18 -120 -26 -128 -4 -5 -18 6 -31 25 -13 18 -29
40 -36 48 -7 8 -44 56 -83 105 -39 50 -83 105 -98 124 -15 18 -26 37 -25 42 2
5 -1 9 -5 9 -5 0 -37 37 -73 83 -77 100 -73 94 -109 137 -16 19 -30 38 -30 41
0 3 -10 17 -22 31 -13 13 -34 40 -48 58 -21 28 -61 80 -112 145 -4 6 -24 30
-43 55 -19 25 -41 52 -48 60 -8 8 -27 33 -43 55 -16 22 -34 46 -41 55 -57 71
-112 142 -133 170 -14 18 -30 38 -35 44 -6 6 -22 27 -35 46 -13 19 -29 40 -36
45 -6 6 -33 39 -60 75 -26 36 -54 71 -61 78 -7 8 -10 19 -6 25 16 27 50 72 73
97 14 15 50 58 80 95 30 37 65 79 78 93 13 14 35 41 50 60 15 19 34 42 42 52
8 10 33 39 55 66 22 27 47 55 55 64 8 8 31 36 50 60 19 25 42 52 52 61 10 9
18 19 18 22 0 5 48 63 83 99 9 10 17 20 17 23 0 3 8 13 18 23 9 10 35 40 57
67 22 26 49 58 60 71 11 13 30 36 42 52 12 15 36 43 53 60 16 18 30 36 30 41
0 5 4 11 8 13 4 2 31 31 59 65 28 34 56 68 62 75 28 33 59 69 88 105 70 84
116 139 137 163 11 14 52 63 91 110 38 47 72 87 75 90 3 3 27 32 55 65 27 33
52 62 55 65 3 3 21 25 40 50 19 24 42 52 50 61 8 8 31 35 50 58 19 24 42 52
52 63 9 10 31 37 50 60 18 23 38 46 43 52 18 19 119 140 150 180 17 21 42 51
58 67 15 15 27 32 27 38 0 6 4 11 8 11 4 0 24 21 44 48 20 26 45 56 55 67 22
25 65 76 118 140 22 27 52 63 68 79 15 17 27 34 27 38 0 5 -378 8 -840 8 -462
0 -840 -3 -840 -8 0 -4 -12 -21 -27 -38 -30 -33 -95 -111 -128 -152 -11 -14
-36 -44 -55 -67 -19 -22 -53 -63 -75 -90 -22 -26 -49 -59 -60 -71 -11 -12 -31
-37 -45 -54 -48 -60 -199 -239 -251 -298 -16 -18 -29 -36 -29 -40 0 -4 -23
-32 -50 -62 -27 -30 -53 -59 -58 -65 -35 -46 -100 -123 -114 -136 -10 -9 -18
-19 -18 -22 0 -3 -11 -18 -25 -33 -14 -15 -36 -41 -48 -57 -12 -16 -29 -36
-37 -45 -9 -10 -36 -42 -60 -72 -25 -30 -49 -60 -55 -66 -41 -46 -65 -74 -61
-74 3 0 -8 -13 -22 -29 -36 -38 -57 -62 -132 -156 -36 -44 -74 -89 -85 -100
-11 -11 -33 -37 -48 -58 -16 -20 -38 -48 -50 -61 -24 -27 -33 -37 -92 -111
-22 -27 -47 -57 -55 -66 -8 -9 -31 -36 -50 -60 -38 -46 -89 -107 -105 -125 -5
-6 -26 -31 -46 -55 -20 -24 -53 -64 -73 -87 -20 -24 -36 -48 -36 -54 0 -5 -4
-7 -8 -4 -5 3 -8 39 -8 80 1 42 -2 76 -7 76 -4 0 -4 8 1 18 4 9 7 42 5 72 -2
30 -3 60 -3 65 0 6 1 49 3 98 1 53 -2 87 -8 87 -7 0 -7 3 0 8 12 8 14 452 2
452 -4 0 -4 8 1 18 4 9 7 42 5 72 -4 62 -4 58 0 143 2 34 -1 69 -5 78 -4 9 -4
19 -1 23 10 10 10 76 0 76 -4 0 -5 5 -1 12 12 19 11 78 -1 78 -7 0 -7 3 0 8
13 9 13 304 0 314 -7 5 -7 8 0 8 6 0 10 82 10 225 0 124 -4 225 -8 225 -4 0
-4 8 1 18 6 13 8 112 3 155 -1 4 -334 7 -741 7 l-740 0 0 -3064z"/>
</g>
</svg>
