<svg width="749" height="189" viewBox="0 0 749 189" fill="none" xmlns="http://www.w3.org/2000/svg">
<g opacity="0.05">
<path d="M227.808 0.02171C230.991 -0.137497 234.334 0.578933 237.835 2.171C241.496 3.76307 244.759 6.07156 247.624 9.09649C250.648 11.9622 253.195 15.3852 255.264 19.3653C257.333 23.1863 258.368 27.246 258.368 31.5446C258.686 37.7537 257.333 44.7588 254.309 52.5599C250.171 62.9083 244.441 72.3811 237.119 80.9783C229.797 89.4162 221.441 97.0582 212.05 103.904C202.819 110.591 192.791 116.481 181.968 121.576C171.303 126.511 160.48 130.651 149.498 133.994C138.674 137.337 128.01 139.805 117.505 141.397C107.159 142.989 97.6887 143.706 89.0937 143.546C84.4779 143.546 79.7824 143.228 75.0074 142.591C70.2324 141.954 65.6166 140.999 61.1599 139.726C53.3607 146.89 45.8003 153.975 38.4786 160.98C31.1569 167.826 24.2332 174.512 17.7073 181.04L17.4686 181.278C16.5136 182.393 15.3994 183.507 14.1261 184.622C13.0119 185.895 11.8181 186.93 10.5448 187.726C9.58981 188.204 8.47564 188.522 7.20231 188.682C5.92897 189 4.73522 189.08 3.62105 188.92C2.50688 188.761 1.63146 188.363 0.994794 187.726C0.198959 187.249 -0.119375 186.532 0.0397917 185.577C0.198959 183.985 1.47229 181.278 3.8598 177.458C6.08814 173.796 9.03273 169.418 12.6936 164.323C16.3544 159.388 20.5723 153.895 25.3473 147.845C30.1223 141.795 35.0565 135.666 40.1499 129.457C36.9665 126.909 34.1811 123.884 31.7936 120.382C30.9978 119.745 30.5203 119.029 30.3611 118.233C30.0428 117.755 30.1224 117.277 30.5999 116.8C30.9182 116.641 31.0774 116.641 31.0774 116.8C31.2365 116.959 31.4753 117.118 31.7936 117.277C35.2953 119.825 39.4336 122.133 44.2086 124.203C49.6203 117.516 54.9524 111.068 60.2049 104.859C65.4574 98.491 70.312 92.68 74.7687 87.4262C79.2254 82.1723 83.0454 77.7146 86.2287 74.0528C89.412 70.3911 91.5608 67.8437 92.675 66.4109C98.405 59.7242 104.135 53.1171 109.865 46.5897C115.595 40.0622 120.768 34.0123 125.384 28.4401C130.159 22.8679 134.218 18.0917 137.56 14.1115C140.903 10.1313 143.21 7.26561 144.484 5.51434C145.28 4.71831 145.678 3.84267 145.678 2.88743C145.996 0.340123 147.269 -0.2171 149.498 1.21576C151.248 2.33021 152.522 3.52426 153.318 4.79791C153.954 5.43474 154.511 6.07156 154.989 6.70839C155.626 7.18601 156.183 7.82284 156.66 8.61887C159.525 12.4398 159.286 16.022 155.944 19.3653L154.75 20.5594C149.657 26.2908 144.484 32.1019 139.231 37.9925C134.615 43.0871 129.522 48.7389 123.951 54.948C118.38 60.9979 112.969 67.0477 107.716 73.0976C96.8929 85.3565 87.7408 95.8641 80.2599 104.62C72.7791 113.218 65.9349 121.258 59.7274 128.74C60.0457 128.899 60.4437 128.979 60.9212 128.979C61.3987 128.979 61.7966 129.059 62.1149 129.218C67.8449 123.805 73.8933 118.153 80.2599 112.262C86.7858 106.372 93.3912 100.402 100.076 94.3516C106.761 88.3018 113.446 82.2519 120.131 76.2021C126.975 70.1522 133.66 64.3412 140.186 58.769C154.989 46.0324 167.165 35.9228 176.715 28.4401C186.424 20.7982 194.383 14.9075 200.59 10.7682C206.957 6.62879 212.13 3.92227 216.109 2.64862C220.088 1.21576 223.988 0.340123 227.808 0.02171ZM49.4611 141.158C50.257 140.522 50.9732 139.885 51.6099 139.248C52.2466 138.611 52.9628 137.895 53.7586 137.099C53.4403 137.099 53.2016 137.019 53.0424 136.86L49.4611 141.158ZM240.462 46.8285C243.167 41.2562 244.918 36.082 245.714 31.3058C246.51 26.3704 246.51 22.1514 245.714 18.6489C244.918 15.1463 243.327 12.5194 240.939 10.7682C238.551 8.85768 235.607 8.06165 232.105 8.38006C230.514 8.53927 228.922 8.77808 227.33 9.09649C225.739 9.2557 223.749 9.89252 221.361 11.007C218.974 12.1214 215.95 13.7931 212.289 16.022C208.628 18.2509 203.933 21.435 198.203 25.5744C192.473 29.7138 185.469 35.0472 177.193 41.5746C169.075 47.9429 159.207 55.8236 147.588 65.2168C142.494 69.3562 137.003 73.8936 131.114 78.829C125.225 83.7644 119.017 89.0182 112.491 94.5905C105.965 100.163 99.2008 105.974 92.1975 112.024C85.3533 118.073 78.5091 124.203 71.6649 130.412C74.8483 130.73 78.0316 130.969 81.2149 131.128C84.3983 131.128 87.5816 131.049 90.765 130.89C98.7233 130.571 107.398 129.457 116.789 127.546C126.18 125.636 135.65 123.009 145.2 119.666C154.909 116.322 164.539 112.262 174.089 107.486C183.798 102.71 192.791 97.297 201.068 91.2471C209.504 85.0381 217.144 78.2718 223.988 70.9483C230.832 63.4656 236.323 55.4256 240.462 46.8285Z" fill="white"/>
<path d="M298 117.755C298.16 117.437 298.557 117.198 299.194 117.039C299.831 116.72 300.149 117.039 300.149 117.994C300.149 119.586 299.831 120.86 299.194 121.815C298.717 122.611 298.398 123.088 298.239 123.248C296.966 124.521 295.454 125.954 293.703 127.546C292.111 129.138 288.769 132.243 283.675 136.86C278.423 141.318 273.011 145.457 267.44 149.278C261.869 152.94 256.139 156.044 250.25 158.592C244.52 160.98 238.949 162.174 233.538 162.174C227.808 162.174 223.351 160.661 220.168 157.636C217.144 154.611 215.631 150.392 215.631 144.979C215.631 140.84 216.507 136.462 218.258 131.845C219.849 127.228 222.078 122.611 224.943 117.994C227.808 113.377 231.15 108.999 234.97 104.859C238.631 100.561 242.451 96.8194 246.43 93.6352C250.569 90.2919 254.707 87.665 258.845 85.7545C262.984 83.844 266.963 82.8888 270.783 82.8888C272.056 82.8888 273.727 83.1276 275.797 83.6052C277.707 83.9236 279.617 84.5604 281.527 85.5157C283.437 86.4709 285.028 87.8242 286.302 89.5754C287.734 91.1675 288.45 93.2372 288.45 95.7845C288.45 99.9239 287.416 103.745 285.347 107.247C283.118 110.75 280.333 113.934 276.99 116.8C273.648 119.506 269.987 121.974 266.008 124.203C261.869 126.273 257.89 128.024 254.07 129.457C250.091 130.73 246.43 131.765 243.088 132.561C239.904 133.198 237.517 133.437 235.925 133.278C233.697 136.939 232.026 140.362 230.911 143.546C229.638 146.731 229.001 149.676 229.001 152.382C229.001 153.338 229.24 154.054 229.718 154.532C230.195 154.85 231.628 155.009 234.015 155.009C242.292 155.009 250.171 153.019 257.652 149.039C265.292 145.059 272.454 140.283 279.139 134.711C285.824 128.979 292.111 123.327 298 117.755ZM282.004 94.1128C282.004 92.5208 281.208 91.7247 279.617 91.7247C277.388 91.7247 274.682 92.7596 271.499 94.8293C268.157 96.7397 264.655 99.3667 260.994 102.71C257.333 105.894 253.752 109.635 250.25 113.934C246.589 118.073 243.247 122.292 240.223 126.591C244.839 125.477 249.614 123.646 254.548 121.098C259.482 118.392 263.939 115.447 267.918 112.262C272.056 109.078 275.478 105.894 278.184 102.71C280.731 99.3667 282.004 96.5009 282.004 94.1128Z" fill="white"/>
<path d="M331.187 94.5905C331.187 94.9089 330.789 95.7049 329.993 96.9786C329.197 98.2522 328.163 99.7647 326.889 101.516L304.208 134.233C309.46 129.138 314.713 124.362 319.965 119.904C325.377 115.287 330.47 111.148 335.245 107.486C340.18 103.665 344.716 100.402 348.854 97.695C352.993 94.8293 356.415 92.68 359.12 91.2471C360.075 90.7695 361.19 90.7695 362.463 91.2471C363.736 91.5655 364.85 92.2024 365.805 93.1576C366.76 94.1128 367.477 95.2273 367.954 96.5009C368.591 97.6154 368.83 98.6502 368.671 99.6055C368.511 99.9239 368.113 100.242 367.477 100.561C366.999 100.879 364.612 102.232 360.314 104.62C356.176 106.849 351.48 109.556 346.228 112.74C340.975 115.765 335.882 118.869 330.948 122.054C326.014 125.238 322.592 127.785 320.682 129.696C320.363 130.014 320.045 130.253 319.727 130.412C321.318 130.73 322.83 131.208 324.263 131.845C325.695 132.322 326.73 133.278 327.367 134.711C328.799 137.895 330.391 141.636 332.142 145.935C334.052 150.233 336.28 154.373 338.827 158.353C341.373 162.333 344.159 165.676 347.183 168.383C350.207 171.248 353.629 172.681 357.449 172.681C358.723 172.681 360.394 172.283 362.463 171.487C364.532 170.85 365.805 170.532 366.283 170.532C367.238 170.532 367.715 170.93 367.715 171.726C367.715 172.204 367.238 172.841 366.283 173.637C365.328 174.433 364.055 175.149 362.463 175.786C361.03 176.582 359.359 177.219 357.449 177.696C355.539 178.333 353.55 178.652 351.48 178.652C345.91 178.652 340.896 177.139 336.439 174.114C331.983 171.089 328.083 167.427 324.74 163.129C321.398 158.99 318.533 154.611 316.145 149.994C313.917 145.377 312.246 141.477 311.132 138.293C311.132 138.452 311.052 138.531 310.893 138.531C310.575 138.85 309.301 140.044 307.073 142.114C304.845 144.183 302.218 146.651 299.194 149.517C296.329 152.382 293.385 155.328 290.36 158.353C287.336 161.378 284.869 164.084 282.959 166.472C281.527 168.542 280.492 170.134 279.855 171.248C279.059 172.363 278.502 173.159 278.184 173.637C277.866 174.114 277.627 174.433 277.468 174.592C277.309 174.751 277.07 174.831 276.752 174.831C275.956 174.99 275.08 174.592 274.125 173.637C273.011 172.841 271.897 171.328 270.783 169.099C270.305 167.985 270.544 166.154 271.499 163.607C273.25 159.149 275.956 153.577 279.617 146.89C283.277 140.203 287.575 132.88 292.509 124.919C297.443 116.959 303.014 108.362 309.222 99.1278C315.588 89.7347 319.17 84.64 319.965 83.844C321.557 82.5704 322.671 81.9335 323.308 81.9335C324.104 81.9335 324.979 82.4111 325.934 83.3664C326.889 84.3216 327.765 85.4361 328.56 86.7097C329.356 87.9834 329.993 89.3366 330.47 90.7695C330.948 92.2024 331.187 93.476 331.187 94.5905Z" fill="white"/>
<path d="M453.904 126.83C454.223 126.511 454.621 126.273 455.098 126.113C455.735 125.795 456.053 126.113 456.053 127.069C456.053 128.661 455.735 129.934 455.098 130.89C454.621 131.686 454.302 132.163 454.143 132.322C448.095 139.009 442.365 145.059 436.953 150.472C431.541 155.726 426.607 159.945 422.151 163.129C417.853 166.472 414.113 168.144 410.929 168.144C408.86 168.144 406.552 167.029 404.006 164.801C401.618 162.731 400.424 158.91 400.424 153.338C400.424 150.631 401.538 146.89 403.767 142.114C406.154 137.337 409.019 132.322 412.362 127.069C407.109 132.641 402.016 137.895 397.082 142.83C392.148 147.765 387.532 152.144 383.234 155.965C378.937 159.626 375.037 162.572 371.535 164.801C368.034 167.029 365.089 168.144 362.702 168.144C360.792 168.144 358.563 167.029 356.017 164.801C353.47 162.731 352.197 158.91 352.197 153.338C352.197 151.427 352.833 148.96 354.107 145.935C355.38 142.75 356.972 139.407 358.882 135.905C360.951 132.243 363.975 128.024 367.954 123.248C372.093 118.312 374.56 115.845 375.355 115.845C376.151 115.845 377.027 116.322 377.982 117.277C378.937 118.073 379.812 119.188 380.608 120.621C381.404 121.894 382.041 123.248 382.518 124.681C382.996 126.113 383.234 127.307 383.234 128.263C383.234 128.74 382.2 130.412 380.131 133.278C378.221 136.143 376.708 138.213 375.594 139.487C374.639 140.76 373.684 142.352 372.729 144.263C371.774 146.014 370.262 148.641 368.193 152.144C366.283 155.487 365.328 157.875 365.328 159.308C365.328 159.786 365.487 160.024 365.805 160.024C367.238 160.024 369.466 158.99 372.491 156.92C375.515 154.691 379.016 151.905 382.996 148.562C386.975 145.059 391.193 141.158 395.649 136.86C400.106 132.402 404.563 127.944 409.019 123.486C413.476 119.029 417.694 114.73 421.673 110.591C425.652 106.451 429.154 102.869 432.178 99.8443C434.406 97.1378 436.396 94.9885 438.147 93.3964C439.898 91.6451 441.171 90.7695 441.967 90.7695C442.763 90.7695 443.638 91.2471 444.593 92.2024C445.548 93.1576 446.424 94.272 447.219 95.5457C448.015 96.8194 448.652 98.2522 449.129 99.8443C449.607 101.277 449.846 102.471 449.846 103.426C449.846 103.904 448.891 105.496 446.981 108.203C445.23 110.75 443.001 113.854 440.296 117.516C437.749 121.178 434.884 125.158 431.701 129.457C428.517 133.755 425.573 137.895 422.867 141.875C420.32 145.855 418.092 149.437 416.182 152.621C414.431 155.646 413.556 157.875 413.556 159.308C413.556 159.786 413.715 160.024 414.033 160.024C416.421 160.024 419.286 158.671 422.628 155.965C426.13 153.258 430.268 149.517 435.043 144.741C439.818 139.964 446.105 133.994 453.904 126.83Z" fill="white"/>
<path d="M533.408 125.875C533.568 125.556 533.965 125.317 534.602 125.158C535.239 124.84 535.557 125.158 535.557 126.113C535.557 127.705 535.239 128.979 534.602 129.934C534.125 130.73 533.806 131.208 533.647 131.367C525.848 139.805 518.606 147.288 511.921 153.815C505.395 160.343 499.347 165.756 493.776 170.054C488.364 174.353 484.146 176.502 481.122 176.502C478.416 176.502 476.188 175.149 474.437 172.443C472.686 169.736 471.811 166.631 471.811 163.129C471.811 160.9 472.766 157.716 474.676 153.577C476.586 149.437 479.053 144.82 482.077 139.726C478.734 143.228 475.233 146.731 471.572 150.233C468.07 153.577 464.648 156.601 461.306 159.308C458.122 161.855 455.178 163.925 452.472 165.517C449.925 167.268 447.856 168.144 446.264 168.144C445.309 168.144 443.956 167.826 442.206 167.189C440.614 166.711 438.943 165.756 437.192 164.323C435.6 163.049 434.247 161.218 433.133 158.83C431.86 156.283 431.223 153.099 431.223 149.278C431.223 146.094 432.178 142.432 434.088 138.293C435.998 133.994 438.545 129.696 441.728 125.397C444.911 121.098 448.493 116.879 452.472 112.74C456.451 108.601 460.51 104.939 464.648 101.755C468.786 98.4114 472.845 95.7845 476.824 93.874C480.804 91.8043 484.305 90.7695 487.329 90.7695C489.876 90.7695 492.184 91.2471 494.253 92.2024C496.482 93.1576 498.392 94.4313 499.983 96.0233C501.575 97.6154 502.769 99.3667 503.565 101.277C504.52 103.188 504.997 105.178 504.997 107.247C504.997 107.407 504.917 107.486 504.758 107.486C504.758 107.486 504.758 107.566 504.758 107.725C508.26 103.745 510.727 101.755 512.16 101.755C512.955 101.755 513.831 102.232 514.786 103.188C515.741 103.984 516.616 105.098 517.412 106.531C518.208 107.805 518.845 109.158 519.322 110.591C519.8 112.024 520.038 113.218 520.038 114.173C520.038 114.65 519.083 116.243 517.173 118.949C515.422 121.496 513.194 124.601 510.488 128.263C507.942 131.924 505.077 135.905 501.893 140.203C498.71 144.343 495.765 148.402 493.06 152.382C490.513 156.203 488.284 159.706 486.374 162.89C484.624 166.074 483.748 168.383 483.748 169.816C483.748 170.134 483.907 170.293 484.226 170.293C485.181 170.293 487.25 168.94 490.433 166.233C493.617 163.686 497.357 160.422 501.655 156.442C505.952 152.303 510.568 147.765 515.502 142.83C520.595 137.895 524.256 134.392 526.485 132.322C528.872 130.094 531.18 127.944 533.408 125.875ZM444.832 160.98C446.742 160.98 449.289 160.024 452.472 158.114C455.655 156.044 459.157 153.417 462.977 150.233C466.956 147.049 471.094 143.387 475.392 139.248C479.689 134.949 483.907 130.651 488.046 126.352C487.25 126.034 486.534 125.556 485.897 124.919C485.419 124.282 485.181 123.566 485.181 122.77C485.181 122.292 485.817 121.417 487.091 120.143C488.523 118.869 490.035 117.437 491.627 115.845C493.219 114.093 494.651 112.183 495.924 110.113C497.357 108.043 498.073 106.053 498.073 104.143C498.073 102.392 497.198 101.516 495.447 101.516C494.014 101.516 491.707 102.551 488.523 104.62C485.34 106.69 481.759 109.476 477.779 112.979C473.959 116.322 469.98 120.143 465.842 124.442C461.863 128.581 458.122 132.8 454.621 137.099C451.278 141.397 448.493 145.457 446.264 149.278C444.195 153.099 443.161 156.363 443.161 159.069C443.161 160.343 443.718 160.98 444.832 160.98Z" fill="white"/>
<path d="M579.965 166.233V166.472C577.736 167.587 575.667 168.144 573.757 168.144C571.688 168.144 569.38 167.029 566.833 164.801C564.446 162.731 563.252 158.91 563.252 153.338C563.252 150.631 564.366 146.89 566.595 142.114C568.982 137.337 571.847 132.322 575.19 127.069C569.937 132.641 564.844 137.895 559.91 142.83C554.975 147.765 550.36 152.144 546.062 155.965C541.765 159.626 537.865 162.572 534.363 164.801C530.862 167.029 527.917 168.144 525.53 168.144C523.62 168.144 521.391 167.029 518.845 164.801C516.298 162.731 515.025 158.91 515.025 153.338C515.025 151.427 515.661 148.96 516.935 145.935C518.208 142.75 519.8 139.407 521.71 135.905C523.779 132.243 526.803 128.024 530.782 123.248C534.92 118.312 537.388 115.845 538.183 115.845C538.979 115.845 539.855 116.322 540.81 117.277C541.765 118.073 542.64 119.188 543.436 120.621C544.232 121.894 544.868 123.248 545.346 124.681C545.823 126.113 546.062 127.307 546.062 128.263C546.062 128.74 545.028 130.412 542.958 133.278C541.048 136.143 539.536 138.213 538.422 139.487C537.467 140.76 536.512 142.352 535.557 144.263C534.602 146.014 533.09 148.641 531.021 152.144C529.111 155.487 528.156 157.875 528.156 159.308C528.156 159.786 528.315 160.024 528.633 160.024C530.066 160.024 532.294 158.99 535.318 156.92C538.343 154.691 541.844 151.905 545.823 148.562C549.803 145.059 554.02 141.158 558.477 136.86C562.934 132.402 567.391 127.944 571.847 123.486C576.304 119.029 580.522 114.73 584.501 110.591C588.48 106.451 591.982 102.869 595.006 99.8443C597.234 97.1378 599.224 94.9885 600.975 93.3964C602.726 91.6451 603.999 90.7695 604.795 90.7695C605.591 90.7695 606.466 91.2471 607.421 92.2024C608.376 93.1576 609.251 94.272 610.047 95.5457C610.843 96.8194 611.48 98.2522 611.957 99.8443C612.435 101.277 612.673 102.471 612.673 103.426C612.673 103.904 611.719 105.496 609.808 108.203C608.058 110.75 605.829 113.854 603.123 117.516C600.577 121.178 597.712 125.158 594.528 129.457C591.345 133.755 588.401 137.895 585.695 141.875C583.148 145.855 580.999 149.358 579.248 152.382C577.816 154.611 576.94 156.442 576.622 157.875V158.114C576.463 158.592 576.383 158.99 576.383 159.308C576.383 159.786 576.543 160.024 576.861 160.024C578.293 160.024 580.522 158.99 583.546 156.92C586.57 154.691 590.072 151.905 594.051 148.562C598.03 145.059 602.248 141.158 606.705 136.86C611.161 132.402 615.618 127.944 620.075 123.486C624.531 119.029 628.749 114.73 632.729 110.591C636.708 106.451 640.209 102.869 643.234 99.8443C645.462 97.1378 647.451 94.9885 649.202 93.3964C650.953 91.6451 652.227 90.7695 653.022 90.7695C653.818 90.7695 654.694 91.2471 655.649 92.2024C656.604 93.1576 657.479 94.272 658.275 95.5457C659.071 96.8194 659.707 98.2522 660.185 99.8443C660.662 101.277 660.901 102.471 660.901 103.426C660.901 103.904 659.946 105.496 658.036 108.203C656.285 110.75 654.057 113.854 651.351 117.516C648.804 121.178 645.939 125.158 642.756 129.457C639.573 133.755 636.628 137.895 633.922 141.875C631.376 145.855 629.147 149.437 627.237 152.621C625.486 155.646 624.611 157.875 624.611 159.308C624.611 159.786 624.77 160.024 625.089 160.024C627.476 160.024 630.341 158.671 633.684 155.965C637.185 153.258 641.324 149.517 646.099 144.741C650.874 139.964 657.399 134.233 665.676 127.546C665.994 127.228 666.392 126.989 666.87 126.83C667.507 126.511 667.825 126.83 667.825 127.785C667.825 129.377 667.507 130.651 666.87 131.606C666.392 132.402 666.074 132.88 665.915 133.039C659.389 139.248 653.42 145.059 648.009 150.472C642.597 155.726 637.663 159.945 633.206 163.129C628.909 166.472 625.168 168.144 621.985 168.144C619.916 168.144 617.608 167.029 615.061 164.801C612.673 162.731 611.48 158.91 611.48 153.338C611.48 150.631 612.594 146.89 614.822 142.114C617.21 137.337 620.075 132.322 623.417 127.069C618.165 132.641 613.071 137.895 608.137 142.83C603.203 147.765 598.587 152.144 594.29 155.965C589.992 159.626 586.093 162.572 582.591 164.801C581.636 165.437 580.76 165.915 579.965 166.233Z" fill="white"/>
<path d="M746.851 125.875C747.01 125.556 747.408 125.317 748.045 125.158C748.682 124.84 749 125.158 749 126.113C749 127.705 748.682 128.979 748.045 129.934C747.568 130.73 747.249 131.208 747.09 131.367C739.291 139.805 732.049 147.288 725.364 153.815C718.838 160.343 712.789 165.756 707.219 170.054C701.807 174.353 697.589 176.502 694.565 176.502C691.859 176.502 689.631 175.149 687.88 172.443C686.129 169.736 685.254 166.631 685.254 163.129C685.254 160.9 686.209 157.716 688.119 153.577C690.029 149.437 692.496 144.82 695.52 139.726C692.177 143.228 688.676 146.731 685.015 150.233C681.513 153.577 678.091 156.601 674.749 159.308C671.565 161.855 668.621 163.925 665.915 165.517C663.368 167.268 661.299 168.144 659.707 168.144C658.752 168.144 657.399 167.826 655.649 167.189C654.057 166.711 652.386 165.756 650.635 164.323C649.043 163.049 647.69 161.218 646.576 158.83C645.303 156.283 644.666 153.099 644.666 149.278C644.666 146.094 645.621 142.432 647.531 138.293C649.441 133.994 651.988 129.696 655.171 125.397C658.354 121.098 661.936 116.879 665.915 112.74C669.894 108.601 673.953 104.939 678.091 101.755C682.229 98.4114 686.288 95.7845 690.267 93.874C694.247 91.8043 697.748 90.7695 700.772 90.7695C703.319 90.7695 705.627 91.2471 707.696 92.2024C709.924 93.1576 711.835 94.4313 713.426 96.0233C715.018 97.6154 716.212 99.3667 717.007 101.277C717.962 103.188 718.44 105.178 718.44 107.247C718.44 107.407 718.36 107.486 718.201 107.486C718.201 107.486 718.201 107.566 718.201 107.725C721.703 103.745 724.17 101.755 725.602 101.755C726.398 101.755 727.274 102.232 728.229 103.188C729.184 103.984 730.059 105.098 730.855 106.531C731.651 107.805 732.287 109.158 732.765 110.591C733.242 112.024 733.481 113.218 733.481 114.173C733.481 114.65 732.526 116.243 730.616 118.949C728.865 121.496 726.637 124.601 723.931 128.263C721.385 131.924 718.52 135.905 715.336 140.203C712.153 144.343 709.208 148.402 706.502 152.382C703.956 156.203 701.727 159.706 699.817 162.89C698.067 166.074 697.191 168.383 697.191 169.816C697.191 170.134 697.35 170.293 697.669 170.293C698.624 170.293 700.693 168.94 703.876 166.233C707.06 163.686 710.8 160.422 715.097 156.442C719.395 152.303 724.011 147.765 728.945 142.83C734.038 137.895 737.699 134.392 739.927 132.322C742.315 130.094 744.623 127.944 746.851 125.875ZM658.275 160.98C660.185 160.98 662.732 160.024 665.915 158.114C669.098 156.044 672.6 153.417 676.42 150.233C680.399 147.049 684.537 143.387 688.835 139.248C693.132 134.949 697.35 130.651 701.489 126.352C700.693 126.034 699.977 125.556 699.34 124.919C698.862 124.282 698.624 123.566 698.624 122.77C698.624 122.292 699.26 121.417 700.534 120.143C701.966 118.869 703.478 117.437 705.07 115.845C706.662 114.093 708.094 112.183 709.367 110.113C710.8 108.043 711.516 106.053 711.516 104.143C711.516 102.392 710.641 101.516 708.89 101.516C707.457 101.516 705.149 102.551 701.966 104.62C698.783 106.69 695.202 109.476 691.222 112.979C687.402 116.322 683.423 120.143 679.285 124.442C675.306 128.581 671.565 132.8 668.064 137.099C664.721 141.397 661.936 145.457 659.707 149.278C657.638 153.099 656.604 156.363 656.604 159.069C656.604 160.343 657.161 160.98 658.275 160.98Z" fill="white"/>
</g>
</svg>
