<svg width="27" height="27" viewBox="0 0 27 27" fill="none" xmlns="http://www.w3.org/2000/svg">
<path d="M0 1.38655C0 0.630252 0.630252 0 1.38655 0H10.9412C11.6975 0 12.3277 0.630252 12.3277 1.38655V10.9412C12.3277 11.6975 11.6975 12.3277 10.9412 12.3277H1.38655C0.630252 12.3277 0 11.6975 0 10.9412V1.38655ZM2.82353 9.37815H4.81513L6.15126 7.33613L7.4874 9.37815H9.5042L7.13445 5.94958L9.2521 2.94958H7.31093L6.20168 4.61344L5.06723 2.94958H3.05042L5.16807 5.97479L2.82353 9.37815ZM14.6723 16.0588C14.6723 15.3025 15.3025 14.6723 16.0588 14.6723H25.6134C26.3697 14.6723 27 15.3025 27 16.0588V25.6134C27 26.3697 26.3697 27 25.6134 27H16.0588C15.3025 27 14.6723 26.3697 14.6723 25.6134V16.0588ZM19.916 17.4454V19.916H17.4454V21.7563H19.916V24.2269H21.7563V21.7563H24.2269V19.916H21.7563V17.4454H19.916ZM14.6723 1.38655C14.6723 0.630252 15.3025 0 16.0588 0H25.6134C26.3697 0 27 0.630252 27 1.38655V10.9412C27 11.6975 26.3697 12.3277 25.6134 12.3277H16.0588C15.3025 12.3277 14.6723 11.6975 14.6723 10.9412V1.38655ZM20.8487 7.86555C20.2437 7.86555 19.7395 8.36975 19.7395 8.97479C19.7395 9.57983 20.2437 10.084 20.8487 10.084C21.4538 10.084 21.958 9.57983 21.958 8.97479C21.9328 8.34454 21.4538 7.86555 20.8487 7.86555ZM20.8487 2.26891C20.2437 2.26891 19.7395 2.77311 19.7395 3.37815C19.7395 3.98319 20.2437 4.48739 20.8487 4.48739C21.4538 4.48739 21.958 3.98319 21.958 3.37815C21.958 2.77311 21.4538 2.26891 20.8487 2.26891ZM24.5294 6.93277V5.42017H17.1681V6.93277H24.5294ZM9.47899 21.8571V19.8151H2.87395V21.8571H9.47899ZM0 16.0588C0 15.3025 0.630252 14.6723 1.38655 14.6723H10.9412C11.6975 14.6723 12.3277 15.3025 12.3277 16.0588V25.6134C12.3277 26.3697 11.6975 27 10.9412 27H1.38655C0.630252 27 0 26.3697 0 25.6134V16.0588Z" fill="white"/>
</svg>
