<svg width="683" height="221" viewBox="0 0 683 221" fill="none" xmlns="http://www.w3.org/2000/svg">
<g opacity="0.05">
<path d="M31.2308 80.9949C35.6229 75.8348 40.6965 70.2194 46.4516 64.1487C52.964 57.3192 58.7949 51.3244 63.9442 46.1643C69.0935 40.8525 73.2584 36.6789 76.4389 33.6435C79.6194 30.6082 81.3611 29.0905 81.664 29.0905C81.9669 29.0905 82.4212 29.2423 83.027 29.5458C84.2386 30.4564 85.1473 31.2911 85.7531 32.05C86.5104 32.8088 87.5705 34.7818 88.9336 37.9689C89.388 39.183 89.6151 40.1695 89.6151 40.9283C89.6151 41.6872 88.1006 43.8878 85.0716 47.5302C82.0426 51.0209 78.0291 55.498 73.0312 60.9616C68.0334 66.2734 62.354 72.2682 55.993 78.946C53.4183 81.526 45.0885 90.6321 31.0036 106.264C17.0701 121.896 9.95192 131.23 9.64902 134.265C9.64902 135.024 10.1791 135.403 11.2393 135.403C13.2081 135.403 16.9944 133.582 22.5981 129.94C28.2018 126.146 35.0171 121.213 43.044 115.142C49.8592 109.831 56.5231 104.519 63.0355 99.2069C69.6993 93.8951 75.4545 89.0385 80.3009 84.6373C88.9336 76.8971 96.7333 69.9917 103.7 63.9211C110.818 57.8504 116.725 52.9938 121.42 49.3514C126.266 45.5572 129.371 43.6601 130.734 43.6601C131.491 43.6601 132.4 43.8878 133.46 44.3431C133.915 44.4949 134.445 44.7225 135.05 45.0261C136.565 45.9367 138.004 47.0749 139.367 48.4408C140.73 49.8067 141.866 51.2485 142.774 52.7662C143.835 54.2838 144.365 55.5739 144.365 56.6362L140.048 62.0998C137.019 65.7423 133.082 70.5988 128.235 76.6695C123.389 82.7402 117.861 89.7215 111.651 97.6133C105.593 105.505 99.308 113.777 92.7956 122.427C86.2832 130.926 79.998 139.501 73.94 148.152C68.9421 155.133 64.3985 161.735 60.3094 167.957C56.5231 173.876 53.4941 178.961 51.2223 183.21C48.3447 188.218 46.2244 192.24 44.8614 195.275C43.4983 198.463 42.4382 201.194 41.6809 203.471C41.0751 205.899 40.4693 208.176 39.8635 210.3C39.4091 212.577 38.5762 215.309 37.3645 218.496C37.0616 218.951 36.5316 219.482 35.7743 220.089C35.1685 220.696 34.487 221 33.7297 221C32.9725 221 32.2909 220.393 31.6851 219.179C31.0793 218.116 30.5493 216.751 30.0949 215.081C29.6405 213.563 29.2619 211.894 28.959 210.073C28.8076 208.403 28.7318 207.037 28.7318 205.975C28.7318 200.967 29.6405 195.731 31.458 190.267C33.4268 184.955 35.9258 179.492 38.9548 173.876C40.9236 170.234 43.1197 166.516 45.5429 162.721C49.1777 156.499 53.2669 149.973 57.8104 143.143C62.9598 135.252 68.2605 127.436 73.7128 119.695C86.4347 101.635 101.05 82.5125 117.558 62.3275C105.896 70.9782 94.7645 79.9325 84.1629 89.1903C78.5592 94.0468 72.1983 99.6622 65.0801 106.036C58.1133 112.259 51.1466 118.254 44.1798 124.021C36.7587 129.94 30.2464 134.645 24.6427 138.135C19.039 141.626 14.5712 143.371 11.2393 143.371C8.36169 143.371 5.63557 142.309 3.0609 140.184C0.637688 138.059 -0.346743 134.796 0.10761 130.395C0.561963 126.146 2.60655 120.91 6.24137 114.687C10.0276 108.313 14.7984 101.408 20.5535 93.9709C23.4311 90.4803 26.9902 86.1549 31.2308 80.9949Z" fill="white"/>
<path d="M190.254 154.298C190.406 153.995 190.784 153.767 191.39 153.615C191.996 153.312 192.299 153.615 192.299 154.526C192.299 156.044 191.996 157.258 191.39 158.168C190.936 158.927 190.633 159.383 190.481 159.534C183.06 167.578 176.169 174.711 169.808 180.933C163.599 187.156 157.844 192.316 152.543 196.414C147.394 200.511 143.38 202.56 140.503 202.56C137.928 202.56 135.808 201.27 134.142 198.69C132.476 196.11 131.643 193.151 131.643 189.812C131.643 187.687 132.551 184.652 134.369 180.706C136.186 176.76 138.534 172.359 141.411 167.502C138.231 170.841 134.899 174.18 131.416 177.519C128.084 180.706 124.827 183.589 121.647 186.169C118.618 188.598 115.816 190.571 113.241 192.088C110.818 193.758 108.849 194.593 107.335 194.593C106.426 194.593 105.139 194.289 103.473 193.682C101.958 193.227 100.368 192.316 98.7022 190.95C97.1877 189.736 95.9003 187.991 94.8402 185.714C93.6286 183.286 93.0228 180.251 93.0228 176.608C93.0228 173.573 93.9315 170.082 95.7489 166.136C97.5663 162.038 99.9895 157.941 103.019 153.843C106.048 149.745 109.455 145.724 113.241 141.778C117.028 137.832 120.89 134.341 124.827 131.306C128.765 128.119 132.627 125.614 136.413 123.793C140.2 121.82 143.532 120.834 146.409 120.834C148.832 120.834 151.028 121.289 152.997 122.2C155.118 123.11 156.935 124.324 158.45 125.842C159.964 127.36 161.1 129.029 161.857 130.85C162.766 132.672 163.22 134.569 163.22 136.542C163.22 136.693 163.145 136.769 162.993 136.769C162.993 136.769 162.993 136.845 162.993 136.997C166.325 133.203 168.673 131.306 170.036 131.306C170.793 131.306 171.626 131.761 172.535 132.672C173.443 133.43 174.276 134.493 175.033 135.859C175.791 137.073 176.397 138.363 176.851 139.729C177.305 141.095 177.532 142.233 177.532 143.143C177.532 143.599 176.624 145.116 174.806 147.696C173.14 150.125 171.02 153.084 168.445 156.575C166.022 160.066 163.296 163.86 160.267 167.957C157.238 171.903 154.436 175.773 151.861 179.568C149.438 183.21 147.318 186.549 145.501 189.584C143.835 192.62 143.002 194.82 143.002 196.186C143.002 196.49 143.153 196.641 143.456 196.641C144.365 196.641 146.334 195.351 149.363 192.771C152.392 190.343 155.951 187.232 160.04 183.438C164.129 179.492 168.521 175.166 173.216 170.462C178.062 165.757 181.546 162.418 183.666 160.445C185.938 158.32 188.134 156.271 190.254 154.298ZM105.972 187.763C107.789 187.763 110.212 186.852 113.241 185.031C116.271 183.058 119.602 180.554 123.237 177.519C127.024 174.483 130.961 170.993 135.05 167.047C139.14 162.949 143.153 158.851 147.091 154.754C146.334 154.45 145.652 153.995 145.046 153.388C144.592 152.781 144.365 152.098 144.365 151.339C144.365 150.884 144.97 150.049 146.182 148.835C147.545 147.621 148.984 146.255 150.498 144.737C152.013 143.068 153.376 141.246 154.588 139.273C155.951 137.3 156.632 135.403 156.632 133.582C156.632 131.913 155.799 131.078 154.133 131.078C152.77 131.078 150.574 132.064 147.545 134.037C144.516 136.01 141.108 138.666 137.322 142.005C133.687 145.192 129.901 148.835 125.963 152.932C122.177 156.878 118.618 160.9 115.286 164.998C112.106 169.096 109.455 172.966 107.335 176.608C105.366 180.251 104.382 183.362 104.382 185.942C104.382 187.156 104.912 187.763 105.972 187.763Z" fill="white"/>
<path d="M326.56 156.347C326.863 156.044 327.242 155.816 327.696 155.664C328.302 155.361 328.605 155.664 328.605 156.575C328.605 158.093 328.378 159.307 327.923 160.217C327.469 160.976 327.09 161.431 326.787 161.583C324.516 163.86 322.85 165.605 321.789 166.819C320.729 167.882 318.003 170.613 313.611 175.015C309.37 179.264 305.206 183.134 301.116 186.625C297.027 190.115 293.165 192.923 289.53 195.048C286.047 197.324 283.094 198.463 280.671 198.463C277.944 198.463 275.748 197.173 274.082 194.593C272.568 192.012 271.811 189.129 271.811 185.942C271.811 183.058 272.871 179.416 274.991 175.015C277.263 170.613 279.762 166.288 282.488 162.038C285.365 157.637 288.092 153.691 290.666 150.201C293.241 146.71 294.907 144.434 295.664 143.371C296.876 141.702 297.784 140.336 298.39 139.273C299.148 138.211 299.526 137.376 299.526 136.769C299.526 136.314 299.299 136.086 298.845 136.086C296.876 136.086 293.847 137.452 289.758 140.184C285.82 142.764 281.428 146.103 276.581 150.201C271.886 154.147 266.964 158.548 261.815 163.404C256.817 168.109 252.198 172.51 247.957 176.608C243.716 180.706 240.233 184.196 237.507 187.08C234.781 189.964 233.342 191.557 233.191 191.861L233.418 190.95C233.266 191.254 233.191 191.557 233.191 191.861C230.465 191.861 228.268 190.571 226.603 187.991C225.088 185.411 224.331 182.451 224.331 179.112C224.331 176.229 225.542 172.51 227.966 167.957C230.54 163.404 233.418 158.851 236.598 154.298C239.779 149.745 242.808 145.648 245.685 142.005C248.563 138.363 250.38 136.01 251.138 134.948C252.198 133.43 253.031 132.14 253.637 131.078C254.394 129.864 254.772 128.953 254.772 128.346C254.772 127.891 254.545 127.663 254.091 127.663C252.122 127.663 248.942 129.257 244.549 132.444C240.157 135.631 235.311 139.577 230.01 144.282C224.709 148.987 219.181 154.147 213.426 159.762C207.671 165.377 202.446 170.613 197.751 175.47C193.056 180.175 189.118 184.196 185.938 187.535C182.909 190.874 181.319 192.695 181.167 192.999L181.394 192.088C179.88 194.061 178.895 195.048 178.441 195.048C177.684 195.2 176.548 194.593 175.033 193.227C173.368 191.861 172.004 190.115 170.944 187.991C170.641 187.384 170.49 186.701 170.49 185.942C170.49 185.031 170.869 183.969 171.626 182.755C173.595 179.719 176.018 175.849 178.895 171.145C181.773 166.44 184.878 161.507 188.21 156.347C191.542 151.187 194.949 146.027 198.433 140.867C201.916 135.707 205.172 131.078 208.201 126.98C209.413 125.311 210.322 123.793 210.927 122.427C211.685 121.061 212.29 119.923 212.745 119.013C213.199 118.102 213.653 117.419 214.108 116.964C214.714 116.508 215.622 116.281 216.834 116.281C218.197 116.281 219.636 117.419 221.15 119.695C222.816 121.82 223.952 124.021 224.558 126.297C224.861 127.663 224.785 128.801 224.331 129.712C223.876 130.623 223.043 131.913 221.832 133.582C220.772 135.1 219.409 137.073 217.743 139.501C216.077 141.778 214.259 144.282 212.29 147.014C210.473 149.745 208.504 152.629 206.384 155.664C204.264 158.7 202.219 161.659 200.25 164.543C204.491 160.445 209.337 155.816 214.789 150.656C220.393 145.496 225.921 140.639 231.373 136.086C236.977 131.533 242.126 127.663 246.821 124.476C251.516 121.289 255.075 119.695 257.499 119.695C260.073 119.695 262.648 121.289 265.223 124.476C267.949 127.511 269.312 131.685 269.312 136.997C269.312 137.756 268.63 139.198 267.267 141.322C266.055 143.295 264.465 145.648 262.496 148.379C260.528 151.111 258.256 154.071 255.681 157.258C253.258 160.445 250.835 163.708 248.411 167.047C252.046 163.708 256.438 159.762 261.588 155.209C266.737 150.656 271.886 146.406 277.036 142.461C282.336 138.515 287.183 135.176 291.575 132.444C296.118 129.56 299.678 128.119 302.252 128.119C303.464 128.119 304.751 128.574 306.114 129.484C307.629 130.243 308.916 131.382 309.976 132.899C311.188 134.265 312.172 136.01 312.93 138.135C313.687 140.26 314.065 142.688 314.065 145.42C314.065 146.331 313.308 147.924 311.794 150.201C310.279 152.477 308.386 155.057 306.114 157.941C303.842 160.824 301.419 163.936 298.845 167.274C296.27 170.613 293.847 173.876 291.575 177.063C289.303 180.099 287.41 182.906 285.896 185.486C284.381 188.067 283.624 190.04 283.624 191.405C283.624 191.709 283.775 191.861 284.078 191.861C286.35 191.861 289.455 190.343 293.392 187.308C297.33 184.121 301.949 179.947 307.25 174.787C312.551 169.475 318.988 163.329 326.56 156.347Z" fill="white"/>
<path d="M403.8 148.379C404.557 148.379 405.163 148.759 405.618 149.518C406.223 150.125 406.526 150.959 406.526 152.022C406.678 153.084 406.526 154.222 406.072 155.437C405.769 156.499 405.087 157.485 404.027 158.396C403.119 159.307 401.301 159.762 398.575 159.762C395.092 159.762 391.381 159.838 387.443 159.99C383.506 160.141 379.644 160.293 375.857 160.445C372.071 160.597 368.436 160.748 364.953 160.9C361.47 161.052 358.441 161.204 355.866 161.356C354.503 161.507 353.443 161.28 352.685 160.673C352.08 160.066 351.701 159.307 351.55 158.396C351.398 157.334 351.398 156.195 351.55 154.981C351.852 153.767 352.383 152.705 353.14 151.794C354.048 150.428 354.654 149.669 354.957 149.518C355.412 149.214 356.472 149.062 358.138 149.062C362.378 149.062 366.24 149.062 369.724 149.062C373.358 148.911 376.918 148.835 380.401 148.835C383.884 148.683 387.519 148.607 391.305 148.607C395.092 148.455 399.257 148.379 403.8 148.379Z" fill="white"/>
<path d="M466.274 156.347C470.363 150.125 473.695 144.282 476.269 138.818C478.844 133.203 480.131 128.953 480.131 126.07C480.131 125.007 479.526 124.476 478.314 124.476C476.497 124.476 474.225 125.159 471.499 126.525C468.773 127.739 465.895 129.333 462.866 131.306C459.837 133.279 456.959 135.555 454.233 138.135C451.507 140.715 449.235 143.219 447.418 145.648C438.937 157.637 433.485 166.591 431.061 172.51C428.638 178.278 426.896 182.527 425.836 185.259C424.776 187.839 424.246 190.04 424.246 191.861C424.246 192.316 424.549 192.544 425.155 192.544C427.881 192.544 430.758 191.709 433.787 190.04C436.968 188.522 440.148 186.397 443.329 183.665C446.509 180.933 449.614 177.822 452.643 174.332C455.824 170.689 458.777 166.971 461.503 163.177L466.274 156.347ZM485.129 123.338C485.584 129.105 484.675 134.341 482.403 139.046C480.283 143.751 476.648 149.821 471.499 157.258C466.501 164.543 461.957 170.537 457.868 175.242C453.779 179.947 449.69 184.121 445.601 187.763C441.511 191.405 437.649 194.365 434.015 196.641C430.38 198.918 427.199 200.056 424.473 200.056C421.444 200.056 418.87 198.235 416.749 194.593C414.78 191.102 413.796 187.308 413.796 183.21C413.796 180.023 414.705 176.153 416.522 171.6C418.339 166.895 420.46 162.418 422.883 158.168C425.306 153.767 429.547 147.393 435.605 139.046C441.663 130.699 446.434 125.311 449.917 122.883C453.4 120.454 456.959 118.557 460.594 117.191C464.381 115.674 467.637 114.915 470.363 114.915C471.423 114.915 474.301 115.825 478.996 117.647L476.724 113.321L473.316 104.443C470.136 96.3992 467.107 88.3556 464.229 80.3119C461.352 72.2682 459.307 64.3764 458.095 56.6362C456.884 48.7443 456.808 41.156 457.868 33.8712C458.322 29.9252 459.458 26.0552 461.276 22.261C463.093 18.4668 464.683 15.5832 466.046 13.6103C469.076 9.36078 472.18 6.24955 475.361 4.27658C478.693 2.30361 483.009 1.01359 488.31 0.406519C493.611 -0.352316 498.608 -0.0487823 503.303 1.31712C507.998 2.68303 511.785 4.04893 514.662 5.41483C517.54 6.62897 521.402 7.99487 526.248 9.51254C529.58 10.5749 532.458 11.0302 534.881 10.8784C537.304 10.5749 539.424 9.96785 541.242 9.05724C543.211 7.99487 544.952 6.85662 546.467 5.64248C547.981 4.27658 549.42 4.12481 550.783 5.18718C552.146 6.24955 552.298 8.52606 551.238 12.0167C550.329 15.5073 548.284 18.998 545.104 22.4886C542.075 25.8275 537.38 27.7246 531.019 28.1799C524.658 28.6352 514.359 26.3587 500.123 21.3504C494.519 19.2256 490.051 18.1633 486.72 18.1633C483.388 18.0115 480.51 18.4668 478.087 19.5292C475.664 20.4398 473.468 22.1851 471.499 24.7651C469.53 27.3452 468.243 30.7599 467.637 35.0094C466.577 41.6872 466.425 48.7443 467.182 56.1809C467.94 63.4658 471.044 75.0759 476.497 91.0115C481.949 106.795 484.826 117.571 485.129 123.338Z" fill="white"/>
<path d="M528.974 157.258C523.977 164.543 519.433 170.537 515.344 175.242C511.255 179.947 507.165 184.121 503.076 187.763C498.987 191.405 495.125 194.365 491.49 196.641C487.855 198.918 484.675 200.056 481.949 200.056C478.92 200.056 476.421 198.235 474.452 194.593C472.332 191.102 471.272 187.308 471.272 183.21C471.272 180.023 472.18 176.153 473.998 171.6C475.815 166.895 477.935 162.418 480.359 158.168C482.782 153.767 485.129 150.049 487.401 147.014C489.824 143.826 491.49 142.005 492.399 141.55C493.459 138.059 495.352 134.72 498.078 131.533C500.804 128.194 503.909 125.311 507.393 122.883C510.876 120.454 514.435 118.557 518.07 117.191C521.856 115.674 525.112 114.915 527.839 114.915C528.899 114.915 530.262 115.294 531.928 116.053C533.745 116.66 535.487 117.571 537.153 118.785C538.819 119.847 540.257 121.137 541.469 122.655C542.681 124.173 543.286 125.766 543.286 127.436C543.286 130.471 542.151 134.341 539.879 139.046C537.758 143.751 534.124 149.821 528.974 157.258ZM523.749 156.347C527.839 150.125 531.17 144.282 533.745 138.818C536.32 133.203 537.607 128.953 537.607 126.07C537.607 125.007 537.001 124.476 535.79 124.476C533.972 124.476 531.701 125.159 528.974 126.525C526.248 127.739 523.371 129.333 520.342 131.306C517.313 133.279 514.435 135.555 511.709 138.135C508.983 140.715 506.711 143.219 504.894 145.648C505.499 146.255 505.802 147.014 505.802 147.924C505.802 148.835 504.591 151.111 502.168 154.754L498.533 159.99C496.715 162.57 494.822 165.377 492.853 168.413C490.884 171.296 489.067 174.18 487.401 177.063C485.735 179.795 484.372 182.527 483.312 185.259C482.252 187.839 481.722 190.04 481.722 191.861C481.722 192.316 482.025 192.544 482.63 192.544C485.356 192.544 488.234 191.709 491.263 190.04C494.444 188.522 497.624 186.397 500.804 183.665C503.985 180.933 507.09 177.822 510.119 174.332C513.299 170.689 516.253 166.971 518.979 163.177L523.749 156.347Z" fill="white"/>
<path d="M680.955 156.347C681.258 156.044 681.637 155.816 682.091 155.664C682.697 155.361 683 155.664 683 156.575C683 158.093 682.773 159.307 682.318 160.217C681.864 160.976 681.485 161.431 681.183 161.583C678.911 163.86 677.245 165.605 676.185 166.819C675.125 167.882 672.398 170.613 668.006 175.015C663.766 179.264 659.601 183.134 655.512 186.625C651.422 190.115 647.56 192.923 643.926 195.048C640.442 197.324 637.489 198.463 635.066 198.463C632.34 198.463 630.144 197.173 628.478 194.593C626.963 192.012 626.206 189.129 626.206 185.942C626.206 183.058 627.266 179.416 629.386 175.015C631.658 170.613 634.157 166.288 636.883 162.038C639.761 157.637 642.487 153.691 645.062 150.201C647.636 146.71 649.302 144.434 650.059 143.371C651.271 141.702 652.18 140.336 652.786 139.273C653.543 138.211 653.921 137.376 653.921 136.769C653.921 136.314 653.694 136.086 653.24 136.086C651.271 136.086 648.242 137.452 644.153 140.184C640.215 142.764 635.823 146.103 630.977 150.201C626.282 154.147 621.359 158.548 616.21 163.404C611.212 168.109 606.593 172.51 602.352 176.608C598.112 180.706 594.628 184.196 591.902 187.08C589.176 189.964 587.737 191.557 587.586 191.861L587.813 190.95C587.662 191.254 587.586 191.557 587.586 191.861C584.86 191.861 582.664 190.571 580.998 187.991C579.483 185.411 578.726 182.451 578.726 179.112C578.726 176.229 579.938 172.51 582.361 167.957C584.935 163.404 587.813 158.851 590.994 154.298C594.174 149.745 597.203 145.648 600.081 142.005C602.958 138.363 604.776 136.01 605.533 134.948C606.593 133.43 607.426 132.14 608.032 131.078C608.789 129.864 609.168 128.953 609.168 128.346C609.168 127.891 608.94 127.663 608.486 127.663C606.517 127.663 603.337 129.257 598.945 132.444C594.553 135.631 589.706 139.577 584.405 144.282C579.105 148.987 573.577 154.147 567.822 159.762C562.066 165.377 556.841 170.613 552.146 175.47C547.451 180.175 543.514 184.196 540.333 187.535C537.304 190.874 535.714 192.695 535.562 192.999L535.79 192.088C534.275 194.061 533.291 195.048 532.836 195.048C532.079 195.2 530.943 194.593 529.429 193.227C527.763 191.861 526.4 190.115 525.34 187.991C525.037 187.384 524.885 186.701 524.885 185.942C524.885 185.031 525.264 183.969 526.021 182.755C527.99 179.719 530.413 175.849 533.291 171.145C536.168 166.44 539.273 161.507 542.605 156.347C545.937 151.187 549.344 146.027 552.828 140.867C556.311 135.707 559.567 131.078 562.596 126.98C563.808 125.311 564.717 123.793 565.323 122.427C566.08 121.061 566.686 119.923 567.14 119.013C567.594 118.102 568.049 117.419 568.503 116.964C569.109 116.508 570.018 116.281 571.229 116.281C572.592 116.281 574.031 117.419 575.546 119.695C577.211 121.82 578.347 124.021 578.953 126.297C579.256 127.663 579.18 128.801 578.726 129.712C578.272 130.623 577.439 131.913 576.227 133.582C575.167 135.1 573.804 137.073 572.138 139.501C570.472 141.778 568.654 144.282 566.686 147.014C564.868 149.745 562.899 152.629 560.779 155.664C558.659 158.7 556.614 161.659 554.645 164.543C558.886 160.445 563.732 155.816 569.185 150.656C574.788 145.496 580.316 140.639 585.768 136.086C591.372 131.533 596.521 127.663 601.216 124.476C605.911 121.289 609.471 119.695 611.894 119.695C614.468 119.695 617.043 121.289 619.618 124.476C622.344 127.511 623.707 131.685 623.707 136.997C623.707 137.756 623.025 139.198 621.662 141.322C620.451 143.295 618.86 145.648 616.892 148.379C614.923 151.111 612.651 154.071 610.076 157.258C607.653 160.445 605.23 163.708 602.807 167.047C606.442 163.708 610.834 159.762 615.983 155.209C621.132 150.656 626.282 146.406 631.431 142.461C636.732 138.515 641.578 135.176 645.97 132.444C650.514 129.56 654.073 128.119 656.648 128.119C657.859 128.119 659.146 128.574 660.51 129.484C662.024 130.243 663.311 131.382 664.372 132.899C665.583 134.265 666.568 136.01 667.325 138.135C668.082 140.26 668.461 142.688 668.461 145.42C668.461 146.331 667.703 147.924 666.189 150.201C664.674 152.477 662.781 155.057 660.51 157.941C658.238 160.824 655.815 163.936 653.24 167.274C650.665 170.613 648.242 173.876 645.97 177.063C643.698 180.099 641.805 182.906 640.291 185.486C638.776 188.067 638.019 190.04 638.019 191.405C638.019 191.709 638.17 191.861 638.473 191.861C640.745 191.861 643.85 190.343 647.788 187.308C651.725 184.121 656.345 179.947 661.645 174.787C666.946 169.475 673.383 163.329 680.955 156.347Z" fill="white"/>
</g>
</svg>
