<svg width="10" height="7" viewBox="0 0 10 7" fill="none" xmlns="http://www.w3.org/2000/svg">
<path d="M9.24278 1.08495L8.46733 0.349033C8.36278 0.249808 8.23209 0.200195 8.08397 0.200195C7.93585 0.200195 7.80515 0.249808 7.7006 0.349033L3.97149 3.88805L2.30733 2.30045C2.20278 2.20123 2.07208 2.15162 1.92397 2.15162C1.77585 2.15162 1.64515 2.20123 1.5406 2.30045L0.765154 3.03637C0.651887 3.1356 0.599609 3.25963 0.599609 3.4002C0.599609 3.54076 0.651887 3.66479 0.756441 3.76402L2.81268 5.71544L3.58812 6.45136C3.69268 6.55058 3.82337 6.6002 3.97149 6.6002C4.11961 6.6002 4.2503 6.55058 4.35486 6.45136L5.1303 5.71544L9.24278 1.8126C9.34733 1.71337 9.39961 1.58934 9.39961 1.44877C9.39961 1.30821 9.34733 1.18417 9.24278 1.08495Z" fill="white"/>
</svg>
