<svg width="493" height="152" viewBox="0 0 493 152" fill="none" xmlns="http://www.w3.org/2000/svg">
<g opacity="0.05">
<path d="M44.6045 63.4033C47.3389 62.0361 50.529 60.555 54.1748 58.96C61.6943 50.415 68.7012 42.6107 75.1953 35.5469C81.6895 28.3691 87.3861 22.2168 92.2852 17.0898C97.9818 11.0514 103.223 5.63965 108.008 0.854492C108.236 0.284831 108.577 0 109.033 0C109.489 0 110.059 0.284831 110.742 0.854492C111.54 1.42415 112.28 2.16471 112.964 3.07617C113.761 3.98763 114.445 5.01302 115.015 6.15234C115.584 7.17773 115.869 8.20312 115.869 9.22852C115.869 10.026 115.641 10.7666 115.186 11.4502C114.844 12.0199 114.16 12.8174 113.135 13.8428C112.223 14.8682 110.856 16.1784 109.033 17.7734C107.324 19.3685 105.103 21.4762 102.368 24.0967C99.7477 26.7171 96.5576 29.9642 92.7979 33.8379C89.152 37.7116 84.8226 42.4398 79.8096 48.0225C79.4678 48.3643 79.126 48.7061 78.7842 49.0479C78.4424 49.3896 78.1006 49.7884 77.7588 50.2441C83.6833 48.1934 89.7786 46.1995 96.0449 44.2627C102.311 42.2119 108.407 40.2751 114.331 38.4521C120.369 36.6292 126.066 34.9772 131.421 33.4961C136.776 31.901 141.447 30.5339 145.435 29.3945C149.536 28.2552 152.783 27.4007 155.176 26.8311C157.568 26.1475 158.879 25.8057 159.106 25.8057C160.018 25.8057 160.815 26.1475 161.499 26.8311C162.297 27.4007 162.695 28.1413 162.695 29.0527C162.695 29.8503 162.354 30.6478 161.67 31.4453C160.986 32.2428 160.189 32.9264 159.277 33.4961C158.48 34.0658 157.682 34.5784 156.885 35.0342C156.087 35.376 155.518 35.6038 155.176 35.7178C153.581 36.1735 151.302 36.8001 148.34 37.5977C145.378 38.3952 142.074 39.3636 138.428 40.5029C134.782 41.5283 131.022 42.6676 127.148 43.9209C123.275 45.0602 119.572 46.1995 116.04 47.3389C112.622 48.3643 109.546 49.2757 106.812 50.0732C104.191 50.8708 102.254 51.4404 101.001 51.7822C95.4183 53.3773 90.7471 54.7445 86.9873 55.8838C83.2275 57.0231 79.9805 58.0485 77.2461 58.96C74.6256 59.8714 72.347 60.7259 70.4102 61.5234C68.5872 62.321 66.8213 63.1185 65.1123 63.916C63.5173 65.625 61.9222 67.4479 60.3271 69.3848C59.6436 70.1823 58.96 70.9229 58.2764 71.6064L60.1562 73.3154C64.5996 77.417 69.4987 82.3161 74.8535 88.0127C80.3223 93.7093 86.0189 99.5768 91.9434 105.615C97.9818 111.54 104.077 117.236 110.229 122.705C116.496 128.288 122.705 132.845 128.857 136.377C132.503 138.542 135.864 140.251 138.94 141.504C142.017 142.757 144.637 143.783 146.802 144.58C149.08 145.378 150.846 146.061 152.1 146.631C153.353 147.201 153.979 147.884 153.979 148.682C153.979 149.479 153.239 150.049 151.758 150.391C150.277 150.846 149.023 151.074 147.998 151.074C142.529 151.074 136.833 149.878 130.908 147.485C125.098 145.093 119.173 141.903 113.135 137.915C107.096 134.041 101.115 129.598 95.1904 124.585C89.266 119.686 83.6263 114.673 78.2715 109.546C72.9167 104.419 67.9036 99.4629 63.2324 94.6777C58.5612 89.8926 54.4596 85.6771 50.9277 82.0312L50.0732 81.1768L48.5352 82.8857C46.9401 84.7087 45.2881 86.5885 43.5791 88.5254C41.9841 90.4622 40.389 92.3991 38.7939 94.3359C37.3128 96.0449 35.5469 98.1527 33.4961 100.659C31.5592 103.166 29.4515 105.786 27.1729 108.521C25.0081 111.255 22.7865 113.932 20.5078 116.553C18.3431 119.287 16.2923 121.737 14.3555 123.901C12.4186 126.066 10.6527 127.775 9.05762 129.028C7.5765 130.396 6.49414 131.079 5.81055 131.079C4.89909 131.079 3.7028 130.737 2.22168 130.054C0.74056 129.37 0 128.459 0 127.319C0 127.091 0.0569661 126.864 0.170898 126.636C0.284831 126.408 0.569661 126.009 1.02539 125.439C1.36719 124.87 1.93685 124.015 2.73438 122.876C3.5319 121.851 4.67122 120.369 6.15234 118.433C11.735 110.913 17.3747 103.621 23.0713 96.5576C27.9704 90.2913 35.2051 81.4616 44.7754 70.0684L38.9648 67.6758C35.6608 66.0807 34.0088 64.1439 34.0088 61.8652C34.0088 61.4095 34.0658 61.0107 34.1797 60.6689C34.4076 60.2132 34.6924 59.9854 35.0342 59.9854C35.7178 60.555 36.6862 61.0677 37.9395 61.5234C39.0788 61.9792 40.6169 62.4349 42.5537 62.8906C43.1234 63.1185 43.807 63.2894 44.6045 63.4033Z" fill="white"/>
<path d="M188.706 91.6016C184.946 97.0703 181.528 101.571 178.452 105.103C175.376 108.634 172.3 111.768 169.224 114.502C166.147 117.236 163.242 119.458 160.508 121.167C157.773 122.876 155.381 123.73 153.33 123.73C151.051 123.73 149.172 122.363 147.69 119.629C146.095 117.008 145.298 114.16 145.298 111.084C145.298 108.691 145.981 105.786 147.349 102.368C148.716 98.8363 150.311 95.4753 152.134 92.2852C153.957 88.9811 155.723 86.1898 157.432 83.9111C159.255 81.5186 160.508 80.1514 161.191 79.8096C161.989 77.1891 163.413 74.6826 165.464 72.29C167.515 69.7835 169.85 67.6188 172.471 65.7959C175.091 63.973 177.769 62.5488 180.503 61.5234C183.351 60.3841 185.801 59.8145 187.852 59.8145C188.649 59.8145 189.674 60.0993 190.928 60.6689C192.295 61.1247 193.605 61.8083 194.858 62.7197C196.112 63.5173 197.194 64.4857 198.105 65.625C199.017 66.7643 199.473 67.9606 199.473 69.2139C199.473 71.4925 198.618 74.3978 196.909 77.9297C195.314 81.4616 192.58 86.0189 188.706 91.6016ZM184.775 90.918C187.852 86.2467 190.358 81.8604 192.295 77.7588C194.232 73.5433 195.2 70.3532 195.2 68.1885C195.2 67.391 194.744 66.9922 193.833 66.9922C192.466 66.9922 190.757 67.5049 188.706 68.5303C186.655 69.4417 184.491 70.638 182.212 72.1191C179.933 73.6003 177.769 75.3092 175.718 77.2461C173.667 79.1829 171.958 81.0628 170.591 82.8857C171.047 83.3415 171.274 83.9111 171.274 84.5947C171.274 85.2783 170.363 86.9873 168.54 89.7217L165.806 93.6523C164.438 95.5892 163.014 97.6969 161.533 99.9756C160.052 102.14 158.685 104.305 157.432 106.47C156.178 108.521 155.153 110.571 154.355 112.622C153.558 114.559 153.159 116.211 153.159 117.578C153.159 117.92 153.387 118.091 153.843 118.091C155.894 118.091 158.058 117.464 160.337 116.211C162.729 115.072 165.122 113.477 167.515 111.426C169.907 109.375 172.243 107.039 174.521 104.419C176.914 101.685 179.136 98.8932 181.187 96.0449L184.775 90.918Z" fill="white"/>
<path d="M243.94 89.5508C245.422 87.1582 247.017 84.6517 248.726 82.0312C250.89 78.8411 252.941 75.9359 254.878 73.3154C256.929 70.695 258.752 68.5303 260.347 66.8213C262.056 65.1123 263.252 64.2578 263.936 64.2578C264.505 64.2578 265.132 64.5996 265.815 65.2832C266.499 65.9668 267.126 66.7643 267.695 67.6758C268.265 68.5872 268.721 69.6126 269.062 70.752C269.404 71.7773 269.575 72.6318 269.575 73.3154C269.575 73.7712 268.949 74.8535 267.695 76.5625C266.556 78.2715 265.075 80.3792 263.252 82.8857C261.429 85.2783 259.435 87.9557 257.271 90.918C255.106 93.7663 253.112 96.5576 251.289 99.292C249.466 101.912 247.928 104.305 246.675 106.47C245.535 108.634 244.966 110.229 244.966 111.255C244.966 111.483 245.137 111.597 245.479 111.597C247.529 111.597 250.15 110.343 253.34 107.837C256.644 105.216 259.777 102.482 262.739 99.6338C265.702 96.6715 268.892 93.5384 272.31 90.2344C272.537 90.0065 272.822 89.8356 273.164 89.7217C273.62 89.4938 273.848 89.7217 273.848 90.4053C273.848 91.5446 273.62 92.4561 273.164 93.1396C272.822 93.7093 272.594 94.0511 272.48 94.165C270.771 95.988 268.55 98.3805 265.815 101.343C263.195 104.191 260.518 106.698 257.783 108.862C255.049 111.027 252.428 112.793 249.922 114.16C247.415 115.413 245.194 116.04 243.257 116.04C241.206 116.04 239.554 115.072 238.301 113.135C237.161 111.198 236.592 108.976 236.592 106.47C236.592 104.989 237.161 102.938 238.301 100.317C238.984 98.8363 239.725 97.2982 240.522 95.7031C238.927 96.5006 237.332 97.2412 235.737 97.9248C231.522 99.7477 227.477 100.659 223.604 100.659C220.413 100.659 217.793 99.9756 215.742 98.6084C214.261 100.773 212.609 103.223 210.786 105.957C205.317 114.046 202.526 118.205 202.412 118.433L202.754 117.749C201.501 119.23 200.703 119.971 200.361 119.971C199.792 120.085 198.937 119.629 197.798 118.604C196.659 117.578 195.633 116.268 194.722 114.673C194.266 113.534 194.494 112.223 195.405 110.742C196.772 108.464 198.538 105.558 200.703 102.026C202.982 98.4945 205.374 94.7917 207.881 90.918C210.387 87.0443 212.894 83.1706 215.4 79.2969C218.021 75.4232 220.47 71.9482 222.749 68.8721C223.774 67.6188 224.515 66.4795 224.971 65.4541C225.426 64.4287 225.825 63.5742 226.167 62.8906C226.623 62.207 227.021 61.6943 227.363 61.3525C227.819 61.0107 228.446 60.8398 229.243 60.8398C230.269 60.8398 231.408 61.6943 232.661 63.4033C233.914 64.9984 234.769 66.6504 235.225 68.3594C235.452 69.3848 235.396 70.2393 235.054 70.9229C234.712 71.6064 234.085 72.5749 233.174 73.8281C232.262 74.9674 231.18 76.4486 229.927 78.2715C228.674 79.9805 227.306 81.8604 225.825 83.9111C224.458 85.9619 222.977 88.1266 221.382 90.4053C221.154 90.7471 220.869 91.2028 220.527 91.7725C220.413 92.3421 220.356 92.9688 220.356 93.6523C220.356 94.3359 220.527 94.8486 220.869 95.1904C221.211 95.4183 222.236 95.5322 223.945 95.5322C229.87 95.5322 235.566 94.1081 241.035 91.2598C242.061 90.6901 243.029 90.1204 243.94 89.5508Z" fill="white"/>
<path d="M385.479 90.918C385.706 90.6901 385.991 90.5192 386.333 90.4053C386.789 90.1774 387.017 90.4053 387.017 91.0889C387.017 92.2282 386.846 93.1396 386.504 93.8232C386.162 94.3929 385.877 94.7347 385.649 94.8486C383.94 96.5576 382.687 97.8678 381.89 98.7793C381.092 99.5768 379.041 101.628 375.737 104.932C372.547 108.122 369.414 111.027 366.338 113.647C363.262 116.268 360.356 118.376 357.622 119.971C355.002 121.68 352.78 122.534 350.957 122.534C348.906 122.534 347.254 121.566 346.001 119.629C344.862 117.692 344.292 115.527 344.292 113.135C344.292 110.97 345.09 108.236 346.685 104.932C348.394 101.628 350.273 98.3805 352.324 95.1904C354.489 91.8864 356.54 88.9242 358.477 86.3037C360.413 83.6833 361.667 81.9743 362.236 81.1768C363.148 79.9235 363.831 78.8981 364.287 78.1006C364.857 77.3031 365.142 76.6764 365.142 76.2207C365.142 75.8789 364.971 75.708 364.629 75.708C363.148 75.708 360.869 76.7334 357.793 78.7842C354.831 80.721 351.527 83.2275 347.881 86.3037C344.349 89.266 340.646 92.57 336.772 96.2158C333.013 99.7477 329.538 103.052 326.348 106.128C323.158 109.204 320.537 111.825 318.486 113.989C316.436 116.154 315.353 117.35 315.239 117.578L315.41 116.895C315.296 117.122 315.239 117.35 315.239 117.578C313.188 117.578 311.536 116.61 310.283 114.673C309.144 112.736 308.574 110.514 308.574 108.008C308.574 105.843 309.486 103.052 311.309 99.6338C313.245 96.2158 315.41 92.7979 317.803 89.3799C320.195 85.9619 322.474 82.8857 324.639 80.1514C326.803 77.417 328.171 75.651 328.74 74.8535C329.538 73.7142 330.164 72.7458 330.62 71.9482C331.19 71.0368 331.475 70.3532 331.475 69.8975C331.475 69.5557 331.304 69.3848 330.962 69.3848C329.481 69.3848 327.088 70.5811 323.784 72.9736C320.48 75.3662 316.834 78.3285 312.847 81.8604C308.859 85.3923 304.701 89.266 300.371 93.4814C296.042 97.6969 292.111 101.628 288.579 105.273C285.047 108.805 282.085 111.825 279.692 114.331C277.414 116.838 276.217 118.205 276.104 118.433L276.274 117.749C275.135 119.23 274.395 119.971 274.053 119.971C273.483 120.085 272.629 119.629 271.489 118.604C270.236 117.578 269.211 116.268 268.413 114.673C268.185 114.217 268.071 113.704 268.071 113.135C268.071 112.451 268.356 111.654 268.926 110.742C270.407 108.464 272.23 105.558 274.395 102.026C276.559 98.4945 278.895 94.7917 281.401 90.918C283.908 87.0443 286.471 83.1706 289.092 79.2969C291.712 75.4232 294.162 71.9482 296.44 68.8721C297.352 67.6188 298.035 66.4795 298.491 65.4541C299.061 64.4287 299.517 63.5742 299.858 62.8906C300.2 62.207 300.542 61.6943 300.884 61.3525C301.34 61.0107 302.023 60.8398 302.935 60.8398C303.96 60.8398 305.042 61.6943 306.182 63.4033C307.435 64.9984 308.289 66.6504 308.745 68.3594C308.973 69.3848 308.916 70.2393 308.574 70.9229C308.232 71.6064 307.606 72.5749 306.694 73.8281C305.897 74.9674 304.871 76.4486 303.618 78.2715C302.365 79.9805 300.998 81.8604 299.517 83.9111C298.149 85.9619 296.668 88.1266 295.073 90.4053C293.478 92.6839 291.94 94.9056 290.459 97.0703C293.649 93.9941 297.295 90.5192 301.396 86.6455C305.612 82.7718 309.771 79.126 313.872 75.708C318.088 72.29 321.961 69.3848 325.493 66.9922C329.025 64.5996 331.702 63.4033 333.525 63.4033C335.462 63.4033 337.399 64.5996 339.336 66.9922C341.387 69.2708 342.412 72.404 342.412 76.3916C342.412 76.9613 341.899 78.0436 340.874 79.6387C339.963 81.1198 338.766 82.8857 337.285 84.9365C335.804 86.9873 334.095 89.209 332.158 91.6016C330.335 93.9941 328.512 96.4437 326.689 98.9502C329.424 96.4437 332.728 93.4814 336.602 90.0635C340.475 86.6455 344.349 83.4554 348.223 80.4932C352.21 77.5309 355.856 75.0244 359.16 72.9736C362.578 70.8089 365.256 69.7266 367.192 69.7266C368.104 69.7266 369.072 70.0684 370.098 70.752C371.237 71.3216 372.205 72.1761 373.003 73.3154C373.914 74.3408 374.655 75.651 375.225 77.2461C375.794 78.8411 376.079 80.6641 376.079 82.7148C376.079 83.3984 375.509 84.5947 374.37 86.3037C373.231 88.0127 371.807 89.9495 370.098 92.1143C368.389 94.279 366.566 96.6146 364.629 99.1211C362.692 101.628 360.869 104.077 359.16 106.47C357.451 108.748 356.027 110.856 354.888 112.793C353.748 114.73 353.179 116.211 353.179 117.236C353.179 117.464 353.293 117.578 353.521 117.578C355.229 117.578 357.565 116.439 360.527 114.16C363.49 111.768 366.965 108.634 370.952 104.761C374.94 100.773 379.782 96.1589 385.479 90.918Z" fill="white"/>
<path d="M459.17 89.3799C459.284 89.152 459.569 88.9811 460.024 88.8672C460.48 88.6393 460.708 88.8672 460.708 89.5508C460.708 90.6901 460.48 91.6016 460.024 92.2852C459.683 92.8548 459.455 93.1966 459.341 93.3105C453.758 99.349 448.574 104.704 443.789 109.375C439.118 114.046 434.788 117.92 430.801 120.996C426.927 124.072 423.908 125.61 421.743 125.61C419.806 125.61 418.211 124.642 416.958 122.705C415.705 120.768 415.078 118.547 415.078 116.04C415.078 114.445 415.762 112.166 417.129 109.204C418.496 106.242 420.262 102.938 422.427 99.292C420.034 101.799 417.528 104.305 414.907 106.812C412.401 109.204 409.951 111.369 407.559 113.306C405.28 115.129 403.172 116.61 401.235 117.749C399.412 119.002 397.931 119.629 396.792 119.629C396.108 119.629 395.14 119.401 393.887 118.945C392.747 118.604 391.551 117.92 390.298 116.895C389.159 115.983 388.19 114.673 387.393 112.964C386.481 111.141 386.025 108.862 386.025 106.128C386.025 103.849 386.709 101.229 388.076 98.2666C389.443 95.1904 391.266 92.1143 393.545 89.0381C395.824 85.9619 398.387 82.9427 401.235 79.9805C404.084 77.0182 406.989 74.3978 409.951 72.1191C412.913 69.7266 415.819 67.8467 418.667 66.4795C421.515 64.9984 424.022 64.2578 426.187 64.2578C428.009 64.2578 429.661 64.5996 431.143 65.2832C432.738 65.9668 434.105 66.8783 435.244 68.0176C436.383 69.1569 437.238 70.4102 437.808 71.7773C438.491 73.1445 438.833 74.5687 438.833 76.0498C438.833 76.1637 438.776 76.2207 438.662 76.2207C438.662 76.2207 438.662 76.2777 438.662 76.3916C441.169 73.5433 442.935 72.1191 443.96 72.1191C444.53 72.1191 445.156 72.4609 445.84 73.1445C446.523 73.7142 447.15 74.5117 447.72 75.5371C448.289 76.4486 448.745 77.417 449.087 78.4424C449.429 79.4678 449.6 80.3223 449.6 81.0059C449.6 81.3477 448.916 82.487 447.549 84.4238C446.296 86.2467 444.701 88.4684 442.764 91.0889C440.941 93.7093 438.89 96.5576 436.611 99.6338C434.333 102.596 432.225 105.501 430.288 108.35C428.465 111.084 426.87 113.59 425.503 115.869C424.25 118.148 423.623 119.8 423.623 120.825C423.623 121.053 423.737 121.167 423.965 121.167C424.648 121.167 426.13 120.199 428.408 118.262C430.687 116.439 433.364 114.103 436.44 111.255C439.517 108.293 442.821 105.046 446.353 101.514C449.998 97.9818 452.619 95.4753 454.214 93.9941C455.923 92.3991 457.575 90.861 459.17 89.3799ZM395.767 114.502C397.134 114.502 398.957 113.818 401.235 112.451C403.514 110.97 406.021 109.09 408.755 106.812C411.603 104.533 414.565 101.912 417.642 98.9502C420.718 95.874 423.737 92.7979 426.699 89.7217C426.13 89.4938 425.617 89.152 425.161 88.6963C424.819 88.2406 424.648 87.7279 424.648 87.1582C424.648 86.8164 425.104 86.1898 426.016 85.2783C427.041 84.3669 428.123 83.3415 429.263 82.2021C430.402 80.9489 431.427 79.5817 432.339 78.1006C433.364 76.6195 433.877 75.1953 433.877 73.8281C433.877 72.5749 433.25 71.9482 431.997 71.9482C430.972 71.9482 429.32 72.6888 427.041 74.1699C424.762 75.651 422.199 77.6449 419.351 80.1514C416.616 82.5439 413.768 85.2783 410.806 88.3545C407.957 91.3167 405.28 94.3359 402.773 97.4121C400.381 100.488 398.387 103.394 396.792 106.128C395.311 108.862 394.57 111.198 394.57 113.135C394.57 114.046 394.969 114.502 395.767 114.502Z" fill="white"/>
<path d="M494.922 66.9922C494.922 67.2201 494.637 67.7897 494.067 68.7012C493.498 69.6126 492.757 70.695 491.846 71.9482L475.61 95.3613C479.37 91.7155 483.13 88.2975 486.89 85.1074C490.763 81.8034 494.409 78.8411 497.827 76.2207C501.359 73.4863 504.606 71.1507 507.568 69.2139C510.531 67.1631 512.98 65.625 514.917 64.5996C515.601 64.2578 516.398 64.2578 517.31 64.5996C518.221 64.8275 519.019 65.2832 519.702 65.9668C520.386 66.6504 520.898 67.4479 521.24 68.3594C521.696 69.1569 521.867 69.8975 521.753 70.5811C521.639 70.8089 521.354 71.0368 520.898 71.2646C520.557 71.4925 518.848 72.4609 515.771 74.1699C512.809 75.765 509.448 77.7018 505.688 79.9805C501.929 82.1452 498.283 84.3669 494.751 86.6455C491.219 88.9242 488.77 90.7471 487.402 92.1143C487.174 92.3421 486.947 92.513 486.719 92.627C487.858 92.8548 488.94 93.1966 489.966 93.6523C490.991 93.9941 491.732 94.6777 492.188 95.7031C493.213 97.9818 494.352 100.659 495.605 103.735C496.973 106.812 498.568 109.774 500.391 112.622C502.214 115.47 504.207 117.863 506.372 119.8C508.537 121.851 510.986 122.876 513.721 122.876C514.632 122.876 515.828 122.591 517.31 122.021C518.791 121.566 519.702 121.338 520.044 121.338C520.728 121.338 521.069 121.623 521.069 122.192C521.069 122.534 520.728 122.99 520.044 123.56C519.36 124.129 518.449 124.642 517.31 125.098C516.284 125.667 515.088 126.123 513.721 126.465C512.354 126.921 510.929 127.148 509.448 127.148C505.461 127.148 501.872 126.066 498.682 123.901C495.492 121.737 492.7 119.116 490.308 116.04C487.915 113.078 485.864 109.945 484.155 106.641C482.56 103.337 481.364 100.545 480.566 98.2666C480.566 98.3805 480.509 98.4375 480.396 98.4375C480.168 98.6654 479.256 99.5199 477.661 101.001C476.066 102.482 474.186 104.248 472.021 106.299C469.971 108.35 467.863 110.457 465.698 112.622C463.534 114.787 461.768 116.724 460.4 118.433C459.375 119.914 458.634 121.053 458.179 121.851C457.609 122.648 457.21 123.218 456.982 123.56C456.755 123.901 456.584 124.129 456.47 124.243C456.356 124.357 456.185 124.414 455.957 124.414C455.387 124.528 454.761 124.243 454.077 123.56C453.28 122.99 452.482 121.908 451.685 120.312C451.343 119.515 451.514 118.205 452.197 116.382C453.451 113.192 455.387 109.204 458.008 104.419C460.628 99.6338 463.704 94.3929 467.236 88.6963C470.768 82.9997 474.756 76.8473 479.199 70.2393C483.757 63.5173 486.32 59.8714 486.89 59.3018C488.029 58.3903 488.827 57.9346 489.282 57.9346C489.852 57.9346 490.479 58.2764 491.162 58.96C491.846 59.6436 492.472 60.4411 493.042 61.3525C493.612 62.264 494.067 63.2324 494.409 64.2578C494.751 65.2832 494.922 66.1947 494.922 66.9922Z" fill="white"/>
<path d="M634.409 90.918C634.637 90.6901 634.922 90.5192 635.264 90.4053C635.719 90.1774 635.947 90.4053 635.947 91.0889C635.947 92.2282 635.776 93.1396 635.435 93.8232C635.093 94.3929 634.808 94.7347 634.58 94.8486C632.871 96.5576 631.618 97.8678 630.82 98.7793C630.023 99.5768 627.972 101.628 624.668 104.932C621.478 108.122 618.345 111.027 615.269 113.647C612.192 116.268 609.287 118.376 606.553 119.971C603.932 121.68 601.711 122.534 599.888 122.534C597.837 122.534 596.185 121.566 594.932 119.629C593.792 117.692 593.223 115.527 593.223 113.135C593.223 110.97 594.02 108.236 595.615 104.932C597.324 101.628 599.204 98.3805 601.255 95.1904C603.42 91.8864 605.47 88.9242 607.407 86.3037C609.344 83.6833 610.597 81.9743 611.167 81.1768C612.078 79.9235 612.762 78.8981 613.218 78.1006C613.787 77.3031 614.072 76.6764 614.072 76.2207C614.072 75.8789 613.901 75.708 613.56 75.708C612.078 75.708 609.8 76.7334 606.724 78.7842C603.761 80.721 600.457 83.2275 596.812 86.3037C593.28 89.266 589.577 92.57 585.703 96.2158C581.943 99.7477 578.468 103.052 575.278 106.128C572.088 109.204 569.468 111.825 567.417 113.989C565.366 116.154 564.284 117.35 564.17 117.578L564.341 116.895C564.227 117.122 564.17 117.35 564.17 117.578C562.119 117.578 560.467 116.61 559.214 114.673C558.075 112.736 557.505 110.514 557.505 108.008C557.505 105.843 558.416 103.052 560.239 99.6338C562.176 96.2158 564.341 92.7979 566.733 89.3799C569.126 85.9619 571.405 82.8857 573.569 80.1514C575.734 77.417 577.101 75.651 577.671 74.8535C578.468 73.7142 579.095 72.7458 579.551 71.9482C580.12 71.0368 580.405 70.3532 580.405 69.8975C580.405 69.5557 580.234 69.3848 579.893 69.3848C578.411 69.3848 576.019 70.5811 572.715 72.9736C569.411 75.3662 565.765 78.3285 561.777 81.8604C557.79 85.3923 553.631 89.266 549.302 93.4814C544.972 97.6969 541.042 101.628 537.51 105.273C533.978 108.805 531.016 111.825 528.623 114.331C526.344 116.838 525.148 118.205 525.034 118.433L525.205 117.749C524.066 119.23 523.325 119.971 522.983 119.971C522.414 120.085 521.559 119.629 520.42 118.604C519.167 117.578 518.141 116.268 517.344 114.673C517.116 114.217 517.002 113.704 517.002 113.135C517.002 112.451 517.287 111.654 517.856 110.742C519.338 108.464 521.16 105.558 523.325 102.026C525.49 98.4945 527.826 94.7917 530.332 90.918C532.839 87.0443 535.402 83.1706 538.022 79.2969C540.643 75.4232 543.092 71.9482 545.371 68.8721C546.283 67.6188 546.966 66.4795 547.422 65.4541C547.992 64.4287 548.447 63.5742 548.789 62.8906C549.131 62.207 549.473 61.6943 549.814 61.3525C550.27 61.0107 550.954 60.8398 551.865 60.8398C552.891 60.8398 553.973 61.6943 555.112 63.4033C556.366 64.9984 557.22 66.6504 557.676 68.3594C557.904 69.3848 557.847 70.2393 557.505 70.9229C557.163 71.6064 556.536 72.5749 555.625 73.8281C554.827 74.9674 553.802 76.4486 552.549 78.2715C551.296 79.9805 549.928 81.8604 548.447 83.9111C547.08 85.9619 545.599 88.1266 544.004 90.4053C542.409 92.6839 540.871 94.9056 539.39 97.0703C542.58 93.9941 546.226 90.5192 550.327 86.6455C554.543 82.7718 558.701 79.126 562.803 75.708C567.018 72.29 570.892 69.3848 574.424 66.9922C577.956 64.5996 580.633 63.4033 582.456 63.4033C584.393 63.4033 586.33 64.5996 588.267 66.9922C590.317 69.2708 591.343 72.404 591.343 76.3916C591.343 76.9613 590.83 78.0436 589.805 79.6387C588.893 81.1198 587.697 82.8857 586.216 84.9365C584.735 86.9873 583.026 89.209 581.089 91.6016C579.266 93.9941 577.443 96.4437 575.62 98.9502C578.354 96.4437 581.659 93.4814 585.532 90.0635C589.406 86.6455 593.28 83.4554 597.153 80.4932C601.141 77.5309 604.787 75.0244 608.091 72.9736C611.509 70.8089 614.186 69.7266 616.123 69.7266C617.034 69.7266 618.003 70.0684 619.028 70.752C620.168 71.3216 621.136 72.1761 621.934 73.3154C622.845 74.3408 623.586 75.651 624.155 77.2461C624.725 78.8411 625.01 80.6641 625.01 82.7148C625.01 83.3984 624.44 84.5947 623.301 86.3037C622.161 88.0127 620.737 89.9495 619.028 92.1143C617.319 94.279 615.496 96.6146 613.56 99.1211C611.623 101.628 609.8 104.077 608.091 106.47C606.382 108.748 604.958 110.856 603.818 112.793C602.679 114.73 602.109 116.211 602.109 117.236C602.109 117.464 602.223 117.578 602.451 117.578C604.16 117.578 606.496 116.439 609.458 114.16C612.42 111.768 615.895 108.634 619.883 104.761C623.87 100.773 628.713 96.1589 634.409 90.918Z" fill="white"/>
<path d="M645.21 113.647C645.438 113.875 646.064 113.647 647.09 112.964C648.115 112.28 649.255 111.312 650.508 110.059C651.875 108.805 653.185 107.438 654.438 105.957C655.806 104.476 656.831 103.109 657.515 101.855C658.312 100.488 658.654 99.349 658.54 98.4375C658.54 97.4121 657.799 96.8424 656.318 96.7285C655.977 96.5006 655.749 96.4437 655.635 96.5576L654.951 97.2412C653.812 98.6084 652.559 100.203 651.191 102.026C649.938 103.735 648.799 105.444 647.773 107.153C646.748 108.862 645.951 110.343 645.381 111.597C644.811 112.736 644.754 113.42 645.21 113.647ZM661.274 101.685C662.869 100.203 664.465 98.6654 666.06 97.0703C669.25 93.9941 672.44 90.861 675.63 87.6709C678.82 84.4808 681.839 81.4046 684.688 78.4424C687.536 75.4801 690.042 72.9167 692.207 70.752C693.802 68.8151 695.226 67.277 696.479 66.1377C697.733 64.8844 698.644 64.2578 699.214 64.2578C699.784 64.2578 700.41 64.5996 701.094 65.2832C701.777 65.9668 702.404 66.7643 702.974 67.6758C703.543 68.5872 703.999 69.6126 704.341 70.752C704.683 71.7773 704.854 72.6318 704.854 73.3154C704.854 73.6572 704.17 74.7965 702.803 76.7334C701.549 78.5563 699.954 80.778 698.018 83.3984C696.195 86.0189 694.144 88.8672 691.865 91.9434C689.587 95.0195 687.479 97.9818 685.542 100.83C683.719 103.678 682.124 106.242 680.757 108.521C679.504 110.685 678.877 112.28 678.877 113.306C678.877 113.647 678.991 113.818 679.219 113.818C680.928 113.818 682.979 112.85 685.371 110.913C687.878 108.976 690.84 106.299 694.258 102.881C697.676 99.4629 702.347 95.3613 708.271 90.5762C708.499 90.3483 708.784 90.1774 709.126 90.0635C709.582 89.8356 709.81 90.0635 709.81 90.7471C709.81 91.8864 709.582 92.7979 709.126 93.4814C708.784 94.0511 708.556 94.3929 708.442 94.5068C703.771 98.9502 699.499 103.109 695.625 106.982C691.751 110.742 688.219 113.761 685.029 116.04C681.953 118.433 679.276 119.629 676.997 119.629C675.516 119.629 673.864 118.831 672.041 117.236C670.332 115.755 669.478 113.021 669.478 109.033C669.478 107.096 670.275 104.419 671.87 101.001C673.579 97.583 675.63 93.9941 678.022 90.2344C674.263 94.222 670.617 97.9818 667.085 101.514C663.553 105.046 660.249 108.179 657.173 110.913C654.097 113.534 651.305 115.641 648.799 117.236C646.292 118.831 644.185 119.629 642.476 119.629C641.108 119.629 639.513 118.831 637.69 117.236C635.867 115.755 634.956 113.021 634.956 109.033C634.956 107.666 635.412 105.9 636.323 103.735C637.235 101.457 638.374 99.0641 639.741 96.5576C641.222 93.9372 644.185 89.4938 648.628 83.2275C653.185 76.8473 656.261 72.6888 657.856 70.752C659.565 68.8151 661.047 67.2201 662.3 65.9668C663.667 64.7135 664.635 64.0869 665.205 64.0869C665.775 64.0869 666.401 64.4287 667.085 65.1123C667.769 65.682 668.395 66.4795 668.965 67.5049C669.534 68.4163 669.99 69.3848 670.332 70.4102C670.674 71.4355 670.845 72.29 670.845 72.9736C670.845 73.3154 666.914 79.012 659.053 90.0635C658.027 91.4307 657.002 92.7409 655.977 93.9941L656.147 94.165V94.6777C656.717 94.7917 657.287 94.9626 657.856 95.1904C658.54 95.4183 659.11 95.6462 659.565 95.874C661.274 96.8994 662.015 98.2666 661.787 99.9756C661.673 100.545 661.502 101.115 661.274 101.685Z" fill="white"/>
</g>
</svg>
