<svg width="550" height="197" viewBox="0 0 550 197" fill="none" xmlns="http://www.w3.org/2000/svg">
<path d="M75.3662 19.9951C70.0114 20.6787 64.9414 21.4193 60.1562 22.2168C48.0794 24.1536 37.7686 26.1475 29.2236 28.1982C20.6787 30.249 14.0706 32.2428 9.39941 34.1797C4.84212 36.0026 2.56348 37.5407 2.56348 38.7939C2.56348 39.4775 3.01921 40.2751 3.93066 41.1865L5.29785 42.5537C4.61426 42.5537 3.58887 41.9271 2.22168 40.6738C0.74056 39.4206 0 37.8255 0 35.8887C0 32.1289 3.13314 28.654 9.39941 25.4639C15.6657 22.2738 23.9258 19.4824 34.1797 17.0898C44.4336 14.5833 56.1117 12.4186 69.2139 10.5957C73.999 9.91211 79.069 9.28548 84.4238 8.71582L86.3037 6.32324C86.6455 5.98145 87.0443 5.46875 87.5 4.78516C87.9557 4.21549 88.4115 3.64583 88.8672 3.07617C89.3229 2.39258 89.6647 1.65202 89.8926 0.854492C90.1204 0.284831 90.5192 0 91.0889 0C92.1143 0 93.0827 0.626628 93.9941 1.87988C95.0195 3.01921 95.8171 4.21549 96.3867 5.46875L96.0449 7.51953C101.628 6.94987 107.438 6.43717 113.477 5.98145C129.769 4.84212 143.612 4.15853 155.005 3.93066C157.397 3.93066 159.733 3.8737 162.012 3.75977C162.24 3.5319 162.467 3.24707 162.695 2.90527C163.151 2.33561 163.493 1.65202 163.721 0.854492C163.949 0.284831 164.347 0 164.917 0C165.942 0 166.968 0.569661 167.993 1.70898C168.449 2.39258 168.905 3.07617 169.36 3.75977C175.171 3.8737 180.64 4.0446 185.767 4.27246C189.071 4.38639 191.748 4.50033 193.799 4.61426C195.85 4.72819 197.445 4.95605 198.584 5.29785C199.723 5.63965 200.464 6.15234 200.806 6.83594C201.261 7.51953 201.489 8.43099 201.489 9.57031C201.489 10.9375 201.09 12.3047 200.293 13.6719C199.609 14.9251 198.299 15.4948 196.362 15.3809H195.337C186.222 15.0391 177.279 14.8112 168.506 14.6973L168.335 16.0645C158.993 28.0273 150.22 38.9648 142.017 48.877C133.813 58.7891 126.237 68.2454 119.287 77.2461C112.451 86.2467 106.356 95.0765 101.001 103.735C95.6462 112.28 91.0889 121.281 87.3291 130.737C87.2152 131.307 86.8164 131.592 86.1328 131.592C85.2214 131.592 84.139 130.908 82.8857 129.541C81.7464 128.288 81.2337 126.522 81.3477 124.243C81.4616 120.711 82.7148 116.325 85.1074 111.084C87.6139 105.843 90.7471 100.09 94.5068 93.8232C98.3805 87.557 102.767 81.0059 107.666 74.1699C112.565 67.334 117.578 60.555 122.705 53.833C127.832 46.9971 132.845 40.5029 137.744 34.3506C142.757 28.0843 147.257 22.4447 151.245 17.4316L153.467 14.6973C140.934 14.8112 128.971 15.2669 117.578 16.0645L100.488 17.4316C97.8678 17.6595 95.3613 17.8874 92.9688 18.1152C84.196 29.2806 75.9359 39.5345 68.1885 48.877C59.9854 58.7891 52.4089 68.2454 45.459 77.2461C38.623 86.2467 32.5277 95.0765 27.1729 103.735C21.818 112.28 17.2607 121.281 13.501 130.737C13.387 131.307 12.9883 131.592 12.3047 131.592C11.3932 131.592 10.3109 130.908 9.05762 129.541C7.91829 128.288 7.4056 126.522 7.51953 124.243C7.63346 120.711 8.88672 116.325 11.2793 111.084C13.7858 105.843 16.9189 100.09 20.6787 93.8232C24.5524 87.557 28.9388 81.0059 33.8379 74.1699C38.737 67.334 43.75 60.555 48.877 53.833C54.0039 46.9971 59.0739 40.446 64.0869 34.1797C68.1885 29.0527 71.9482 24.3245 75.3662 19.9951Z" fill="white" fill-opacity="0.05"/>
<path d="M171.616 91.9434C167.856 97.4121 164.438 101.912 161.362 105.444C158.286 108.976 155.21 112.109 152.134 114.844C149.058 117.578 146.152 119.8 143.418 121.509C140.684 123.218 138.291 124.072 136.24 124.072C133.962 124.072 132.082 122.705 130.601 119.971C129.006 117.35 128.208 114.502 128.208 111.426C128.208 109.033 128.892 106.128 130.259 102.71C131.626 99.1781 133.221 95.8171 135.044 92.627C136.867 89.3229 138.633 86.5316 140.342 84.2529C142.165 81.8604 143.418 80.4932 144.102 80.1514C144.899 77.5309 146.323 75.0244 148.374 72.6318C150.425 70.1253 152.76 67.9606 155.381 66.1377C158.001 64.3148 160.679 62.8906 163.413 61.8652C166.261 60.7259 168.711 60.1562 170.762 60.1562C171.559 60.1562 172.585 60.4411 173.838 61.0107C175.205 61.4665 176.515 62.1501 177.769 63.0615C179.022 63.859 180.104 64.8275 181.016 65.9668C181.927 67.1061 182.383 68.3024 182.383 69.5557C182.383 71.8343 181.528 74.7396 179.819 78.2715C178.224 81.8034 175.49 86.3607 171.616 91.9434ZM167.686 91.2598C170.762 86.5885 173.268 82.2021 175.205 78.1006C177.142 73.8851 178.11 70.695 178.11 68.5303C178.11 67.7327 177.655 67.334 176.743 67.334C175.376 67.334 173.667 67.8467 171.616 68.8721C169.565 69.7835 167.401 70.9798 165.122 72.4609C162.843 73.9421 160.679 75.651 158.628 77.5879C156.577 79.5247 154.868 81.4046 153.501 83.2275C153.957 83.6833 154.185 84.2529 154.185 84.9365C154.185 85.6201 153.273 87.3291 151.45 90.0635L148.716 93.9941C147.349 95.931 145.924 98.0387 144.443 100.317C142.962 102.482 141.595 104.647 140.342 106.812C139.089 108.862 138.063 110.913 137.266 112.964C136.468 114.901 136.069 116.553 136.069 117.92C136.069 118.262 136.297 118.433 136.753 118.433C138.804 118.433 140.968 117.806 143.247 116.553C145.64 115.413 148.032 113.818 150.425 111.768C152.817 109.717 155.153 107.381 157.432 104.761C159.824 102.026 162.046 99.235 164.097 96.3867L167.686 91.2598Z" fill="white" fill-opacity="0.05"/>
<path d="M188.057 114.844C189.424 114.844 191.247 114.16 193.525 112.793C195.918 111.312 198.481 109.432 201.216 107.153C204.064 104.875 206.969 102.254 209.932 99.292C213.008 96.2158 216.027 93.1396 218.989 90.0635C217.736 89.4938 217.109 88.6393 217.109 87.5C217.109 87.1582 217.565 86.5316 218.477 85.6201C219.502 84.7087 220.527 83.6833 221.553 82.5439C222.692 81.2907 223.717 79.9235 224.629 78.4424C225.654 76.9613 226.167 75.5371 226.167 74.1699C226.167 72.9167 225.54 72.29 224.287 72.29C223.262 72.29 221.61 73.0306 219.331 74.5117C217.052 75.9928 214.489 77.9867 211.641 80.4932C208.906 82.8857 206.058 85.6201 203.096 88.6963C200.247 91.6585 197.57 94.6777 195.063 97.7539C192.671 100.83 190.677 103.735 189.082 106.47C187.601 109.204 186.86 111.54 186.86 113.477C186.86 114.388 187.259 114.844 188.057 114.844ZM128.584 189.868C134.053 188.387 139.123 186.279 143.794 183.545C148.351 180.924 152.852 177.507 157.295 173.291C161.738 169.189 166.296 164.233 170.967 158.423C175.524 152.726 180.594 146.061 186.177 138.428C181.847 141.048 177.233 143.896 172.334 146.973C167.321 150.049 161.909 153.41 156.099 157.056C149.377 161.385 143.851 165.145 139.521 168.335C135.078 171.639 131.603 174.487 129.097 176.88C126.476 179.272 124.71 181.266 123.799 182.861C122.773 184.57 122.261 185.938 122.261 186.963C122.261 188.216 122.716 189.071 123.628 189.526C124.539 189.982 125.565 190.21 126.704 190.21C127.274 190.21 127.9 190.096 128.584 189.868ZM206.685 130.396C199.279 140.422 192.671 149.251 186.86 156.885C180.024 165.771 173.587 173.063 167.549 178.76C161.51 184.57 155.586 188.9 149.775 191.748C143.965 194.596 137.756 196.021 131.147 196.021C128.071 196.021 125.337 194.995 122.944 192.944C120.438 190.894 119.185 188.273 119.185 185.083C119.185 181.323 121.292 177.336 125.508 173.12C129.723 168.905 135.306 164.461 142.256 159.79C149.206 155.119 157.124 150.163 166.011 144.922C174.784 139.795 183.727 134.497 192.842 129.028C195.576 125.155 198.481 121.053 201.558 116.724C204.634 112.508 207.881 108.008 211.299 103.223C209.134 105.387 206.912 107.495 204.634 109.546C202.469 111.597 200.418 113.42 198.481 115.015C196.545 116.496 194.779 117.692 193.184 118.604C191.589 119.515 190.278 119.971 189.253 119.971C188.569 119.971 187.601 119.743 186.348 119.287C185.094 118.945 183.841 118.262 182.588 117.236C181.449 116.325 180.48 115.015 179.683 113.306C178.771 111.483 178.315 109.204 178.315 106.47C178.315 104.191 178.999 101.571 180.366 98.6084C181.733 95.5322 183.556 92.4561 185.835 89.3799C188.114 86.3037 190.677 83.2845 193.525 80.3223C196.374 77.36 199.279 74.7396 202.241 72.4609C205.317 70.0684 208.28 68.1885 211.128 66.8213C213.976 65.3402 216.483 64.5996 218.647 64.5996C220.47 64.5996 222.122 64.9414 223.604 65.625C225.199 66.3086 226.509 67.2201 227.534 68.3594C228.674 69.4987 229.528 70.752 230.098 72.1191C230.781 73.4863 231.123 74.9105 231.123 76.3916V76.7334C233.63 73.8851 235.339 72.4609 236.25 72.4609C236.82 72.4609 237.446 72.8027 238.13 73.4863C238.813 74.056 239.44 74.8535 240.01 75.8789C240.579 76.7904 241.035 77.7588 241.377 78.7842C241.719 79.8096 241.89 80.6641 241.89 81.3477C241.89 81.6895 241.491 82.43 240.693 83.5693C240.01 84.7087 239.041 86.1328 237.788 87.8418C236.421 89.8926 234.826 92.1143 233.003 94.5068C231.408 96.5576 229.585 99.0072 227.534 101.855C225.939 104.02 223.091 107.951 218.989 113.647C221.724 111.597 224.002 109.774 225.825 108.179C228.104 106.014 230.326 103.849 232.49 101.685C236.478 97.9248 242.174 92.627 249.58 85.791C249.58 85.5632 249.808 85.3353 250.264 85.1074C250.719 84.8796 251.004 85.1074 251.118 85.791C251.232 86.9303 251.118 87.8418 250.776 88.5254C250.435 89.209 250.207 89.6077 250.093 89.7217C243.371 96.8994 238.016 102.425 234.028 106.299C230.838 109.375 227.534 112.394 224.116 115.356C220.698 118.319 214.888 123.332 206.685 130.396Z" fill="white" fill-opacity="0.05"/>
<path d="M328.433 67.334C328.433 67.5618 328.148 68.1315 327.578 69.043C327.008 69.9544 326.268 71.0368 325.356 72.29L309.121 95.7031C312.881 92.0573 316.641 88.6393 320.4 85.4492C324.274 82.1452 327.92 79.1829 331.338 76.5625C334.87 73.8281 338.117 71.4925 341.079 69.5557C344.041 67.5049 346.491 65.9668 348.428 64.9414C349.111 64.5996 349.909 64.5996 350.82 64.9414C351.732 65.1693 352.529 65.625 353.213 66.3086C353.896 66.9922 354.409 67.7897 354.751 68.7012C355.207 69.4987 355.378 70.2393 355.264 70.9229C355.15 71.1507 354.865 71.3786 354.409 71.6064C354.067 71.8343 352.358 72.8027 349.282 74.5117C346.32 76.1068 342.959 78.0436 339.199 80.3223C335.439 82.487 331.794 84.7087 328.262 86.9873C324.73 89.266 322.28 91.0889 320.913 92.4561C320.685 92.6839 320.457 92.8548 320.229 92.9688C321.369 93.1966 322.451 93.5384 323.477 93.9941C324.502 94.3359 325.243 95.0195 325.698 96.0449C326.724 98.3236 327.863 101.001 329.116 104.077C330.483 107.153 332.078 110.116 333.901 112.964C335.724 115.812 337.718 118.205 339.883 120.142C342.048 122.192 344.497 123.218 347.231 123.218C348.143 123.218 349.339 122.933 350.82 122.363C352.301 121.908 353.213 121.68 353.555 121.68C354.238 121.68 354.58 121.965 354.58 122.534C354.58 122.876 354.238 123.332 353.555 123.901C352.871 124.471 351.96 124.984 350.82 125.439C349.795 126.009 348.599 126.465 347.231 126.807C345.864 127.262 344.44 127.49 342.959 127.49C338.971 127.49 335.382 126.408 332.192 124.243C329.002 122.078 326.211 119.458 323.818 116.382C321.426 113.42 319.375 110.286 317.666 106.982C316.071 103.678 314.875 100.887 314.077 98.6084C314.077 98.7223 314.02 98.7793 313.906 98.7793C313.678 99.0072 312.767 99.8617 311.172 101.343C309.577 102.824 307.697 104.59 305.532 106.641C303.481 108.691 301.374 110.799 299.209 112.964C297.044 115.129 295.278 117.065 293.911 118.774C292.886 120.256 292.145 121.395 291.689 122.192C291.12 122.99 290.721 123.56 290.493 123.901C290.265 124.243 290.094 124.471 289.98 124.585C289.867 124.699 289.696 124.756 289.468 124.756C288.898 124.87 288.271 124.585 287.588 123.901C286.79 123.332 285.993 122.249 285.195 120.654C284.854 119.857 285.024 118.547 285.708 116.724C286.961 113.534 288.898 109.546 291.519 104.761C294.139 99.9756 297.215 94.7347 300.747 89.0381C304.279 83.3415 308.267 77.1891 312.71 70.5811C317.267 63.859 319.831 60.2132 320.4 59.6436C321.54 58.7321 322.337 58.2764 322.793 58.2764C323.363 58.2764 323.989 58.6182 324.673 59.3018C325.356 59.9854 325.983 60.7829 326.553 61.6943C327.122 62.6058 327.578 63.5742 327.92 64.5996C328.262 65.625 328.433 66.5365 328.433 67.334Z" fill="white" fill-opacity="0.05"/>
<path d="M425.024 90.4053C425.252 90.1774 425.537 90.0065 425.879 89.8926C426.335 89.6647 426.562 89.8926 426.562 90.5762C426.562 91.7155 426.335 92.627 425.879 93.3105C425.537 93.8802 425.309 94.222 425.195 94.3359C420.866 99.1211 416.764 103.451 412.891 107.324C409.017 111.084 405.485 114.103 402.295 116.382C399.219 118.774 396.541 119.971 394.263 119.971C392.782 119.971 391.13 119.173 389.307 117.578C387.598 116.097 386.743 113.363 386.743 109.375C386.743 107.438 387.541 104.761 389.136 101.343C390.845 97.9248 392.896 94.3359 395.288 90.5762C391.528 94.5638 387.882 98.3236 384.351 101.855C380.819 105.387 377.515 108.521 374.438 111.255C371.362 113.875 368.571 115.983 366.064 117.578C363.558 119.173 361.45 119.971 359.741 119.971C358.374 119.971 356.779 119.173 354.956 117.578C353.133 116.097 352.222 113.363 352.222 109.375C352.222 108.008 352.677 106.242 353.589 104.077C354.5 101.799 355.64 99.4059 357.007 96.8994C358.488 94.279 360.653 91.2598 363.501 87.8418C366.463 84.3099 368.229 82.5439 368.799 82.5439C369.368 82.5439 369.995 82.8857 370.679 83.5693C371.362 84.139 371.989 84.9365 372.559 85.9619C373.128 86.8734 373.584 87.8418 373.926 88.8672C374.268 89.8926 374.438 90.7471 374.438 91.4307C374.438 91.7725 373.698 92.9688 372.217 95.0195C370.85 97.0703 369.767 98.5514 368.97 99.4629C368.286 100.374 367.603 101.514 366.919 102.881C366.235 104.134 365.153 106.014 363.672 108.521C362.305 110.913 361.621 112.622 361.621 113.647C361.621 113.989 361.735 114.16 361.963 114.16C362.988 114.16 364.583 113.42 366.748 111.938C368.913 110.343 371.419 108.35 374.268 105.957C377.116 103.451 380.135 100.659 383.325 97.583C386.515 94.3929 389.705 91.2028 392.896 88.0127C396.086 84.8226 399.105 81.7464 401.953 78.7842C404.801 75.8219 407.308 73.2585 409.473 71.0938C411.068 69.1569 412.492 67.6188 413.745 66.4795C414.998 65.2262 415.91 64.5996 416.479 64.5996C417.049 64.5996 417.676 64.9414 418.359 65.625C419.043 66.3086 419.67 67.1061 420.239 68.0176C420.809 68.929 421.265 69.9544 421.606 71.0938C421.948 72.1191 422.119 72.9736 422.119 73.6572C422.119 73.999 421.436 75.1383 420.068 77.0752C418.815 78.8981 417.22 81.1198 415.283 83.7402C413.46 86.3607 411.41 89.209 409.131 92.2852C406.852 95.3613 404.744 98.3236 402.808 101.172C400.985 104.02 399.39 106.584 398.022 108.862C396.769 111.027 396.143 112.622 396.143 113.647C396.143 113.989 396.257 114.16 396.484 114.16C398.193 114.16 400.244 113.192 402.637 111.255C405.143 109.318 408.105 106.641 411.523 103.223C414.941 99.8047 419.442 95.5322 425.024 90.4053Z" fill="white" fill-opacity="0.05"/>
<path d="M495.298 91.2598C498.374 86.5885 500.881 82.2021 502.817 78.1006C504.754 73.8851 505.723 70.695 505.723 68.5303C505.723 67.7327 505.267 67.334 504.355 67.334C502.988 67.334 501.279 67.8467 499.229 68.8721C497.178 69.7835 495.013 70.9798 492.734 72.4609C490.456 73.9421 488.291 75.651 486.24 77.5879C484.189 79.5247 482.48 81.4046 481.113 83.2275C481.569 83.6833 481.797 84.2529 481.797 84.9365C481.797 85.6201 480.885 87.3291 479.062 90.0635L476.328 93.9941C474.961 95.931 473.537 98.0387 472.056 100.317C470.575 102.482 469.207 104.647 467.954 106.812C466.701 108.862 465.675 110.913 464.878 112.964C464.08 114.901 463.682 116.553 463.682 117.92C463.682 118.262 463.91 118.433 464.365 118.433C466.416 118.433 468.581 117.806 470.859 116.553C473.252 115.413 475.645 113.818 478.037 111.768C480.43 109.717 482.765 107.381 485.044 104.761C487.437 102.026 489.658 99.235 491.709 96.3867L495.298 91.2598ZM460.435 96.8994C459.295 97.3551 458.213 97.8109 457.188 98.2666C452.972 100.09 448.927 101.001 445.054 101.001C441.864 101.001 439.243 100.317 437.192 98.9502C435.711 101.115 434.059 103.564 432.236 106.299C426.768 114.388 423.976 118.547 423.862 118.774L424.204 118.091C422.951 119.572 422.153 120.312 421.812 120.312C421.242 120.426 420.387 119.971 419.248 118.945C418.109 117.92 417.083 116.61 416.172 115.015C415.716 113.875 415.944 112.565 416.855 111.084C418.223 108.805 419.989 105.9 422.153 102.368C424.432 98.8363 426.825 95.1335 429.331 91.2598C431.838 87.3861 434.344 83.5124 436.851 79.6387C439.471 75.765 441.921 72.29 444.199 69.2139C445.225 67.9606 445.965 66.8213 446.421 65.7959C446.877 64.7705 447.275 63.916 447.617 63.2324C448.073 62.5488 448.472 62.0361 448.813 61.6943C449.269 61.3525 449.896 61.1816 450.693 61.1816C451.719 61.1816 452.858 62.0361 454.111 63.7451C455.365 65.3402 456.219 66.9922 456.675 68.7012C456.903 69.7266 456.846 70.5811 456.504 71.2646C456.162 71.9482 455.535 72.9167 454.624 74.1699C453.713 75.3092 452.63 76.7904 451.377 78.6133C450.124 80.3223 448.757 82.2021 447.275 84.2529C445.908 86.3037 444.427 88.4684 442.832 90.7471C442.604 91.0889 442.319 91.5446 441.978 92.1143C441.864 92.6839 441.807 93.3105 441.807 93.9941C441.807 94.6777 441.978 95.1904 442.319 95.5322C442.661 95.7601 443.687 95.874 445.396 95.874C451.32 95.874 457.017 94.4499 462.485 91.6016C462.827 91.3737 463.169 91.2028 463.511 91.0889C465.106 88.4684 466.644 86.1328 468.125 84.082C469.834 81.8034 471.03 80.4932 471.714 80.1514C472.511 77.5309 473.936 75.0244 475.986 72.6318C478.037 70.1253 480.373 67.9606 482.993 66.1377C485.614 64.3148 488.291 62.8906 491.025 61.8652C493.874 60.7259 496.323 60.1562 498.374 60.1562C499.172 60.1562 500.197 60.4411 501.45 61.0107C502.817 61.4665 504.128 62.1501 505.381 63.0615C506.634 63.859 507.716 64.8275 508.628 65.9668C509.539 67.1061 509.995 68.3024 509.995 69.5557C509.995 71.8343 509.141 74.7396 507.432 78.2715C505.837 81.8034 503.102 86.3607 499.229 91.9434C495.469 97.4121 492.051 101.912 488.975 105.444C485.898 108.976 482.822 112.109 479.746 114.844C476.67 117.578 473.765 119.8 471.03 121.509C468.296 123.218 465.903 124.072 463.853 124.072C461.574 124.072 459.637 122.705 458.042 119.971C456.561 117.35 455.82 114.502 455.82 111.426C455.82 109.033 456.504 106.071 457.871 102.539C458.669 100.602 459.523 98.7223 460.435 96.8994Z" fill="white" fill-opacity="0.05"/>
<path d="M552.925 82.2021C552.241 83.1136 551.501 84.139 550.703 85.2783C549.564 86.7594 548.538 88.1266 547.627 89.3799C546.829 90.6331 546.089 91.6585 545.405 92.4561C543.696 94.6208 541.873 96.9564 539.937 99.4629C538 101.969 536.177 104.419 534.468 106.812C532.759 109.09 531.335 111.198 530.195 113.135C529.056 115.072 528.486 116.553 528.486 117.578C528.486 117.806 528.6 117.92 528.828 117.92C530.537 117.92 532.873 116.781 535.835 114.502C538.797 112.109 542.272 108.976 546.26 105.103C550.247 101.115 555.09 96.5007 560.786 91.2598C561.014 91.0319 561.299 90.861 561.641 90.7471C562.096 90.5192 562.324 90.7471 562.324 91.4307C562.324 92.57 562.153 93.4814 561.812 94.165C561.47 94.7347 561.185 95.0765 560.957 95.1904C559.248 96.8994 557.995 98.2096 557.197 99.1211C556.4 99.9186 554.349 101.969 551.045 105.273C547.855 108.464 544.722 111.369 541.646 113.989C538.569 116.61 535.664 118.717 532.93 120.312C530.309 122.021 528.088 122.876 526.265 122.876C524.214 122.876 522.562 121.908 521.309 119.971C520.169 118.034 519.6 115.869 519.6 113.477C519.6 111.312 520.397 108.577 521.992 105.273C523.701 101.969 525.41 98.9502 527.119 96.2158C528.828 93.3675 530.195 91.2028 531.221 89.7217C533.271 86.7594 536.177 82.9427 539.937 78.2715C543.81 73.6003 545.747 71.0368 545.747 70.5811H540.449C539.652 70.5811 538.854 70.5811 538.057 70.5811C537.259 70.5811 536.405 70.4671 535.493 70.2393L533.784 69.7266C529.91 73.0306 526.094 76.3916 522.334 79.8096C515.156 86.1898 508.833 92.1712 503.364 97.7539C503.136 97.9818 502.795 98.2096 502.339 98.4375C501.997 98.5514 501.826 98.2666 501.826 97.583C501.712 96.4437 501.826 95.5892 502.168 95.0195C502.51 94.3359 502.795 93.9372 503.022 93.8232C504.618 92.0003 505.757 90.6331 506.44 89.7217C507.238 88.8102 509.175 86.7025 512.251 83.3984C515.441 79.9805 518.517 76.9043 521.479 74.1699C523.758 72.0052 526.265 69.7266 528.999 67.334C528.201 66.4225 527.803 65.3402 527.803 64.0869C527.803 63.2894 528.145 62.8906 528.828 62.8906C528.942 62.8906 529.227 63.0046 529.683 63.2324C530.252 63.5742 531.221 63.8021 532.588 63.916C534.069 64.0299 535.778 64.0869 537.715 64.0869C539.766 64.0869 541.873 64.0869 544.038 64.0869C546.317 63.973 548.368 63.859 550.19 63.7451C552.241 63.6312 554.349 63.4603 556.514 63.2324C557.767 63.2324 558.906 63.859 559.932 65.1123C561.071 66.2516 561.641 67.7897 561.641 69.7266C561.641 70.638 561.47 71.4355 561.128 72.1191C560.9 72.8027 560.615 73.3724 560.273 73.8281C559.362 75.1953 557.71 77.1322 555.317 79.6387C554.52 80.4362 553.722 81.2907 552.925 82.2021Z" fill="white" fill-opacity="0.05"/>
</svg>
