<svg width="123" height="41" viewBox="0 0 123 41" fill="none" xmlns="http://www.w3.org/2000/svg">
<path d="M4.411 8.51758L9.48025 14.8341H13.6857L7.54803 7.16729L13.3674 0.370117H9.29839L4.411 6.09165V0.370117H0.819336V14.8341H4.411V8.51758Z" fill="#30BF58"/>
<path d="M18.7071 0.370117H15.1836V14.8341H18.7071V0.370117Z" fill="#30BF58"/>
<path d="M28.0957 11.9506C27.7775 12.2023 27.3455 12.3396 26.8454 12.3396C26.3681 12.3396 25.9134 12.2252 25.4815 12.0192C25.0496 11.8133 24.6632 11.5158 24.2995 11.1267C23.9357 10.7376 23.6175 10.2799 23.322 9.75352L20.8896 11.5157C21.2079 12.2023 21.6853 12.8431 22.2536 13.4153C22.8446 13.9875 23.5266 14.4452 24.3449 14.7885C25.1633 15.1318 26.0044 15.292 26.9364 15.292C27.5956 15.292 28.2548 15.2004 28.8913 14.9944C29.5278 14.7885 30.0961 14.4909 30.5962 14.1248C31.0963 13.7357 31.4828 13.2551 31.7783 12.6829C32.0738 12.1108 32.2102 11.47 32.2102 10.7376C32.2102 10.1426 32.1193 9.59331 31.9147 9.13559C31.7328 8.67787 31.4601 8.24303 31.1191 7.89974C30.7781 7.53356 30.3916 7.23604 29.9597 6.9843C29.5278 6.73255 29.0504 6.50369 28.5503 6.3206C27.8684 6.09174 27.3001 5.86288 26.8454 5.65691C26.3681 5.45093 26.0044 5.22207 25.7543 4.97032C25.5042 4.71857 25.3679 4.44394 25.3679 4.10064C25.3679 3.78024 25.5042 3.52849 25.7543 3.29963C26.0044 3.09366 26.3908 2.97923 26.8909 2.97923C27.2546 2.97923 27.5956 3.04788 27.9366 3.1852C28.2548 3.32252 28.5503 3.52849 28.8231 3.78024C29.0959 4.03199 29.3232 4.32951 29.5278 4.6728L32.1647 3.1852C31.9147 2.6817 31.551 2.2011 31.0963 1.72049C30.6417 1.23988 30.0507 0.827927 29.346 0.530408C28.6413 0.210002 27.8002 0.0498047 26.8454 0.0498047C25.9134 0.0498047 25.0723 0.210002 24.2995 0.530408C23.5493 0.850813 22.9355 1.33142 22.5036 1.94935C22.049 2.56728 21.8444 3.29963 21.8444 4.16931C21.8444 4.87878 21.9808 5.4967 22.2308 6.0002C22.4809 6.50369 22.8219 6.93852 23.2083 7.28181C23.5948 7.62511 24.0267 7.92263 24.4813 8.1286C24.936 8.35746 25.3224 8.51766 25.6634 8.65498C26.3681 8.90673 26.9136 9.15848 27.3455 9.36445C27.7775 9.57043 28.073 9.79929 28.2776 10.0053C28.4594 10.2341 28.5731 10.5316 28.5731 10.8978C28.5958 11.3327 28.4367 11.676 28.0957 11.9506Z" fill="#30BF58"/>
<path d="M37.8941 14.8341H44.1227V11.9734H37.8941V8.65489H43.7135V5.8399H37.8941V3.25377H44.1227V0.370117H37.8941H36.8711H34.5752V14.8341H36.8711H37.8941Z" fill="#30BF58"/>
<path d="M56.1934 11.8361H50.4194V0.370117H46.9414V14.8341H56.1934V11.8361Z" fill="#30BF58"/>
<path d="M67.3326 11.9734H61.104V8.65489H66.9234V5.8399H61.104V3.25377H67.3326V0.370117H61.104H60.0811H57.7852V14.8341H60.0811H61.104H67.3326V11.9734Z" fill="#30BF58"/>
<path d="M83.7457 0.370117H79.6994L76.1759 9.02107L72.6752 0.370117H68.6289L76.1759 15.7496L83.7457 0.370117Z" fill="#30BF58"/>
<path d="M8.43359 33.2803L2.31867 24.4463L0 39.6427H3.65986L4.52368 32.2733L8.43359 38.2924L12.389 32.2733L13.2528 39.6427H16.8899L14.5712 24.4463L8.43359 33.2803Z" fill="white"/>
<path d="M17.5713 39.6422H21.4812L22.8224 36.8501H27.4143L28.7555 39.6422H32.6881L25.1411 24.2627L17.5713 39.6422ZM26.7323 34.1953H23.5271L25.1183 30.4877L26.7323 34.1953Z" fill="white"/>
<path d="M42.5094 34.0122C43.3277 33.6231 43.9642 33.051 44.3734 32.3415C44.8053 31.632 45.0099 30.8081 45.0099 29.8927C45.0099 28.9544 44.8053 28.1305 44.3734 27.421C43.9415 26.7115 43.3277 26.1623 42.5094 25.7503C41.691 25.3612 40.6681 25.1553 39.4406 25.1553H37.6675H36.3717H34.1895V39.6193H37.6675V34.6072H38.7131L41.8047 39.6193H45.8737L42.1229 34.1724C42.2593 34.1266 42.3957 34.0809 42.5094 34.0122ZM37.6675 28.1305H39.1905C39.6451 28.1305 40.0543 28.1991 40.3953 28.3593C40.7363 28.5195 40.9863 28.7255 41.1682 29.0001C41.35 29.2748 41.441 29.6181 41.441 30.03C41.441 30.442 41.35 30.7624 41.1682 31.0599C40.9863 31.3345 40.7363 31.5634 40.3953 31.7007C40.0543 31.838 39.6679 31.9067 39.1905 31.9067H37.6675V28.1305Z" fill="white"/>
<path d="M60.0354 25.1797H55.9664L51.079 30.8783V25.1797H47.4873V39.6437H51.079V33.3271L56.1255 39.6437H60.3309L54.1933 31.954L60.0354 25.1797Z" fill="white"/>
<path d="M64.126 25.1797H61.8301V39.6437H64.126H65.149H71.3775V36.7601H65.149V33.4416H70.9684V30.6266H65.149V28.0405H71.3775V25.1797H65.149H64.126Z" fill="white"/>
<path d="M72.7646 28.2922H76.72V39.6437H80.1753V28.2922H84.1307V25.1797H72.7646V28.2922Z" fill="white"/>
<path d="M89.2461 25.1797H85.7227V39.6437H89.2461V25.1797Z" fill="white"/>
<path d="M102.203 33.3261L92.292 24.4463V39.6427H95.6109V31.4952L105.545 40.375V25.1786H102.203V33.3261Z" fill="white"/>
<path d="M122.981 31.7248H115.707V34.4025H119.526C119.412 34.7686 119.23 35.1119 119.026 35.4552C118.821 35.7756 118.548 36.0503 118.253 36.302C117.935 36.5538 117.571 36.7368 117.162 36.8513C116.753 36.9886 116.275 37.0573 115.752 37.0573C114.911 37.0573 114.161 36.8742 113.502 36.4851C112.843 36.096 112.343 35.5697 111.956 34.8831C111.57 34.1965 111.388 33.3726 111.388 32.4114C111.388 31.4502 111.592 30.6262 111.979 29.9626C112.365 29.2989 112.888 28.7725 113.547 28.4292C114.207 28.063 114.934 27.9028 115.752 27.9028C116.593 27.9028 117.275 28.0859 117.844 28.475C118.389 28.864 118.844 29.3217 119.162 29.9168L122.231 28.3148C121.776 27.6511 121.254 27.0331 120.617 26.5296C120.003 26.0033 119.276 25.6142 118.48 25.3167C117.662 25.0192 116.753 24.8818 115.752 24.8818C114.616 24.8818 113.57 25.0649 112.593 25.4082C111.615 25.7744 110.774 26.2779 110.047 26.9416C109.319 27.6053 108.751 28.4063 108.364 29.3217C107.978 30.2601 107.773 31.29 107.773 32.4343C107.773 33.5786 107.978 34.6313 108.364 35.5697C108.751 36.508 109.296 37.3319 110.001 38.0185C110.706 38.7051 111.524 39.2314 112.479 39.5976C113.434 39.9638 114.479 40.1469 115.639 40.1469C116.866 40.1469 117.935 39.9409 118.889 39.5061C119.844 39.0712 120.617 38.4762 121.254 37.6981C121.89 36.9199 122.345 36.0274 122.64 35.0433C122.936 33.9676 123.049 32.892 122.981 31.7248Z" fill="white"/>
</svg>
