<svg width="1120" height="284" viewBox="0 0 1120 284" fill="none" xmlns="http://www.w3.org/2000/svg">
<g opacity="0.05">
<path d="M292.382 0C296.544 0 300.273 1.47614 303.567 4.42842C306.862 7.20704 308.51 10.4198 308.51 14.0667C308.51 16.1507 307.903 18.061 306.689 19.7976C301.66 27.9598 296.631 35.5142 291.602 42.4607C286.573 49.2336 281.283 56.1802 275.734 63.3004C270.358 70.2469 264.548 77.8013 258.305 85.9634C252.236 93.952 245.386 103.33 237.755 114.097C230.299 124.69 221.974 137.021 212.783 151.087C203.766 165.154 193.621 181.652 182.349 200.581C178.36 207.181 175.499 211.956 173.764 214.909C172.03 217.861 170.209 219.337 168.302 219.337C167.608 219.337 166.568 219.077 165.18 218.556C163.793 218.035 162.319 217.34 160.758 216.472C159.371 215.777 158.157 214.909 157.116 213.867C156.076 212.825 155.556 211.87 155.556 211.001C155.556 208.396 157.463 203.447 161.278 196.153C165.267 189.033 170.383 180.523 176.626 170.624C183.042 160.726 190.326 149.872 198.476 138.063C206.627 126.253 214.951 114.357 223.449 102.375C243.392 74.4148 266.109 43.5027 291.602 9.63833V9.11734H291.081C287.093 9.11734 281.197 11.6355 273.393 16.6717C265.762 21.5343 257.005 28.1335 247.12 36.4693C237.235 44.6315 226.57 53.9225 215.124 64.3423C203.852 74.7621 192.667 85.5293 181.568 96.6438C170.469 107.585 159.804 118.352 149.573 128.945C139.514 139.365 130.67 148.743 123.04 157.079C119.918 160.552 115.93 162.289 111.074 162.289C108.82 162.289 106.912 161.854 105.351 160.986C103.79 160.118 102.576 159.076 101.709 157.86C100.842 156.645 100.149 155.342 99.6284 153.953C99.2816 152.563 99.1081 151.435 99.1081 150.566C99.1081 148.309 99.8018 144.922 101.189 140.407C102.576 135.892 104.397 130.769 106.652 125.038C109.08 119.307 111.768 113.142 114.716 106.543C117.837 99.9434 120.959 93.3441 124.08 86.7449C131.364 71.2889 139.775 54.5303 149.313 36.4693C148.966 36.4693 146.538 38.5533 142.029 42.7212C137.52 46.7155 131.711 52.0122 124.601 58.6114C117.664 65.037 109.86 72.5045 101.189 81.014C92.6917 89.3499 84.1075 97.8594 75.4366 106.543C66.9392 115.226 58.8753 123.735 51.2449 132.071C43.7879 140.233 37.6316 147.44 32.7759 153.692L30.4348 156.037C23.8449 164.025 18.5557 170.538 14.5671 175.574C10.5785 180.436 8.41075 182.868 8.06392 182.868C5.63607 182.868 3.72848 182.26 2.34114 181.044C0.780379 179.655 0 177.918 0 175.834C0 175.313 1.73418 172.535 5.20253 167.498C8.49746 162.462 12.9196 156.037 18.469 148.222C24.0183 140.407 30.3481 131.637 37.4582 121.912C44.5683 112.013 51.8519 102.027 59.3088 91.9548C66.7658 81.7087 74.0493 71.8099 81.1594 62.2584C88.443 52.5332 94.8594 43.9369 100.409 36.4693C106.132 29.0018 110.814 23.0104 114.456 18.4952C118.097 13.8063 120.092 11.4618 120.438 11.4618C122.866 11.4618 125.207 12.8511 127.462 15.6297C129.716 18.4083 130.844 20.9265 130.844 23.1841C130.844 23.8787 129.37 26.3969 126.421 30.7384C123.473 35.08 119.485 40.6373 114.456 47.4101C109.426 54.183 103.617 61.8242 97.0271 70.3337C90.6107 78.8432 83.9341 87.6132 76.9974 96.6438C86.0151 87.6132 95.2062 78.5827 104.571 69.5522C114.109 60.3481 122.693 52.1859 130.323 45.0657C138.127 37.7718 144.544 31.8673 149.573 27.352C154.602 22.8368 157.29 20.5791 157.637 20.5791C158.677 20.5791 159.891 20.9265 161.278 21.6211C162.666 22.3158 163.966 23.2709 165.18 24.4866C166.568 25.7022 167.695 27.1783 168.562 28.915C169.602 30.4779 170.123 32.1278 170.123 33.8644C170.123 35.7747 169.689 37.3377 168.822 38.5533C166.914 41.6792 164.313 46.1945 161.018 52.0991C157.897 57.83 154.428 64.1687 150.613 71.1152C146.971 78.0618 143.156 85.3556 139.168 92.9968C135.352 100.464 131.884 107.671 128.763 114.618C125.641 121.391 122.953 127.556 120.699 133.113C118.618 138.67 117.49 142.925 117.317 145.877C117.664 145.704 119.918 143.533 124.08 139.365C128.242 135.023 133.792 129.379 140.728 122.433C147.665 115.486 155.642 107.671 164.66 98.9882C173.678 90.305 183.042 81.4482 192.754 72.4177C202.638 63.3872 212.523 54.5303 222.408 45.8472C232.466 37.164 241.917 29.436 250.762 22.6631C259.78 15.8902 267.843 10.4198 274.954 6.25189C282.237 2.08396 288.047 0 292.382 0Z" fill="white"/>
<path d="M355.124 141.97C355.298 141.623 355.731 141.362 356.425 141.188C357.119 140.841 357.466 141.188 357.466 142.23C357.466 143.967 357.119 145.356 356.425 146.398C355.905 147.267 355.558 147.788 355.385 147.961C346.887 157.165 338.997 165.328 331.713 172.448C324.603 179.568 318.013 185.473 311.944 190.162C306.047 194.85 301.452 197.195 298.157 197.195C295.209 197.195 292.781 195.719 290.873 192.767C288.966 189.814 288.012 186.428 288.012 182.607C288.012 180.176 289.052 176.703 291.133 172.187C293.214 167.672 295.902 162.636 299.197 157.079C295.556 160.899 291.74 164.72 287.752 168.54C283.937 172.187 280.208 175.487 276.566 178.439C273.098 181.218 269.89 183.476 266.942 185.212C264.167 187.122 261.913 188.078 260.178 188.078C259.138 188.078 257.664 187.73 255.756 187.036C254.022 186.515 252.201 185.473 250.294 183.91C248.559 182.52 247.085 180.523 245.871 177.918C244.484 175.14 243.79 171.666 243.79 167.498C243.79 164.025 244.831 160.031 246.912 155.516C248.993 150.827 251.768 146.138 255.236 141.449C258.704 136.76 262.606 132.158 266.942 127.643C271.277 123.127 275.699 119.133 280.208 115.66C284.717 112.013 289.139 109.148 293.475 107.064C297.81 104.806 301.625 103.677 304.92 103.677C307.695 103.677 310.209 104.198 312.464 105.24C314.892 106.282 316.973 107.671 318.707 109.408C320.441 111.145 321.742 113.055 322.609 115.139C323.649 117.223 324.169 119.394 324.169 121.651C324.169 121.825 324.083 121.912 323.909 121.912C323.909 121.912 323.909 121.999 323.909 122.172C327.725 117.831 330.412 115.66 331.973 115.66C332.84 115.66 333.794 116.181 334.835 117.223C335.875 118.091 336.829 119.307 337.696 120.87C338.563 122.259 339.257 123.735 339.777 125.298C340.297 126.861 340.557 128.164 340.557 129.206C340.557 129.727 339.517 131.463 337.436 134.416C335.528 137.194 333.1 140.581 330.152 144.575C327.378 148.569 324.256 152.911 320.788 157.6C317.319 162.115 314.111 166.543 311.163 170.885C308.388 175.053 305.961 178.873 303.88 182.347C301.972 185.82 301.018 188.338 301.018 189.901C301.018 190.248 301.192 190.422 301.538 190.422C302.579 190.422 304.833 188.946 308.302 185.994C311.77 183.215 315.845 179.655 320.528 175.313C325.21 170.798 330.239 165.849 335.615 160.465C341.164 155.082 345.153 151.261 347.581 149.003C350.182 146.572 352.697 144.228 355.124 141.97ZM258.618 180.263C260.699 180.263 263.473 179.221 266.942 177.137C270.41 174.879 274.225 172.014 278.387 168.54C282.723 165.067 287.232 161.073 291.914 156.558C296.596 151.869 301.192 147.18 305.7 142.491C304.833 142.144 304.053 141.623 303.359 140.928C302.839 140.233 302.579 139.452 302.579 138.583C302.579 138.063 303.273 137.107 304.66 135.718C306.221 134.329 307.868 132.766 309.602 131.029C311.337 129.119 312.897 127.035 314.285 124.777C315.845 122.52 316.626 120.349 316.626 118.265C316.626 116.355 315.672 115.399 313.764 115.399C312.204 115.399 309.689 116.528 306.221 118.786C302.752 121.043 298.85 124.083 294.515 127.903C290.353 131.55 286.018 135.718 281.509 140.407C277.173 144.922 273.098 149.524 269.283 154.213C265.641 158.902 262.606 163.331 260.178 167.498C257.924 171.666 256.797 175.226 256.797 178.179C256.797 179.568 257.404 180.263 258.618 180.263Z" fill="white"/>
<path d="M448.562 145.877C445.267 151.782 441.278 157.686 436.596 163.591C432.087 169.322 427.058 174.532 421.509 179.221C416.133 183.91 410.41 187.73 404.34 190.683C398.271 193.635 392.288 195.111 386.392 195.111C380.495 195.111 375.466 194.069 371.304 191.985C367.142 190.075 364.281 187.904 362.72 185.473C355.61 193.288 348.847 200.842 342.43 208.136C335.84 215.603 329.858 222.463 324.482 228.715C319.452 235.488 314.77 241.913 310.435 247.992C306.099 254.07 302.284 259.453 298.989 264.142C295.521 268.831 292.746 272.739 290.665 275.865C288.411 279.164 286.937 281.335 286.243 282.377C285.376 283.94 284.422 284.374 283.382 283.679C282.341 282.985 281.04 281.943 279.48 280.553C278.092 279.164 277.052 277.167 276.358 274.562C275.491 271.957 275.578 269.439 276.618 267.008C277.312 265.966 278.179 264.75 279.22 263.361C288.064 249.641 296.301 237.138 303.932 225.849C311.562 214.735 319.452 203.447 327.603 191.985C335.754 180.523 344.771 168.193 354.656 154.995C364.541 141.796 376.16 126.34 389.513 108.627C389.86 108.106 390.12 107.671 390.294 107.324C390.467 106.803 390.554 106.195 390.554 105.501C390.901 102.722 392.114 102.201 394.195 103.938C398.184 107.237 400.699 110.971 401.739 115.139C402.953 119.133 402.086 123.127 399.138 127.122C395.67 131.637 392.028 136.5 388.213 141.709C384.397 146.919 380.409 152.39 376.247 158.121C383.53 150.479 390.64 143.186 397.577 136.239C404.687 129.119 411.19 122.867 417.087 117.483C423.156 111.926 428.359 107.585 432.694 104.459C437.03 101.159 440.151 99.5092 442.059 99.5092C444.14 99.5092 446.047 100.117 447.781 101.333C449.689 102.375 451.337 103.851 452.724 105.761C454.111 107.498 455.238 109.582 456.106 112.013C456.973 114.444 457.406 116.962 457.406 119.567C457.406 122.346 456.886 125.472 455.845 128.945C454.978 132.245 453.678 135.805 451.944 139.625L448.562 145.877ZM378.848 167.759C372.778 175.053 369.397 179.568 368.703 181.305C368.876 181.305 369.31 181.392 370.004 181.565C370.697 181.565 371.564 181.565 372.605 181.565C381.102 181.565 389.08 179.221 396.537 174.532C404.167 169.669 411.017 163.765 417.087 156.818L422.549 150.306C425.671 146.138 428.532 141.97 431.133 137.802C433.735 133.634 435.902 129.727 437.637 126.08C439.371 122.259 440.671 118.873 441.538 115.92C442.579 112.968 443.099 110.624 443.099 108.887C443.099 108.192 442.752 107.845 442.059 107.845C440.671 107.845 437.983 109.495 433.995 112.794C430.006 116.094 425.15 120.522 419.428 126.08C413.705 131.463 407.375 137.802 400.438 145.096C393.502 152.216 386.305 159.77 378.848 167.759Z" fill="white"/>
<path d="M522.49 107.845C522.49 108.192 522.056 109.061 521.189 110.45C520.322 111.839 519.195 113.489 517.807 115.399L493.095 151.087C498.818 145.53 504.541 140.32 510.264 135.458C516.16 130.421 521.709 125.906 526.912 121.912C532.288 117.744 537.23 114.184 541.739 111.231C546.248 108.106 549.976 105.761 552.925 104.198C553.965 103.677 555.179 103.677 556.566 104.198C557.954 104.545 559.168 105.24 560.208 106.282C561.249 107.324 562.029 108.54 562.549 109.929C563.243 111.145 563.503 112.273 563.33 113.315C563.156 113.663 562.723 114.01 562.029 114.357C561.509 114.705 558.907 116.181 554.225 118.786C549.716 121.217 544.601 124.169 538.878 127.643C533.155 130.942 527.606 134.329 522.23 137.802C516.854 141.275 513.125 144.054 511.044 146.138C510.697 146.485 510.351 146.746 510.004 146.919C511.738 147.267 513.385 147.788 514.946 148.482C516.507 149.003 517.634 150.045 518.328 151.608C519.889 155.082 521.623 159.163 523.53 163.852C525.611 168.54 528.039 173.056 530.814 177.397C533.588 181.739 536.623 185.386 539.918 188.338C543.213 191.464 546.942 193.027 551.104 193.027C552.491 193.027 554.312 192.593 556.566 191.725C558.821 191.03 560.208 190.683 560.728 190.683C561.769 190.683 562.289 191.117 562.289 191.985C562.289 192.506 561.769 193.201 560.728 194.069C559.688 194.937 558.3 195.719 556.566 196.413C555.006 197.282 553.185 197.976 551.104 198.497C549.023 199.192 546.855 199.539 544.601 199.539C538.531 199.539 533.068 197.89 528.213 194.59C523.357 191.29 519.108 187.296 515.466 182.607C511.825 178.092 508.703 173.316 506.102 168.28C503.674 163.244 501.853 158.989 500.639 155.516C500.639 155.689 500.552 155.776 500.379 155.776C500.032 156.124 498.645 157.426 496.217 159.684C493.789 161.941 490.928 164.633 487.633 167.759C484.511 170.885 481.303 174.098 478.008 177.397C474.713 180.697 472.025 183.649 469.944 186.254C468.383 188.512 467.256 190.248 466.563 191.464C465.696 192.68 465.089 193.548 464.742 194.069C464.395 194.59 464.135 194.937 463.961 195.111C463.788 195.285 463.528 195.371 463.181 195.371C462.314 195.545 461.36 195.111 460.32 194.069C459.106 193.201 457.892 191.551 456.678 189.12C456.158 187.904 456.418 185.907 457.458 183.128C459.366 178.266 462.314 172.187 466.302 164.894C470.291 157.6 474.973 149.611 480.349 140.928C485.725 132.245 491.795 122.867 498.558 112.794C505.495 102.548 509.397 96.9911 510.264 96.1228C511.998 94.7335 513.212 94.0388 513.906 94.0388C514.773 94.0388 515.726 94.5598 516.767 95.6018C517.807 96.6438 518.761 97.8594 519.628 99.2487C520.495 100.638 521.189 102.114 521.709 103.677C522.23 105.24 522.49 106.629 522.49 107.845Z" fill="white"/>
<path d="M653.645 133.113C653.819 132.766 654.252 132.505 654.946 132.332C655.64 131.984 655.987 132.332 655.987 133.374C655.987 135.11 655.64 136.5 654.946 137.542C654.426 138.41 654.079 138.931 653.906 139.104C652.518 140.494 650.871 142.057 648.963 143.793C647.229 145.53 643.587 148.916 638.038 153.953C632.315 158.815 626.419 163.331 620.349 167.498C614.28 171.493 608.037 174.879 601.62 177.658C595.377 180.263 589.308 181.565 583.411 181.565C577.168 181.565 572.313 179.915 568.844 176.616C565.549 173.316 563.902 168.714 563.902 162.81C563.902 158.294 564.856 153.519 566.763 148.482C568.497 143.446 570.925 138.41 574.047 133.374C577.168 128.337 580.81 123.562 584.972 119.046C588.961 114.357 593.123 110.276 597.458 106.803C601.967 103.156 606.476 100.291 610.985 98.2067C615.494 96.1228 619.829 95.0808 623.991 95.0808C625.378 95.0808 627.199 95.3413 629.454 95.8623C631.535 96.2096 633.616 96.9042 635.697 97.9462C637.778 98.9882 639.512 100.464 640.899 102.375C642.46 104.111 643.24 106.369 643.24 109.148C643.24 113.663 642.113 117.831 639.859 121.651C637.431 125.472 634.396 128.945 630.754 132.071C627.113 135.023 623.124 137.715 618.789 140.146C614.28 142.404 609.944 144.314 605.782 145.877C601.447 147.267 597.458 148.395 593.816 149.264C590.348 149.958 587.747 150.219 586.013 150.045C583.585 154.04 581.764 157.773 580.55 161.247C579.163 164.72 578.469 167.933 578.469 170.885C578.469 171.927 578.729 172.708 579.249 173.229C579.77 173.577 581.33 173.75 583.932 173.75C592.949 173.75 601.533 171.58 609.684 167.238C618.008 162.896 625.812 157.686 633.095 151.608C640.379 145.356 647.229 139.191 653.645 133.113ZM636.217 107.324C636.217 105.587 635.35 104.719 633.616 104.719C631.188 104.719 628.24 105.848 624.771 108.106C621.13 110.19 617.314 113.055 613.326 116.702C609.337 120.175 605.435 124.256 601.62 128.945C597.632 133.46 593.99 138.063 590.695 142.751C595.724 141.536 600.927 139.539 606.302 136.76C611.678 133.808 616.534 130.595 620.87 127.122C625.378 123.648 629.107 120.175 632.055 116.702C634.83 113.055 636.217 109.929 636.217 107.324Z" fill="white"/>
<path d="M818.097 144.314C818.444 143.967 818.878 143.707 819.398 143.533C820.092 143.186 820.438 143.533 820.438 144.575C820.438 146.312 820.178 147.701 819.658 148.743C819.138 149.611 818.704 150.132 818.357 150.306C815.756 152.911 813.849 154.908 812.635 156.297C811.421 157.513 808.299 160.639 803.27 165.675C798.414 170.538 793.645 174.966 788.963 178.96C784.281 182.955 779.859 186.167 775.697 188.599C771.708 191.204 768.327 192.506 765.552 192.506C762.43 192.506 759.916 191.03 758.008 188.078C756.274 185.125 755.407 181.826 755.407 178.179C755.407 174.879 756.621 170.711 759.049 165.675C761.65 160.639 764.511 155.689 767.633 150.827C770.928 145.791 774.049 141.275 776.997 137.281C779.945 133.287 781.853 130.682 782.72 129.466C784.107 127.556 785.148 125.993 785.842 124.777C786.709 123.562 787.142 122.606 787.142 121.912C787.142 121.391 786.882 121.13 786.362 121.13C784.107 121.13 780.639 122.693 775.957 125.819C771.448 128.772 766.419 132.592 760.87 137.281C755.494 141.796 749.858 146.833 743.961 152.39C738.239 157.773 732.949 162.81 728.094 167.498C723.238 172.187 719.249 176.182 716.128 179.481C713.006 182.781 711.359 184.604 711.185 184.952L711.446 183.91C711.272 184.257 711.185 184.604 711.185 184.952C708.064 184.952 705.549 183.476 703.642 180.523C701.908 177.571 701.04 174.185 701.04 170.364C701.04 167.064 702.428 162.81 705.203 157.6C708.151 152.39 711.446 147.18 715.087 141.97C718.729 136.76 722.197 132.071 725.492 127.903C728.787 123.735 730.868 121.043 731.735 119.828C732.949 118.091 733.903 116.615 734.597 115.399C735.464 114.01 735.897 112.968 735.897 112.273C735.897 111.752 735.637 111.492 735.117 111.492C732.863 111.492 729.221 113.315 724.192 116.962C719.163 120.609 713.613 125.125 707.544 130.508C701.474 135.892 695.144 141.796 688.554 148.222C681.965 154.647 675.982 160.639 670.606 166.196C665.23 171.58 660.721 176.182 657.079 180.002C653.611 183.823 651.79 185.907 651.616 186.254L651.877 185.212C650.142 187.47 649.015 188.599 648.495 188.599C647.628 188.772 646.327 188.078 644.593 186.515C642.685 184.952 641.125 182.955 639.911 180.523C639.564 179.829 639.391 179.047 639.391 178.179C639.391 177.137 639.824 175.921 640.691 174.532C642.946 171.059 645.72 166.63 649.015 161.247C652.31 155.863 655.865 150.219 659.68 144.314C663.496 138.41 667.397 132.505 671.386 126.601C675.375 120.696 679.103 115.399 682.572 110.71C683.959 108.8 684.999 107.064 685.693 105.501C686.56 103.938 687.254 102.635 687.774 101.593C688.294 100.551 688.815 99.7697 689.335 99.2487C690.028 98.7277 691.069 98.4672 692.456 98.4672C694.017 98.4672 695.665 99.7697 697.399 102.375C699.306 104.806 700.607 107.324 701.301 109.929C701.647 111.492 701.561 112.794 701.04 113.836C700.52 114.878 699.566 116.355 698.179 118.265C696.965 120.001 695.404 122.259 693.497 125.038C691.589 127.643 689.508 130.508 687.254 133.634C685.173 136.76 682.918 140.06 680.491 143.533C678.063 147.006 675.722 150.393 673.467 153.692C678.323 149.003 683.872 143.707 690.115 137.802C696.532 131.897 702.861 126.34 709.104 121.13C715.521 115.92 721.417 111.492 726.793 107.845C732.169 104.198 736.244 102.375 739.019 102.375C741.967 102.375 744.915 104.198 747.863 107.845C750.985 111.318 752.546 116.094 752.546 122.172C752.546 123.041 751.765 124.69 750.204 127.122C748.817 129.379 746.996 132.071 744.742 135.197C742.487 138.323 739.886 141.709 736.938 145.356C734.163 149.003 731.389 152.737 728.614 156.558C732.776 152.737 737.805 148.222 743.701 143.012C749.597 137.802 755.494 132.939 761.39 128.424C767.459 123.909 773.009 120.088 778.038 116.962C783.24 113.663 787.316 112.013 790.264 112.013C791.651 112.013 793.125 112.534 794.686 113.576C796.42 114.444 797.894 115.747 799.108 117.483C800.495 119.046 801.623 121.043 802.49 123.475C803.357 125.906 803.79 128.685 803.79 131.811C803.79 132.853 802.923 134.676 801.189 137.281C799.455 139.886 797.287 142.838 794.686 146.138C792.085 149.437 789.31 152.998 786.362 156.818C783.414 160.639 780.639 164.373 778.038 168.019C775.437 171.493 773.269 174.706 771.535 177.658C769.801 180.61 768.933 182.868 768.933 184.431C768.933 184.778 769.107 184.952 769.454 184.952C772.055 184.952 775.61 183.215 780.119 179.742C784.628 176.095 789.917 171.319 795.987 165.415C802.056 159.336 809.426 152.303 818.097 144.314Z" fill="white"/>
<path d="M930.524 143.793C930.871 143.446 931.304 143.186 931.825 143.012C932.518 142.665 932.865 143.012 932.865 144.054C932.865 145.791 932.518 147.18 931.825 148.222C931.304 149.09 930.957 149.611 930.784 149.785C923.674 156.558 917.171 162.896 911.275 168.801C905.378 174.532 900.002 179.134 895.147 182.607C890.464 186.254 886.389 188.078 882.921 188.078C880.666 188.078 878.152 186.862 875.377 184.431C872.776 182.173 871.475 178.005 871.475 171.927C871.475 168.975 872.689 164.894 875.117 159.684C877.718 154.474 880.84 149.003 884.482 143.272C878.759 149.351 873.209 155.082 867.833 160.465C862.458 165.849 857.428 170.624 852.746 174.792C848.064 178.787 843.815 181.999 840 184.431C836.185 186.862 832.977 188.078 830.375 188.078C828.294 188.078 825.866 186.862 823.092 184.431C820.317 182.173 818.93 178.005 818.93 171.927C818.93 169.843 819.623 167.151 821.011 163.852C822.398 160.378 824.132 156.731 826.213 152.911C828.468 148.916 830.982 144.835 833.757 140.667C836.705 136.5 839.653 132.418 842.601 128.424C844.856 125.125 847.37 121.738 850.145 118.265C852.92 114.618 855.521 111.318 857.949 108.366C860.55 105.414 862.804 102.982 864.712 101.072C866.793 99.1619 868.267 98.2067 869.134 98.2067C870.001 98.2067 870.955 98.7277 871.996 99.7697C873.036 100.638 873.99 101.854 874.857 103.417C875.724 104.806 876.418 106.282 876.938 107.845C877.458 109.408 877.718 110.71 877.718 111.752C877.718 112.273 876.591 114.097 874.337 117.223C872.256 120.349 869.568 124.169 866.273 128.685C862.978 133.026 859.336 137.802 855.347 143.012C851.532 148.222 847.977 153.171 844.682 157.86C841.387 162.549 838.613 166.804 836.358 170.624C834.277 174.271 833.237 176.876 833.237 178.439C833.237 178.96 833.41 179.221 833.757 179.221C835.318 179.221 837.746 178.092 841.04 175.834C844.335 173.403 848.151 170.364 852.486 166.717C856.821 162.896 861.417 158.642 866.273 153.953C871.128 149.09 875.984 144.228 880.84 139.365C885.696 134.502 890.291 129.813 894.627 125.298C898.962 120.783 902.777 116.876 906.072 113.576C908.5 110.624 910.668 108.279 912.575 106.543C914.483 104.632 915.87 103.677 916.737 103.677C917.604 103.677 918.558 104.198 919.599 105.24C920.639 106.282 921.593 107.498 922.46 108.887C923.327 110.276 924.021 111.839 924.541 113.576C925.061 115.139 925.321 116.441 925.321 117.483C925.321 118.004 924.281 119.741 922.2 122.693C920.292 125.472 917.864 128.858 914.916 132.853C912.142 136.847 909.02 141.188 905.552 145.877C902.083 150.566 898.875 155.082 895.927 159.423C893.152 163.765 890.725 167.672 888.644 171.145C886.736 174.445 885.782 176.876 885.782 178.439C885.782 178.96 885.956 179.221 886.302 179.221C888.904 179.221 892.025 177.745 895.667 174.792C899.482 171.84 903.991 167.759 909.194 162.549C914.396 157.339 921.506 151.087 930.524 143.793Z" fill="white"/>
<path d="M993.787 142.23C996.041 138.583 998.469 134.763 1001.07 130.769C1004.37 125.906 1007.49 121.478 1010.43 117.483C1013.56 113.489 1016.33 110.19 1018.76 107.585C1021.36 104.98 1023.18 103.677 1024.22 103.677C1025.09 103.677 1026.04 104.198 1027.08 105.24C1028.12 106.282 1029.08 107.498 1029.94 108.887C1030.81 110.276 1031.5 111.839 1032.03 113.576C1032.55 115.139 1032.81 116.441 1032.81 117.483C1032.81 118.178 1031.85 119.828 1029.94 122.433C1028.21 125.038 1025.96 128.251 1023.18 132.071C1020.41 135.718 1017.37 139.799 1014.08 144.314C1010.78 148.656 1007.75 152.911 1004.97 157.079C1002.2 161.073 999.856 164.72 997.949 168.019C996.215 171.319 995.347 173.75 995.347 175.313C995.347 175.661 995.608 175.834 996.128 175.834C999.249 175.834 1003.24 173.924 1008.09 170.103C1013.12 166.109 1017.89 161.941 1022.4 157.6C1026.91 153.084 1031.77 148.309 1036.97 143.272C1037.31 142.925 1037.75 142.665 1038.27 142.491C1038.96 142.144 1039.31 142.491 1039.31 143.533C1039.31 145.27 1038.96 146.659 1038.27 147.701C1037.75 148.569 1037.4 149.09 1037.23 149.264C1034.63 152.042 1031.24 155.689 1027.08 160.205C1023.09 164.546 1019.02 168.367 1014.86 171.666C1010.69 174.966 1006.71 177.658 1002.89 179.742C999.076 181.652 995.694 182.607 992.746 182.607C989.625 182.607 987.11 181.131 985.203 178.179C983.468 175.226 982.601 171.84 982.601 168.019C982.601 165.762 983.468 162.636 985.203 158.642C986.243 156.384 987.37 154.04 988.584 151.608C986.156 152.824 983.728 153.953 981.301 154.995C974.884 157.773 968.728 159.163 962.832 159.163C957.976 159.163 953.987 158.121 950.866 156.037C948.611 159.336 946.097 163.07 943.322 167.238C934.998 179.568 930.749 185.907 930.576 186.254L931.096 185.212C929.189 187.47 927.975 188.599 927.454 188.599C926.587 188.772 925.287 188.078 923.553 186.515C921.818 184.952 920.258 182.955 918.87 180.523C918.177 178.787 918.523 176.789 919.911 174.532C921.992 171.059 924.68 166.63 927.975 161.247C931.443 155.863 935.085 150.219 938.9 144.314C942.715 138.41 946.53 132.505 950.346 126.601C954.334 120.696 958.063 115.399 961.531 110.71C963.092 108.8 964.219 107.064 964.913 105.501C965.606 103.938 966.213 102.635 966.734 101.593C967.427 100.551 968.034 99.7697 968.554 99.2487C969.248 98.7277 970.202 98.4672 971.416 98.4672C972.977 98.4672 974.711 99.7697 976.618 102.375C978.526 104.806 979.827 107.324 980.52 109.929C980.867 111.492 980.78 112.794 980.26 113.836C979.74 114.878 978.786 116.355 977.399 118.265C976.011 120.001 974.364 122.259 972.456 125.038C970.549 127.643 968.468 130.508 966.213 133.634C964.132 136.76 961.878 140.06 959.45 143.533C959.103 144.054 958.67 144.749 958.149 145.617C957.976 146.485 957.889 147.44 957.889 148.482C957.889 149.524 958.149 150.306 958.67 150.827C959.19 151.174 960.751 151.348 963.352 151.348C972.37 151.348 981.04 149.177 989.365 144.835C990.925 143.967 992.399 143.099 993.787 142.23Z" fill="white"/>
<path d="M1096.59 102.375C1099.54 102.375 1102.48 104.198 1105.43 107.845C1108.55 111.318 1110.12 116.094 1110.12 122.172C1110.12 123.041 1109.33 124.69 1107.77 127.122C1106.39 129.379 1104.57 132.071 1102.31 135.197C1100.58 137.455 1098.76 139.886 1096.85 142.491H1097.11C1096.24 143.707 1095.29 144.922 1094.25 146.138C1091.65 149.437 1088.87 152.998 1085.92 156.818C1082.98 160.639 1080.2 164.373 1077.6 168.019C1075 171.493 1072.83 174.706 1071.1 177.658C1069.36 180.61 1068.49 182.868 1068.49 184.431C1068.49 184.778 1068.67 184.952 1069.02 184.952C1071.62 184.952 1075.17 183.215 1079.68 179.742C1084.19 176.095 1089.48 171.319 1095.55 165.415C1101.62 159.336 1108.99 152.303 1117.66 144.314C1118.01 143.967 1118.44 143.707 1118.96 143.533C1119.65 143.186 1120 143.533 1120 144.575C1120 146.312 1119.74 147.701 1119.22 148.743C1118.7 149.611 1118.27 150.132 1117.92 150.306C1115.32 152.911 1113.41 154.908 1112.2 156.297C1110.98 157.513 1107.86 160.639 1102.83 165.675C1097.98 170.538 1093.21 174.966 1088.52 178.96C1083.84 182.955 1079.42 186.167 1075.26 188.599C1071.27 191.204 1067.89 192.506 1065.11 192.506C1061.99 192.506 1059.48 191.03 1057.57 188.078C1055.84 185.125 1054.97 181.826 1054.97 178.179C1054.97 174.879 1056.18 170.711 1058.61 165.675C1061.21 160.639 1063.81 156.037 1066.41 151.869C1069.02 147.527 1071.1 144.228 1072.66 141.97C1076.3 136.76 1079.77 132.071 1083.06 127.903C1086.36 123.735 1088.44 121.043 1089.31 119.828C1090.52 118.091 1091.47 116.615 1092.17 115.399C1093.03 114.01 1093.47 112.968 1093.47 112.273C1093.47 111.752 1093.21 111.492 1092.69 111.492C1091.99 112.013 1086.18 117.136 1075.26 126.861C1064.51 136.586 1054.97 145.704 1046.64 154.213C1046.3 154.561 1045.78 154.908 1045.08 155.255C1044.56 155.429 1044.3 154.995 1044.3 153.953C1044.13 152.216 1044.3 150.914 1044.82 150.045C1045.34 149.003 1045.78 148.395 1046.12 148.222C1048.55 145.443 1050.29 143.359 1051.33 141.97C1052.54 140.581 1055.49 137.368 1060.17 132.332C1065.03 127.122 1069.71 122.433 1074.22 118.265C1077.69 114.965 1081.59 111.492 1085.92 107.845C1090.26 104.198 1093.81 102.375 1096.59 102.375Z" fill="white"/>
</g>
</svg>
