<svg width="1920" height="404" viewBox="0 0 1920 404" fill="none" xmlns="http://www.w3.org/2000/svg">
<path d="M254.465 123.846C255.645 125.022 256.116 126.669 255.88 128.786C255.88 130.903 254.583 131.726 251.988 131.256C251.988 131.021 251.752 130.903 251.28 130.903C249.392 129.492 247.269 128.904 244.91 129.139C242.786 129.374 240.663 129.609 238.54 129.845C231.462 130.315 220.609 130.903 205.982 131.609C191.354 132.079 174.486 132.55 155.375 133.02C149.949 138.901 144.405 145.134 138.743 151.721C133.08 158.072 127.182 164.893 121.048 172.185C117.273 176.419 112.319 182.065 106.185 189.121C100.286 195.943 94.5063 202.764 88.844 209.586C82.0021 217.348 74.9243 225.581 67.6105 234.285C65.7231 235.226 64.0716 235.343 62.6561 234.638C61.4764 233.932 60.4148 232.991 59.4711 231.815C58.7633 230.403 58.2914 228.875 58.0555 227.228C57.8196 225.581 57.9375 224.17 58.4094 222.994C59.1172 221.112 60.1788 219.23 61.5944 217.348C63.01 215.231 65.2513 212.056 68.3183 207.822C71.6213 203.588 76.2219 197.707 82.1201 190.18C88.2542 182.653 96.2757 172.185 106.185 158.777C108.78 155.014 111.729 151.132 115.032 147.134C118.571 142.9 122.346 138.43 126.356 133.726C113.852 133.961 100.994 134.196 87.7823 134.431C74.8063 134.667 61.8303 134.902 48.8543 135.137C36.1143 135.372 23.6101 135.608 11.3419 135.843C-0.9263 136.078 -12.3688 136.313 -22.9855 136.548C-21.0981 137.725 -19.3286 138.901 -17.6771 140.077C-16.0256 141.018 -14.3742 142.076 -12.7227 143.252C-1.16223 151.485 9.1006 159.718 18.0658 167.951C27.267 175.949 35.0526 183.358 41.4226 190.18C48.0286 196.766 53.219 202.294 56.9938 206.763C60.7687 211.233 63.01 213.702 63.7178 214.173L60.1788 218.407C57.5836 214.408 53.219 209.468 47.0849 203.588C41.1867 197.472 34.4628 191.121 26.9131 184.535C19.3634 177.948 11.4599 171.715 3.20242 165.834C-4.81909 159.718 -12.2508 154.661 -19.0927 150.662C-20.9801 149.486 -22.8675 148.427 -24.7549 147.486C-26.6424 146.546 -28.5298 145.487 -30.4172 144.311C-46.4603 161.718 -62.3853 179.595 -78.1925 197.942C-93.9996 216.29 -109.335 235.578 -124.198 255.808C-124.67 256.514 -125.732 256.866 -127.383 256.866C-128.799 257.102 -130.214 256.984 -131.63 256.514C-133.281 256.278 -134.697 255.573 -135.877 254.396C-137.292 253.456 -138 252.044 -138 250.162C-138 245.223 -135.877 238.754 -131.63 230.756C-127.383 222.759 -121.603 213.82 -114.289 203.941C-106.74 194.061 -98.1283 183.476 -88.4553 172.185C-78.7823 160.659 -68.6374 148.898 -58.0207 136.901C-66.9859 137.137 -74.1817 137.254 -79.608 137.254C-85.0343 137.254 -88.2194 137.254 -89.1631 137.254C-94.8253 136.784 -99.4259 136.078 -102.965 135.137C-106.268 134.196 -108.863 133.138 -110.75 131.962C-112.402 130.785 -113.699 129.492 -114.643 128.08C-115.351 126.669 -115.941 125.258 -116.413 123.846C-117.828 120.318 -117.71 117.613 -116.059 115.731C-114.407 113.614 -111.93 112.203 -108.627 111.497C-105.324 110.556 -101.667 110.203 -97.6564 110.438C-93.4098 110.438 -89.399 110.791 -85.6242 111.497C-74.5356 113.614 -64.3907 116.554 -55.1896 120.318C-53.3021 120.083 -51.2968 119.965 -49.1734 119.965C-46.8141 119.965 -44.5728 119.965 -42.4495 119.965C-32.0687 108.439 -21.6879 97.1482 -11.3071 86.0926C-0.9263 75.037 8.62875 64.687 17.3581 55.0428C26.3233 45.1633 34.2269 36.2247 41.0687 28.2271C48.1466 20.2294 53.4549 13.5255 56.9938 8.11528C58.1735 6.4687 58.2914 5.17496 57.3477 4.23406C56.1681 3.05793 56.286 1.99942 57.7016 1.05852C58.4094 0.117613 60.2968 0.352838 63.3639 1.76419C66.4309 2.94032 69.38 4.70451 72.2111 7.05677C75.0423 9.1738 77.1656 11.7613 78.5812 14.8192C80.2327 17.8771 79.9967 20.6999 77.8734 23.2873C65.8411 38.8122 52.5112 54.4547 37.8837 70.2148C23.4922 85.975 8.51079 102.323 -7.06041 119.259C4.2641 119.024 16.1784 118.789 28.6826 118.554C41.1867 118.318 53.8088 118.201 66.5489 118.201C79.2889 117.966 91.9111 117.73 104.415 117.495C116.919 117.26 129.07 117.025 140.866 116.79C150.067 106.204 159.622 95.5016 169.531 84.6812C179.676 73.6256 188.995 63.3933 197.488 53.9843C206.218 44.34 213.649 35.9895 219.784 28.9328C226.154 21.6408 230.4 16.4658 232.524 13.4079C232.996 12.7022 233.467 11.6437 233.939 10.2323C234.647 8.58574 235.945 8.11528 237.832 8.82096C239.484 9.52664 240.781 10.7028 241.725 12.3493C242.904 13.9959 243.73 15.9953 244.202 18.3476C244.91 20.4646 245.264 22.6993 245.264 25.0515C245.264 27.1686 245.146 29.0504 244.91 30.6969C244.674 31.6378 243.022 33.8725 239.955 37.4009C236.888 40.9293 232.288 46.1042 226.154 52.9258C220.255 59.7473 212.588 68.4507 203.151 79.0358C193.95 89.3857 182.861 101.735 169.885 116.084C184.041 115.849 196.309 115.731 206.69 115.731C217.07 115.496 224.974 115.378 230.4 115.378C234.883 115.378 238.186 115.378 240.309 115.378C242.433 115.143 244.084 115.261 245.264 115.731C246.443 116.201 247.505 117.142 248.449 118.554C249.628 119.73 251.634 121.494 254.465 123.846ZM-94.1175 121.024H-94.4714C-94.7074 120.788 -94.5894 120.788 -94.1175 121.024Z" fill="#1C1C1C" fill-opacity="0.04"/>
<path d="M347.963 184.535C348.199 184.064 348.789 183.711 349.732 183.476C350.676 183.006 351.148 183.476 351.148 184.887C351.148 187.24 350.676 189.121 349.732 190.533C349.025 191.709 348.553 192.415 348.317 192.65C336.756 205.117 326.022 216.172 316.113 225.817C306.44 235.461 297.474 243.459 289.217 249.81C281.195 256.161 274.943 259.336 270.461 259.336C266.45 259.336 263.147 257.337 260.552 253.338C257.957 249.339 256.659 244.752 256.659 239.577C256.659 236.284 258.075 231.58 260.906 225.464C263.737 219.348 267.394 212.526 271.876 204.999C266.922 210.174 261.731 215.349 256.305 220.524C251.115 225.464 246.042 229.933 241.088 233.932C236.369 237.695 232.005 240.753 227.994 243.106C224.219 245.693 221.152 246.987 218.793 246.987C217.377 246.987 215.372 246.516 212.777 245.576C210.417 244.87 207.94 243.459 205.345 241.341C202.986 239.46 200.98 236.755 199.329 233.226C197.441 229.463 196.498 224.758 196.498 219.113C196.498 214.408 197.913 208.998 200.744 202.882C203.575 196.531 207.35 190.18 212.069 183.829C216.787 177.478 222.096 171.244 227.994 165.128C233.892 159.013 239.908 153.602 246.042 148.898C252.176 143.958 258.193 140.077 264.091 137.254C269.989 134.196 275.179 132.667 279.662 132.667C283.437 132.667 286.858 133.373 289.925 134.784C293.228 136.196 296.059 138.077 298.418 140.43C300.777 142.782 302.547 145.369 303.726 148.192C305.142 151.015 305.85 153.955 305.85 157.013C305.85 157.248 305.732 157.366 305.496 157.366C305.496 157.366 305.496 157.484 305.496 157.719C310.686 151.838 314.343 148.898 316.467 148.898C317.646 148.898 318.944 149.603 320.359 151.015C321.775 152.191 323.073 153.838 324.252 155.955C325.432 157.836 326.375 159.836 327.083 161.953C327.791 164.07 328.145 165.834 328.145 167.245C328.145 167.951 326.729 170.303 323.898 174.302C321.303 178.066 318 182.653 313.989 188.063C310.214 193.473 305.968 199.354 301.249 205.705C296.531 211.821 292.166 217.819 288.155 223.7C284.38 229.345 281.077 234.52 278.246 239.224C275.651 243.929 274.354 247.34 274.354 249.457C274.354 249.927 274.589 250.162 275.061 250.162C276.477 250.162 279.544 248.163 284.262 244.164C288.981 240.401 294.525 235.578 300.895 229.698C307.265 223.582 314.107 216.878 321.421 209.586C328.971 202.294 334.397 197.119 337.7 194.061C341.239 190.768 344.66 187.592 347.963 184.535ZM216.669 236.402C219.5 236.402 223.275 234.99 227.994 232.168C232.712 229.11 237.903 225.229 243.565 220.524C249.463 215.82 255.597 210.409 261.967 204.293C268.337 197.942 274.589 191.591 280.724 185.24C279.544 184.77 278.482 184.064 277.539 183.123C276.831 182.182 276.477 181.124 276.477 179.948C276.477 179.242 277.421 177.948 279.308 176.066C281.431 174.185 283.673 172.068 286.032 169.715C288.391 167.128 290.515 164.305 292.402 161.247C294.525 158.189 295.587 155.249 295.587 152.426C295.587 149.839 294.289 148.545 291.694 148.545C289.571 148.545 286.15 150.074 281.431 153.132C276.713 156.19 271.404 160.306 265.506 165.481C259.844 170.421 253.946 176.066 247.812 182.417C241.914 188.533 236.369 194.767 231.179 201.118C226.224 207.469 222.096 213.467 218.793 219.113C215.726 224.758 214.192 229.58 214.192 233.579C214.192 235.461 215.018 236.402 216.669 236.402Z" fill="#1C1C1C" fill-opacity="0.04"/>
<path d="M420.935 245.576C419.284 244.87 417.632 243.694 415.981 242.047C412.206 238.989 410.318 233.344 410.318 225.111C410.318 221.112 411.97 215.584 415.273 208.528C418.812 201.471 423.058 194.061 428.013 186.299C420.227 194.532 412.678 202.294 405.364 209.586C398.05 216.878 391.208 223.347 384.838 228.992C378.468 234.402 372.688 238.754 367.498 242.047C362.307 245.34 357.943 246.987 354.404 246.987C351.573 246.987 348.27 245.34 344.495 242.047C340.72 238.989 338.832 233.344 338.832 225.111C338.832 222.288 339.776 218.642 341.664 214.173C343.551 209.468 345.91 204.529 348.741 199.354C351.808 193.944 355.229 188.416 359.004 182.77C363.015 177.125 367.026 171.597 371.036 166.187C374.104 161.718 377.525 157.131 381.299 152.426C385.074 147.486 388.613 143.017 391.916 139.018C395.455 135.02 398.522 131.726 401.117 129.139C403.948 126.551 405.954 125.258 407.133 125.258C408.313 125.258 409.611 125.963 411.026 127.375C412.442 128.551 413.739 130.197 414.919 132.314C416.099 134.196 417.042 136.196 417.75 138.313C418.458 140.43 418.812 142.194 418.812 143.605C418.812 144.311 417.278 146.781 414.211 151.015C411.38 155.249 407.723 160.424 403.241 166.54C398.758 172.42 393.803 178.889 388.377 185.946C383.187 193.003 378.35 199.707 373.868 206.058C369.385 212.409 365.61 218.172 362.543 223.347C359.712 228.286 358.296 231.815 358.296 233.932C358.296 234.638 358.532 234.99 359.004 234.99C361.128 234.99 364.431 233.461 368.913 230.403C373.396 227.11 378.586 222.994 384.484 218.054C390.383 212.879 396.635 207.116 403.241 200.765C409.847 194.179 416.453 187.592 423.058 181.006C429.664 174.42 435.917 168.069 441.815 161.953C447.713 155.837 452.903 150.544 457.386 146.075C460.689 142.076 463.638 138.901 466.233 136.548C468.828 133.961 470.716 132.667 471.895 132.667C473.075 132.667 474.373 133.373 475.788 134.784C477.204 136.196 478.501 137.842 479.681 139.724C480.861 141.606 481.804 143.723 482.512 146.075C483.22 148.192 483.574 149.956 483.574 151.368C483.574 152.073 482.158 154.426 479.327 158.424C476.732 162.188 473.429 166.775 469.418 172.185C465.643 177.595 461.397 183.476 456.678 189.827C451.96 196.178 447.595 202.294 443.584 208.175C439.809 214.055 436.624 219.23 434.029 223.7C433.321 224.876 432.614 226.052 431.906 227.228H432.26C430.844 230.286 430.136 232.521 430.136 233.932C430.136 234.638 430.372 234.99 430.844 234.99C432.967 234.99 436.27 233.461 440.753 230.403C445.236 227.11 450.426 222.994 456.324 218.054C462.222 212.879 468.474 207.116 475.08 200.765C481.686 194.179 488.292 187.592 494.898 181.006C501.504 174.42 507.756 168.069 513.654 161.953C519.553 155.837 524.743 150.544 529.226 146.075C532.529 142.076 535.478 138.901 538.073 136.548C540.668 133.961 542.556 132.667 543.735 132.667C544.915 132.667 546.212 133.373 547.628 134.784C549.044 136.196 550.341 137.842 551.521 139.724C552.7 141.606 553.644 143.723 554.352 146.075C555.06 148.192 555.414 149.956 555.414 151.368C555.414 152.073 553.998 154.426 551.167 158.424C548.572 162.188 545.269 166.775 541.258 172.185C537.483 177.595 533.236 183.476 528.518 189.827C523.799 196.178 519.435 202.294 515.424 208.175C511.649 214.055 508.346 219.348 505.515 224.052C502.92 228.522 501.622 231.815 501.622 233.932C501.622 234.638 501.858 234.99 502.33 234.99C505.869 234.99 510.116 232.991 515.07 228.992C520.26 224.993 526.395 219.465 533.472 212.409C540.55 205.352 550.223 196.884 562.491 187.004C562.963 186.534 563.553 186.181 564.261 185.946C565.205 185.475 565.676 185.946 565.676 187.357C565.676 189.709 565.205 191.591 564.261 193.003C563.553 194.179 563.081 194.884 562.845 195.12C553.172 204.293 544.325 212.879 536.304 220.877C528.282 228.639 520.968 234.873 514.362 239.577C507.992 244.517 502.448 246.987 497.729 246.987C494.662 246.987 491.241 245.34 487.467 242.047C483.928 238.989 482.158 233.344 482.158 225.111C482.158 221.112 483.81 215.584 487.113 208.528C490.652 201.471 494.898 194.061 499.853 186.299C492.067 194.532 484.518 202.294 477.204 209.586C469.89 216.878 463.048 223.347 456.678 228.992C450.308 234.402 444.528 238.754 439.337 242.047C434.147 245.34 429.782 246.987 426.243 246.987C424.592 246.987 422.823 246.516 420.935 245.576Z" fill="#1C1C1C" fill-opacity="0.04"/>
<path d="M700.934 184.535C701.169 184.064 701.759 183.711 702.703 183.476C703.647 183.006 704.119 183.476 704.119 184.887C704.119 187.24 703.647 189.121 702.703 190.533C701.995 191.709 701.523 192.415 701.287 192.65C689.727 205.117 678.992 216.172 669.083 225.817C659.41 235.461 650.445 243.459 642.188 249.81C634.166 256.161 627.914 259.336 623.431 259.336C619.421 259.336 616.118 257.337 613.522 253.338C610.927 249.339 609.63 244.752 609.63 239.577C609.63 236.284 611.045 231.58 613.876 225.464C616.708 219.348 620.364 212.526 624.847 204.999C619.893 210.174 614.702 215.349 609.276 220.524C604.085 225.464 599.013 229.933 594.058 233.932C589.34 237.695 584.975 240.753 580.965 243.106C577.19 245.693 574.123 246.987 571.763 246.987C570.348 246.987 568.342 246.516 565.747 245.576C563.388 244.87 560.911 243.459 558.315 241.341C555.956 239.46 553.951 236.755 552.299 233.226C550.412 229.463 549.468 224.758 549.468 219.113C549.468 214.408 550.884 208.998 553.715 202.882C556.546 196.531 560.321 190.18 565.039 183.829C569.758 177.478 575.066 171.244 580.965 165.128C586.863 159.013 592.879 153.602 599.013 148.898C605.147 143.958 611.163 140.077 617.061 137.254C622.96 134.196 628.15 132.667 632.633 132.667C636.407 132.667 639.828 133.373 642.895 134.784C646.198 136.196 649.03 138.077 651.389 140.43C653.748 142.782 655.518 145.369 656.697 148.192C658.113 151.015 658.82 153.955 658.82 157.013C658.82 157.248 658.703 157.366 658.467 157.366C658.467 157.366 658.467 157.484 658.467 157.719C663.657 151.838 667.314 148.898 669.437 148.898C670.617 148.898 671.914 149.603 673.33 151.015C674.746 152.191 676.043 153.838 677.223 155.955C678.402 157.836 679.346 159.836 680.054 161.953C680.762 164.07 681.116 165.834 681.116 167.245C681.116 167.951 679.7 170.303 676.869 174.302C674.274 178.066 670.971 182.653 666.96 188.063C663.185 193.473 658.938 199.354 654.22 205.705C649.501 211.821 645.137 217.819 641.126 223.7C637.351 229.345 634.048 234.52 631.217 239.224C628.622 243.929 627.324 247.34 627.324 249.457C627.324 249.927 627.56 250.162 628.032 250.162C629.448 250.162 632.515 248.163 637.233 244.164C641.952 240.401 647.496 235.578 653.866 229.698C660.236 223.582 667.078 216.878 674.392 209.586C681.941 202.294 687.368 197.119 690.671 194.061C694.21 190.768 697.631 187.592 700.934 184.535ZM569.64 236.402C572.471 236.402 576.246 234.99 580.965 232.168C585.683 229.11 590.873 225.229 596.536 220.524C602.434 215.82 608.568 210.409 614.938 204.293C621.308 197.942 627.56 191.591 633.694 185.24C632.515 184.77 631.453 184.064 630.509 183.123C629.801 182.182 629.448 181.124 629.448 179.948C629.448 179.242 630.391 177.948 632.279 176.066C634.402 174.185 636.643 172.068 639.003 169.715C641.362 167.128 643.485 164.305 645.373 161.247C647.496 158.189 648.558 155.249 648.558 152.426C648.558 149.839 647.26 148.545 644.665 148.545C642.542 148.545 639.121 150.074 634.402 153.132C629.683 156.19 624.375 160.306 618.477 165.481C612.815 170.421 606.917 176.066 600.782 182.417C594.884 188.533 589.34 194.767 584.15 201.118C579.195 207.469 575.066 213.467 571.763 219.113C568.696 224.758 567.163 229.58 567.163 233.579C567.163 235.461 567.989 236.402 569.64 236.402Z" fill="#1C1C1C" fill-opacity="0.04"/>
<path d="M879.79 130.903C885.452 128.08 892.058 125.022 899.608 121.729C915.179 104.087 929.688 87.9744 943.136 73.3904C956.584 58.5712 968.381 45.869 978.525 35.2838C990.322 22.8169 1001.17 11.6437 1011.08 1.76419C1011.56 0.588064 1012.26 0 1013.21 0C1014.15 0 1015.33 0.588064 1016.75 1.76419C1018.4 2.94032 1019.93 4.46929 1021.35 6.35109C1023 8.2329 1024.41 10.3499 1025.59 12.7022C1026.77 14.8192 1027.36 16.9362 1027.36 19.0533C1027.36 20.6999 1026.89 22.2288 1025.95 23.6402C1025.24 24.8163 1023.82 26.4629 1021.7 28.5799C1019.81 30.6969 1016.98 33.402 1013.21 36.6952C1009.67 39.9884 1005.07 44.34 999.405 49.7502C993.979 55.1604 987.373 61.8643 979.587 69.862C972.037 77.8597 963.072 87.6215 952.691 99.1476C951.984 99.8533 951.276 100.559 950.568 101.265C949.86 101.97 949.152 102.794 948.445 103.734C960.713 99.5004 973.335 95.384 986.311 91.3851C999.287 87.1511 1011.91 83.1523 1024.18 79.3886C1036.68 75.625 1048.48 72.2143 1059.57 69.1563C1070.66 65.8632 1080.33 63.0405 1088.59 60.6882C1097.08 58.336 1103.8 56.5718 1108.76 55.3956C1113.71 53.9843 1116.42 53.2786 1116.9 53.2786C1118.78 53.2786 1120.44 53.9843 1121.85 55.3956C1123.5 56.5718 1124.33 58.1007 1124.33 59.9825C1124.33 61.6291 1123.62 63.2757 1122.21 64.9223C1120.79 66.5688 1119.14 67.9802 1117.25 69.1563C1115.6 70.3325 1113.95 71.391 1112.3 72.3319C1110.64 73.0376 1109.47 73.508 1108.76 73.7432C1105.45 74.6841 1100.74 75.9779 1094.6 77.6245C1088.47 79.271 1081.63 81.2704 1074.08 83.6227C1066.53 85.7397 1058.74 88.092 1050.72 90.6795C1042.7 93.0317 1035.03 95.384 1027.72 97.7362C1020.64 99.8533 1014.27 101.735 1008.61 103.382C1003.18 105.028 999.169 106.204 996.574 106.91C985.013 110.203 975.34 113.026 967.555 115.378C959.769 117.73 953.045 119.847 947.383 121.729C941.957 123.611 937.238 125.375 933.227 127.022C929.453 128.668 925.796 130.315 922.257 131.962C918.954 135.49 915.651 139.254 912.348 143.252C910.932 144.899 909.517 146.428 908.101 147.839L911.994 151.368C921.195 159.836 931.34 169.951 942.429 181.712C953.753 193.473 965.549 205.587 977.818 218.054C990.322 230.286 1002.94 242.047 1015.68 253.338C1028.66 264.864 1041.52 274.273 1054.26 281.565C1061.81 286.034 1068.77 289.563 1075.14 292.15C1081.51 294.738 1086.93 296.855 1091.42 298.501C1096.14 300.148 1099.79 301.559 1102.39 302.735C1104.98 303.911 1106.28 305.323 1106.28 306.969C1106.28 308.616 1104.75 309.792 1101.68 310.498C1098.61 311.439 1096.02 311.909 1093.89 311.909C1082.57 311.909 1070.77 309.439 1058.5 304.5C1046.47 299.56 1034.2 292.974 1021.7 284.741C1009.2 276.743 996.81 267.569 984.542 257.219C972.273 247.105 960.595 236.755 949.506 226.169C938.418 215.584 928.037 205.352 918.364 195.472C908.691 185.593 900.198 176.89 892.884 169.362L891.114 167.598L887.929 171.127C884.626 174.89 881.206 178.771 877.667 182.77C874.364 186.769 871.061 190.768 867.758 194.767C864.691 198.295 861.034 202.647 856.787 207.822C852.776 212.997 848.412 218.407 843.693 224.052C839.21 229.698 834.61 235.226 829.891 240.636C825.409 246.281 821.162 251.339 817.151 255.808C813.141 260.277 809.484 263.806 806.181 266.393C803.114 269.216 800.872 270.627 799.457 270.627C797.569 270.627 795.092 269.921 792.025 268.51C788.958 267.099 787.424 265.217 787.424 262.865C787.424 262.394 787.542 261.924 787.778 261.453C788.014 260.983 788.604 260.16 789.548 258.983C790.256 257.807 791.435 256.043 793.087 253.691C794.738 251.574 797.097 248.516 800.164 244.517C811.725 228.992 823.403 213.938 835.2 199.354C845.345 186.416 860.326 168.186 880.144 144.664L868.112 139.724C861.27 136.431 857.849 132.432 857.849 127.728C857.849 126.787 857.967 125.963 858.203 125.258C858.674 124.317 859.264 123.846 859.972 123.846C861.388 125.022 863.393 126.081 865.988 127.022C868.347 127.963 871.532 128.904 875.543 129.845C876.723 130.315 878.138 130.668 879.79 130.903Z" fill="#1C1C1C" fill-opacity="0.04"/>
<path d="M1178.19 189.121C1170.41 200.412 1163.33 209.704 1156.96 216.996C1150.59 224.288 1144.22 230.756 1137.85 236.402C1131.48 242.047 1125.46 246.634 1119.8 250.162C1114.14 253.691 1109.18 255.455 1104.94 255.455C1100.22 255.455 1096.32 252.632 1093.26 246.987C1089.95 241.577 1088.3 235.696 1088.3 229.345C1088.3 224.405 1089.72 218.407 1092.55 211.35C1095.38 204.058 1098.68 197.119 1102.46 190.533C1106.23 183.711 1109.89 177.948 1113.43 173.244C1117.2 168.304 1119.8 165.481 1121.21 164.776C1122.87 159.365 1125.81 154.19 1130.06 149.251C1134.31 144.076 1139.14 139.606 1144.57 135.843C1150 132.079 1155.54 129.139 1161.2 127.022C1167.1 124.67 1172.17 123.493 1176.42 123.493C1178.07 123.493 1180.2 124.082 1182.79 125.258C1185.62 126.199 1188.34 127.61 1190.93 129.492C1193.53 131.138 1195.77 133.138 1197.65 135.49C1199.54 137.842 1200.49 140.312 1200.49 142.9C1200.49 147.604 1198.72 153.602 1195.18 160.894C1191.87 168.186 1186.21 177.595 1178.19 189.121ZM1170.05 187.71C1176.42 178.066 1181.61 169.01 1185.62 160.541C1189.63 151.838 1191.64 145.252 1191.64 140.783C1191.64 139.136 1190.69 138.313 1188.81 138.313C1185.98 138.313 1182.44 139.371 1178.19 141.488C1173.94 143.37 1169.46 145.84 1164.74 148.898C1160.02 151.956 1155.54 155.484 1151.29 159.483C1147.05 163.482 1143.51 167.363 1140.68 171.127C1141.62 172.068 1142.09 173.244 1142.09 174.655C1142.09 176.066 1140.21 179.595 1136.43 185.24L1130.77 193.355C1127.94 197.354 1124.99 201.706 1121.92 206.41C1118.85 210.88 1116.02 215.349 1113.43 219.818C1110.83 224.052 1108.71 228.286 1107.06 232.521C1105.41 236.519 1104.58 239.93 1104.58 242.753C1104.58 243.459 1105.05 243.811 1106 243.811C1110.24 243.811 1114.73 242.518 1119.44 239.93C1124.4 237.578 1129.35 234.285 1134.31 230.051C1139.26 225.817 1144.1 220.994 1148.82 215.584C1153.77 209.939 1158.37 204.176 1162.62 198.295L1170.05 187.71Z" fill="#1C1C1C" fill-opacity="0.04"/>
<path d="M1289.74 244.164V244.517C1286.43 246.164 1283.37 246.987 1280.54 246.987C1277.47 246.987 1274.05 245.34 1270.27 242.047C1266.73 238.989 1264.96 233.344 1264.96 225.111C1264.96 221.112 1266.62 215.584 1269.92 208.528C1273.46 201.471 1277.7 194.061 1282.66 186.299C1274.87 194.532 1267.32 202.294 1260.01 209.586C1252.7 216.878 1245.85 223.347 1239.48 228.992C1233.11 234.402 1227.33 238.754 1222.14 242.047C1216.95 245.34 1212.59 246.987 1209.05 246.987C1206.22 246.987 1202.92 245.34 1199.14 242.047C1195.37 238.989 1193.48 233.344 1193.48 225.111C1193.48 222.288 1194.42 218.642 1196.31 214.173C1198.2 209.468 1200.56 204.529 1203.39 199.354C1206.45 193.944 1210.94 187.71 1216.84 180.653C1222.97 173.361 1226.63 169.715 1227.81 169.715C1228.99 169.715 1230.28 170.421 1231.7 171.832C1233.11 173.008 1234.41 174.655 1235.59 176.772C1236.77 178.654 1237.72 180.653 1238.42 182.77C1239.13 184.887 1239.48 186.652 1239.48 188.063C1239.48 188.769 1237.95 191.238 1234.88 195.472C1232.05 199.707 1229.81 202.764 1228.16 204.646C1226.74 206.528 1225.33 208.88 1223.91 211.703C1222.5 214.291 1220.26 218.172 1217.19 223.347C1214.36 228.286 1212.94 231.815 1212.94 233.932C1212.94 234.638 1213.18 234.99 1213.65 234.99C1215.77 234.99 1219.08 233.461 1223.56 230.403C1228.04 227.11 1233.23 222.994 1239.13 218.054C1245.03 212.879 1251.28 207.116 1257.89 200.765C1264.49 194.179 1271.1 187.592 1277.7 181.006C1284.31 174.42 1290.56 168.069 1296.46 161.953C1302.36 155.837 1307.55 150.544 1312.03 146.075C1315.34 142.076 1318.28 138.901 1320.88 136.548C1323.47 133.961 1325.36 132.667 1326.54 132.667C1327.72 132.667 1329.02 133.373 1330.43 134.784C1331.85 136.196 1333.15 137.842 1334.33 139.724C1335.51 141.606 1336.45 143.723 1337.16 146.075C1337.87 148.192 1338.22 149.956 1338.22 151.368C1338.22 152.073 1336.8 154.426 1333.97 158.424C1331.38 162.188 1328.08 166.775 1324.06 172.185C1320.29 177.595 1316.04 183.476 1311.32 189.827C1306.61 196.178 1302.24 202.294 1298.23 208.175C1294.46 214.055 1291.27 219.23 1288.68 223.7C1286.55 226.993 1285.25 229.698 1284.78 231.815V232.168C1284.55 232.873 1284.43 233.461 1284.43 233.932C1284.43 234.638 1284.66 234.99 1285.14 234.99C1287.26 234.99 1290.56 233.461 1295.05 230.403C1299.53 227.11 1304.72 222.994 1310.62 218.054C1316.51 212.879 1322.77 207.116 1329.37 200.765C1335.98 194.179 1342.58 187.592 1349.19 181.006C1355.8 174.42 1362.05 168.069 1367.95 161.953C1373.85 155.837 1379.04 150.544 1383.52 146.075C1386.82 142.076 1389.77 138.901 1392.37 136.548C1394.96 133.961 1396.85 132.667 1398.03 132.667C1399.21 132.667 1400.5 133.373 1401.92 134.784C1403.34 136.196 1404.63 137.842 1405.81 139.724C1406.99 141.606 1407.94 143.723 1408.64 146.075C1409.35 148.192 1409.71 149.956 1409.71 151.368C1409.71 152.073 1408.29 154.426 1405.46 158.424C1402.86 162.188 1399.56 166.775 1395.55 172.185C1391.78 177.595 1387.53 183.476 1382.81 189.827C1378.09 196.178 1373.73 202.294 1369.72 208.175C1365.94 214.055 1362.64 219.348 1359.81 224.052C1357.21 228.522 1355.91 231.815 1355.91 233.932C1355.91 234.638 1356.15 234.99 1356.62 234.99C1360.16 234.99 1364.41 232.991 1369.36 228.992C1374.55 224.993 1380.69 219.465 1387.76 212.409C1394.84 205.352 1404.52 196.884 1416.78 187.004C1417.26 186.534 1417.85 186.181 1418.55 185.946C1419.5 185.475 1419.97 185.946 1419.97 187.357C1419.97 189.709 1419.5 191.591 1418.55 193.003C1417.85 194.179 1417.37 194.884 1417.14 195.12C1407.46 204.293 1398.62 212.879 1390.6 220.877C1382.57 228.639 1375.26 234.873 1368.65 239.577C1362.28 244.517 1356.74 246.987 1352.02 246.987C1348.95 246.987 1345.53 245.34 1341.76 242.047C1338.22 238.989 1336.45 233.344 1336.45 225.111C1336.45 221.112 1338.1 215.584 1341.41 208.528C1344.94 201.471 1349.19 194.061 1354.15 186.299C1346.36 194.532 1338.81 202.294 1331.5 209.586C1324.18 216.878 1317.34 223.347 1310.97 228.992C1304.6 234.402 1298.82 238.754 1293.63 242.047C1292.21 242.988 1290.92 243.694 1289.74 244.164Z" fill="#1C1C1C" fill-opacity="0.04"/>
<path d="M1555.23 184.535C1555.46 184.064 1556.05 183.711 1557 183.476C1557.94 183.006 1558.41 183.476 1558.41 184.887C1558.41 187.24 1557.94 189.121 1557 190.533C1556.29 191.709 1555.82 192.415 1555.58 192.65C1544.02 205.117 1533.28 216.172 1523.38 225.817C1513.7 235.461 1504.74 243.459 1496.48 249.81C1488.46 256.161 1482.21 259.336 1477.72 259.336C1473.71 259.336 1470.41 257.337 1467.81 253.338C1465.22 249.339 1463.92 244.752 1463.92 239.577C1463.92 236.284 1465.34 231.58 1468.17 225.464C1471 219.348 1474.66 212.526 1479.14 204.999C1474.18 210.174 1468.99 215.349 1463.57 220.524C1458.38 225.464 1453.31 229.933 1448.35 233.932C1443.63 237.695 1439.27 240.753 1435.26 243.106C1431.48 245.693 1428.42 246.987 1426.06 246.987C1424.64 246.987 1422.63 246.516 1420.04 245.576C1417.68 244.87 1415.2 243.459 1412.61 241.341C1410.25 239.46 1408.24 236.755 1406.59 233.226C1404.7 229.463 1403.76 224.758 1403.76 219.113C1403.76 214.408 1405.18 208.998 1408.01 202.882C1410.84 196.531 1414.61 190.18 1419.33 183.829C1424.05 177.478 1429.36 171.244 1435.26 165.128C1441.16 159.013 1447.17 153.602 1453.31 148.898C1459.44 143.958 1465.46 140.077 1471.35 137.254C1477.25 134.196 1482.44 132.667 1486.92 132.667C1490.7 132.667 1494.12 133.373 1497.19 134.784C1500.49 136.196 1503.32 138.077 1505.68 140.43C1508.04 142.782 1509.81 145.369 1510.99 148.192C1512.41 151.015 1513.11 153.955 1513.11 157.013C1513.11 157.248 1512.99 157.366 1512.76 157.366C1512.76 157.366 1512.76 157.484 1512.76 157.719C1517.95 151.838 1521.61 148.898 1523.73 148.898C1524.91 148.898 1526.21 149.603 1527.62 151.015C1529.04 152.191 1530.34 153.838 1531.52 155.955C1532.69 157.836 1533.64 159.836 1534.35 161.953C1535.05 164.07 1535.41 165.834 1535.41 167.245C1535.41 167.951 1533.99 170.303 1531.16 174.302C1528.57 178.066 1525.26 182.653 1521.25 188.063C1517.48 193.473 1513.23 199.354 1508.51 205.705C1503.79 211.821 1499.43 217.819 1495.42 223.7C1491.64 229.345 1488.34 234.52 1485.51 239.224C1482.91 243.929 1481.62 247.34 1481.62 249.457C1481.62 249.927 1481.85 250.162 1482.32 250.162C1483.74 250.162 1486.81 248.163 1491.53 244.164C1496.24 240.401 1501.79 235.578 1508.16 229.698C1514.53 223.582 1521.37 216.878 1528.68 209.586C1536.23 202.294 1541.66 197.119 1544.96 194.061C1548.5 190.768 1551.92 187.592 1555.23 184.535ZM1423.93 236.402C1426.76 236.402 1430.54 234.99 1435.26 232.168C1439.98 229.11 1445.17 225.229 1450.83 220.524C1456.73 215.82 1462.86 210.409 1469.23 204.293C1475.6 197.942 1481.85 191.591 1487.99 185.24C1486.81 184.77 1485.75 184.064 1484.8 183.123C1484.09 182.182 1483.74 181.124 1483.74 179.948C1483.74 179.242 1484.68 177.948 1486.57 176.066C1488.69 174.185 1490.94 172.068 1493.3 169.715C1495.65 167.128 1497.78 164.305 1499.67 161.247C1501.79 158.189 1502.85 155.249 1502.85 152.426C1502.85 149.839 1501.55 148.545 1498.96 148.545C1496.83 148.545 1493.41 150.074 1488.69 153.132C1483.98 156.19 1478.67 160.306 1472.77 165.481C1467.11 170.421 1461.21 176.066 1455.07 182.417C1449.18 188.533 1443.63 194.767 1438.44 201.118C1433.49 207.469 1429.36 213.467 1426.06 219.113C1422.99 224.758 1421.46 229.58 1421.46 233.579C1421.46 235.461 1422.28 236.402 1423.93 236.402Z" fill="#1C1C1C" fill-opacity="0.04"/>
<path d="M1645.18 184.887C1648.25 179.948 1651.55 174.773 1655.09 169.362C1659.58 162.776 1663.82 156.778 1667.83 151.368C1672.08 145.957 1675.86 141.488 1679.16 137.96C1682.7 134.431 1685.17 132.667 1686.59 132.667C1687.77 132.667 1689.07 133.373 1690.48 134.784C1691.9 136.196 1693.2 137.842 1694.38 139.724C1695.56 141.606 1696.5 143.723 1697.21 146.075C1697.91 148.192 1698.27 149.956 1698.27 151.368C1698.27 152.309 1696.97 154.543 1694.38 158.072C1692.02 161.6 1688.95 165.952 1685.17 171.127C1681.4 176.066 1677.27 181.594 1672.79 187.71C1668.31 193.591 1664.18 199.354 1660.4 204.999C1656.63 210.409 1653.44 215.349 1650.85 219.818C1648.49 224.288 1647.31 227.581 1647.31 229.698C1647.31 230.168 1647.66 230.403 1648.37 230.403C1652.62 230.403 1658.04 227.816 1664.65 222.641C1671.49 217.231 1677.98 211.585 1684.11 205.705C1690.25 199.589 1696.85 193.12 1703.93 186.299C1704.4 185.828 1704.99 185.475 1705.7 185.24C1706.64 184.77 1707.12 185.24 1707.12 186.652C1707.12 189.004 1706.64 190.886 1705.7 192.297C1704.99 193.473 1704.52 194.179 1704.28 194.414C1700.75 198.178 1696.15 203.117 1690.48 209.233C1685.06 215.114 1679.51 220.289 1673.85 224.758C1668.19 229.227 1662.76 232.873 1657.57 235.696C1652.38 238.284 1647.78 239.577 1643.77 239.577C1639.52 239.577 1636.1 237.578 1633.51 233.579C1631.15 229.58 1629.97 224.993 1629.97 219.818C1629.97 216.76 1631.15 212.526 1633.51 207.116C1634.92 204.058 1636.46 200.883 1638.11 197.59C1634.8 199.236 1631.5 200.765 1628.2 202.176C1619.47 205.94 1611.09 207.822 1603.07 207.822C1596.47 207.822 1591.04 206.41 1586.79 203.588C1583.73 208.057 1580.3 213.114 1576.53 218.76C1565.21 235.461 1559.43 244.047 1559.19 244.517L1559.9 243.106C1557.3 246.164 1555.65 247.693 1554.94 247.693C1553.76 247.928 1551.99 246.987 1549.63 244.87C1547.28 242.753 1545.15 240.048 1543.26 236.755C1542.32 234.402 1542.79 231.697 1544.68 228.639C1547.51 223.935 1551.17 217.937 1555.65 210.645C1560.37 203.353 1565.32 195.708 1570.51 187.71C1575.7 179.712 1580.89 171.715 1586.09 163.717C1591.51 155.719 1596.58 148.545 1601.3 142.194C1603.43 139.606 1604.96 137.254 1605.9 135.137C1606.85 133.02 1607.67 131.256 1608.38 129.845C1609.32 128.433 1610.15 127.375 1610.86 126.669C1611.8 125.963 1613.1 125.61 1614.75 125.61C1616.87 125.61 1619.23 127.375 1621.83 130.903C1624.42 134.196 1626.19 137.607 1627.14 141.135C1627.61 143.252 1627.49 145.017 1626.78 146.428C1626.07 147.839 1624.78 149.839 1622.89 152.426C1621 154.778 1618.76 157.836 1616.17 161.6C1613.57 165.128 1610.74 169.01 1607.67 173.244C1604.84 177.478 1601.77 181.947 1598.47 186.652C1598 187.357 1597.41 188.298 1596.7 189.474C1596.47 190.65 1596.35 191.944 1596.35 193.355C1596.35 194.767 1596.7 195.825 1597.41 196.531C1598.12 197.001 1600.24 197.237 1603.78 197.237C1616.05 197.237 1627.84 194.296 1639.17 188.416C1641.29 187.24 1643.3 186.063 1645.18 184.887Z" fill="#1C1C1C" fill-opacity="0.04"/>
<path d="M1717.45 236.402C1720.28 236.402 1724.06 234.99 1728.77 232.168C1733.73 229.11 1739.04 225.229 1744.7 220.524C1750.6 215.82 1756.61 210.409 1762.75 204.293C1769.12 197.942 1775.37 191.591 1781.5 185.24C1778.91 184.064 1777.61 182.3 1777.61 179.948C1777.61 179.242 1778.55 177.948 1780.44 176.066C1782.57 174.185 1784.69 172.068 1786.81 169.715C1789.17 167.128 1791.29 164.305 1793.18 161.247C1795.31 158.189 1796.37 155.249 1796.37 152.426C1796.37 149.839 1795.07 148.545 1792.47 148.545C1790.35 148.545 1786.93 150.074 1782.21 153.132C1777.49 156.19 1772.18 160.306 1766.29 165.481C1760.62 170.421 1754.73 176.066 1748.59 182.417C1742.69 188.533 1737.15 194.767 1731.96 201.118C1727 207.469 1722.88 213.467 1719.57 219.113C1716.51 224.758 1714.97 229.58 1714.97 233.579C1714.97 235.461 1715.8 236.402 1717.45 236.402ZM1594.3 391.298C1605.62 388.24 1616.12 383.888 1625.79 378.243C1635.23 372.833 1644.55 365.776 1653.75 357.072C1662.95 348.604 1672.39 338.372 1682.06 326.376C1691.5 314.614 1702 300.854 1713.56 285.093C1704.59 290.504 1695.04 296.384 1684.89 302.735C1674.51 309.086 1663.3 316.026 1651.27 323.553C1637.35 332.491 1625.91 340.254 1616.94 346.84C1607.74 353.662 1600.55 359.542 1595.36 364.482C1589.93 369.422 1586.27 373.538 1584.39 376.831C1582.26 380.36 1581.2 383.183 1581.2 385.3C1581.2 387.887 1582.15 389.651 1584.03 390.592C1585.92 391.533 1588.04 392.003 1590.4 392.003C1591.58 392.003 1592.88 391.768 1594.3 391.298ZM1756.02 268.51C1740.69 289.21 1727 307.44 1714.97 323.2C1700.82 341.548 1687.49 356.602 1674.98 368.363C1662.48 380.36 1650.21 389.298 1638.18 395.179C1626.15 401.06 1613.29 404 1599.6 404C1593.23 404 1587.57 401.883 1582.62 397.649C1577.43 393.415 1574.83 388.005 1574.83 381.418C1574.83 373.656 1579.2 365.423 1587.93 356.72C1596.65 348.016 1608.22 338.842 1622.61 329.198C1637 319.554 1653.4 309.322 1671.8 298.501C1689.96 287.916 1708.48 276.978 1727.36 265.687C1733.02 257.69 1739.04 249.222 1745.41 240.283C1751.78 231.58 1758.5 222.288 1765.58 212.409C1761.1 216.878 1756.5 221.23 1751.78 225.464C1747.29 229.698 1743.05 233.461 1739.04 236.755C1735.03 239.813 1731.37 242.282 1728.07 244.164C1724.76 246.046 1722.05 246.987 1719.93 246.987C1718.51 246.987 1716.51 246.516 1713.91 245.576C1711.32 244.87 1708.72 243.459 1706.12 241.341C1703.77 239.46 1701.76 236.755 1700.11 233.226C1698.22 229.463 1697.28 224.758 1697.28 219.113C1697.28 214.408 1698.69 208.998 1701.52 202.882C1704.36 196.531 1708.13 190.18 1712.85 183.829C1717.57 177.478 1722.88 171.244 1728.77 165.128C1734.67 159.013 1740.69 153.602 1746.82 148.898C1753.19 143.958 1759.33 140.077 1765.22 137.254C1771.12 134.196 1776.31 132.667 1780.8 132.667C1784.57 132.667 1787.99 133.373 1791.06 134.784C1794.36 136.196 1797.07 138.077 1799.2 140.43C1801.56 142.782 1803.33 145.369 1804.51 148.192C1805.92 151.015 1806.63 153.955 1806.63 157.013V157.719C1811.82 151.838 1815.36 148.898 1817.25 148.898C1818.43 148.898 1819.72 149.603 1821.14 151.015C1822.55 152.191 1823.85 153.838 1825.03 155.955C1826.21 157.836 1827.16 159.836 1827.86 161.953C1828.57 164.07 1828.93 165.834 1828.93 167.245C1828.93 167.951 1828.1 169.48 1826.45 171.832C1825.03 174.185 1823.03 177.125 1820.43 180.653C1817.6 184.887 1814.3 189.474 1810.52 194.414C1807.22 198.648 1803.44 203.705 1799.2 209.586C1795.9 214.055 1790 222.171 1781.5 233.932C1787.17 229.698 1791.88 225.934 1795.66 222.641C1800.38 218.172 1804.98 213.702 1809.46 209.233C1817.72 201.471 1829.51 190.533 1844.85 176.419C1844.85 175.949 1845.32 175.478 1846.27 175.008C1847.21 174.537 1847.8 175.008 1848.04 176.419C1848.27 178.771 1848.04 180.653 1847.33 182.065C1846.62 183.476 1846.15 184.299 1845.91 184.535C1831.99 199.354 1820.9 210.762 1812.65 218.76C1806.04 225.111 1799.2 231.344 1792.12 237.46C1785.04 243.576 1773.01 253.926 1756.02 268.51Z" fill="#1C1C1C" fill-opacity="0.04"/>
<path d="M1980.81 184.535C1981.05 184.064 1981.64 183.711 1982.58 183.476C1983.53 183.006 1984 183.476 1984 184.887C1984 187.24 1983.53 189.121 1982.58 190.533C1981.88 191.709 1981.4 192.415 1981.17 192.65C1969.61 205.117 1958.87 216.172 1948.96 225.817C1939.29 235.461 1930.33 243.459 1922.07 249.81C1914.05 256.161 1907.8 259.336 1903.31 259.336C1899.3 259.336 1896 257.337 1893.4 253.338C1890.81 249.339 1889.51 244.752 1889.51 239.577C1889.51 236.284 1890.93 231.58 1893.76 225.464C1896.59 219.348 1900.25 212.526 1904.73 204.999C1899.77 210.174 1894.58 215.349 1889.16 220.524C1883.97 225.464 1878.89 229.933 1873.94 233.932C1869.22 237.695 1864.86 240.753 1860.85 243.106C1857.07 245.693 1854 246.987 1851.64 246.987C1850.23 246.987 1848.22 246.516 1845.63 245.576C1843.27 244.87 1840.79 243.459 1838.2 241.341C1835.84 239.46 1833.83 236.755 1832.18 233.226C1830.29 229.463 1829.35 224.758 1829.35 219.113C1829.35 214.408 1830.77 208.998 1833.6 202.882C1836.43 196.531 1840.2 190.18 1844.92 183.829C1849.64 177.478 1854.95 171.244 1860.85 165.128C1866.74 159.013 1872.76 153.602 1878.89 148.898C1885.03 143.958 1891.04 140.077 1896.94 137.254C1902.84 134.196 1908.03 132.667 1912.51 132.667C1916.29 132.667 1919.71 133.373 1922.78 134.784C1926.08 136.196 1928.91 138.077 1931.27 140.43C1933.63 142.782 1935.4 145.369 1936.58 148.192C1937.99 151.015 1938.7 153.955 1938.7 157.013C1938.7 157.248 1938.58 157.366 1938.35 157.366C1938.35 157.366 1938.35 157.484 1938.35 157.719C1943.54 151.838 1947.2 148.898 1949.32 148.898C1950.5 148.898 1951.8 149.603 1953.21 151.015C1954.63 152.191 1955.92 153.838 1957.1 155.955C1958.28 157.836 1959.23 159.836 1959.94 161.953C1960.64 164.07 1961 165.834 1961 167.245C1961 167.951 1959.58 170.303 1956.75 174.302C1954.16 178.066 1950.85 182.653 1946.84 188.063C1943.07 193.473 1938.82 199.354 1934.1 205.705C1929.38 211.821 1925.02 217.819 1921.01 223.7C1917.23 229.345 1913.93 234.52 1911.1 239.224C1908.5 243.929 1907.21 247.34 1907.21 249.457C1907.21 249.927 1907.44 250.162 1907.91 250.162C1909.33 250.162 1912.4 248.163 1917.11 244.164C1921.83 240.401 1927.38 235.578 1933.75 229.698C1940.12 223.582 1946.96 216.878 1954.27 209.586C1961.82 202.294 1967.25 197.119 1970.55 194.061C1974.09 190.768 1977.51 187.592 1980.81 184.535ZM1849.52 236.402C1852.35 236.402 1856.13 234.99 1860.85 232.168C1865.56 229.11 1870.75 225.229 1876.42 220.524C1882.32 215.82 1888.45 210.409 1894.82 204.293C1901.19 197.942 1907.44 191.591 1913.58 185.24C1912.4 184.77 1911.33 184.064 1910.39 183.123C1909.68 182.182 1909.33 181.124 1909.33 179.948C1909.33 179.242 1910.27 177.948 1912.16 176.066C1914.28 174.185 1916.52 172.068 1918.88 169.715C1921.24 167.128 1923.37 164.305 1925.25 161.247C1927.38 158.189 1928.44 155.249 1928.44 152.426C1928.44 149.839 1927.14 148.545 1924.55 148.545C1922.42 148.545 1919 150.074 1914.28 153.132C1909.56 156.19 1904.26 160.306 1898.36 165.481C1892.7 170.421 1886.8 176.066 1880.66 182.417C1874.77 188.533 1869.22 194.767 1864.03 201.118C1859.08 207.469 1854.95 213.467 1851.64 219.113C1848.58 224.758 1847.04 229.58 1847.04 233.579C1847.04 235.461 1847.87 236.402 1849.52 236.402Z" fill="#1C1C1C" fill-opacity="0.04"/>
</svg>
