<svg width="648" height="167" viewBox="0 0 648 167" fill="none" xmlns="http://www.w3.org/2000/svg">
<path d="M131.25 107.36C131.706 106.677 132.161 105.936 132.617 105.139C133.643 103.43 134.725 101.664 135.864 99.8407C126.636 102.005 117.122 104.398 107.324 107.018C97.2982 109.867 87.5 112.829 77.9297 115.905C68.4733 118.867 59.5296 121.887 51.0986 124.963C42.6676 128.153 35.262 131.229 28.8818 134.191C22.5016 137.153 17.4316 139.945 13.6719 142.565C10.026 145.3 8.20312 147.692 8.20312 149.743C8.20312 150.654 9.11458 151.509 10.9375 152.306C12.8743 153.104 15.096 153.845 17.6025 154.528C20.223 155.212 22.9004 155.724 25.6348 156.066C28.4831 156.522 30.7617 156.75 32.4707 156.75C43.8639 156.75 55.0293 154.813 65.9668 150.939C77.0182 147.18 87.1582 142.451 96.3867 136.755C105.729 131.058 113.932 124.849 120.996 118.127C124.984 114.367 128.402 110.778 131.25 107.36ZM152.612 96.2518C149.536 100.581 146.688 104.683 144.067 108.556C143.498 109.468 142.928 110.436 142.358 111.462C139.054 116.703 134.725 121.887 129.37 127.014C124.129 132.14 118.091 137.04 111.255 141.711C104.419 146.496 97.1273 150.711 89.3799 154.357C81.7464 158.003 73.8851 160.908 65.7959 163.073C57.7067 165.238 49.8454 166.32 42.2119 166.32C36.0596 166.32 30.363 165.807 25.1221 164.782C19.9951 163.757 15.5518 162.389 11.792 160.681C8.14616 158.972 5.29785 156.978 3.24707 154.699C1.08236 152.534 0 150.313 0 148.034C0 145.414 1.87988 142.679 5.63965 139.831C9.39941 136.983 14.1846 134.134 19.9951 131.286C25.9196 128.552 32.4707 125.874 39.6484 123.254C46.9401 120.519 54.0039 118.07 60.8398 115.905C67.6758 113.626 73.9421 111.69 79.6387 110.095C85.4492 108.386 89.8356 107.132 92.7979 106.335C101.685 103.828 110.002 101.607 117.749 99.6698C125.269 97.8469 132.332 96.1948 138.94 94.7137C139.168 94.4858 139.396 94.201 139.624 93.8592C139.852 93.2896 140.023 92.7769 140.137 92.3211L140.649 92.1502C141.105 91.5806 141.504 91.0109 141.846 90.4413C145.719 84.5168 149.707 78.6493 153.809 72.8387C163.379 59.2808 174.373 44.9253 186.792 29.7723C178.019 36.2664 169.645 42.9885 161.67 49.9383C157.454 53.5842 152.669 57.7997 147.314 62.5848C142.074 67.256 136.833 71.7564 131.592 76.0858C126.009 80.5291 121.11 84.061 116.895 86.6815C112.679 89.3019 109.318 90.6122 106.812 90.6122C104.647 90.6122 102.596 89.8146 100.659 88.2196C98.8363 86.6245 98.0957 84.175 98.4375 80.8709C98.7793 77.6808 100.317 73.7502 103.052 69.0789C105.9 64.2938 109.489 59.1099 113.818 53.5272C115.983 50.9067 118.262 48.2293 120.654 45.495L120.142 45.3241C124.585 40.425 128.971 35.6968 133.301 31.1395C138.2 26.0125 142.586 21.5122 146.46 17.6385C150.334 13.6509 153.467 10.5177 155.859 8.2391C158.252 5.96046 159.562 4.82114 159.79 4.82114C160.018 4.82114 160.36 4.93507 160.815 5.16293C161.727 5.84653 162.41 6.47315 162.866 7.04281C163.436 7.61248 164.233 9.0936 165.259 11.4862C165.601 12.3976 165.771 13.1382 165.771 13.7079C165.771 14.2775 164.632 15.9295 162.354 18.6639C160.075 21.2844 157.056 24.6454 153.296 28.7469C149.536 32.7345 145.264 37.2349 140.479 42.2479C138.542 44.1847 132.275 51.0207 121.68 62.7557C111.198 74.4907 105.843 81.4976 105.615 83.7762C105.615 84.3459 106.014 84.6307 106.812 84.6307C108.293 84.6307 111.141 83.2635 115.356 80.5291C119.572 77.6808 124.699 73.978 130.737 69.4207C135.864 65.4331 140.877 61.4455 145.776 57.4579C150.789 53.4702 155.119 49.8244 158.765 46.5204C165.259 40.7098 171.126 35.5259 176.367 30.9686C181.722 26.4113 186.165 22.7655 189.697 20.0311C193.343 17.1828 195.679 15.7586 196.704 15.7586C197.274 15.7586 197.957 15.9295 198.755 16.2713C199.097 16.3853 199.495 16.5562 199.951 16.784C201.09 17.4676 202.173 18.3221 203.198 19.3475C204.224 20.3729 205.078 21.4552 205.762 22.5946C206.559 23.7339 206.958 24.7023 206.958 25.4998L203.711 29.6014C201.432 32.3358 198.47 35.9816 194.824 40.5389C191.178 45.0962 187.02 50.3371 182.349 56.2616C177.791 62.186 173.063 68.3384 168.164 74.7186C163.949 80.3013 159.847 85.884 155.859 91.4666C159.961 90.6691 163.778 89.9855 167.31 89.4159C172.778 88.6183 177.336 87.9917 180.981 87.536C185.311 87.0803 189.071 86.7385 192.261 86.5106H192.432C192.887 86.5106 193.571 86.7954 194.482 87.3651C195.508 87.8208 196.134 88.1626 196.362 88.3905C196.818 88.7323 197.046 89.188 197.046 89.7577C197.046 90.5552 196.59 90.9539 195.679 90.9539H194.653C194.539 90.84 194.027 90.7831 193.115 90.7831C187.988 90.7831 181.551 91.3527 173.804 92.492C167.31 93.4035 160.246 94.6567 152.612 96.2518Z" fill="white" fill-opacity="0.05"/>
<path d="M263.56 98.9862C263.673 98.7583 263.958 98.5874 264.414 98.4735C264.87 98.2456 265.098 98.4735 265.098 99.1571C265.098 100.296 264.87 101.208 264.414 101.891C264.072 102.461 263.844 102.803 263.73 102.917C262.021 104.626 259.857 106.904 257.236 109.753C254.73 112.601 252.679 114.88 251.084 116.589C249.489 118.298 247.153 120.462 244.077 123.083C241.001 125.703 238.096 127.811 235.361 129.406C232.741 131.115 230.519 131.97 228.696 131.97C226.759 131.97 225.164 131.001 223.911 129.064C222.658 127.127 222.031 124.963 222.031 122.57C222.031 121.089 222.487 119.209 223.398 116.931C224.424 114.652 225.677 112.202 227.158 109.582C228.753 106.848 230.462 104.113 232.285 101.379C234.108 98.6444 235.817 96.1379 237.412 93.8592C239.121 91.4666 240.602 89.4159 241.855 87.7069C243.109 85.9979 243.906 84.8586 244.248 84.2889C246.071 81.8963 246.982 80.2443 246.982 79.3329C246.982 78.9911 246.812 78.8202 246.47 78.8202C244.989 78.8202 242.596 80.0164 239.292 82.409C236.102 84.8016 232.456 87.7638 228.354 91.2957C224.367 94.8276 220.208 98.7013 215.879 102.917C211.663 107.132 207.733 111.063 204.087 114.709C200.555 118.241 197.593 121.26 195.2 123.766C192.922 126.273 191.725 127.64 191.611 127.868L191.953 127.184C190.7 128.666 189.902 129.406 189.561 129.406C188.991 129.52 188.136 129.064 186.997 128.039C185.858 127.014 184.832 125.703 183.921 124.108C183.465 122.969 183.693 121.659 184.604 120.178C185.972 117.899 187.738 114.994 189.902 111.462C192.181 107.93 194.574 104.227 197.08 100.353C199.587 96.4797 202.093 92.606 204.6 88.7323C207.22 84.8586 209.67 81.3836 211.948 78.3075C212.974 77.0542 213.714 75.9149 214.17 74.8895C214.626 73.8641 215.024 73.0096 215.366 72.326C215.822 71.6424 216.221 71.1297 216.562 70.7879C217.018 70.4461 217.645 70.2752 218.442 70.2752C219.468 70.2752 220.607 71.1297 221.86 72.8387C223.114 74.4338 223.968 76.0858 224.424 77.7948C224.652 78.8202 224.595 79.6747 224.253 80.3582C223.911 81.0418 223.285 82.0103 222.373 83.2635C221.462 84.4028 220.379 85.884 219.126 87.7069C217.873 89.4159 216.506 91.2957 215.024 93.3465C213.657 95.3973 212.176 97.562 210.581 99.8407C208.986 102.119 207.448 104.341 205.967 106.506C209.157 103.43 212.803 99.9546 216.904 96.0809C221.12 92.2072 225.278 88.5614 229.38 85.1434C233.595 81.7254 237.469 78.8202 241.001 76.4276C244.533 74.035 247.267 72.8387 249.204 72.8387C251.141 72.8387 253.078 74.035 255.015 76.4276C256.952 78.7062 257.92 81.8394 257.92 85.827C257.92 86.5106 257.236 87.8778 255.869 89.9286C254.616 91.8654 252.964 94.201 250.913 96.9354C248.862 99.5558 246.698 102.404 244.419 105.48C242.14 108.443 239.976 111.348 237.925 114.196C235.874 116.931 234.165 119.437 232.798 121.716C231.545 123.994 230.918 125.646 230.918 126.672C230.918 126.9 231.032 127.014 231.26 127.014C232.969 127.014 235.304 125.874 238.267 123.596C241.229 121.203 244.818 117.899 249.033 113.683C253.249 109.354 258.091 104.455 263.56 98.9862Z" fill="white" fill-opacity="0.05"/>
<path d="M332.124 98.8153C332.238 98.5874 332.523 98.4165 332.979 98.3026C333.434 98.0747 333.662 98.3026 333.662 98.9862C333.662 100.125 333.434 101.037 332.979 101.721C332.637 102.29 332.409 102.632 332.295 102.746C326.712 108.784 321.528 114.139 316.743 118.81C312.072 123.482 307.743 127.355 303.755 130.431C299.881 133.508 296.862 135.046 294.697 135.046C292.76 135.046 291.165 134.077 289.912 132.14C288.659 130.204 288.032 127.982 288.032 125.475C288.032 123.88 288.716 121.602 290.083 118.639C291.45 115.677 293.216 112.373 295.381 108.727C292.988 111.234 290.482 113.74 287.861 116.247C285.355 118.639 282.905 120.804 280.513 122.741C278.234 124.564 276.126 126.045 274.189 127.184C272.367 128.438 270.885 129.064 269.746 129.064C269.062 129.064 268.094 128.836 266.841 128.381C265.702 128.039 264.505 127.355 263.252 126.33C262.113 125.418 261.144 124.108 260.347 122.399C259.435 120.576 258.979 118.298 258.979 115.563C258.979 113.285 259.663 110.664 261.03 107.702C262.397 104.626 264.22 101.55 266.499 98.4735C268.778 95.3973 271.341 92.3781 274.189 89.4159C277.038 86.4536 279.943 83.8332 282.905 81.5545C285.868 79.162 288.773 77.2821 291.621 75.9149C294.469 74.4338 296.976 73.6932 299.141 73.6932C300.964 73.6932 302.616 74.035 304.097 74.7186C305.692 75.4022 307.059 76.3137 308.198 77.453C309.338 78.5923 310.192 79.8456 310.762 81.2127C311.445 82.5799 311.787 84.0041 311.787 85.4852C311.787 85.5991 311.73 85.6561 311.616 85.6561C311.616 85.6561 311.616 85.7131 311.616 85.827C314.123 82.9787 315.889 81.5545 316.914 81.5545C317.484 81.5545 318.11 81.8963 318.794 82.5799C319.478 83.1496 320.104 83.9471 320.674 84.9725C321.243 85.884 321.699 86.8524 322.041 87.8778C322.383 88.9032 322.554 89.7577 322.554 90.4413C322.554 90.7831 321.87 91.9224 320.503 93.8592C319.25 95.6821 317.655 97.9038 315.718 100.524C313.895 103.145 311.844 105.993 309.565 109.069C307.287 112.031 305.179 114.937 303.242 117.785C301.419 120.519 299.824 123.026 298.457 125.305C297.204 127.583 296.577 129.235 296.577 130.261C296.577 130.488 296.691 130.602 296.919 130.602C297.603 130.602 299.084 129.634 301.362 127.697C303.641 125.874 306.318 123.539 309.395 120.69C312.471 117.728 315.775 114.481 319.307 110.949C322.952 107.417 325.573 104.911 327.168 103.43C328.877 101.834 330.529 100.296 332.124 98.8153ZM268.721 123.937C270.088 123.937 271.911 123.254 274.189 121.887C276.468 120.405 278.975 118.526 281.709 116.247C284.557 113.968 287.52 111.348 290.596 108.386C293.672 105.309 296.691 102.233 299.653 99.1571C299.084 98.9292 298.571 98.5874 298.115 98.1317C297.773 97.676 297.603 97.1633 297.603 96.5936C297.603 96.2518 298.058 95.6252 298.97 94.7137C299.995 93.8023 301.077 92.7769 302.217 91.6375C303.356 90.3843 304.382 89.0171 305.293 87.536C306.318 86.0549 306.831 84.6307 306.831 83.2635C306.831 82.0103 306.204 81.3836 304.951 81.3836C303.926 81.3836 302.274 82.1242 299.995 83.6053C297.716 85.0864 295.153 87.0803 292.305 89.5868C289.57 91.9793 286.722 94.7137 283.76 97.7899C280.911 100.752 278.234 103.771 275.728 106.848C273.335 109.924 271.341 112.829 269.746 115.563C268.265 118.298 267.524 120.633 267.524 122.57C267.524 123.482 267.923 123.937 268.721 123.937Z" fill="white" fill-opacity="0.05"/>
<path d="M367.876 76.4276C367.876 76.6554 367.591 77.2251 367.021 78.1366C366.452 79.048 365.711 80.1304 364.8 81.3836L348.564 104.797C352.324 101.151 356.084 97.7329 359.844 94.5428C363.717 91.2388 367.363 88.2765 370.781 85.6561C374.313 82.9217 377.56 80.5861 380.522 78.6493C383.485 76.5985 385.934 75.0604 387.871 74.035C388.555 73.6932 389.352 73.6932 390.264 74.035C391.175 74.2629 391.973 74.7186 392.656 75.4022C393.34 76.0858 393.853 76.8833 394.194 77.7948C394.65 78.5923 394.821 79.3329 394.707 80.0164C394.593 80.2443 394.308 80.4722 393.853 80.7C393.511 80.9279 391.802 81.8963 388.726 83.6053C385.763 85.2004 382.402 87.1372 378.643 89.4159C374.883 91.5806 371.237 93.8023 367.705 96.0809C364.173 98.3596 361.724 100.182 360.356 101.55C360.129 101.778 359.901 101.948 359.673 102.062C360.812 102.29 361.895 102.632 362.92 103.088C363.945 103.43 364.686 104.113 365.142 105.139C366.167 107.417 367.306 110.095 368.56 113.171C369.927 116.247 371.522 119.209 373.345 122.057C375.168 124.906 377.161 127.298 379.326 129.235C381.491 131.286 383.94 132.311 386.675 132.311C387.586 132.311 388.783 132.027 390.264 131.457C391.745 131.001 392.656 130.773 392.998 130.773C393.682 130.773 394.023 131.058 394.023 131.628C394.023 131.97 393.682 132.425 392.998 132.995C392.314 133.565 391.403 134.077 390.264 134.533C389.238 135.103 388.042 135.558 386.675 135.9C385.308 136.356 383.883 136.584 382.402 136.584C378.415 136.584 374.826 135.501 371.636 133.337C368.446 131.172 365.654 128.552 363.262 125.475C360.869 122.513 358.818 119.38 357.109 116.076C355.514 112.772 354.318 109.981 353.521 107.702C353.521 107.816 353.464 107.873 353.35 107.873C353.122 108.101 352.21 108.955 350.615 110.436C349.02 111.917 347.14 113.683 344.976 115.734C342.925 117.785 340.817 119.893 338.652 122.057C336.488 124.222 334.722 126.159 333.354 127.868C332.329 129.349 331.589 130.488 331.133 131.286C330.563 132.084 330.164 132.653 329.937 132.995C329.709 133.337 329.538 133.565 329.424 133.679C329.31 133.792 329.139 133.849 328.911 133.849C328.341 133.963 327.715 133.679 327.031 132.995C326.234 132.425 325.436 131.343 324.639 129.748C324.297 128.95 324.468 127.64 325.151 125.817C326.405 122.627 328.341 118.639 330.962 113.854C333.582 109.069 336.659 103.828 340.19 98.1317C343.722 92.4351 347.71 86.2827 352.153 79.6747C356.711 72.9526 359.274 69.3068 359.844 68.7372C360.983 67.8257 361.781 67.37 362.236 67.37C362.806 67.37 363.433 67.7118 364.116 68.3954C364.8 69.0789 365.426 69.8765 365.996 70.7879C366.566 71.6994 367.021 72.6678 367.363 73.6932C367.705 74.7186 367.876 75.6301 367.876 76.4276Z" fill="white" fill-opacity="0.05"/>
<path d="M435.073 101.037C431.313 106.506 427.896 111.006 424.819 114.538C421.743 118.07 418.667 121.203 415.591 123.937C412.515 126.672 409.609 128.893 406.875 130.602C404.141 132.311 401.748 133.166 399.697 133.166C397.419 133.166 395.539 131.799 394.058 129.064C392.463 126.444 391.665 123.596 391.665 120.519C391.665 118.127 392.349 115.222 393.716 111.804C395.083 108.272 396.678 104.911 398.501 101.721C400.324 98.4165 402.09 95.6252 403.799 93.3465C405.622 90.9539 406.875 89.5868 407.559 89.245C408.356 86.6245 409.78 84.118 411.831 81.7254C413.882 79.2189 416.217 77.0542 418.838 75.2313C421.458 73.4084 424.136 71.9842 426.87 70.9588C429.718 69.8195 432.168 69.2498 434.219 69.2498C435.016 69.2498 436.042 69.5347 437.295 70.1043C438.662 70.5601 439.972 71.2437 441.226 72.1551C442.479 72.9526 443.561 73.9211 444.473 75.0604C445.384 76.1997 445.84 77.396 445.84 78.6493C445.84 80.9279 444.985 83.8332 443.276 87.3651C441.681 90.897 438.947 95.4543 435.073 101.037ZM431.143 100.353C434.219 95.6821 436.725 91.2957 438.662 87.1942C440.599 82.9787 441.567 79.7886 441.567 77.6239C441.567 76.8263 441.112 76.4276 440.2 76.4276C438.833 76.4276 437.124 76.9403 435.073 77.9657C433.022 78.8771 430.858 80.0734 428.579 81.5545C426.3 83.0357 424.136 84.7446 422.085 86.6815C420.034 88.6183 418.325 90.4982 416.958 92.3211C417.414 92.7769 417.642 93.3465 417.642 94.0301C417.642 94.7137 416.73 96.4227 414.907 99.1571L412.173 103.088C410.806 105.025 409.382 107.132 407.9 109.411C406.419 111.576 405.052 113.74 403.799 115.905C402.546 117.956 401.52 120.007 400.723 122.057C399.925 123.994 399.526 125.646 399.526 127.014C399.526 127.355 399.754 127.526 400.21 127.526C402.261 127.526 404.425 126.9 406.704 125.646C409.097 124.507 411.489 122.912 413.882 120.861C416.274 118.81 418.61 116.475 420.889 113.854C423.281 111.12 425.503 108.329 427.554 105.48L431.143 100.353Z" fill="white" fill-opacity="0.05"/>
<path d="M492.529 84.6307C491.162 84.7446 489.339 85.5991 487.061 87.1942C484.896 88.6753 482.503 90.6691 479.883 93.1756C477.262 95.5682 474.528 98.4165 471.68 101.721C468.831 104.911 466.04 108.101 463.306 111.291C464.559 112.088 465.243 113 465.356 114.025C465.356 114.367 464.901 115.051 463.989 116.076C463.078 116.987 462.109 118.07 461.084 119.323C460.173 120.576 459.261 121.944 458.35 123.425C457.552 124.906 457.153 126.387 457.153 127.868C457.267 129.007 457.951 129.52 459.204 129.406C460.229 129.406 461.825 128.552 463.989 126.843C466.154 125.248 468.547 123.14 471.167 120.519C473.787 117.899 476.465 114.994 479.199 111.804C481.934 108.613 484.383 105.423 486.548 102.233C488.827 98.9292 490.649 95.853 492.017 93.0047C493.384 90.1564 494.01 87.7638 493.896 85.827C493.783 84.9155 493.327 84.5168 492.529 84.6307ZM546.875 5.84653C541.52 7.66944 536.621 10.062 532.178 13.0243C527.734 15.9865 523.405 19.6893 519.189 24.1327C515.088 28.576 510.929 33.8169 506.714 39.8553C502.498 45.8937 497.884 52.9006 492.871 60.8758C496.973 58.0275 501.416 54.8944 506.201 51.4764C510.986 48.0584 516.113 44.3556 521.582 40.368C528.076 35.6968 533.374 31.5952 537.476 28.0633C541.691 24.5314 544.995 21.5122 547.388 19.0057C549.78 16.3853 551.375 14.2205 552.173 12.5116C553.084 10.8026 553.483 9.43539 553.369 8.41C553.369 7.15675 552.856 6.35922 551.831 6.01742C550.92 5.5617 549.894 5.3908 548.755 5.50473C547.843 5.50473 547.217 5.61866 546.875 5.84653ZM449.292 125.988C446.899 129.634 445.646 131.514 445.532 131.628C445.077 132.311 444.735 132.824 444.507 133.166C444.279 133.508 444.108 133.679 443.994 133.679C443.88 133.792 443.766 133.849 443.652 133.849C442.285 134.077 440.804 132.71 439.209 129.748C438.981 129.064 439.209 127.754 439.893 125.817C441.146 122.627 443.083 118.639 445.703 113.854C448.324 109.069 455.16 98.0747 466.211 80.8709C477.262 63.6672 485.579 50.9067 491.162 42.5897C497.314 33.3612 503.182 25.6707 508.765 19.5184C514.461 13.3661 520.101 8.69483 525.684 5.50473C531.266 2.31462 537.362 0.491708 543.97 0.0359786C547.046 -0.191886 549.837 0.662606 552.344 2.59946C554.964 4.42237 556.388 6.87192 556.616 9.94809C556.844 13.7079 554.964 17.8664 550.977 22.4237C547.103 26.867 541.862 31.6522 535.254 36.7791C528.646 41.7922 521.069 47.2039 512.524 53.0145C504.093 58.825 495.548 64.7495 486.89 70.7879C484.383 74.8895 481.706 79.2189 478.857 83.7762C476.123 88.2196 473.218 92.9478 470.142 97.9608C472.192 95.5682 474.243 93.2896 476.294 91.1248C478.345 88.9601 480.282 87.0803 482.104 85.4852C483.927 83.7762 485.579 82.409 487.061 81.3836C488.656 80.2443 489.966 79.6177 490.991 79.5038C491.675 79.5038 492.643 79.6747 493.896 80.0164C495.15 80.2443 496.403 80.8709 497.656 81.8963C499.023 82.8078 500.163 84.118 501.074 85.827C502.1 87.4221 502.669 89.5868 502.783 92.3211C503.011 94.7137 502.498 97.4481 501.245 100.524C500.106 103.487 498.511 106.62 496.46 109.924C494.409 113.228 492.017 116.475 489.282 119.665C486.662 122.741 483.927 125.475 481.079 127.868C478.231 130.375 475.439 132.425 472.705 134.02C469.971 135.729 467.521 136.641 465.356 136.755C459.546 137.438 455.444 136.299 453.052 133.337C450.887 130.944 449.634 128.495 449.292 125.988Z" fill="white" fill-opacity="0.05"/>
<path d="M549.473 76.4276C549.473 76.6554 549.188 77.2251 548.618 78.1366C548.049 79.048 547.308 80.1304 546.396 81.3836L530.161 104.797C533.921 101.151 537.681 97.7329 541.44 94.5428C545.314 91.2388 548.96 88.2765 552.378 85.6561C555.91 82.9217 559.157 80.5861 562.119 78.6493C565.081 76.5985 567.531 75.0604 569.468 74.035C570.151 73.6932 570.949 73.6932 571.86 74.035C572.772 74.2629 573.569 74.7186 574.253 75.4022C574.937 76.0858 575.449 76.8833 575.791 77.7948C576.247 78.5923 576.418 79.3329 576.304 80.0164C576.19 80.2443 575.905 80.4722 575.449 80.7C575.107 80.9279 573.398 81.8963 570.322 83.6053C567.36 85.2004 563.999 87.1372 560.239 89.4159C556.479 91.5806 552.834 93.8023 549.302 96.0809C545.77 98.3596 543.32 100.182 541.953 101.55C541.725 101.778 541.497 101.948 541.27 102.062C542.409 102.29 543.491 102.632 544.517 103.088C545.542 103.43 546.283 104.113 546.738 105.139C547.764 107.417 548.903 110.095 550.156 113.171C551.523 116.247 553.118 119.209 554.941 122.057C556.764 124.906 558.758 127.298 560.923 129.235C563.088 131.286 565.537 132.311 568.271 132.311C569.183 132.311 570.379 132.027 571.86 131.457C573.341 131.001 574.253 130.773 574.595 130.773C575.278 130.773 575.62 131.058 575.62 131.628C575.62 131.97 575.278 132.425 574.595 132.995C573.911 133.565 573 134.077 571.86 134.533C570.835 135.103 569.639 135.558 568.271 135.9C566.904 136.356 565.48 136.584 563.999 136.584C560.011 136.584 556.423 135.501 553.232 133.337C550.042 131.172 547.251 128.552 544.858 125.475C542.466 122.513 540.415 119.38 538.706 116.076C537.111 112.772 535.915 109.981 535.117 107.702C535.117 107.816 535.06 107.873 534.946 107.873C534.718 108.101 533.807 108.955 532.212 110.436C530.617 111.917 528.737 113.683 526.572 115.734C524.521 117.785 522.414 119.893 520.249 122.057C518.084 124.222 516.318 126.159 514.951 127.868C513.926 129.349 513.185 130.488 512.729 131.286C512.16 132.084 511.761 132.653 511.533 132.995C511.305 133.337 511.134 133.565 511.021 133.679C510.907 133.792 510.736 133.849 510.508 133.849C509.938 133.963 509.312 133.679 508.628 132.995C507.83 132.425 507.033 131.343 506.235 129.748C505.894 128.95 506.064 127.64 506.748 125.817C508.001 122.627 509.938 118.639 512.559 113.854C515.179 109.069 518.255 103.828 521.787 98.1317C525.319 92.4351 529.307 86.2827 533.75 79.6747C538.307 72.9526 540.871 69.3068 541.44 68.7372C542.58 67.8257 543.377 67.37 543.833 67.37C544.403 67.37 545.029 67.7118 545.713 68.3954C546.396 69.0789 547.023 69.8765 547.593 70.7879C548.162 71.6994 548.618 72.6678 548.96 73.6932C549.302 74.7186 549.473 75.6301 549.473 76.4276Z" fill="white" fill-opacity="0.05"/>
<path d="M646.406 98.8153C646.52 98.5874 646.805 98.4165 647.261 98.3026C647.716 98.0747 647.944 98.3026 647.944 98.9862C647.944 100.125 647.716 101.037 647.261 101.721C646.919 102.29 646.691 102.632 646.577 102.746C640.994 108.784 635.811 114.139 631.025 118.81C626.354 123.482 622.025 127.355 618.037 130.431C614.163 133.508 611.144 135.046 608.979 135.046C607.043 135.046 605.448 134.077 604.194 132.14C602.941 130.204 602.314 127.982 602.314 125.475C602.314 123.88 602.998 121.602 604.365 118.639C605.732 115.677 607.498 112.373 609.663 108.727C607.271 111.234 604.764 113.74 602.144 116.247C599.637 118.639 597.188 120.804 594.795 122.741C592.516 124.564 590.409 126.045 588.472 127.184C586.649 128.438 585.168 129.064 584.028 129.064C583.345 129.064 582.376 128.836 581.123 128.381C579.984 128.039 578.787 127.355 577.534 126.33C576.395 125.418 575.426 124.108 574.629 122.399C573.717 120.576 573.262 118.298 573.262 115.563C573.262 113.285 573.945 110.664 575.312 107.702C576.68 104.626 578.503 101.55 580.781 98.4735C583.06 95.3973 585.623 92.3781 588.472 89.4159C591.32 86.4536 594.225 83.8332 597.188 81.5545C600.15 79.162 603.055 77.2821 605.903 75.9149C608.752 74.4338 611.258 73.6932 613.423 73.6932C615.246 73.6932 616.898 74.035 618.379 74.7186C619.974 75.4022 621.341 76.3137 622.48 77.453C623.62 78.5923 624.474 79.8456 625.044 81.2127C625.728 82.5799 626.069 84.0041 626.069 85.4852C626.069 85.5991 626.012 85.6561 625.898 85.6561C625.898 85.6561 625.898 85.7131 625.898 85.827C628.405 82.9787 630.171 81.5545 631.196 81.5545C631.766 81.5545 632.393 81.8963 633.076 82.5799C633.76 83.1496 634.386 83.9471 634.956 84.9725C635.526 85.884 635.981 86.8524 636.323 87.8778C636.665 88.9032 636.836 89.7577 636.836 90.4413C636.836 90.7831 636.152 91.9224 634.785 93.8592C633.532 95.6821 631.937 97.9038 630 100.524C628.177 103.145 626.126 105.993 623.848 109.069C621.569 112.031 619.461 114.937 617.524 117.785C615.701 120.519 614.106 123.026 612.739 125.305C611.486 127.583 610.859 129.235 610.859 130.261C610.859 130.488 610.973 130.602 611.201 130.602C611.885 130.602 613.366 129.634 615.645 127.697C617.923 125.874 620.601 123.539 623.677 120.69C626.753 117.728 630.057 114.481 633.589 110.949C637.235 107.417 639.855 104.911 641.45 103.43C643.159 101.834 644.811 100.296 646.406 98.8153ZM583.003 123.937C584.37 123.937 586.193 123.254 588.472 121.887C590.75 120.405 593.257 118.526 595.991 116.247C598.84 113.968 601.802 111.348 604.878 108.386C607.954 105.309 610.973 102.233 613.936 99.1571C613.366 98.9292 612.853 98.5874 612.397 98.1317C612.056 97.676 611.885 97.1633 611.885 96.5936C611.885 96.2518 612.341 95.6252 613.252 94.7137C614.277 93.8023 615.36 92.7769 616.499 91.6375C617.638 90.3843 618.664 89.0171 619.575 87.536C620.601 86.0549 621.113 84.6307 621.113 83.2635C621.113 82.0103 620.487 81.3836 619.233 81.3836C618.208 81.3836 616.556 82.1242 614.277 83.6053C611.999 85.0864 609.435 87.0803 606.587 89.5868C603.853 91.9793 601.004 94.7137 598.042 97.7899C595.194 100.752 592.516 103.771 590.01 106.848C587.617 109.924 585.623 112.829 584.028 115.563C582.547 118.298 581.807 120.633 581.807 122.57C581.807 123.482 582.205 123.937 583.003 123.937Z" fill="white" fill-opacity="0.05"/>
</svg>
