<svg width="21" height="21" viewBox="0 0 21 21" fill="none" xmlns="http://www.w3.org/2000/svg">
<path d="M17.6515 13.1184C16.9165 12.3561 15.9611 12.3561 15.1956 13.1184C14.6199 13.6917 14.0503 14.2589 13.4746 14.8322C13.3154 14.9908 13.1868 15.0213 12.9969 14.9298C12.6478 14.7102 12.2313 14.5517 11.8823 14.326C10.2225 13.277 8.82004 11.9414 7.57678 10.4228C6.97046 9.66045 6.43151 8.86761 6.04567 7.94669C5.98443 7.75763 5.98443 7.66005 6.14366 7.50148C6.74998 6.95869 7.28893 6.39151 7.86462 5.81822C8.6608 5.02538 8.6608 4.10447 7.86462 3.31163C7.38692 2.83593 6.93984 2.39072 6.49275 1.94551C6.01505 1.4698 5.56796 0.994099 5.09026 0.548889C4.35533 -0.182963 3.39991 -0.182963 2.63436 0.548889C2.05866 1.12217 1.48909 1.68936 0.913395 2.26264C0.368321 2.80543 0.086597 3.4397 0.0192282 4.16546C-0.0787627 5.34252 0.209086 6.48299 0.625547 7.59296C1.48909 9.91049 2.7936 11.9109 4.35533 13.7832C6.49275 16.3264 9.04052 18.3268 12.0109 19.7539C13.3521 20.3882 14.724 20.8944 16.1877 20.992C17.2411 21.0529 18.1353 20.7724 18.8641 19.9735C19.3418 19.4002 19.9175 18.9245 20.4258 18.3878C21.1914 17.5949 21.1914 16.6435 20.4258 15.8812C19.501 14.9603 18.5763 14.0394 17.6515 13.1184Z" fill="white"/>
</svg>
