<svg width="26" height="21" viewBox="0 0 26 21" fill="none" xmlns="http://www.w3.org/2000/svg">
<path d="M10.36 21V16.7839C8.98229 16.7099 7.93986 16.4661 7.23274 16.0526C6.52389 15.6391 6.027 14.9683 5.74033 14.0403C5.45366 13.1124 5.30945 11.7843 5.30945 10.0579H10.36V0H0V9.56196C0 13.5125 0.875643 16.4056 2.62519 18.243C4.37648 20.0805 6.95476 21 10.36 21ZM26 21V16.7839C24.6223 16.7099 23.5798 16.4762 22.8727 16.0812C22.1638 15.6861 21.6531 15.0154 21.3369 14.0689C21.0206 13.1225 20.8643 11.786 20.8643 10.0596H26V0H15.5826V9.56196C15.5826 13.5125 16.4531 16.4056 18.1939 18.243C19.9348 20.0805 22.5374 21 26 21Z" fill="#30BF58"/>
</svg>
