<svg width="602" height="285" viewBox="0 0 602 285" fill="none" xmlns="http://www.w3.org/2000/svg">
<path d="M235.667 0.0224303C238.96 -0.142059 242.418 0.598143 246.04 2.24303C249.827 3.88793 253.203 6.27302 256.167 9.39832C259.295 12.3591 261.93 15.8956 264.07 20.0079C266.211 23.9556 267.281 28.1501 267.281 32.5913C267.611 39.0064 266.211 46.2439 263.082 54.3039C258.801 64.9957 252.874 74.7828 245.299 83.6652C237.725 92.3831 229.081 100.279 219.366 107.352C209.816 114.26 199.442 120.346 188.245 125.61C177.213 130.709 166.017 134.986 154.655 138.44C143.458 141.894 132.426 144.444 121.559 146.089C110.856 147.734 101.059 148.474 92.1674 148.309C87.3923 148.309 82.5349 147.98 77.5951 147.323C72.6554 146.665 67.8803 145.678 63.2699 144.362C55.2016 151.764 47.3804 159.083 39.8061 166.321C32.2318 173.394 25.0692 180.303 18.3182 187.047L18.0712 187.293C17.0833 188.445 15.9307 189.596 14.6134 190.748C13.4608 192.064 12.2259 193.133 10.9086 193.955C9.92065 194.449 8.76804 194.778 7.45078 194.942C6.13351 195.271 4.89858 195.353 3.74597 195.189C2.59337 195.024 1.68775 194.613 1.02911 193.955C0.205823 193.462 -0.123494 192.722 0.0411645 191.735C0.205823 190.09 1.52309 187.293 3.99296 183.346C6.29817 179.562 9.34435 175.039 13.1315 169.775C16.9186 164.676 21.2821 159.001 26.2218 152.751C31.1615 146.5 36.2659 140.167 41.535 133.752C38.2418 131.12 35.3603 127.995 32.8905 124.376C32.0672 123.718 31.5732 122.978 31.4085 122.156C31.0792 121.662 31.1615 121.169 31.6555 120.675C31.9848 120.511 32.1495 120.511 32.1495 120.675C32.3142 120.84 32.5611 121.004 32.8905 121.169C36.5129 123.801 40.794 126.186 45.7338 128.324C51.3322 121.415 56.8482 114.754 62.2819 108.339C67.7156 101.759 72.7377 95.7552 77.3481 90.327C81.9586 84.8989 85.9104 80.2932 89.2035 76.5099C92.4967 72.7267 94.7196 70.0948 95.8722 68.6144C101.8 61.7059 107.728 54.8796 113.655 48.1355C119.583 41.3915 124.934 35.1409 129.709 29.3838C134.649 23.6266 138.848 18.692 142.306 14.5797C145.764 10.4675 148.151 7.50669 149.468 5.69731C150.292 4.87486 150.703 3.97017 150.703 2.98324C151.033 0.351409 152.35 -0.224303 154.655 1.2561C156.466 2.40752 157.784 3.64119 158.607 4.95711C159.266 5.61506 159.842 6.27302 160.336 6.93098C160.994 7.42445 161.571 8.0824 162.065 8.90485C165.029 12.8526 164.782 16.5536 161.324 20.0079L160.089 21.2415C154.82 27.1632 149.468 33.167 144.035 39.2531C139.26 44.5168 133.991 50.3561 128.227 56.7712C122.464 63.0218 116.866 69.2724 111.432 75.523C100.236 88.1887 90.7678 99.0449 83.0288 108.092C75.2899 116.974 68.2096 125.281 61.788 133.012C62.1173 133.176 62.5289 133.259 63.0229 133.259C63.5169 133.259 63.9285 133.341 64.2578 133.505C70.1855 127.913 76.4425 122.073 83.0288 115.987C89.7798 109.901 96.6131 103.733 103.529 97.4823C110.444 91.2317 117.36 84.9811 124.276 78.7305C131.356 72.4799 138.272 66.4761 145.023 60.719C160.336 47.5598 172.932 37.1147 182.812 29.3838C192.856 21.4883 201.089 15.4022 207.51 11.1255C214.097 6.84873 219.448 4.05242 223.565 2.7365C227.681 1.2561 231.715 0.351409 235.667 0.0224303ZM51.1675 145.842C51.9908 145.184 52.7318 144.526 53.3904 143.868C54.049 143.21 54.79 142.47 55.6133 141.648C55.284 141.648 55.037 141.565 54.8723 141.401L51.1675 145.842ZM248.757 48.3823C251.556 42.6251 253.368 37.2792 254.191 32.3446C255.014 27.2454 255.014 22.8864 254.191 19.2677C253.368 15.6489 251.721 12.9348 249.251 11.1255C246.781 9.15158 243.735 8.32914 240.113 8.65811C238.466 8.8226 236.82 9.06934 235.173 9.39832C233.526 9.56281 231.468 10.2208 228.998 11.3722C226.528 12.5236 223.4 14.2507 219.613 16.5536C215.826 18.8564 210.968 22.1462 205.04 26.4229C199.113 30.6997 191.868 36.2101 183.306 42.9541C174.908 49.5337 164.699 57.6759 152.679 67.3808C147.41 71.6575 141.729 76.3454 135.637 81.4446C129.545 86.5438 123.123 91.9719 116.372 97.729C109.621 103.486 102.623 109.49 95.3782 115.741C88.2979 121.991 81.2176 128.324 74.1373 134.739C77.4305 135.068 80.7236 135.315 84.0168 135.479C87.31 135.479 90.6031 135.397 93.8963 135.233C102.129 134.904 111.103 133.752 120.818 131.778C130.533 129.804 140.33 127.09 150.209 123.636C160.253 120.182 170.215 115.987 180.095 111.053C190.139 106.118 199.442 100.525 208.004 94.2747C216.731 87.8597 224.635 80.8689 231.715 73.3024C238.795 65.5714 244.476 57.2647 248.757 48.3823Z" fill="white" fill-opacity="0.05"/>
<path d="M320.927 121.662C321.092 121.333 321.503 121.086 322.162 120.922C322.82 120.593 323.15 120.922 323.15 121.909C323.15 123.554 322.82 124.87 322.162 125.857C321.668 126.679 321.339 127.173 321.174 127.337C319.857 128.653 318.292 130.133 316.481 131.778C314.835 133.423 311.377 136.631 306.108 141.401C300.674 146.007 295.076 150.283 289.312 154.231C283.549 158.014 277.622 161.222 271.529 163.854C265.602 166.321 259.839 167.555 254.24 167.555C248.313 167.555 243.702 165.992 240.409 162.867C237.281 159.741 235.716 155.382 235.716 149.79C235.716 145.513 236.622 140.99 238.433 136.219C240.08 131.449 242.385 126.679 245.349 121.909C248.313 117.139 251.77 112.615 255.722 108.339C259.509 103.897 263.461 100.032 267.578 96.7421C271.859 93.2878 276.14 90.5737 280.421 88.5999C284.702 86.626 288.819 85.6391 292.77 85.6391C294.088 85.6391 295.816 85.8858 297.957 86.3793C299.933 86.7083 301.909 87.3662 303.885 88.3531C305.861 89.3401 307.507 90.7382 308.824 92.5476C310.306 94.1925 311.047 96.3309 311.047 98.9627C311.047 103.239 309.977 107.187 307.837 110.806C305.531 114.425 302.65 117.714 299.192 120.675C295.734 123.472 291.947 126.021 287.831 128.324C283.549 130.462 279.433 132.272 275.481 133.752C271.365 135.068 267.578 136.137 264.12 136.96C260.827 137.618 258.357 137.864 256.71 137.7C254.405 141.483 252.676 145.02 251.523 148.309C250.206 151.599 249.548 154.642 249.548 157.439C249.548 158.426 249.795 159.166 250.289 159.659C250.783 159.988 252.264 160.153 254.734 160.153C263.297 160.153 271.447 158.097 279.186 153.984C287.09 149.872 294.499 144.937 301.415 139.18C308.331 133.259 314.835 127.419 320.927 121.662ZM304.379 97.2356C304.379 95.5907 303.555 94.7682 301.909 94.7682C299.604 94.7682 296.804 95.8374 293.511 97.9758C290.053 99.9496 286.431 102.664 282.644 106.118C278.857 109.408 275.152 113.273 271.529 117.714C267.742 121.991 264.284 126.35 261.156 130.791C265.931 129.64 270.871 127.748 275.975 125.116C281.08 122.32 285.69 119.277 289.806 115.987C294.088 112.698 297.628 109.408 300.427 106.118C303.061 102.664 304.379 99.7029 304.379 97.2356Z" fill="white" fill-opacity="0.05"/>
<path d="M234.531 273.404C239.471 273.404 245.728 271.265 253.302 266.988C260.711 262.712 268.368 257.037 276.272 249.964C284.175 242.891 291.832 234.913 299.241 226.031C306.486 217.313 312.332 208.348 316.777 199.137C305.087 206.868 294.055 214.187 283.681 221.096C273.308 228.169 264.252 234.749 256.513 240.835C248.774 246.921 242.681 252.431 238.236 257.366C233.79 262.465 231.567 266.906 231.567 270.689C231.567 272.499 232.555 273.404 234.531 273.404ZM356.295 97.729C355.143 96.4131 354.567 94.8505 354.567 93.0411C354.567 91.8897 355.06 91.3139 356.048 91.3139C356.213 91.3139 356.625 91.4784 357.283 91.8074C358.107 92.3009 359.506 92.6299 361.482 92.7943C363.623 92.9588 366.093 93.0411 368.892 93.0411C371.856 93.0411 374.902 93.0411 378.03 93.0411C381.323 92.8766 384.287 92.7121 386.922 92.5476C389.886 92.3831 392.932 92.1364 396.06 91.8074C397.872 91.8074 399.518 92.7121 401 94.5215C402.647 96.1664 403.47 98.387 403.47 101.183C403.47 102.499 403.223 103.651 402.729 104.638C402.4 105.625 401.988 106.447 401.494 107.105C400.177 109.079 397.789 111.957 394.331 115.741C390.874 119.359 386.839 123.472 382.229 128.077C377.783 132.518 373.091 137.124 368.151 141.894C363.211 146.665 358.518 151.106 354.073 155.218C349.627 159.33 345.675 162.867 342.217 165.828C338.924 168.624 336.701 170.269 335.548 170.762C336.042 172.407 336.454 173.97 336.783 175.45C337.113 176.931 337.277 178.082 337.277 178.904L337.03 185.566L349.38 176.684L363.458 165.581C367.081 162.62 370.538 159.741 373.831 156.945C377.289 153.984 380.582 150.941 383.711 147.816C389.474 142.223 397.707 134.575 408.41 124.87C408.574 124.541 408.986 124.294 409.645 124.13C410.303 123.801 410.633 124.13 410.633 125.116C410.797 126.761 410.633 128.077 410.139 129.064C409.645 129.887 409.315 130.38 409.151 130.545C399.271 140.907 391.45 148.803 385.687 154.231C381.241 158.672 376.466 163.031 371.362 167.308C366.422 171.42 360.906 175.861 354.814 180.632L335.796 194.942C334.643 200.864 332.832 206.703 330.362 212.46C326.739 221.014 322.211 228.991 316.777 236.393C311.344 243.795 305.416 250.457 298.994 256.379C292.408 262.465 285.904 267.564 279.482 271.676C272.896 275.953 266.639 279.243 260.711 281.546C254.619 283.849 249.515 285 245.398 285C242.434 285 239.8 284.507 237.495 283.52C235.025 282.533 232.967 281.299 231.32 279.819C229.673 278.338 228.438 276.693 227.615 274.884C226.627 273.075 226.133 271.347 226.133 269.703C226.133 264.11 228.685 258.353 233.79 252.431C238.73 246.51 245.563 240.259 254.29 233.679C262.852 227.1 272.896 220.109 284.422 212.707C295.784 205.469 307.968 197.738 320.976 189.514C323.446 182.934 324.681 176.437 324.681 170.022C324.681 168.213 324.599 166.65 324.434 165.334C324.269 163.854 324.022 162.62 323.693 161.633C323.528 161.304 323.446 161.057 323.446 160.893C323.446 160.728 323.364 160.482 323.199 160.153C323.364 157.521 324.516 155.547 326.657 154.231C331.761 150.119 337.442 145.266 343.699 139.674C349.956 133.917 355.801 128.406 361.235 123.143C366.669 117.879 371.197 113.273 374.819 109.326C378.607 105.378 380.5 103.075 380.5 102.417H372.844C371.691 102.417 370.538 102.417 369.386 102.417C368.233 102.417 366.998 102.252 365.681 101.924L363.211 101.183C357.613 105.953 352.097 110.806 346.663 115.741C336.289 124.952 327.151 133.588 319.247 141.648C318.918 141.977 318.424 142.306 317.765 142.635C317.271 142.799 317.024 142.388 317.024 141.401C316.86 139.756 317.024 138.522 317.518 137.7C318.012 136.713 318.424 136.137 318.753 135.973C321.059 133.341 322.705 131.367 323.693 130.051C324.846 128.735 327.645 125.692 332.091 120.922C336.701 115.987 341.147 111.546 345.428 107.598C348.721 104.473 352.344 101.183 356.295 97.729Z" fill="white" fill-opacity="0.05"/>
<path d="M396.357 224.303C398.003 222.33 400.226 219.287 403.025 215.174C405.825 211.227 409.118 206.621 412.905 201.357C406.812 205.14 400.309 209.17 393.393 213.447C386.477 217.724 378.985 222.412 370.917 227.511C361.202 233.597 353.216 238.943 346.959 243.549C340.538 248.319 335.516 252.431 331.893 255.885C328.106 259.34 325.554 262.218 324.236 264.521C322.755 266.988 322.014 268.962 322.014 270.443C322.014 272.252 322.672 273.486 323.99 274.144C325.307 274.802 326.789 275.131 328.435 275.131C329.753 275.131 330.658 275.048 331.152 274.884C344.325 271.265 356.016 265.179 366.224 256.626C376.268 248.072 386.313 237.298 396.357 224.303ZM452.423 176.684L466.501 165.581C470.124 162.62 473.581 159.741 476.875 156.945C480.332 153.984 483.626 150.941 486.754 147.816C492.517 142.223 500.75 134.575 511.453 124.87C511.617 124.541 512.029 124.294 512.688 124.13C513.346 123.801 513.676 124.13 513.676 125.116C513.84 126.761 513.676 128.077 513.182 129.064C512.688 129.887 512.358 130.38 512.194 130.545C502.314 140.907 494.493 148.803 488.73 154.231C484.284 158.672 479.509 163.031 474.405 167.308C469.465 171.42 463.949 175.861 457.857 180.632L440.073 193.955C436.616 198.561 433.405 203.002 430.441 207.279C426.983 211.885 423.772 216.079 420.808 219.862C418.009 223.646 415.622 226.771 413.646 229.238C406.236 238.614 399.321 246.674 392.899 253.418C386.313 260.327 379.891 266.001 373.634 270.443C367.377 274.884 361.12 278.174 354.863 280.312C348.441 282.45 341.773 283.52 334.857 283.52C330.411 283.52 326.459 282.039 323.002 279.078C319.379 276.118 317.568 272.417 317.568 267.975C317.568 262.712 320.614 257.037 326.706 250.951C332.634 244.865 340.538 238.45 350.417 231.705C360.132 225.126 371.246 218.135 383.76 210.733C396.274 203.496 409.118 195.929 422.29 188.034C428.383 179.316 434.887 170.187 441.802 160.646C448.718 150.941 455.304 141.648 461.561 132.765C456.292 138.358 451.106 143.622 446.001 148.556C441.061 153.491 436.369 157.85 431.923 161.633C427.642 165.416 423.69 168.377 420.067 170.516C416.61 172.818 413.728 173.97 411.423 173.97C409.447 173.97 407.142 172.818 404.507 170.516C401.873 168.377 400.556 164.347 400.556 158.426C400.556 156.452 401.214 153.902 402.531 150.777C403.684 147.652 405.331 144.279 407.471 140.661C409.612 136.877 411.999 133.012 414.634 129.064C417.268 125.116 419.985 121.251 422.784 117.468C424.925 114.342 427.312 111.053 429.947 107.598C432.582 104.144 435.134 101.019 437.604 98.2225C440.073 95.4262 442.214 93.1233 444.025 91.3139C446.001 89.5046 447.318 88.5999 447.977 88.5999C448.965 88.5999 449.871 89.0933 450.694 90.0803C451.682 91.0672 452.587 92.2186 453.411 93.5345C454.234 94.8505 454.893 96.2486 455.387 97.729C455.881 99.2094 456.128 100.525 456.128 101.677C456.128 102.17 455.057 103.897 452.917 106.858C450.941 109.819 448.389 113.438 445.26 117.714C442.132 121.827 438.756 126.35 435.134 131.285C431.511 136.219 428.136 140.907 425.007 145.349C421.879 149.79 419.244 153.82 417.104 157.439C415.128 160.893 414.14 163.36 414.14 164.841C414.14 165.17 414.304 165.334 414.634 165.334C416.116 165.334 418.586 164.1 422.043 161.633C425.501 159.166 429.371 155.958 433.652 152.01C438.098 148.063 442.79 143.704 447.73 138.934C452.67 133.999 457.527 129.146 462.302 124.376C467.077 119.606 471.523 115.083 475.64 110.806C479.756 106.529 483.214 103.075 486.013 100.443C488.318 97.6468 490.212 95.4262 491.694 93.7813C493.34 92.1364 494.493 91.3139 495.152 91.3139C495.975 91.3139 496.88 91.8074 497.868 92.7943C498.856 93.7813 499.762 94.9327 500.585 96.2486C501.409 97.5645 502.067 99.0449 502.561 100.69C503.055 102.17 503.302 103.404 503.302 104.391C503.302 105.049 501.985 107.269 499.35 111.053C496.716 114.671 493.505 119.113 489.718 124.376C489.883 124.212 489.224 125.116 487.742 127.09C486.425 128.9 484.449 131.614 481.814 135.233C479.344 138.687 476.463 142.717 473.17 147.323C470.041 151.599 463.455 160.893 453.411 175.203L452.423 176.684Z" fill="white" fill-opacity="0.05"/>
<path d="M606.098 131.038C606.427 130.709 606.839 130.462 607.333 130.298C607.992 129.969 608.321 130.298 608.321 131.285C608.321 132.93 607.992 134.246 607.333 135.233C606.839 136.055 606.51 136.548 606.345 136.713C600.088 143.622 594.16 149.872 588.562 155.465C582.964 160.893 577.859 165.252 573.249 168.542C568.803 171.996 564.934 173.723 561.641 173.723C559.5 173.723 557.112 172.572 554.478 170.269C552.008 168.13 550.773 164.183 550.773 158.426C550.773 155.629 551.926 151.764 554.231 146.829C556.701 141.894 559.665 136.713 563.122 131.285C557.689 137.042 552.42 142.47 547.315 147.569C542.211 152.668 537.436 157.192 532.99 161.14C528.544 164.923 524.51 167.966 520.888 170.269C517.265 172.572 514.219 173.723 511.749 173.723C509.773 173.723 507.468 172.572 504.833 170.269C502.199 168.13 500.882 164.183 500.882 158.426C500.882 156.452 501.54 153.902 502.858 150.777C504.175 147.487 505.821 144.033 507.797 140.414C509.938 136.631 513.066 132.272 517.183 127.337C521.464 122.238 524.016 119.688 524.839 119.688C525.663 119.688 526.568 120.182 527.556 121.169C528.544 121.991 529.45 123.143 530.273 124.623C531.096 125.939 531.755 127.337 532.249 128.817C532.743 130.298 532.99 131.532 532.99 132.518C532.99 133.012 531.92 134.739 529.779 137.7C527.803 140.661 526.239 142.799 525.086 144.115C524.098 145.431 523.111 147.076 522.123 149.05C521.135 150.859 519.57 153.573 517.43 157.192C515.454 160.646 514.466 163.113 514.466 164.594C514.466 165.087 514.631 165.334 514.96 165.334C516.442 165.334 518.747 164.265 521.876 162.127C525.004 159.824 528.627 156.945 532.743 153.491C536.859 149.872 541.223 145.842 545.833 141.401C550.444 136.795 555.054 132.19 559.665 127.584C564.275 122.978 568.638 118.537 572.755 114.26C576.871 109.983 580.494 106.282 583.622 103.157C585.928 100.361 587.986 98.1402 589.797 96.4954C591.608 94.686 592.926 93.7813 593.749 93.7813C594.572 93.7813 595.478 94.2747 596.466 95.2617C597.454 96.2486 598.359 97.4 599.183 98.716C600.006 100.032 600.664 101.512 601.158 103.157C601.652 104.638 601.899 105.871 601.899 106.858C601.899 107.352 600.911 108.997 598.936 111.793C597.124 114.425 594.819 117.632 592.02 121.415C589.385 125.199 586.422 129.311 583.128 133.752C579.835 138.193 576.789 142.47 573.99 146.582C571.355 150.695 569.05 154.396 567.074 157.685C565.263 160.811 564.357 163.113 564.357 164.594C564.357 165.087 564.522 165.334 564.851 165.334C567.321 165.334 570.285 163.936 573.743 161.14C577.365 158.343 581.646 154.478 586.586 149.543C591.526 144.608 598.03 138.44 606.098 131.038Z" fill="white" fill-opacity="0.05"/>
<path d="M602.443 169.775C602.772 170.104 603.678 169.775 605.16 168.788C606.806 167.966 608.617 166.732 610.593 165.087C612.734 163.442 614.792 161.633 616.768 159.659C618.744 157.685 620.308 155.794 621.461 153.984C622.778 152.175 623.437 150.612 623.437 149.296C623.437 147.816 622.366 146.911 620.226 146.582C619.732 146.253 619.403 146.089 619.238 146.089L618.25 147.076C616.439 148.885 614.463 151.024 612.322 153.491C610.346 155.958 608.535 158.343 606.889 160.646C605.242 162.949 603.925 165.005 602.937 166.814C602.113 168.459 601.949 169.446 602.443 169.775ZM619.979 142.388C619.979 142.552 620.061 142.717 620.226 142.881V143.622C621.049 143.786 621.872 144.115 622.696 144.608C623.684 144.937 624.507 145.266 625.166 145.595C627.471 147.24 628.376 149.296 627.882 151.764V152.01C633.646 146.253 640.561 139.674 648.629 132.272C648.959 131.943 649.37 131.696 649.864 131.532C650.523 131.203 650.852 131.532 650.852 132.518C650.852 134.163 650.605 135.479 650.111 136.466C649.617 137.289 649.206 137.782 648.876 137.947C646.406 140.414 644.595 142.306 643.443 143.622C642.29 144.773 639.326 147.734 634.551 152.504C629.941 157.11 625.413 161.304 620.967 165.087C616.521 168.871 612.322 171.914 608.37 174.217C604.583 176.684 601.372 177.918 598.738 177.918C595.774 177.918 593.469 176.519 591.822 173.723C590.011 170.927 589.105 167.801 589.105 164.347C589.105 161.222 590.34 157.274 592.81 152.504C595.115 147.734 597.503 143.375 599.973 139.427C602.443 135.315 607.3 128.077 614.545 117.714C621.955 107.187 626.812 100.69 629.117 98.2225C631.587 95.7551 633.316 94.5215 634.304 94.5215C635.127 94.5215 636.033 95.015 637.021 96.0019C638.009 96.9888 638.915 98.1402 639.738 99.4562C640.561 100.772 641.22 102.252 641.714 103.897C642.208 105.378 642.455 106.611 642.455 107.598C642.455 108.256 641.631 109.819 639.985 112.286C638.997 113.438 636.115 117.797 631.34 125.363C626.565 132.765 622.778 138.44 619.979 142.388Z" fill="white" fill-opacity="0.05"/>
<path d="M811.69 132.272C812.02 131.943 812.431 131.696 812.925 131.532C813.584 131.203 813.913 131.532 813.913 132.518C813.913 134.163 813.666 135.479 813.172 136.466C812.678 137.289 812.267 137.782 811.937 137.947C809.467 140.414 807.656 142.306 806.504 143.622C805.351 144.773 802.387 147.734 797.612 152.504C793.002 157.11 788.474 161.304 784.028 165.087C779.582 168.871 775.383 171.914 771.431 174.217C767.644 176.684 764.433 177.918 761.799 177.918C758.835 177.918 756.448 176.519 754.636 173.723C752.99 170.927 752.166 167.801 752.166 164.347C752.166 161.222 753.319 157.274 755.624 152.504C758.094 147.734 760.811 143.046 763.775 138.44C766.903 133.67 769.867 129.393 772.666 125.61C775.466 121.827 777.277 119.359 778.1 118.208C779.417 116.399 780.405 114.918 781.064 113.767C781.887 112.615 782.299 111.711 782.299 111.053C782.299 110.559 782.052 110.312 781.558 110.312C779.417 110.312 776.124 111.793 771.678 114.754C767.397 117.55 762.622 121.169 757.353 125.61C752.249 129.887 746.897 134.657 741.299 139.921C735.865 145.02 730.843 149.79 726.233 154.231C721.622 158.672 717.835 162.456 714.871 165.581C711.907 168.706 710.343 170.433 710.179 170.762L710.426 169.775C710.261 170.104 710.179 170.433 710.179 170.762C707.215 170.762 704.827 169.364 703.016 166.568C701.369 163.771 700.546 160.564 700.546 156.945C700.546 153.82 701.863 149.79 704.498 144.855C707.297 139.921 710.426 134.986 713.883 130.051C717.341 125.116 720.634 120.675 723.763 116.728C726.891 112.78 728.867 110.23 729.691 109.079C730.843 107.434 731.749 106.036 732.407 104.884C733.231 103.568 733.642 102.581 733.642 101.924C733.642 101.43 733.395 101.183 732.901 101.183C730.761 101.183 727.303 102.91 722.528 106.365C717.753 109.819 712.484 114.096 706.721 119.195C700.958 124.294 694.948 129.887 688.691 135.973C682.434 142.059 676.753 147.734 671.649 152.997C666.544 158.097 662.263 162.456 658.805 166.074C655.512 169.693 653.783 171.667 653.619 171.996L653.866 171.009C652.219 173.147 651.149 174.217 650.655 174.217C649.831 174.381 648.596 173.723 646.95 172.243C645.139 170.762 643.657 168.871 642.504 166.568C642.175 165.91 642.01 165.17 642.01 164.347C642.01 163.36 642.422 162.209 643.245 160.893C645.386 157.603 648.02 153.409 651.149 148.309C654.277 143.21 657.653 137.864 661.275 132.272C664.898 126.679 668.602 121.086 672.39 115.494C676.177 109.901 679.717 104.884 683.01 100.443C684.327 98.6337 685.315 96.9888 685.974 95.5084C686.797 94.028 687.456 92.7943 687.95 91.8074C688.444 90.8205 688.938 90.0803 689.432 89.5868C690.09 89.0933 691.078 88.8466 692.396 88.8466C693.877 88.8466 695.442 90.0803 697.088 92.5476C698.899 94.8505 700.134 97.2356 700.793 99.7029C701.122 101.183 701.04 102.417 700.546 103.404C700.052 104.391 699.146 105.789 697.829 107.598C696.677 109.243 695.195 111.382 693.383 114.013C691.572 116.481 689.596 119.195 687.456 122.156C685.48 125.116 683.339 128.242 681.034 131.532C678.729 134.821 676.506 138.029 674.365 141.154C678.976 136.713 684.245 131.696 690.173 126.103C696.265 120.511 702.275 115.247 708.203 110.312C714.295 105.378 719.893 101.183 724.998 97.729C730.102 94.2747 733.972 92.5476 736.606 92.5476C739.405 92.5476 742.205 94.2747 745.004 97.729C747.968 101.019 749.45 105.542 749.45 111.299C749.45 112.122 748.709 113.684 747.227 115.987C745.909 118.126 744.181 120.675 742.04 123.636C739.899 126.597 737.43 129.804 734.63 133.259C731.996 136.713 729.361 140.249 726.727 143.868C730.679 140.249 735.454 135.973 741.052 131.038C746.65 126.103 752.249 121.498 757.847 117.221C763.61 112.944 768.879 109.326 773.654 106.365C778.594 103.239 782.464 101.677 785.263 101.677C786.58 101.677 787.98 102.17 789.461 103.157C791.108 103.98 792.508 105.213 793.66 106.858C794.978 108.339 796.048 110.23 796.871 112.533C797.694 114.836 798.106 117.468 798.106 120.429C798.106 121.415 797.283 123.143 795.636 125.61C793.99 128.077 791.931 130.874 789.461 133.999C786.992 137.124 784.357 140.496 781.558 144.115C778.759 147.734 776.124 151.27 773.654 154.725C771.184 158.014 769.126 161.057 767.48 163.854C765.833 166.65 765.01 168.788 765.01 170.269C765.01 170.598 765.174 170.762 765.504 170.762C767.974 170.762 771.349 169.117 775.63 165.828C779.911 162.373 784.933 157.85 790.696 152.257C796.459 146.5 803.457 139.838 811.69 132.272Z" fill="white" fill-opacity="0.05"/>
<path d="M918.191 130.051C918.356 129.722 918.768 129.475 919.426 129.311C920.085 128.982 920.414 129.311 920.414 130.298C920.414 131.943 920.085 133.259 919.426 134.246C918.932 135.068 918.603 135.562 918.438 135.726C910.37 144.444 902.878 152.175 895.962 158.919C889.211 165.663 882.954 171.256 877.191 175.697C871.593 180.138 867.229 182.359 864.101 182.359C861.302 182.359 858.997 180.961 857.185 178.164C855.374 175.368 854.469 172.16 854.469 168.542C854.469 166.239 855.456 162.949 857.432 158.672C859.408 154.396 861.96 149.625 865.089 144.362C861.631 147.98 858.009 151.599 854.222 155.218C850.599 158.672 847.059 161.798 843.601 164.594C840.308 167.226 837.262 169.364 834.463 171.009C831.828 172.818 829.688 173.723 828.041 173.723C827.053 173.723 825.653 173.394 823.842 172.736C822.196 172.243 820.467 171.256 818.655 169.775C817.009 168.459 815.609 166.568 814.457 164.1C813.139 161.469 812.481 158.179 812.481 154.231C812.481 150.941 813.469 147.158 815.445 142.881C817.42 138.44 820.055 133.999 823.348 129.558C826.641 125.116 830.346 120.758 834.463 116.481C838.579 112.204 842.778 108.421 847.059 105.131C851.34 101.677 855.539 98.9627 859.655 96.9888C863.772 94.8505 867.394 93.7813 870.523 93.7813C873.157 93.7813 875.545 94.2747 877.685 95.2617C879.991 96.2486 881.966 97.5645 883.613 99.2094C885.26 100.854 886.495 102.664 887.318 104.638C888.306 106.611 888.8 108.668 888.8 110.806C888.8 110.97 888.717 111.053 888.553 111.053C888.553 111.053 888.553 111.135 888.553 111.299C892.175 107.187 894.727 105.131 896.209 105.131C897.033 105.131 897.938 105.625 898.926 106.611C899.914 107.434 900.82 108.585 901.643 110.066C902.466 111.382 903.125 112.78 903.619 114.26C904.113 115.741 904.36 116.974 904.36 117.961C904.36 118.455 903.372 120.1 901.396 122.896C899.585 125.528 897.28 128.735 894.48 132.518C891.846 136.302 888.882 140.414 885.589 144.855C882.296 149.132 879.25 153.326 876.45 157.439C873.816 161.386 871.511 165.005 869.535 168.295C867.724 171.585 866.818 173.97 866.818 175.45C866.818 175.779 866.983 175.944 867.312 175.944C868.3 175.944 870.44 174.545 873.734 171.749C877.027 169.117 880.896 165.745 885.342 161.633C889.788 157.356 894.563 152.668 899.667 147.569C904.936 142.47 908.723 138.851 911.029 136.713C913.498 134.41 915.886 132.19 918.191 130.051ZM826.559 166.321C828.535 166.321 831.169 165.334 834.463 163.36C837.756 161.222 841.378 158.508 845.33 155.218C849.446 151.928 853.728 148.145 858.173 143.868C862.619 139.427 866.983 134.986 871.264 130.545C870.44 130.216 869.699 129.722 869.041 129.064C868.547 128.406 868.3 127.666 868.3 126.844C868.3 126.35 868.958 125.445 870.276 124.13C871.758 122.814 873.322 121.333 874.968 119.688C876.615 117.879 878.097 115.905 879.414 113.767C880.896 111.628 881.637 109.572 881.637 107.598C881.637 105.789 880.732 104.884 878.92 104.884C877.438 104.884 875.051 105.953 871.758 108.092C868.464 110.23 864.76 113.109 860.643 116.728C856.691 120.182 852.575 124.13 848.294 128.571C844.177 132.847 840.308 137.206 836.685 141.648C833.228 146.089 830.346 150.283 828.041 154.231C825.9 158.179 824.83 161.551 824.83 164.347C824.83 165.663 825.406 166.321 826.559 166.321Z" fill="white" fill-opacity="0.05"/>
<path d="M1079.03 132.272C1079.36 131.943 1079.77 131.696 1080.26 131.532C1080.92 131.203 1081.25 131.532 1081.25 132.518C1081.25 134.163 1081.01 135.479 1080.51 136.466C1080.02 137.289 1079.61 137.782 1079.28 137.947C1076.81 140.414 1075 142.306 1073.84 143.622C1072.69 144.773 1069.73 147.734 1064.95 152.504C1060.34 157.11 1055.81 161.304 1051.37 165.087C1046.92 168.871 1042.72 171.914 1038.77 174.217C1034.98 176.684 1031.77 177.918 1029.14 177.918C1026.17 177.918 1023.79 176.519 1021.98 173.723C1020.33 170.927 1019.51 167.801 1019.51 164.347C1019.51 161.222 1020.66 157.274 1022.96 152.504C1025.43 147.734 1028.15 143.046 1031.11 138.44C1034.24 133.67 1037.21 129.393 1040.01 125.61C1042.8 121.827 1044.62 119.359 1045.44 118.208C1046.76 116.399 1047.74 114.918 1048.4 113.767C1049.23 112.615 1049.64 111.711 1049.64 111.053C1049.64 110.559 1049.39 110.312 1048.9 110.312C1046.76 110.312 1043.46 111.793 1039.02 114.754C1034.74 117.55 1029.96 121.169 1024.69 125.61C1019.59 129.887 1014.24 134.657 1008.64 139.921C1003.2 145.02 998.182 149.79 993.572 154.231C988.961 158.672 985.174 162.456 982.21 165.581C979.246 168.706 977.682 170.433 977.518 170.762L977.765 169.775C977.6 170.104 977.518 170.433 977.518 170.762C974.554 170.762 972.166 169.364 970.355 166.568C968.708 163.771 967.885 160.564 967.885 156.945C967.885 153.82 969.202 149.79 971.837 144.855C974.636 139.921 977.765 134.986 981.222 130.051C984.68 125.116 987.973 120.675 991.102 116.728C994.23 112.78 996.206 110.23 997.029 109.079C998.182 107.434 999.088 106.036 999.746 104.884C1000.57 103.568 1000.98 102.581 1000.98 101.924C1000.98 101.43 1000.73 101.183 1000.24 101.183C998.1 101.183 994.642 102.91 989.867 106.365C985.092 109.819 979.823 114.096 974.06 119.195C968.297 124.294 962.287 129.887 956.03 135.973C949.773 142.059 944.092 147.734 938.987 152.997C933.883 158.097 929.602 162.456 926.144 166.074C922.851 169.693 921.122 171.667 920.957 171.996L921.204 171.009C919.558 173.147 918.488 174.217 917.994 174.217C917.17 174.381 915.935 173.723 914.289 172.243C912.478 170.762 910.996 168.871 909.843 166.568C909.514 165.91 909.349 165.17 909.349 164.347C909.349 163.36 909.761 162.209 910.584 160.893C912.725 157.603 915.359 153.409 918.488 148.309C921.616 143.21 924.992 137.864 928.614 132.272C932.237 126.679 935.941 121.086 939.728 115.494C943.516 109.901 947.056 104.884 950.349 100.443C951.666 98.6337 952.654 96.9888 953.313 95.5084C954.136 94.028 954.795 92.7943 955.289 91.8074C955.783 90.8205 956.277 90.0803 956.771 89.5868C957.429 89.0933 958.417 88.8466 959.734 88.8466C961.216 88.8466 962.781 90.0803 964.427 92.5476C966.238 94.8505 967.473 97.2356 968.132 99.7029C968.461 101.183 968.379 102.417 967.885 103.404C967.391 104.391 966.485 105.789 965.168 107.598C964.016 109.243 962.534 111.382 960.722 114.013C958.911 116.481 956.935 119.195 954.795 122.156C952.819 125.116 950.678 128.242 948.373 131.532C946.068 134.821 943.845 138.029 941.704 141.154C946.315 136.713 951.584 131.696 957.512 126.103C963.604 120.511 969.614 115.247 975.542 110.312C981.634 105.378 987.232 101.183 992.337 97.729C997.441 94.2747 1001.31 92.5476 1003.95 92.5476C1006.74 92.5476 1009.54 94.2747 1012.34 97.729C1015.31 101.019 1016.79 105.542 1016.79 111.299C1016.79 112.122 1016.05 113.684 1014.57 115.987C1013.25 118.126 1011.52 120.675 1009.38 123.636C1007.24 126.597 1004.77 129.804 1001.97 133.259C999.335 136.713 996.7 140.249 994.066 143.868C998.017 140.249 1002.79 135.973 1008.39 131.038C1013.99 126.103 1019.59 121.498 1025.19 117.221C1030.95 112.944 1036.22 109.326 1040.99 106.365C1045.93 103.239 1049.8 101.677 1052.6 101.677C1053.92 101.677 1055.32 102.17 1056.8 103.157C1058.45 103.98 1059.85 105.213 1061 106.858C1062.32 108.339 1063.39 110.23 1064.21 112.533C1065.03 114.836 1065.44 117.468 1065.44 120.429C1065.44 121.415 1064.62 123.143 1062.98 125.61C1061.33 128.077 1059.27 130.874 1056.8 133.999C1054.33 137.124 1051.7 140.496 1048.9 144.115C1046.1 147.734 1043.46 151.27 1040.99 154.725C1038.52 158.014 1036.47 161.057 1034.82 163.854C1033.17 166.65 1032.35 168.788 1032.35 170.269C1032.35 170.598 1032.51 170.762 1032.84 170.762C1035.31 170.762 1038.69 169.117 1042.97 165.828C1047.25 162.373 1052.27 157.85 1058.04 152.257C1063.8 146.5 1070.8 139.838 1079.03 132.272Z" fill="white" fill-opacity="0.05"/>
<path d="M1094.64 165.087C1094.97 165.416 1095.87 165.087 1097.36 164.1C1098.84 163.113 1100.48 161.715 1102.3 159.906C1104.27 158.097 1106.16 156.123 1107.98 153.984C1109.95 151.846 1111.43 149.872 1112.42 148.063C1113.57 146.089 1114.07 144.444 1113.9 143.128C1113.9 141.648 1112.83 140.825 1110.69 140.661C1110.2 140.332 1109.87 140.249 1109.71 140.414L1108.72 141.401C1107.07 143.375 1105.26 145.678 1103.28 148.309C1101.47 150.777 1099.83 153.244 1098.34 155.711C1096.86 158.179 1095.71 160.317 1094.89 162.127C1094.06 163.771 1093.98 164.758 1094.64 165.087ZM1117.86 147.816C1120.16 145.678 1122.47 143.457 1124.77 141.154C1129.38 136.713 1133.99 132.19 1138.6 127.584C1143.21 122.978 1147.58 118.537 1151.69 114.26C1155.81 109.983 1159.43 106.282 1162.56 103.157C1164.87 100.361 1166.92 98.1402 1168.73 96.4954C1170.55 94.686 1171.86 93.7813 1172.69 93.7813C1173.51 93.7813 1174.42 94.2747 1175.4 95.2617C1176.39 96.2486 1177.3 97.4 1178.12 98.716C1178.94 100.032 1179.6 101.512 1180.1 103.157C1180.59 104.638 1180.84 105.871 1180.84 106.858C1180.84 107.352 1179.85 108.997 1177.87 111.793C1176.06 114.425 1173.76 117.632 1170.96 121.415C1168.32 125.199 1165.36 129.311 1162.07 133.752C1158.77 138.193 1155.73 142.47 1152.93 146.582C1150.29 150.695 1147.99 154.396 1146.01 157.685C1144.2 160.811 1143.3 163.113 1143.3 164.594C1143.3 165.087 1143.46 165.334 1143.79 165.334C1146.26 165.334 1149.22 163.936 1152.68 161.14C1156.3 158.343 1160.58 154.478 1165.52 149.543C1170.46 144.608 1177.21 138.687 1185.78 131.778C1186.11 131.449 1186.52 131.203 1187.01 131.038C1187.67 130.709 1188 131.038 1188 132.025C1188 133.67 1187.67 134.986 1187.01 135.973C1186.52 136.795 1186.19 137.289 1186.02 137.453C1179.27 143.868 1173.1 149.872 1167.5 155.465C1161.9 160.893 1156.8 165.252 1152.19 168.542C1147.74 171.996 1143.87 173.723 1140.58 173.723C1138.44 173.723 1136.05 172.572 1133.42 170.269C1130.95 168.13 1129.71 164.183 1129.71 158.426C1129.71 155.629 1130.86 151.764 1133.17 146.829C1135.64 141.894 1138.6 136.713 1142.06 131.285C1136.63 137.042 1131.36 142.47 1126.25 147.569C1121.15 152.668 1116.37 157.192 1111.93 161.14C1107.48 164.923 1103.45 167.966 1099.83 170.269C1096.2 172.572 1093.16 173.723 1090.69 173.723C1088.71 173.723 1086.41 172.572 1083.77 170.269C1081.14 168.13 1079.82 164.183 1079.82 158.426C1079.82 156.452 1080.48 153.902 1081.8 150.777C1083.11 147.487 1084.76 144.033 1086.74 140.414C1088.88 136.631 1093.16 130.216 1099.58 121.169C1106.16 111.957 1110.61 105.953 1112.92 103.157C1115.39 100.361 1117.53 98.058 1119.34 96.2486C1121.31 94.4392 1122.71 93.5345 1123.54 93.5345C1124.36 93.5345 1125.27 94.028 1126.25 95.015C1127.24 95.8374 1128.15 96.9888 1128.97 98.4692C1129.79 99.7851 1130.45 101.183 1130.95 102.664C1131.44 104.144 1131.69 105.378 1131.69 106.365C1131.69 106.858 1126.01 115.083 1114.64 131.038C1113.16 133.012 1111.68 134.904 1110.2 136.713L1110.45 136.96V137.7C1111.27 137.864 1112.09 138.111 1112.92 138.44C1113.9 138.769 1114.73 139.098 1115.39 139.427C1117.86 140.907 1118.93 142.881 1118.6 145.349C1118.43 146.171 1118.18 146.994 1117.86 147.816Z" fill="white" fill-opacity="0.05"/>
</svg>
