<svg width="218" height="95" viewBox="0 0 218 95" fill="none" xmlns="http://www.w3.org/2000/svg">
<path d="M78.9524 0.00747678C80.0556 -0.047353 81.2141 0.199381 82.4277 0.747678C83.6964 1.29598 84.8273 2.09101 85.8202 3.13277C86.8683 4.11971 87.7509 5.29855 88.468 6.66929C89.1852 7.9852 89.5437 9.38336 89.5437 10.8638C89.6541 13.0021 89.1852 15.4146 88.1371 18.1013C86.7028 21.6652 84.7169 24.9276 82.1794 27.8884C79.6419 30.7944 76.7458 33.4262 73.4912 35.7839C70.2917 38.0867 66.8165 40.1154 63.0654 41.87C59.3694 43.5697 55.6183 44.9953 51.8121 46.1467C48.061 47.2981 44.365 48.148 40.7243 48.6963C37.1386 49.2446 33.8564 49.4913 30.8776 49.4365C29.2779 49.4365 27.6506 49.3268 25.9957 49.1075C24.3408 48.8882 22.741 48.5592 21.1965 48.1206C18.4935 50.5879 15.8732 53.0278 13.3357 55.4403C10.7982 57.798 8.3986 60.1009 6.13691 62.3489L6.05417 62.4311C5.72319 62.8149 5.33704 63.1988 4.89574 63.5826C4.50959 64.0212 4.09587 64.3776 3.65456 64.6517C3.32358 64.8162 2.93744 64.9259 2.49614 64.9807C2.05483 65.0904 1.64111 65.1178 1.25496 65.063C0.868821 65.0081 0.565423 64.8711 0.34477 64.6517C0.0689541 64.4873 -0.0413724 64.2405 0.0137908 63.9115C0.068954 63.3632 0.51026 62.4311 1.33771 61.1152C2.10999 59.8541 3.13051 58.3463 4.39927 56.5918C5.66802 54.892 7.12985 53.0004 8.78475 50.9169C10.4396 48.8334 12.1497 46.7224 13.9149 44.5841C12.8117 43.7068 11.8463 42.665 11.0189 41.4588C10.743 41.2394 10.5775 40.9927 10.5224 40.7186C10.4121 40.5541 10.4396 40.3896 10.6051 40.2251C10.7155 40.1703 10.7706 40.1703 10.7706 40.2251C10.8258 40.2799 10.9085 40.3348 11.0189 40.3896C12.2324 41.2669 13.6667 42.0619 15.3216 42.7747C17.1971 40.4718 19.0451 38.2512 20.8655 36.1129C22.6859 33.9197 24.3684 31.9184 25.9129 30.109C27.4575 28.2996 28.7814 26.7644 29.8847 25.5033C30.9879 24.2422 31.7327 23.3649 32.1188 22.8715C34.1047 20.5686 36.0905 18.2932 38.0764 16.0452C40.0623 13.7972 41.8551 11.7136 43.4548 9.79459C45.1097 7.87554 46.5164 6.23065 47.6748 4.85991C48.8333 3.48917 49.6331 2.50223 50.0744 1.8991C50.3502 1.62495 50.4881 1.32339 50.4881 0.994412C50.5985 0.117136 51.0398 -0.0747678 51.8121 0.4187C52.4189 0.802508 52.8602 1.21373 53.136 1.65237C53.3566 1.87169 53.5497 2.09101 53.7152 2.31033C53.9359 2.47482 54.1289 2.69413 54.2944 2.96828C55.2874 4.2842 55.2046 5.51787 54.0462 6.66929L53.6325 7.08051C51.8672 9.05438 50.0744 11.0557 48.254 13.0844C46.6543 14.8389 44.8891 16.7854 42.9584 18.9237C41.0277 21.0073 39.1521 23.0908 37.3317 25.1743C33.5806 29.3962 30.4087 33.015 27.8161 36.0306C25.2234 38.9914 22.8514 41.7603 20.7 44.3373C20.8103 44.3922 20.9482 44.4196 21.1137 44.4196C21.2792 44.4196 21.4171 44.447 21.5275 44.5018C23.5133 42.6376 25.6095 40.6911 27.8161 38.6624C30.0778 36.6337 32.367 34.5776 34.6839 32.4941C37.0007 30.4106 39.3176 28.327 41.6344 26.2435C44.0065 24.16 46.3233 22.1587 48.585 20.2397C53.7152 15.8533 57.9352 12.3716 61.245 9.79459C64.6099 7.16276 67.3681 5.13406 69.5195 3.70848C71.726 2.28291 73.5188 1.35081 74.8979 0.912167C76.277 0.4187 77.6285 0.117136 78.9524 0.00747678ZM17.142 48.614C17.4178 48.3947 17.666 48.1754 17.8867 47.9561C18.1073 47.7368 18.3556 47.49 18.6314 47.2159C18.5211 47.2159 18.4383 47.1885 18.3831 47.1336L17.142 48.614ZM83.3379 16.1274C84.2756 14.2084 84.8824 12.4264 85.1582 10.7815C85.4341 9.0818 85.4341 7.62881 85.1582 6.42256C84.8824 5.2163 84.3308 4.31161 83.5033 3.70848C82.6759 3.05053 81.6554 2.77638 80.4418 2.88604C79.8902 2.94087 79.3385 3.02311 78.7869 3.13277C78.2353 3.1876 77.5457 3.40692 76.7183 3.79073C75.8908 4.17454 74.8427 4.75025 73.574 5.51787C72.3052 6.28548 70.6779 7.38208 68.692 8.80765C66.7061 10.2332 64.279 12.07 61.4105 14.318C58.5971 16.5112 55.177 19.2253 51.1501 22.4603C49.3849 23.8858 47.4818 25.4485 45.4407 27.1482C43.3997 28.8479 41.2483 30.6573 38.9866 32.5763C36.7249 34.4954 34.3805 36.4967 31.9533 38.5802C29.5813 40.6637 27.2093 42.7747 24.8372 44.913C25.9405 45.0227 27.0438 45.1049 28.147 45.1598C29.2503 45.1598 30.3536 45.1324 31.4568 45.0775C34.215 44.9679 37.2214 44.5841 40.476 43.9261C43.7307 43.2681 47.0129 42.3634 50.3227 41.212C53.6876 40.0606 57.025 38.6624 60.3348 37.0176C63.6997 35.3727 66.8165 33.5084 69.685 31.4249C72.6086 29.2866 75.2564 26.9563 77.6285 24.4341C80.0005 21.8571 81.9036 19.0882 83.3379 16.1274Z" fill="white" fill-opacity="0.05"/>
<path d="M107.516 40.5541C107.571 40.4444 107.709 40.3622 107.93 40.3073C108.15 40.1977 108.261 40.3073 108.261 40.6363C108.261 41.1846 108.15 41.6232 107.93 41.9522C107.764 42.2264 107.654 42.3909 107.599 42.4457C107.157 42.8843 106.633 43.3778 106.026 43.9261C105.475 44.4744 104.316 45.5436 102.551 47.1336C100.731 48.6689 98.8553 50.0944 96.9246 51.4104C94.9939 52.6714 93.008 53.7406 90.9669 54.6179C88.9811 55.4403 87.0503 55.8516 85.1748 55.8516C83.1889 55.8516 81.6443 55.3307 80.5411 54.2889C79.493 53.2472 78.9689 51.7942 78.9689 49.93C78.9689 48.5044 79.2723 46.9966 79.8791 45.4065C80.4308 43.8164 81.203 42.2264 82.196 40.6363C83.1889 39.0463 84.3473 37.5384 85.6713 36.1129C86.94 34.6325 88.2639 33.344 89.643 32.2474C91.0773 31.0959 92.5115 30.1912 93.9457 29.5333C95.38 28.8753 96.7591 28.5464 98.083 28.5464C98.5243 28.5464 99.1035 28.6286 99.8206 28.7931C100.483 28.9028 101.145 29.1221 101.807 29.451C102.468 29.78 103.02 30.2461 103.461 30.8492C103.958 31.3975 104.206 32.1103 104.206 32.9876C104.206 34.4131 103.848 35.7291 103.13 36.9353C102.358 38.1416 101.393 39.2382 100.234 40.2251C99.0759 41.1572 97.8072 42.0071 96.4281 42.7747C94.9939 43.4875 93.6148 44.0906 92.2909 44.5841C90.9118 45.0227 89.643 45.3791 88.4846 45.6532C87.3813 45.8726 86.5539 45.9548 86.0022 45.9C85.23 47.1611 84.6507 48.3399 84.2646 49.4365C83.8233 50.5331 83.6026 51.5474 83.6026 52.4795C83.6026 52.8085 83.6854 53.0552 83.8509 53.2197C84.0164 53.3294 84.5128 53.3842 85.3403 53.3842C88.2088 53.3842 90.9394 52.6989 93.532 51.3281C96.1799 49.9574 98.6622 48.3125 100.979 46.3934C103.296 44.4196 105.475 42.4731 107.516 40.5541ZM101.972 32.4119C101.972 31.8636 101.696 31.5894 101.145 31.5894C100.372 31.5894 99.4345 31.9458 98.3312 32.6586C97.1728 33.3165 95.9592 34.2212 94.6905 35.3727C93.4217 36.4693 92.1805 37.7578 90.9669 39.2382C89.6982 40.6637 88.5398 42.1167 87.4917 43.5971C89.0914 43.2133 90.7463 42.5828 92.4563 41.7055C94.1664 40.7734 95.711 39.759 97.0901 38.6624C98.5243 37.5658 99.7103 36.4693 100.648 35.3727C101.531 34.2212 101.972 33.2343 101.972 32.4119Z" fill="white" fill-opacity="0.05"/>
<path d="M78.5718 91.1345C80.2267 91.1345 82.3229 90.4217 84.8604 88.9961C87.3427 87.5706 89.9078 85.6789 92.5556 83.3213C95.2035 80.9636 97.7686 78.3043 100.251 75.3435C102.678 72.4376 104.636 69.4493 106.126 66.3789C102.209 68.9559 98.5133 71.3958 95.038 73.6986C91.5627 76.0563 88.5287 78.2495 85.9361 80.2782C83.3434 82.3069 81.3023 84.1437 79.8129 85.7886C78.3235 87.4883 77.5788 88.9687 77.5788 90.2298C77.5788 90.8329 77.9098 91.1345 78.5718 91.1345ZM119.365 32.5763C118.979 32.1377 118.786 31.6168 118.786 31.0137C118.786 30.6299 118.951 30.438 119.282 30.438C119.337 30.438 119.475 30.4928 119.696 30.6025C119.972 30.767 120.441 30.8766 121.103 30.9314C121.82 30.9863 122.647 31.0137 123.585 31.0137C124.578 31.0137 125.598 31.0137 126.647 31.0137C127.75 30.9589 128.743 30.904 129.625 30.8492C130.618 30.7944 131.639 30.7121 132.687 30.6025C133.294 30.6025 133.845 30.904 134.342 31.5072C134.893 32.0555 135.169 32.7957 135.169 33.7278C135.169 34.1664 135.086 34.5502 134.921 34.8792C134.811 35.2082 134.673 35.4823 134.507 35.7016C134.066 36.3596 133.266 37.3191 132.108 38.5802C130.949 39.7864 129.598 41.1572 128.053 42.6924C126.564 44.1728 124.992 45.7081 123.337 47.2981C121.682 48.8882 120.11 50.3686 118.62 51.7393C117.131 53.1101 115.807 54.2889 114.649 55.2759C113.545 56.208 112.801 56.7563 112.414 56.9207C112.58 57.469 112.718 57.9899 112.828 58.4834C112.938 58.9769 112.994 59.3607 112.994 59.6348L112.911 61.8554L117.048 58.8946L121.765 55.1936C122.978 54.2067 124.137 53.2472 125.24 52.315C126.398 51.3281 127.502 50.3138 128.55 49.272C130.48 47.4078 133.239 44.8582 136.824 41.6232C136.879 41.5136 137.017 41.4313 137.238 41.3765C137.459 41.2669 137.569 41.3765 137.569 41.7055C137.624 42.2538 137.569 42.6924 137.403 43.0214C137.238 43.2956 137.128 43.46 137.072 43.5149C133.763 46.9691 131.142 49.601 129.212 51.4104C127.722 52.8908 126.122 54.3438 124.412 55.7693C122.757 57.1401 120.91 58.6205 118.868 60.2105L112.497 64.9807C112.111 66.9546 111.504 68.901 110.677 70.8201C109.463 73.6712 107.946 76.3305 106.126 78.7978C104.305 81.2652 102.32 83.4858 100.168 85.4596C97.9616 87.4883 95.7827 89.188 93.6313 90.5588C91.4248 91.9844 89.3286 93.081 87.3427 93.8486C85.3017 94.6162 83.5916 95 82.2125 95C81.2196 95 80.337 94.8355 79.5647 94.5065C78.7373 94.1776 78.0477 93.7663 77.4961 93.2729C76.9444 92.7794 76.5307 92.2311 76.2549 91.628C75.9239 91.0248 75.7584 90.4491 75.7584 89.9008C75.7584 88.0366 76.6135 86.1176 78.3235 84.1437C79.9784 82.1698 82.2677 80.0863 85.1913 77.8931C88.0598 75.6999 91.4248 73.3697 95.2862 70.9023C99.0925 68.4898 103.175 65.9128 107.532 63.1713C108.36 60.9781 108.774 58.8124 108.774 56.674C108.774 56.0709 108.746 55.55 108.691 55.1114C108.636 54.6179 108.553 54.2067 108.443 53.8777C108.387 53.768 108.36 53.6858 108.36 53.631C108.36 53.5761 108.332 53.4939 108.277 53.3842C108.332 52.507 108.718 51.849 109.436 51.4104C111.146 50.0396 113.049 48.4221 115.145 46.5579C117.241 44.6389 119.199 42.8021 121.02 41.0475C122.84 39.293 124.357 37.7578 125.571 36.4418C126.84 35.1259 127.474 34.3583 127.474 34.139H124.909C124.523 34.139 124.137 34.139 123.75 34.139C123.364 34.139 122.951 34.0842 122.509 33.9745L121.682 33.7278C119.806 35.3178 117.958 36.9353 116.138 38.5802C112.663 41.6507 109.601 44.5292 106.953 47.2159C106.843 47.3255 106.677 47.4352 106.457 47.5449C106.291 47.5997 106.209 47.4626 106.209 47.1336C106.153 46.5853 106.209 46.1741 106.374 45.9C106.54 45.571 106.677 45.3791 106.788 45.3243C107.56 44.447 108.112 43.789 108.443 43.3504C108.829 42.9117 109.767 41.8974 111.256 40.3073C112.801 38.6624 114.29 37.182 115.724 35.8661C116.827 34.8244 118.041 33.7278 119.365 32.5763Z" fill="white" fill-opacity="0.05"/>
<path d="M132.786 74.7678C133.338 74.1099 134.083 73.0955 135.02 71.7248C135.958 70.4089 137.061 68.8736 138.33 67.1191C136.289 68.3802 134.11 69.7235 131.793 71.1491C129.476 72.5746 126.966 74.1373 124.263 75.837C121.009 77.8657 118.333 79.6477 116.237 81.1829C114.086 82.773 112.403 84.1437 111.19 85.2951C109.921 86.4466 109.066 87.4061 108.625 88.1737C108.128 88.9961 107.88 89.6541 107.88 90.1476C107.88 90.7507 108.101 91.1619 108.542 91.3812C108.983 91.6006 109.48 91.7102 110.031 91.7102C110.473 91.7102 110.776 91.6828 110.942 91.628C115.355 90.4217 119.271 88.393 122.691 85.5419C126.056 82.6907 129.421 79.0994 132.786 74.7678ZM151.569 58.8946L156.286 55.1936C157.499 54.2067 158.658 53.2472 159.761 52.315C160.919 51.3281 162.023 50.3138 163.071 49.272C165.001 47.4078 167.76 44.8582 171.345 41.6232C171.4 41.5136 171.538 41.4313 171.759 41.3765C171.98 41.2669 172.09 41.3765 172.09 41.7055C172.145 42.2538 172.09 42.6924 171.924 43.0214C171.759 43.2956 171.649 43.46 171.594 43.5149C168.284 46.9691 165.663 49.601 163.733 51.4104C162.243 52.8908 160.644 54.3438 158.934 55.7693C157.279 57.1401 155.431 58.6205 153.39 60.2105L147.432 64.6517C146.274 66.187 145.198 67.6674 144.205 69.0929C143.047 70.6282 141.971 72.0263 140.978 73.2874C140.04 74.5485 139.24 75.5903 138.578 76.4127C136.096 79.538 133.779 82.2247 131.628 84.4727C129.421 86.7755 127.27 88.6672 125.174 90.1476C123.077 91.628 120.981 92.7246 118.885 93.4374C116.734 94.1501 114.5 94.5065 112.183 94.5065C110.693 94.5065 109.369 94.0131 108.211 93.0261C106.997 92.0392 106.391 90.8055 106.391 89.3251C106.391 87.5706 107.411 85.6789 109.452 83.6502C111.438 81.6215 114.086 79.4832 117.396 77.2352C120.65 75.042 124.374 72.7117 128.566 70.2444C132.759 67.8319 137.061 65.3097 141.474 62.6779C143.515 59.7719 145.694 56.7288 148.011 53.5487C150.328 50.3138 152.535 47.2159 154.631 44.2551C152.866 46.1193 151.128 47.8738 149.418 49.5187C147.763 51.1636 146.191 52.6166 144.701 53.8777C143.267 55.1388 141.943 56.1257 140.73 56.8385C139.571 57.6061 138.606 57.9899 137.834 57.9899C137.172 57.9899 136.399 57.6061 135.517 56.8385C134.634 56.1257 134.193 54.7824 134.193 52.8085C134.193 52.1506 134.413 51.3007 134.855 50.2589C135.241 49.2172 135.793 48.0932 136.51 46.8869C137.227 45.6258 138.027 44.3373 138.909 43.0214C139.792 41.7055 140.702 40.417 141.64 39.1559C142.357 38.1141 143.157 37.0176 144.039 35.8661C144.922 34.7147 145.777 33.6729 146.605 32.7408C147.432 31.8087 148.149 31.0411 148.756 30.438C149.418 29.8349 149.859 29.5333 150.08 29.5333C150.411 29.5333 150.714 29.6978 150.99 30.0268C151.321 30.3557 151.624 30.7395 151.9 31.1782C152.176 31.6168 152.397 32.0829 152.562 32.5763C152.728 33.0698 152.81 33.5084 152.81 33.8923C152.81 34.0567 152.452 34.6325 151.735 35.6194C151.073 36.6063 150.218 37.8126 149.17 39.2382C148.122 40.6089 146.991 42.1167 145.777 43.7616C144.564 45.4065 143.433 46.9691 142.385 48.4496C141.336 49.93 140.454 51.2733 139.737 52.4795C139.075 53.631 138.744 54.4534 138.744 54.9469C138.744 55.0565 138.799 55.1114 138.909 55.1114C139.406 55.1114 140.233 54.7001 141.392 53.8777C142.55 53.0553 143.846 51.9861 145.281 50.6702C146.77 49.3542 148.342 47.9013 149.997 46.3112C151.652 44.6663 153.279 43.0488 154.879 41.4588C156.479 39.8687 157.968 38.3609 159.347 36.9353C160.726 35.5097 161.885 34.3583 162.823 33.481C163.595 32.5489 164.229 31.8087 164.726 31.2604C165.277 30.7121 165.663 30.438 165.884 30.438C166.16 30.438 166.463 30.6025 166.794 30.9314C167.125 31.2604 167.429 31.6442 167.704 32.0829C167.98 32.5215 168.201 33.015 168.366 33.5633C168.532 34.0567 168.615 34.468 168.615 34.7969C168.615 35.0163 168.173 35.7565 167.291 37.0176C166.408 38.2238 165.332 39.7042 164.064 41.4588C164.119 41.4039 163.898 41.7055 163.402 42.3634C162.96 42.9666 162.299 43.8713 161.416 45.0775C160.588 46.2289 159.623 47.5723 158.52 49.1075C157.472 50.5331 155.265 53.631 151.9 58.4011L151.569 58.8946Z" fill="white" fill-opacity="0.05"/>
<path d="M203.053 43.6794C203.163 43.5697 203.301 43.4875 203.467 43.4326C203.687 43.323 203.798 43.4326 203.798 43.7616C203.798 44.3099 203.687 44.7485 203.467 45.0775C203.301 45.3517 203.191 45.5162 203.136 45.571C201.04 47.8738 199.054 49.9574 197.178 51.8216C195.303 53.631 193.593 55.084 192.048 56.1805C190.559 57.332 189.262 57.9077 188.159 57.9077C187.442 57.9077 186.642 57.5239 185.759 56.7563C184.932 56.0435 184.518 54.7276 184.518 52.8085C184.518 51.8764 184.904 50.5879 185.677 48.943C186.504 47.2981 187.497 45.571 188.656 43.7616C186.835 45.6806 185.07 47.49 183.36 49.1898C181.65 50.8895 180.05 52.3973 178.561 53.7132C177.071 54.9743 175.72 55.9886 174.506 56.7563C173.293 57.5239 172.272 57.9077 171.445 57.9077C170.783 57.9077 170.01 57.5239 169.128 56.7563C168.245 56.0435 167.804 54.7276 167.804 52.8085C167.804 52.1506 168.024 51.3007 168.466 50.2589C168.907 49.1623 169.459 48.0109 170.121 46.8047C170.838 45.5436 171.886 44.0906 173.265 42.4457C174.699 40.746 175.554 39.8961 175.83 39.8961C176.106 39.8961 176.409 40.0606 176.74 40.3896C177.071 40.6637 177.375 41.0475 177.65 41.541C177.926 41.9796 178.147 42.4457 178.312 42.9392C178.478 43.4326 178.561 43.8439 178.561 44.1728C178.561 44.3373 178.202 44.913 177.485 45.9C176.823 46.8869 176.299 47.5997 175.913 48.0383C175.582 48.477 175.251 49.0253 174.92 49.6832C174.589 50.2863 174.065 51.191 173.348 52.3973C172.686 53.5487 172.355 54.3712 172.355 54.8646C172.355 55.0291 172.41 55.1114 172.52 55.1114C173.017 55.1114 173.789 54.755 174.837 54.0422C175.885 53.2746 177.099 52.315 178.478 51.1636C179.857 49.9574 181.319 48.614 182.863 47.1336C184.408 45.5984 185.952 44.0632 187.497 42.5279C189.042 40.9927 190.503 39.5123 191.883 38.0867C193.262 36.6612 194.475 35.4275 195.523 34.3857C196.296 33.4536 196.985 32.7134 197.592 32.1651C198.199 31.562 198.64 31.2604 198.916 31.2604C199.192 31.2604 199.495 31.4249 199.826 31.7539C200.157 32.0829 200.46 32.4667 200.736 32.9053C201.012 33.344 201.233 33.8374 201.398 34.3857C201.564 34.8792 201.646 35.2904 201.646 35.6194C201.646 35.7839 201.315 36.3322 200.654 37.2643C200.047 38.1416 199.274 39.2107 198.337 40.4718C197.454 41.7329 196.461 43.1036 195.358 44.5841C194.255 46.0645 193.234 47.49 192.296 48.8608C191.414 50.2315 190.641 51.4652 189.979 52.5618C189.373 53.6035 189.069 54.3712 189.069 54.8646C189.069 55.0291 189.124 55.1114 189.235 55.1114C190.062 55.1114 191.055 54.6453 192.214 53.7132C193.427 52.7811 194.861 51.4926 196.516 49.8477C198.171 48.2028 200.35 46.1467 203.053 43.6794Z" fill="white" fill-opacity="0.05"/>
<path d="M201.828 56.5918C201.939 56.7014 202.242 56.5918 202.739 56.2628C203.29 55.9886 203.897 55.5774 204.559 55.0291C205.276 54.4808 205.966 53.8777 206.628 53.2197C207.29 52.5618 207.814 51.9312 208.2 51.3281C208.641 50.725 208.862 50.2041 208.862 49.7655C208.862 49.272 208.503 48.9704 207.786 48.8608C207.621 48.7511 207.51 48.6963 207.455 48.6963L207.124 49.0253C206.517 49.6284 205.855 50.3412 205.138 51.1636C204.476 51.9861 203.87 52.7811 203.318 53.5487C202.766 54.3163 202.325 55.0017 201.994 55.6048C201.718 56.1531 201.663 56.4821 201.828 56.5918ZM207.703 47.4626C207.703 47.5174 207.731 47.5723 207.786 47.6271V47.8738C208.062 47.9287 208.338 48.0383 208.614 48.2028C208.945 48.3125 209.22 48.4221 209.441 48.5318C210.213 49.0801 210.517 49.7655 210.351 50.5879V50.6702C212.282 48.7511 214.599 46.5579 217.302 44.0906C217.412 43.9809 217.55 43.8987 217.715 43.8439C217.936 43.7342 218.046 43.8439 218.046 44.1728C218.046 44.7211 217.964 45.1598 217.798 45.4887C217.633 45.7629 217.495 45.9274 217.385 45.9822C216.557 46.8047 215.95 47.4352 215.564 47.8738C215.178 48.2576 214.185 49.2446 212.585 50.8346C211.041 52.3699 209.524 53.768 208.034 55.0291C206.545 56.2902 205.138 57.3046 203.814 58.0722C202.546 58.8946 201.47 59.3058 200.587 59.3058C199.594 59.3058 198.822 58.8398 198.27 57.9077C197.664 56.9756 197.36 55.9338 197.36 54.7824C197.36 53.7406 197.774 52.4247 198.601 50.8346C199.374 49.2446 200.174 47.7916 201.001 46.4757C201.828 45.1049 203.456 42.6924 205.883 39.2382C208.365 35.7291 209.993 33.5633 210.765 32.7408C211.592 31.9184 212.172 31.5072 212.503 31.5072C212.778 31.5072 213.082 31.6717 213.413 32.0006C213.744 32.3296 214.047 32.7134 214.323 33.1521C214.599 33.5907 214.819 34.0842 214.985 34.6325C215.15 35.1259 215.233 35.5371 215.233 35.8661C215.233 36.0854 214.957 36.6063 214.406 37.4288C214.075 37.8126 213.109 39.2656 211.51 41.7877C209.91 44.2551 208.641 46.1467 207.703 47.4626Z" fill="white" fill-opacity="0.05"/>
<path d="M271.93 44.0906C272.04 43.9809 272.178 43.8987 272.344 43.8439C272.564 43.7342 272.675 43.8439 272.675 44.1728C272.675 44.7211 272.592 45.1598 272.426 45.4887C272.261 45.7629 272.123 45.9274 272.013 45.9822C271.185 46.8047 270.578 47.4352 270.192 47.8738C269.806 48.2576 268.813 49.2446 267.213 50.8346C265.669 52.3699 264.152 53.768 262.663 55.0291C261.173 56.2902 259.766 57.3046 258.443 58.0722C257.174 58.8946 256.098 59.3058 255.215 59.3058C254.223 59.3058 253.423 58.8398 252.816 57.9077C252.264 56.9756 251.988 55.9338 251.988 54.7824C251.988 53.7406 252.375 52.4247 253.147 50.8346C253.974 49.2446 254.884 47.6819 255.877 46.1467C256.926 44.5566 257.918 43.1311 258.856 41.87C259.794 40.6089 260.401 39.7865 260.677 39.4026C261.118 38.7995 261.449 38.306 261.67 37.9222C261.945 37.5384 262.083 37.2369 262.083 37.0176C262.083 36.8531 262.001 36.7708 261.835 36.7708C261.118 36.7708 260.015 37.2643 258.525 38.2512C257.091 39.1833 255.491 40.3896 253.726 41.87C252.016 43.2956 250.223 44.8856 248.348 46.6402C246.527 48.3399 244.845 49.93 243.3 51.4104C241.756 52.8908 240.487 54.1518 239.494 55.1936C238.501 56.2354 237.977 56.8111 237.922 56.9207L238.005 56.5918C237.949 56.7014 237.922 56.8111 237.922 56.9207C236.929 56.9207 236.129 56.4547 235.522 55.5226C234.971 54.5905 234.695 53.5213 234.695 52.315C234.695 51.2733 235.136 49.93 236.019 48.2851C236.956 46.6402 238.005 44.9953 239.163 43.3504C240.321 41.7055 241.425 40.2251 242.473 38.9092C243.521 37.5933 244.183 36.7434 244.459 36.3596C244.845 35.8113 245.148 35.3452 245.369 34.9614C245.645 34.5228 245.783 34.1938 245.783 33.9745C245.783 33.81 245.7 33.7278 245.534 33.7278C244.817 33.7278 243.659 34.3035 242.059 35.4549C240.459 36.6063 238.694 38.0319 236.763 39.7316C234.833 41.4313 232.819 43.2956 230.723 45.3243C228.627 47.353 226.724 49.2446 225.014 50.9991C223.304 52.6989 221.869 54.1518 220.711 55.3581C219.608 56.5644 219.028 57.2223 218.973 57.332L219.056 57.003C218.504 57.7158 218.146 58.0722 217.98 58.0722C217.704 58.127 217.291 57.9077 216.739 57.4142C216.132 56.9207 215.636 56.2902 215.25 55.5226C215.139 55.3033 215.084 55.0565 215.084 54.7824C215.084 54.4534 215.222 54.0696 215.498 53.631C216.215 52.5344 217.098 51.1362 218.146 49.4365C219.194 47.7368 220.325 45.9548 221.538 44.0906C222.752 42.2264 223.993 40.3622 225.262 38.498C226.531 36.6337 227.717 34.9614 228.82 33.481C229.261 32.8779 229.592 32.3296 229.813 31.8361C230.089 31.3427 230.309 30.9314 230.475 30.6025C230.64 30.2735 230.806 30.0268 230.971 29.8623C231.192 29.6978 231.523 29.6155 231.964 29.6155C232.461 29.6155 232.985 30.0268 233.536 30.8492C234.143 31.6168 234.557 32.4119 234.777 33.2343C234.888 33.7278 234.86 34.139 234.695 34.468C234.529 34.7969 234.226 35.263 233.785 35.8661C233.398 36.4144 232.902 37.1272 232.295 38.0045C231.688 38.8269 231.026 39.7316 230.309 40.7186C229.647 41.7055 228.93 42.7473 228.158 43.8439C227.386 44.9404 226.641 46.0096 225.924 47.0514C227.468 45.571 229.234 43.8987 231.219 42.0345C233.26 40.1703 235.274 38.4157 237.26 36.7708C239.301 35.1259 241.176 33.7278 242.886 32.5763C244.597 31.4249 245.893 30.8492 246.775 30.8492C247.713 30.8492 248.651 31.4249 249.589 32.5763C250.582 33.6729 251.078 35.1808 251.078 37.0998C251.078 37.3739 250.83 37.8948 250.334 38.6624C249.892 39.3752 249.313 40.2251 248.596 41.212C247.879 42.199 247.051 43.2681 246.114 44.4196C245.231 45.571 244.348 46.7498 243.466 47.9561C244.79 46.7498 246.389 45.3243 248.265 43.6794C250.14 42.0345 252.016 40.4992 253.892 39.0737C255.822 37.6481 257.587 36.4418 259.187 35.4549C260.842 34.4131 262.138 33.8923 263.076 33.8923C263.518 33.8923 263.986 34.0567 264.483 34.3857C265.035 34.6599 265.503 35.0711 265.89 35.6194C266.331 36.1129 266.689 36.7434 266.965 37.511C267.241 38.2786 267.379 39.1559 267.379 40.1428C267.379 40.4718 267.103 41.0475 266.552 41.87C266 42.6924 265.31 43.6245 264.483 44.6663C263.655 45.7081 262.773 46.8321 261.835 48.0383C260.897 49.2446 260.015 50.4234 259.187 51.5748C258.36 52.6714 257.67 53.6858 257.119 54.6179C256.567 55.55 256.291 56.2628 256.291 56.7563C256.291 56.8659 256.346 56.9207 256.457 56.9207C257.284 56.9207 258.415 56.3725 259.849 55.2759C261.283 54.1244 262.966 52.6166 264.897 50.7524C266.827 48.8334 269.172 46.6128 271.93 44.0906Z" fill="white" fill-opacity="0.05"/>
<path d="M307.61 43.3504C307.665 43.2407 307.803 43.1585 308.023 43.1037C308.244 42.994 308.354 43.1036 308.354 43.4326C308.354 43.9809 308.244 44.4196 308.023 44.7485C307.858 45.0227 307.747 45.1872 307.692 45.242C304.989 48.148 302.479 50.725 300.162 52.973C297.901 55.221 295.805 57.0852 293.874 58.5656C291.998 60.046 290.536 60.7862 289.488 60.7862C288.551 60.7862 287.778 60.3202 287.172 59.3881C286.565 58.456 286.261 57.3868 286.261 56.1805C286.261 55.4129 286.592 54.3163 287.254 52.8908C287.916 51.4652 288.771 49.8751 289.819 48.1206C288.661 49.3268 287.447 50.5331 286.179 51.7393C284.965 52.8908 283.779 53.9325 282.621 54.8646C281.517 55.7419 280.497 56.4547 279.559 57.003C278.676 57.6061 277.959 57.9077 277.408 57.9077C277.077 57.9077 276.608 57.798 276.001 57.5787C275.449 57.4142 274.87 57.0852 274.263 56.5918C273.712 56.1531 273.243 55.5226 272.857 54.7001C272.415 53.8229 272.195 52.7263 272.195 51.4104C272.195 50.3138 272.526 49.0527 273.188 47.6271C273.85 46.1467 274.732 44.6663 275.835 43.1859C276.939 41.7055 278.18 40.2525 279.559 38.8269C280.938 37.4014 282.345 36.1403 283.779 35.0437C285.213 33.8923 286.62 32.9876 287.999 32.3296C289.378 31.6168 290.592 31.2604 291.64 31.2604C292.522 31.2604 293.322 31.4249 294.039 31.7539C294.812 32.0829 295.474 32.5215 296.025 33.0698C296.577 33.6181 296.991 34.2212 297.266 34.8792C297.597 35.5371 297.763 36.2225 297.763 36.9353C297.763 36.9901 297.735 37.0176 297.68 37.0176C297.68 37.0176 297.68 37.045 297.68 37.0998C298.894 35.7291 299.749 35.0437 300.245 35.0437C300.521 35.0437 300.824 35.2082 301.155 35.5371C301.486 35.8113 301.79 36.1951 302.066 36.6886C302.341 37.1272 302.562 37.5933 302.728 38.0867C302.893 38.5802 302.976 38.9914 302.976 39.3204C302.976 39.4849 302.645 40.0332 301.983 40.9653C301.376 41.8426 300.604 42.9117 299.666 44.1728C298.783 45.4339 297.79 46.8047 296.687 48.2851C295.584 49.7106 294.563 51.1088 293.626 52.4795C292.743 53.7955 291.971 55.0017 291.309 56.0983C290.702 57.1949 290.399 57.9899 290.399 58.4834C290.399 58.5931 290.454 58.6479 290.564 58.6479C290.895 58.6479 291.612 58.1818 292.715 57.2497C293.819 56.3724 295.115 55.2484 296.604 53.8777C298.094 52.4521 299.694 50.8895 301.404 49.1898C303.169 47.49 304.438 46.2838 305.21 45.571C306.037 44.8034 306.837 44.0632 307.61 43.3504ZM276.911 55.4403C277.573 55.4403 278.456 55.1114 279.559 54.4534C280.662 53.7406 281.876 52.8359 283.2 51.7393C284.579 50.6427 286.013 49.3817 287.503 47.9561C288.992 46.4757 290.454 44.9953 291.888 43.5149C291.612 43.4052 291.364 43.2407 291.143 43.0214C290.978 42.8021 290.895 42.5554 290.895 42.2812C290.895 42.1167 291.116 41.8152 291.557 41.3765C292.053 40.9379 292.578 40.4444 293.129 39.8961C293.681 39.293 294.177 38.635 294.619 37.9222C295.115 37.2095 295.363 36.5241 295.363 35.8661C295.363 35.263 295.06 34.9614 294.453 34.9614C293.957 34.9614 293.157 35.3178 292.053 36.0306C290.95 36.7434 289.709 37.7029 288.33 38.9092C287.006 40.0606 285.627 41.3765 284.193 42.8569C282.814 44.2825 281.517 45.7355 280.304 47.2159C279.145 48.6963 278.18 50.0944 277.408 51.4104C276.691 52.7263 276.332 53.8503 276.332 54.7824C276.332 55.221 276.525 55.4403 276.911 55.4403Z" fill="white" fill-opacity="0.05"/>
<path d="M361.493 44.0906C361.603 43.9809 361.741 43.8987 361.907 43.8439C362.127 43.7342 362.238 43.8439 362.238 44.1728C362.238 44.7211 362.155 45.1598 361.989 45.4887C361.824 45.7629 361.686 45.9274 361.576 45.9822C360.748 46.8047 360.141 47.4352 359.755 47.8738C359.369 48.2576 358.376 49.2446 356.777 50.8346C355.232 52.3699 353.715 53.768 352.226 55.0291C350.736 56.2902 349.329 57.3046 348.006 58.0722C346.737 58.8946 345.661 59.3058 344.779 59.3058C343.786 59.3058 342.986 58.8398 342.379 57.9077C341.827 56.9756 341.551 55.9338 341.551 54.7824C341.551 53.7406 341.938 52.4247 342.71 50.8346C343.537 49.2446 344.448 47.6819 345.44 46.1467C346.489 44.5566 347.482 43.1311 348.419 41.87C349.357 40.6089 349.964 39.7865 350.24 39.4026C350.681 38.7995 351.012 38.306 351.233 37.9222C351.508 37.5384 351.646 37.2369 351.646 37.0176C351.646 36.8531 351.564 36.7708 351.398 36.7708C350.681 36.7708 349.578 37.2643 348.088 38.2512C346.654 39.1833 345.054 40.3896 343.289 41.87C341.579 43.2956 339.786 44.8856 337.911 46.6402C336.09 48.3399 334.408 49.93 332.863 51.4104C331.319 52.8908 330.05 54.1518 329.057 55.1936C328.064 56.2354 327.54 56.8111 327.485 56.9207L327.568 56.5918C327.512 56.7014 327.485 56.8111 327.485 56.9207C326.492 56.9207 325.692 56.4547 325.085 55.5226C324.534 54.5905 324.258 53.5213 324.258 52.315C324.258 51.2733 324.699 49.93 325.582 48.2851C326.519 46.6402 327.568 44.9953 328.726 43.3504C329.884 41.7055 330.988 40.2251 332.036 38.9092C333.084 37.5933 333.746 36.7434 334.022 36.3596C334.408 35.8113 334.711 35.3452 334.932 34.9614C335.208 34.5228 335.346 34.1938 335.346 33.9745C335.346 33.81 335.263 33.7278 335.097 33.7278C334.38 33.7278 333.222 34.3035 331.622 35.4549C330.022 36.6063 328.257 38.0319 326.326 39.7316C324.396 41.4313 322.382 43.2956 320.286 45.3243C318.19 47.353 316.287 49.2446 314.577 50.9991C312.867 52.6989 311.432 54.1518 310.274 55.3581C309.171 56.5644 308.591 57.2223 308.536 57.332L308.619 57.003C308.067 57.7158 307.709 58.0722 307.543 58.0722C307.267 58.127 306.854 57.9077 306.302 57.4142C305.695 56.9207 305.199 56.2902 304.813 55.5226C304.702 55.3033 304.647 55.0565 304.647 54.7824C304.647 54.4534 304.785 54.0696 305.061 53.631C305.778 52.5344 306.661 51.1362 307.709 49.4365C308.757 47.7368 309.888 45.9548 311.101 44.0906C312.315 42.2264 313.556 40.3622 314.825 38.498C316.094 36.6337 317.28 34.9614 318.383 33.481C318.824 32.8779 319.155 32.3296 319.376 31.8361C319.652 31.3427 319.872 30.9314 320.038 30.6025C320.203 30.2735 320.369 30.0268 320.534 29.8623C320.755 29.6978 321.086 29.6155 321.527 29.6155C322.024 29.6155 322.548 30.0268 323.099 30.8492C323.706 31.6168 324.12 32.4119 324.341 33.2343C324.451 33.7278 324.423 34.139 324.258 34.468C324.092 34.7969 323.789 35.263 323.348 35.8661C322.961 36.4144 322.465 37.1272 321.858 38.0045C321.251 38.8269 320.589 39.7316 319.872 40.7186C319.21 41.7055 318.493 42.7473 317.721 43.8439C316.949 44.9404 316.204 46.0096 315.487 47.0514C317.031 45.571 318.797 43.8987 320.783 42.0345C322.824 40.1703 324.837 38.4157 326.823 36.7708C328.864 35.1259 330.739 33.7278 332.45 32.5763C334.16 31.4249 335.456 30.8492 336.339 30.8492C337.276 30.8492 338.214 31.4249 339.152 32.5763C340.145 33.6729 340.641 35.1808 340.641 37.0998C340.641 37.3739 340.393 37.8948 339.897 38.6624C339.455 39.3752 338.876 40.2251 338.159 41.212C337.442 42.199 336.614 43.2681 335.677 44.4196C334.794 45.571 333.911 46.7498 333.029 47.9561C334.353 46.7498 335.952 45.3243 337.828 43.6794C339.703 42.0345 341.579 40.4992 343.455 39.0737C345.385 37.6481 347.151 36.4418 348.75 35.4549C350.405 34.4131 351.701 33.8923 352.639 33.8923C353.081 33.8923 353.549 34.0567 354.046 34.3857C354.598 34.6599 355.066 35.0711 355.453 35.6194C355.894 36.1129 356.252 36.7434 356.528 37.511C356.804 38.2786 356.942 39.1559 356.942 40.1428C356.942 40.4718 356.666 41.0475 356.115 41.87C355.563 42.6924 354.873 43.6245 354.046 44.6663C353.218 45.7081 352.336 46.8321 351.398 48.0383C350.46 49.2446 349.578 50.4234 348.75 51.5748C347.923 52.6714 347.233 53.6858 346.682 54.6179C346.13 55.55 345.854 56.2628 345.854 56.7563C345.854 56.8659 345.909 56.9207 346.02 56.9207C346.847 56.9207 347.978 56.3725 349.412 55.2759C350.846 54.1244 352.529 52.6166 354.46 50.7524C356.39 48.8334 358.735 46.6128 361.493 44.0906Z" fill="white" fill-opacity="0.05"/>
<path d="M366.722 55.0291C366.833 55.1388 367.136 55.0291 367.633 54.7001C368.129 54.3712 368.681 53.9051 369.288 53.302C369.949 52.6989 370.584 52.0409 371.191 51.3281C371.853 50.6153 372.349 49.9574 372.68 49.3542C373.066 48.6963 373.232 48.148 373.177 47.7094C373.177 47.2159 372.818 46.9417 372.101 46.8869C371.935 46.7772 371.825 46.7498 371.77 46.8047L371.439 47.1336C370.887 47.7916 370.28 48.5592 369.618 49.4365C369.012 50.2589 368.46 51.0814 367.964 51.9038C367.467 52.7263 367.081 53.4391 366.805 54.0422C366.529 54.5905 366.502 54.9195 366.722 55.0291ZM374.5 49.272C375.273 48.5592 376.045 47.819 376.817 47.0514C378.362 45.571 379.906 44.0632 381.451 42.5279C382.996 40.9927 384.457 39.5123 385.836 38.0867C387.216 36.6612 388.429 35.4275 389.477 34.3857C390.25 33.4536 390.939 32.7134 391.546 32.1651C392.153 31.562 392.594 31.2604 392.87 31.2604C393.146 31.2604 393.449 31.4249 393.78 31.7539C394.111 32.0829 394.414 32.4667 394.69 32.9053C394.966 33.344 395.187 33.8374 395.352 34.3857C395.518 34.8792 395.6 35.2904 395.6 35.6194C395.6 35.7839 395.269 36.3322 394.607 37.2643C394.001 38.1416 393.228 39.2107 392.291 40.4718C391.408 41.7329 390.415 43.1036 389.312 44.5841C388.208 46.0645 387.188 47.49 386.25 48.8608C385.368 50.2315 384.595 51.4652 383.933 52.5618C383.327 53.6035 383.023 54.3712 383.023 54.8646C383.023 55.0291 383.078 55.1114 383.189 55.1114C384.016 55.1114 385.009 54.6453 386.167 53.7132C387.381 52.7811 388.815 51.4926 390.47 49.8477C392.125 48.2028 394.387 46.2289 397.255 43.9261C397.366 43.8164 397.504 43.7342 397.669 43.6794C397.89 43.5697 398 43.6794 398 44.0083C398 44.5566 397.89 44.9953 397.669 45.3243C397.504 45.5984 397.393 45.7629 397.338 45.8177C395.076 47.9561 393.008 49.9574 391.132 51.8216C389.257 53.631 387.547 55.084 386.002 56.1805C384.513 57.332 383.216 57.9077 382.113 57.9077C381.396 57.9077 380.596 57.5239 379.713 56.7563C378.886 56.0435 378.472 54.7276 378.472 52.8085C378.472 51.8764 378.858 50.5879 379.631 48.943C380.458 47.2981 381.451 45.571 382.609 43.7616C380.789 45.6806 379.024 47.49 377.314 49.1898C375.604 50.8895 374.004 52.3973 372.515 53.7132C371.025 54.9743 369.674 55.9886 368.46 56.7563C367.246 57.5239 366.226 57.9077 365.399 57.9077C364.737 57.9077 363.964 57.5239 363.082 56.7563C362.199 56.0435 361.758 54.7276 361.758 52.8085C361.758 52.1506 361.978 51.3007 362.42 50.2589C362.861 49.1623 363.413 48.0109 364.075 46.8047C364.792 45.5436 366.226 43.4052 368.377 40.3896C370.584 37.3191 372.073 35.3178 372.846 34.3857C373.673 33.4536 374.39 32.686 374.997 32.0829C375.659 31.4797 376.128 31.1782 376.404 31.1782C376.679 31.1782 376.983 31.3427 377.314 31.6716C377.645 31.9458 377.948 32.3296 378.224 32.8231C378.5 33.2617 378.72 33.7278 378.886 34.2212C379.051 34.7147 379.134 35.1259 379.134 35.4549C379.134 35.6194 377.231 38.3609 373.425 43.6794C372.928 44.3373 372.432 44.9679 371.935 45.571L372.018 45.6532V45.9C372.294 45.9548 372.57 46.037 372.846 46.1467C373.177 46.2564 373.452 46.366 373.673 46.4757C374.5 46.9692 374.859 47.6271 374.749 48.4496C374.694 48.7237 374.611 48.9979 374.5 49.272Z" fill="white" fill-opacity="0.05"/>
</svg>
