<svg width="30" height="30" viewBox="0 0 30 30" fill="none" xmlns="http://www.w3.org/2000/svg">
<path d="M7.36488 26.6114C5.85808 28.109 2.46777 27.3602 2.46777 27.3602C2.46777 27.3602 1.71437 23.9907 3.22117 22.4932C4.72798 20.9956 6.04643 20.8084 6.04643 20.8084C6.04643 20.8084 3.59788 20.2468 2.09107 21.9316C-0.922532 24.9267 0.20757 29.7937 0.20757 29.7937C0.20757 29.7937 5.10468 30.9169 8.11828 27.9218C9.81344 26.237 9.24838 23.8035 9.24838 23.8035C9.24838 23.8035 8.87169 25.1139 7.36488 26.6114Z" fill="white"/>
<path d="M29.9683 0.029951C29.9683 0.029951 23.376 -0.718823 17.3488 5.27137C14.3352 8.07927 11.8867 11.8231 10.0032 15.1926L5.29441 14.0695L2.2808 17.0646L7.55461 19.6853C6.98956 20.8084 6.80121 21.5572 6.80121 21.5572L8.30801 23.0548C8.30801 23.0548 9.06141 22.6804 10.1915 22.306L12.8284 27.5474L15.842 24.5523L14.9003 19.8725C18.1022 18.0005 22.0576 15.567 24.8828 12.7591C30.7217 6.76892 29.9683 0.029951 29.9683 0.029951ZM23.9411 9.01524C23.1877 9.76401 21.8692 9.76401 20.9275 9.01524C20.1741 8.26647 20.1741 6.95611 20.9275 6.02014C21.6809 5.27137 22.9993 5.27137 23.9411 6.02014C24.6945 6.76892 24.6945 8.07927 23.9411 9.01524Z" fill="white"/>
</svg>
