<svg width="314" height="331" viewBox="0 0 314 331" fill="none" xmlns="http://www.w3.org/2000/svg">
<g opacity="0.15" clip-path="url(#clip0_355_529)">
<path d="M46.3108 236.229L43.975 234.661V237.474V281.75C43.975 284.529 45.3827 287.618 48.0482 290.767C50.7327 293.939 54.8009 297.304 60.4058 300.666C71.6184 307.393 89.1556 314.21 114.621 319.433C120.033 320.543 123.654 325.69 122.714 331.064C121.77 336.455 116.639 340.031 111.341 338.928C83.3789 333.104 61.5773 324.959 46.8052 315.139C32.0304 305.316 24.5 293.978 24.5 281.75V124.425C24.5 113.925 29.8125 104.561 39.4256 96.3517C49.056 88.1281 62.9038 81.16 79.665 75.531C113.176 64.2769 157.953 58.5 202.8 58.5C247.647 58.5 292.424 64.2769 325.935 75.531C342.696 81.16 356.544 88.1281 366.174 96.3517C375.787 104.561 381.1 113.925 381.1 124.425V169.375C381.1 174.753 376.74 179.113 371.363 179.113C365.985 179.113 361.625 174.753 361.625 169.375V158.812V155.993L359.287 157.568C343.342 168.309 319.796 176.518 292.376 182.036C264.984 187.548 233.844 190.35 202.8 190.35C171.756 190.35 140.616 187.548 113.224 182.036C85.8041 176.518 62.2583 168.309 46.313 157.568L43.975 155.993V158.812V203.088C43.975 206.838 46.3827 210.873 50.629 214.835C54.9227 218.841 61.3184 222.987 69.8275 226.958C86.8556 234.904 112.563 242.252 147.466 246.337C152.864 246.968 156.841 251.734 156.359 257.089C155.873 262.488 151.101 266.44 145.767 265.808C107.402 261.255 69.344 251.685 46.3108 236.229ZM43.975 124.425C43.975 127.141 45.1089 129.87 47.0946 132.516C49.0818 135.164 51.9824 137.811 55.6852 140.405C63.0914 145.592 73.8993 150.694 87.6404 155.194C115.139 164.2 154.632 170.875 202.8 170.875C250.968 170.875 290.461 164.2 317.96 155.194C331.701 150.694 342.509 145.592 349.915 140.405C353.618 137.811 356.518 135.164 358.505 132.516C360.491 129.87 361.625 127.141 361.625 124.425C361.625 121.709 360.491 118.98 358.505 116.334C356.518 113.686 353.618 111.039 349.915 108.445C342.509 103.258 331.701 98.1559 317.96 93.6556C290.461 84.6495 250.968 77.975 202.8 77.975C154.632 77.975 115.139 84.6495 87.6404 93.6556C73.8993 98.1559 63.0914 103.258 55.6852 108.445C51.9824 111.039 49.0818 113.686 47.0946 116.334C45.1089 118.98 43.975 121.709 43.975 124.425Z" fill="#30BF58" stroke-width="3"/>
<path d="M226.107 232.617C242.492 221.669 261.756 215.825 281.463 215.825C307.888 215.825 333.231 226.322 351.917 245.008C370.603 263.694 381.1 289.037 381.1 315.462C381.1 335.169 375.257 354.433 364.308 370.818C353.36 387.203 337.799 399.974 319.592 407.516C301.386 415.057 281.352 417.03 262.024 413.185C242.697 409.341 224.943 399.851 211.008 385.917C197.074 371.982 187.584 354.229 183.74 334.901C179.895 315.573 181.868 295.539 189.41 277.333C196.951 259.126 209.722 243.565 226.107 232.617ZM236.927 382.115C250.109 390.924 265.608 395.625 281.463 395.625C302.723 395.625 323.113 387.179 338.146 372.146C353.18 357.113 361.625 336.723 361.625 315.462C361.625 299.608 356.924 284.109 348.115 270.927C339.307 257.744 326.787 247.469 312.14 241.402C297.492 235.335 281.374 233.747 265.824 236.84C250.274 239.933 235.99 247.568 224.779 258.779C213.568 269.99 205.934 284.274 202.841 299.824C199.747 315.374 201.335 331.492 207.402 346.139C213.47 360.787 223.744 373.307 236.927 382.115Z" fill="#30BF58" stroke-width="3"/>
<path d="M271.73 297.595V293.945L269.163 296.54L262.742 303.033C258.961 306.855 252.793 306.872 248.992 303.07C245.217 299.295 245.204 293.177 248.965 289.386L274.546 263.598C274.547 263.597 274.549 263.595 274.55 263.594C276.374 261.783 278.84 260.766 281.411 260.766C283.983 260.766 286.45 261.783 288.274 263.596C288.275 263.596 288.275 263.597 288.276 263.598L314.063 289.385C317.853 293.174 317.853 299.319 314.063 303.108C310.273 306.898 304.129 306.898 300.339 303.108L293.765 296.534L291.205 293.974V297.595V360.413C291.205 365.79 286.845 370.15 281.467 370.15C276.089 370.15 271.73 365.79 271.73 360.413V297.595Z" fill="#30BF58" stroke-width="3"/>
</g>
<defs>
<clipPath id="clip0_355_529">
<rect width="314" height="331" fill="white"/>
</clipPath>
</defs>
</svg>
