<svg width="348" height="381" viewBox="0 0 348 381" fill="none" xmlns="http://www.w3.org/2000/svg">
<g opacity="0.15" clip-path="url(#clip0_312_50)">
<path d="M278.142 149.114C278.853 146.83 280.658 144.939 283.13 144.25C287.003 143.168 291.018 145.42 292.101 149.289C293.173 153.103 294.004 157.093 294.573 161.202C295.131 165.279 295.416 169.377 295.416 173.443C295.416 184.383 293.457 194.788 289.946 204.166C291.729 204.089 293.556 203.969 295.361 203.827C300.142 203.455 304.419 202.942 306.279 202.472C306.454 201.663 306.596 200.308 306.749 198.504C307.154 193.783 307.362 188.963 307.362 184.11C307.362 161.322 302.702 138.567 291.915 121.178C281.522 104.423 265.211 92.5431 241.57 90.5321C239.196 90.3244 236.713 90.2261 234.12 90.2261C231.517 90.2261 229.023 90.3244 226.66 90.5321C203.019 92.5431 186.708 104.413 176.315 121.178C165.539 138.567 160.868 161.322 160.868 184.11C160.868 188.963 161.076 193.783 161.481 198.515C161.634 200.319 161.765 201.685 161.951 202.483C163.351 202.821 166.108 203.029 169.357 203.149C171.742 203.226 174.335 203.248 176.873 203.226C173.58 194.1 171.753 184.023 171.753 173.454C171.753 169.388 172.037 165.301 172.595 161.213C173.153 157.103 173.996 153.114 175.068 149.3C176.151 145.431 180.177 143.179 184.038 144.261C186.511 144.95 188.338 146.852 189.038 149.147C201.936 148.928 211.541 147.693 217.492 143.42C223.717 138.95 226.813 130.075 226.813 113.79H241.373L241.395 115.725C241.636 130.763 244.743 139.114 250.738 143.42C256.525 147.573 265.769 148.863 278.142 149.125V149.114ZM315.381 238.692C317.405 238.211 319.177 237.348 320.599 236.156C322.667 234.419 324.067 231.839 324.384 228.549L327.775 194.745C325.795 195.892 323.673 196.996 321.419 198.034L321.288 199.696C320.96 203.576 320.533 206.516 319.264 209.204C317.525 212.92 314.899 215.15 310.48 216.407C307.81 217.161 302.286 217.893 296.444 218.341C291.784 218.702 286.73 218.91 282.66 218.833C281.161 221.194 279.542 223.434 277.814 225.555C272.738 231.795 266.765 236.965 260.113 240.747V259.196C292.648 265.152 301.422 280.126 315.917 305.864H335.203C340.214 305.864 344.776 307.908 348.069 311.209C351.372 314.51 353.418 319.056 353.418 324.062V382.535C353.418 387.54 351.372 392.098 348.069 395.388C344.765 398.688 340.203 400.732 335.203 400.732H122.141C117.153 400.732 112.602 398.678 109.287 395.377C105.983 392.098 103.927 387.54 103.927 382.535V324.062C103.927 319.078 105.972 314.532 109.276 311.231C112.569 307.908 117.131 305.864 122.141 305.864H151.613C157.116 292.552 163.581 282.771 172.453 275.306C181.588 267.633 192.943 262.715 208.106 259.228V241.326C201.039 237.501 194.683 232.123 189.344 225.544C187.32 223.052 185.45 220.396 183.732 217.576C179.291 217.74 173.744 217.795 168.898 217.631C164.314 217.478 160.201 217.095 157.739 216.396C153.341 215.139 150.705 212.909 148.966 209.215C147.686 206.527 147.259 203.576 146.931 199.674L146.843 198.559C135.182 193.367 126.988 186.7 122.393 179.684C118.947 174.438 117.404 168.896 117.776 163.486C118.159 157.945 120.522 152.699 124.865 148.185C126.156 146.841 127.633 145.562 129.296 144.36C134.7 117.156 147.15 94.3027 165.496 78.455C183.524 62.8696 207.121 54.1151 235.182 54.6725C263.395 54.4211 286.981 63.11 304.966 78.6517C323.553 94.7071 335.991 117.998 341.231 146.174C341.308 146.578 341.341 146.972 341.352 147.365L342.183 148.185C346.526 152.699 348.889 157.945 349.272 163.486C349.644 168.907 348.101 174.438 344.655 179.684C344.338 180.165 344.01 180.646 343.66 181.126C343.671 181.465 343.671 181.815 343.638 182.154L338.846 229.948C338.113 237.293 334.842 243.14 329.996 247.239C325.861 250.725 320.632 252.878 314.91 253.523C313.991 256.332 312.635 258.89 310.928 261.032C307.307 265.622 302.144 268.475 296.357 268.475C290.569 268.475 285.406 265.622 281.785 261.032C278.525 256.911 276.512 251.337 276.512 245.304C276.512 239.271 278.525 233.686 281.785 229.577C285.406 224.986 290.569 222.134 296.357 222.134C302.155 222.134 307.307 224.986 310.928 229.577C312.952 232.123 314.495 235.249 315.37 238.681L315.381 238.692ZM299.54 238.583C298.632 237.435 297.494 236.725 296.357 236.725C295.219 236.725 294.081 237.435 293.173 238.583C291.893 240.2 291.095 242.583 291.095 245.326C291.095 248.059 291.893 250.441 293.173 252.059C294.07 253.206 295.208 253.917 296.357 253.917C297.494 253.917 298.632 253.206 299.54 252.059C300.82 250.441 301.619 248.059 301.619 245.326C301.619 242.594 300.82 240.211 299.54 238.583ZM324.417 137.758C318.925 117.867 309.09 101.407 295.47 89.6468C280.111 76.3784 259.774 68.9682 235.247 69.1978H234.974C210.688 68.7169 190.405 76.1708 175.035 89.461C161.535 101.134 151.69 117.364 146.121 136.731C148.047 136.206 150.071 135.736 152.193 135.332C152.751 135.234 153.309 135.19 153.856 135.212C156.481 127.506 159.829 120.217 163.964 113.539C176.687 92.9912 196.63 78.455 225.478 75.9959C228.311 75.7554 231.2 75.6352 234.131 75.6352C237.052 75.6352 239.951 75.7554 242.785 75.9959C271.633 78.4441 291.576 93.0021 304.299 113.539C308.445 120.217 311.792 127.528 314.418 135.245L314.91 135.321C318.334 135.966 321.507 136.797 324.417 137.758ZM335.225 320.444H122.163C121.179 320.444 120.26 320.849 119.614 321.505C118.958 322.149 118.553 323.057 118.553 324.051V382.524C118.553 383.518 118.958 384.426 119.614 385.081C120.26 385.748 121.168 386.152 122.163 386.152H335.225C336.21 386.152 337.129 385.737 337.785 385.081C338.442 384.426 338.846 383.518 338.846 382.524V324.051C338.846 323.067 338.431 322.149 337.774 321.505C337.118 320.849 336.21 320.444 335.225 320.444ZM234.131 305.854H299.168C289.005 288.388 280.516 277.896 257.641 273.546C248.167 283.678 241.767 288.76 234.044 288.749C226.32 288.727 219.986 283.667 210.698 273.546C198.151 276.486 188.917 280.453 181.829 286.41C176.107 291.219 171.556 297.525 167.552 305.854H234.142H234.131ZM222.382 264.77C228.18 271.065 231.692 274.224 234.044 274.235C236.44 274.235 240.017 271.098 245.902 264.813C245.673 264.103 245.542 263.338 245.542 262.551V246.485C241.691 247.381 237.698 247.851 233.595 247.851C229.876 247.851 226.244 247.468 222.721 246.714V262.54C222.721 263.316 222.601 264.059 222.382 264.759V264.77ZM146.307 182.001C146.428 171.487 147.489 160.951 149.611 150.83C143.014 152.655 138.288 155.256 135.389 158.273C133.508 160.229 132.49 162.35 132.348 164.459C132.195 166.7 132.961 169.181 134.624 171.727C136.954 175.279 140.848 178.809 146.318 182.001H146.307ZM318.728 151.191C320.752 160.983 321.791 171.148 321.945 181.312C326.802 178.307 330.324 175.039 332.479 171.738C334.142 169.191 334.908 166.71 334.755 164.47C334.613 162.361 333.595 160.24 331.714 158.284C328.99 155.464 324.669 153.005 318.717 151.202L318.728 151.191ZM186.959 163.749C186.576 166.82 186.369 170.066 186.369 173.443C186.369 190.318 191.817 205.499 200.656 216.396C209.123 226.823 220.752 233.271 233.606 233.271C246.449 233.271 258.078 226.823 266.557 216.396C275.396 205.51 280.844 190.329 280.844 173.443C280.844 170.055 280.636 166.809 280.253 163.727C263.975 163.519 251.482 161.803 242.271 155.191C239.065 152.885 236.352 150.076 234.153 146.655C231.943 150.076 229.23 152.874 226.014 155.191C216.617 161.945 203.763 163.596 186.97 163.738L186.959 163.749Z" fill="#30BF58"/>
</g>
<defs>
<clipPath id="clip0_312_50">
<rect width="348" height="381" fill="white"/>
</clipPath>
</defs>
</svg>
