<svg width="362" height="364" viewBox="0 0 362 364" fill="none" xmlns="http://www.w3.org/2000/svg">
<g opacity="0.15" clip-path="url(#clip0_312_40)">
<rect width="362" height="364" fill="url(#paint0_linear_312_40)"/>
<path d="M387.537 313.807V120.181C387.526 111.331 384.016 102.845 377.777 96.5871C371.538 90.3287 363.078 86.8081 354.255 86.7977H340.942C339.193 86.8226 337.524 87.537 336.295 88.7865C335.067 90.0359 334.379 91.7201 334.379 93.4747C334.379 95.2293 335.068 96.9134 336.296 98.1628C337.524 99.4122 339.193 100.126 340.942 100.151H354.255C359.549 100.157 364.625 102.269 368.368 106.024C372.112 109.779 374.218 114.871 374.224 120.181V313.807H68.0292V120.181C68.035 114.871 70.1407 109.779 73.8844 106.024C77.6281 102.269 82.704 100.157 87.9984 100.151H161.42C163.186 100.151 164.879 99.4478 166.127 98.1957C167.376 96.9435 168.077 95.2453 168.077 93.4745C168.077 91.7037 167.376 90.0054 166.127 88.7533C164.879 87.5012 163.186 86.7977 161.42 86.7977H87.9984C79.1747 86.8081 70.7153 90.3287 64.4759 96.5871C58.2366 102.846 54.7268 111.331 54.7164 120.181V313.807C45.9341 313.875 37.5347 317.423 31.3487 323.676C25.1626 329.929 21.6914 338.382 21.6914 347.191C21.6915 356.001 25.1628 364.453 31.3489 370.706C37.5351 376.959 45.9345 380.507 54.7168 380.575H387.537C396.319 380.506 404.718 376.959 410.904 370.706C417.09 364.453 420.562 356 420.562 347.191C420.562 338.382 417.09 329.929 410.904 323.676C404.718 317.423 396.319 313.875 387.537 313.807ZM254.408 327.161C254.404 330.701 253 334.095 250.504 336.598C248.009 339.101 244.625 340.51 241.096 340.514H201.157C197.628 340.51 194.244 339.101 191.749 336.598C189.253 334.095 187.849 330.701 187.844 327.161H254.408ZM387.537 367.221H54.7164C49.4202 367.221 44.341 365.111 40.5961 361.354C36.8511 357.598 34.7472 352.503 34.7472 347.191C34.7472 341.879 36.8511 336.784 40.5961 333.027C44.341 329.271 49.4202 327.161 54.7164 327.161H174.532C174.539 334.242 177.346 341.031 182.338 346.038C187.33 351.045 194.098 353.861 201.157 353.868H241.096C248.155 353.861 254.923 351.045 259.915 346.038C264.907 341.031 267.714 334.242 267.721 327.161H387.537C392.794 327.22 397.816 329.357 401.512 333.106C405.209 336.856 407.282 341.917 407.282 347.191C407.282 352.465 405.209 357.525 401.512 361.275C397.816 365.025 392.794 367.162 387.537 367.221Z" fill="#30BF58"/>
<path d="M267.718 93.4745C267.718 92.5975 267.546 91.7291 267.212 90.9188C266.878 90.1085 266.387 89.3723 265.769 88.7522C265.151 88.1321 264.417 87.6403 263.609 87.3049C262.801 86.9696 261.935 86.7972 261.061 86.7977H213.069C211.303 86.7977 209.61 87.5012 208.362 88.7533C207.113 90.0054 206.412 91.7037 206.412 93.4745C206.412 95.2453 207.113 96.9435 208.362 98.1957C209.61 99.4478 211.303 100.151 213.069 100.151H261.061C261.935 100.152 262.801 99.9794 263.609 99.644C264.417 99.3087 265.151 98.8169 265.769 98.1968C266.387 97.5767 266.878 96.8405 267.212 96.0302C267.546 95.2199 267.718 94.3514 267.718 93.4745Z" fill="#30BF58"/>
<path d="M147.903 180.272C142.608 180.278 137.533 182.39 133.789 186.145C130.045 189.9 127.939 194.992 127.934 200.302V253.716C127.939 259.027 130.045 264.118 133.789 267.874C137.533 271.629 142.608 273.741 147.903 273.747H161.216C166.51 273.741 171.586 271.629 175.33 267.874C179.073 264.118 181.179 259.027 181.185 253.716V200.302C181.179 194.992 179.073 189.9 175.33 186.145C171.586 182.39 166.51 180.278 161.216 180.272H147.903ZM167.872 200.302V253.716C167.871 255.487 167.169 257.184 165.921 258.436C164.673 259.688 162.981 260.392 161.216 260.393H147.903C146.138 260.392 144.445 259.688 143.197 258.436C141.949 257.184 141.248 255.487 141.246 253.716V200.302C141.248 198.532 141.949 196.834 143.197 195.583C144.445 194.331 146.138 193.627 147.903 193.626H161.216C162.981 193.627 164.673 194.331 165.921 195.583C167.169 196.834 167.871 198.532 167.872 200.302Z" fill="#30BF58"/>
<path d="M221.124 126.858C215.829 126.864 210.753 128.976 207.01 132.731C203.266 136.486 201.16 141.578 201.154 146.888V253.716C201.16 259.027 203.266 264.118 207.01 267.874C210.753 271.629 215.829 273.741 221.124 273.747H234.436C239.731 273.741 244.807 271.629 248.55 267.874C252.294 264.118 254.4 259.027 254.406 253.716V146.888C254.4 141.578 252.294 136.486 248.55 132.731C244.807 128.976 239.731 126.864 234.436 126.858H221.124ZM241.093 146.888V253.716C241.092 255.487 240.39 257.184 239.142 258.436C237.894 259.688 236.201 260.392 234.436 260.393H221.124C219.358 260.392 217.666 259.688 216.418 258.436C215.17 257.184 214.468 255.487 214.467 253.716V146.888C214.468 145.118 215.17 143.42 216.418 142.169C217.666 140.917 219.358 140.213 221.124 140.212H234.436C236.201 140.213 237.894 140.917 239.142 142.169C240.39 143.42 241.092 145.118 241.093 146.888Z" fill="#30BF58"/>
<path d="M294.343 66.7675C289.049 66.7733 283.973 68.8854 280.229 72.6406C276.486 76.3957 274.38 81.4871 274.374 86.7977V253.716C274.38 259.027 276.486 264.118 280.229 267.874C283.973 271.629 289.049 273.741 294.343 273.747H307.656C312.95 273.741 318.026 271.629 321.77 267.874C325.514 264.118 327.619 259.027 327.625 253.716V86.7977C327.619 81.4871 325.514 76.3957 321.77 72.6406C318.026 68.8854 312.95 66.7733 307.656 66.7675H294.343ZM314.312 86.7977V253.716C314.311 255.487 313.61 257.184 312.362 258.436C311.113 259.688 309.421 260.392 307.656 260.393H294.343C292.578 260.392 290.886 259.688 289.638 258.436C288.39 257.184 287.688 255.487 287.687 253.716V86.7977C287.688 85.0273 288.39 83.3297 289.638 82.0779C290.886 80.826 292.578 80.1222 294.343 80.121H307.656C309.421 80.1221 311.113 80.826 312.362 82.0778C313.61 83.3297 314.311 85.0273 314.312 86.7977Z" fill="#30BF58"/>
<path d="M150.347 138.706C151.714 139.825 153.469 140.355 155.226 140.177C156.982 140 158.596 139.131 159.714 137.76L216.248 68.45L238.115 79.4171C239.365 80.0433 240.779 80.2594 242.158 80.0347C243.537 79.8101 244.811 79.156 245.799 78.1652L301 22.795V33.3837C301.025 35.1382 301.737 36.8123 302.983 38.0442C304.229 39.276 305.908 39.9666 307.657 39.9665C309.406 39.9665 311.085 39.2758 312.331 38.0439C313.576 36.812 314.288 35.1378 314.313 33.3833V6.67675C314.269 4.9199 313.553 3.24723 312.314 2.00456C311.076 0.761889 309.408 0.0442446 307.657 0H281.031C279.282 0.0248646 277.613 0.739273 276.385 1.98875C275.157 3.23822 274.468 4.92234 274.468 6.67695C274.468 8.43155 275.157 10.1156 276.385 11.365C277.613 12.6144 279.282 13.3287 281.031 13.3535H291.587L239.779 65.32L217.444 54.1182C216.093 53.4376 214.55 53.2399 213.072 53.5576C211.593 53.8753 210.267 54.6895 209.312 55.8656L149.404 129.31C148.287 130.681 147.759 132.441 147.936 134.203C148.113 135.965 148.98 137.585 150.347 138.706Z" fill="#30BF58"/>
</g>
<defs>
<linearGradient id="paint0_linear_312_40" x1="7.67757e-06" y1="221.709" x2="361.993" y2="218.272" gradientUnits="userSpaceOnUse">
<stop stop-color="transparent"/>
<stop offset="1" stop-color="transparent" stop-opacity="0"/>
</linearGradient>
<clipPath id="clip0_312_40">
<rect width="362" height="364" fill="transparent"/>
</clipPath>
</defs>
</svg>
