<svg width="348" height="344" viewBox="0 0 348 344" fill="none" xmlns="http://www.w3.org/2000/svg">
<g opacity="0.16">
<g clip-path="url(#clip0_354_522)">
<mask id="path-2-inside-1_354_522" fill="white">
<path d="M89.0124 70.8235C76.9318 70.8235 66.9512 80.855 66.9512 92.9836V184.894C66.9512 197.022 76.9318 207.037 89.0124 207.037H216.716C228.797 207.037 238.778 197.022 238.778 184.894V92.9836C238.778 80.855 228.797 70.8235 216.716 70.8235H89.0124ZM271.721 70.8235C259.64 70.8235 249.643 80.8549 249.643 92.9836V184.894C249.643 197.022 259.64 207.037 271.721 207.037H332.778C344.858 207.037 354.839 197.022 354.839 184.894V92.9836C354.839 80.8549 344.858 70.8235 332.778 70.8235H271.721ZM89.0124 87.8377H216.716C219.724 87.8377 221.843 89.9934 221.843 92.9836V184.894C221.843 187.884 219.723 190.039 216.716 190.039H89.0124C86.0042 190.039 83.8857 187.884 83.8857 184.894V92.9836C83.8857 89.9937 86.0058 87.8377 89.0124 87.8377ZM271.721 87.8377H332.778C335.786 87.8377 337.904 89.9937 337.904 92.9836V184.894C337.904 187.884 335.785 190.039 332.778 190.039H271.721C268.712 190.039 266.594 187.883 266.594 184.894V92.9836C266.594 89.9937 268.714 87.8377 271.721 87.8377ZM284.273 99.4407C283.155 99.4363 282.048 99.654 281.014 100.081C279.981 100.508 279.042 101.137 278.252 101.93C277.462 102.723 276.836 103.665 276.41 104.702C275.985 105.74 275.768 106.851 275.772 107.973C275.777 109.089 276 110.193 276.429 111.223C276.859 112.252 277.486 113.186 278.276 113.973C279.065 114.759 280.001 115.381 281.03 115.804C282.059 116.227 283.161 116.443 284.273 116.438H320.226C322.46 116.43 324.6 115.535 326.18 113.949C327.76 112.363 328.651 110.215 328.66 107.973C328.664 106.857 328.449 105.751 328.028 104.718C327.606 103.685 326.986 102.746 326.203 101.953C325.42 101.161 324.489 100.531 323.463 100.1C322.438 99.6692 321.337 99.445 320.226 99.4407H284.273ZM140.147 101.881C138.676 101.89 137.233 102.284 135.96 103.023C134.687 103.762 133.628 104.822 132.887 106.097L99.3815 163.115C98.6265 164.408 98.2255 165.878 98.219 167.377C98.2125 168.875 98.6008 170.349 99.3446 171.648C100.088 172.948 101.161 174.026 102.454 174.775C103.747 175.524 105.215 175.917 106.708 175.913H149.772H173.652H199.021C200.512 175.914 201.978 175.519 203.268 174.769C204.559 174.019 205.63 172.94 206.372 171.641C207.113 170.342 207.5 168.87 207.493 167.373C207.486 165.876 207.085 164.407 206.331 163.115L181.706 121.65C180.956 120.381 179.891 119.329 178.613 118.599C177.336 117.868 175.891 117.484 174.421 117.484C172.951 117.484 171.506 117.868 170.229 118.599C168.952 119.329 167.886 120.381 167.136 121.65L161.828 130.564L147.457 106.097C146.711 104.815 145.644 103.751 144.362 103.011C143.079 102.271 141.626 101.881 140.147 101.881ZM140.147 127.161L154.518 151.579C155.268 152.848 156.333 153.9 157.611 154.63C158.888 155.361 160.333 155.745 161.803 155.745C163.273 155.745 164.718 155.361 165.995 154.63C167.272 153.9 168.338 152.848 169.088 151.579L174.396 142.599L184.137 158.982H173.652H149.772H121.459L140.147 127.161ZM284.273 130.431C283.161 130.427 282.059 130.643 281.03 131.066C280.001 131.489 279.065 132.111 278.276 132.897C277.486 133.683 276.859 134.618 276.429 135.647C276 136.677 275.777 137.781 275.772 138.897C275.768 140.019 275.985 141.13 276.41 142.167C276.836 143.204 277.462 144.147 278.252 144.94C279.042 145.733 279.981 146.361 281.014 146.789C282.048 147.216 283.155 147.433 284.273 147.429H320.226C321.337 147.425 322.438 147.201 323.463 146.769C324.489 146.338 325.42 145.709 326.203 144.916C326.986 144.124 327.606 143.185 328.028 142.152C328.449 141.119 328.664 140.013 328.66 138.897C328.651 136.655 327.76 134.506 326.18 132.921C324.6 131.335 322.46 130.44 320.226 130.431L284.273 130.431ZM284.273 161.422C283.161 161.418 282.059 161.633 281.03 162.056C280.001 162.48 279.065 163.102 278.276 163.888C277.486 164.674 276.859 165.609 276.429 166.638C276 167.667 275.777 168.772 275.772 169.888C275.768 171.01 275.985 172.121 276.41 173.158C276.836 174.195 277.462 175.138 278.252 175.931C279.042 176.724 279.981 177.352 281.014 177.779C282.048 178.207 283.155 178.424 284.273 178.42H320.226C322.471 178.411 324.621 177.507 326.203 175.907C327.785 174.307 328.668 172.142 328.66 169.888C328.651 167.645 327.76 165.497 326.18 163.911C324.6 162.326 322.46 161.431 320.226 161.422L284.273 161.422ZM89.0124 215.752C76.9318 215.752 66.9512 225.766 66.9512 237.895V329.755C66.9512 341.884 76.9318 351.899 89.0124 351.899H150.086C162.167 351.899 172.147 341.884 172.147 329.755V237.895C172.147 225.766 162.167 215.752 150.086 215.752L89.0124 215.752ZM205.09 215.752C193.009 215.752 183.012 225.767 183.012 237.895V329.755C183.012 341.884 193.009 351.899 205.09 351.899H332.778C344.858 351.899 354.839 341.884 354.839 329.755V237.895C354.839 225.767 344.858 215.752 332.778 215.752L205.09 215.752ZM89.0124 232.749H150.086C153.094 232.749 155.213 234.905 155.213 237.895V329.755C155.213 332.745 153.093 334.885 150.086 334.885H89.0124C86.0042 334.885 83.8857 332.745 83.8857 329.755V237.895C83.8857 234.905 86.0058 232.749 89.0124 232.749ZM205.09 232.749H332.778C335.786 232.749 337.904 234.905 337.904 237.895V329.755C337.904 332.745 335.785 334.885 332.778 334.885H205.09C202.082 334.885 199.964 332.746 199.964 329.755V237.895C199.964 234.905 202.083 232.749 205.09 232.749ZM101.581 244.369C99.3439 244.373 97.1995 245.266 95.6161 246.852C94.0327 248.438 93.139 250.589 93.1302 252.834C93.1259 253.952 93.3411 255.059 93.7637 256.093C94.1862 257.127 94.8077 258.067 95.5927 258.86C96.3776 259.652 97.3106 260.281 98.3381 260.712C99.3657 261.142 100.468 261.364 101.581 261.366H137.517C138.635 261.371 139.742 261.153 140.775 260.726C141.809 260.299 142.748 259.67 143.538 258.877C144.328 258.084 144.954 257.142 145.38 256.105C145.805 255.068 146.022 253.956 146.018 252.834C146.013 251.718 145.79 250.614 145.361 249.585C144.931 248.555 144.304 247.621 143.514 246.835C142.725 246.048 141.789 245.426 140.76 245.003C139.731 244.58 138.629 244.364 137.517 244.369H101.581ZM245.674 247.473C244.388 247.554 243.138 247.929 242.019 248.568C240.713 249.31 239.627 250.386 238.871 251.686C238.116 252.987 237.718 254.466 237.719 255.972V311.745C237.73 313.248 238.137 314.722 238.9 316.016C239.663 317.309 240.754 318.377 242.062 319.109C243.37 319.841 244.848 320.212 246.345 320.184C247.842 320.156 249.306 319.73 250.585 318.949L296.097 291.096C297.332 290.336 298.352 289.271 299.059 288.002C299.767 286.733 300.138 285.304 300.138 283.85C300.138 282.396 299.767 280.967 299.059 279.698C298.352 278.43 297.332 277.365 296.097 276.605L250.585 248.685C249.109 247.788 247.396 247.365 245.674 247.473ZM254.654 271.094L275.458 283.825L254.654 296.557V271.094ZM101.581 275.359C99.3439 275.364 97.1995 276.257 95.616 277.843C94.0326 279.429 93.139 281.58 93.1302 283.825C93.1259 284.943 93.3411 286.05 93.7637 287.084C94.1862 288.118 94.8078 289.058 95.5927 289.85C96.3776 290.643 97.3106 291.272 98.3381 291.702C99.3657 292.132 100.468 292.355 101.581 292.357H137.517C138.635 292.362 139.742 292.144 140.775 291.717C141.809 291.289 142.748 290.661 143.538 289.868C144.328 289.075 144.954 288.133 145.38 287.095C145.805 286.058 146.022 284.947 146.018 283.825C146.013 282.709 145.79 281.605 145.361 280.575C144.931 279.546 144.304 278.611 143.514 277.825C142.725 277.039 141.789 276.417 140.76 275.994C139.731 275.571 138.629 275.355 137.517 275.36L101.581 275.359ZM101.581 306.35C99.3439 306.355 97.1995 307.247 95.6161 308.834C94.0327 310.42 93.139 312.571 93.1302 314.816C93.1259 315.933 93.3411 317.041 93.7637 318.075C94.1862 319.109 94.8077 320.049 95.5927 320.841C96.3776 321.634 97.3106 322.263 98.3381 322.693C99.3657 323.123 100.468 323.346 101.581 323.348H137.517C138.635 323.352 139.742 323.135 140.775 322.707C141.809 322.28 142.748 321.652 143.538 320.859C144.328 320.066 144.954 319.123 145.38 318.086C145.805 317.049 146.022 315.938 146.018 314.816C146.013 313.7 145.79 312.596 145.361 311.566C144.931 310.537 144.304 309.602 143.514 308.816C142.725 308.03 141.789 307.408 140.76 306.985C139.731 306.562 138.629 306.346 137.517 306.35L101.581 306.35Z"/>
</mask>
<path d="M89.0124 70.8235C76.9318 70.8235 66.9512 80.855 66.9512 92.9836V184.894C66.9512 197.022 76.9318 207.037 89.0124 207.037H216.716C228.797 207.037 238.778 197.022 238.778 184.894V92.9836C238.778 80.855 228.797 70.8235 216.716 70.8235H89.0124ZM271.721 70.8235C259.64 70.8235 249.643 80.8549 249.643 92.9836V184.894C249.643 197.022 259.64 207.037 271.721 207.037H332.778C344.858 207.037 354.839 197.022 354.839 184.894V92.9836C354.839 80.8549 344.858 70.8235 332.778 70.8235H271.721ZM89.0124 87.8377H216.716C219.724 87.8377 221.843 89.9934 221.843 92.9836V184.894C221.843 187.884 219.723 190.039 216.716 190.039H89.0124C86.0042 190.039 83.8857 187.884 83.8857 184.894V92.9836C83.8857 89.9937 86.0058 87.8377 89.0124 87.8377ZM271.721 87.8377H332.778C335.786 87.8377 337.904 89.9937 337.904 92.9836V184.894C337.904 187.884 335.785 190.039 332.778 190.039H271.721C268.712 190.039 266.594 187.883 266.594 184.894V92.9836C266.594 89.9937 268.714 87.8377 271.721 87.8377ZM284.273 99.4407C283.155 99.4363 282.048 99.654 281.014 100.081C279.981 100.508 279.042 101.137 278.252 101.93C277.462 102.723 276.836 103.665 276.41 104.702C275.985 105.74 275.768 106.851 275.772 107.973C275.777 109.089 276 110.193 276.429 111.223C276.859 112.252 277.486 113.186 278.276 113.973C279.065 114.759 280.001 115.381 281.03 115.804C282.059 116.227 283.161 116.443 284.273 116.438H320.226C322.46 116.43 324.6 115.535 326.18 113.949C327.76 112.363 328.651 110.215 328.66 107.973C328.664 106.857 328.449 105.751 328.028 104.718C327.606 103.685 326.986 102.746 326.203 101.953C325.42 101.161 324.489 100.531 323.463 100.1C322.438 99.6692 321.337 99.445 320.226 99.4407H284.273ZM140.147 101.881C138.676 101.89 137.233 102.284 135.96 103.023C134.687 103.762 133.628 104.822 132.887 106.097L99.3815 163.115C98.6265 164.408 98.2255 165.878 98.219 167.377C98.2125 168.875 98.6008 170.349 99.3446 171.648C100.088 172.948 101.161 174.026 102.454 174.775C103.747 175.524 105.215 175.917 106.708 175.913H149.772H173.652H199.021C200.512 175.914 201.978 175.519 203.268 174.769C204.559 174.019 205.63 172.94 206.372 171.641C207.113 170.342 207.5 168.87 207.493 167.373C207.486 165.876 207.085 164.407 206.331 163.115L181.706 121.65C180.956 120.381 179.891 119.329 178.613 118.599C177.336 117.868 175.891 117.484 174.421 117.484C172.951 117.484 171.506 117.868 170.229 118.599C168.952 119.329 167.886 120.381 167.136 121.65L161.828 130.564L147.457 106.097C146.711 104.815 145.644 103.751 144.362 103.011C143.079 102.271 141.626 101.881 140.147 101.881ZM140.147 127.161L154.518 151.579C155.268 152.848 156.333 153.9 157.611 154.63C158.888 155.361 160.333 155.745 161.803 155.745C163.273 155.745 164.718 155.361 165.995 154.63C167.272 153.9 168.338 152.848 169.088 151.579L174.396 142.599L184.137 158.982H173.652H149.772H121.459L140.147 127.161ZM284.273 130.431C283.161 130.427 282.059 130.643 281.03 131.066C280.001 131.489 279.065 132.111 278.276 132.897C277.486 133.683 276.859 134.618 276.429 135.647C276 136.677 275.777 137.781 275.772 138.897C275.768 140.019 275.985 141.13 276.41 142.167C276.836 143.204 277.462 144.147 278.252 144.94C279.042 145.733 279.981 146.361 281.014 146.789C282.048 147.216 283.155 147.433 284.273 147.429H320.226C321.337 147.425 322.438 147.201 323.463 146.769C324.489 146.338 325.42 145.709 326.203 144.916C326.986 144.124 327.606 143.185 328.028 142.152C328.449 141.119 328.664 140.013 328.66 138.897C328.651 136.655 327.76 134.506 326.18 132.921C324.6 131.335 322.46 130.44 320.226 130.431L284.273 130.431ZM284.273 161.422C283.161 161.418 282.059 161.633 281.03 162.056C280.001 162.48 279.065 163.102 278.276 163.888C277.486 164.674 276.859 165.609 276.429 166.638C276 167.667 275.777 168.772 275.772 169.888C275.768 171.01 275.985 172.121 276.41 173.158C276.836 174.195 277.462 175.138 278.252 175.931C279.042 176.724 279.981 177.352 281.014 177.779C282.048 178.207 283.155 178.424 284.273 178.42H320.226C322.471 178.411 324.621 177.507 326.203 175.907C327.785 174.307 328.668 172.142 328.66 169.888C328.651 167.645 327.76 165.497 326.18 163.911C324.6 162.326 322.46 161.431 320.226 161.422L284.273 161.422ZM89.0124 215.752C76.9318 215.752 66.9512 225.766 66.9512 237.895V329.755C66.9512 341.884 76.9318 351.899 89.0124 351.899H150.086C162.167 351.899 172.147 341.884 172.147 329.755V237.895C172.147 225.766 162.167 215.752 150.086 215.752L89.0124 215.752ZM205.09 215.752C193.009 215.752 183.012 225.767 183.012 237.895V329.755C183.012 341.884 193.009 351.899 205.09 351.899H332.778C344.858 351.899 354.839 341.884 354.839 329.755V237.895C354.839 225.767 344.858 215.752 332.778 215.752L205.09 215.752ZM89.0124 232.749H150.086C153.094 232.749 155.213 234.905 155.213 237.895V329.755C155.213 332.745 153.093 334.885 150.086 334.885H89.0124C86.0042 334.885 83.8857 332.745 83.8857 329.755V237.895C83.8857 234.905 86.0058 232.749 89.0124 232.749ZM205.09 232.749H332.778C335.786 232.749 337.904 234.905 337.904 237.895V329.755C337.904 332.745 335.785 334.885 332.778 334.885H205.09C202.082 334.885 199.964 332.746 199.964 329.755V237.895C199.964 234.905 202.083 232.749 205.09 232.749ZM101.581 244.369C99.3439 244.373 97.1995 245.266 95.6161 246.852C94.0327 248.438 93.139 250.589 93.1302 252.834C93.1259 253.952 93.3411 255.059 93.7637 256.093C94.1862 257.127 94.8077 258.067 95.5927 258.86C96.3776 259.652 97.3106 260.281 98.3381 260.712C99.3657 261.142 100.468 261.364 101.581 261.366H137.517C138.635 261.371 139.742 261.153 140.775 260.726C141.809 260.299 142.748 259.67 143.538 258.877C144.328 258.084 144.954 257.142 145.38 256.105C145.805 255.068 146.022 253.956 146.018 252.834C146.013 251.718 145.79 250.614 145.361 249.585C144.931 248.555 144.304 247.621 143.514 246.835C142.725 246.048 141.789 245.426 140.76 245.003C139.731 244.58 138.629 244.364 137.517 244.369H101.581ZM245.674 247.473C244.388 247.554 243.138 247.929 242.019 248.568C240.713 249.31 239.627 250.386 238.871 251.686C238.116 252.987 237.718 254.466 237.719 255.972V311.745C237.73 313.248 238.137 314.722 238.9 316.016C239.663 317.309 240.754 318.377 242.062 319.109C243.37 319.841 244.848 320.212 246.345 320.184C247.842 320.156 249.306 319.73 250.585 318.949L296.097 291.096C297.332 290.336 298.352 289.271 299.059 288.002C299.767 286.733 300.138 285.304 300.138 283.85C300.138 282.396 299.767 280.967 299.059 279.698C298.352 278.43 297.332 277.365 296.097 276.605L250.585 248.685C249.109 247.788 247.396 247.365 245.674 247.473ZM254.654 271.094L275.458 283.825L254.654 296.557V271.094ZM101.581 275.359C99.3439 275.364 97.1995 276.257 95.616 277.843C94.0326 279.429 93.139 281.58 93.1302 283.825C93.1259 284.943 93.3411 286.05 93.7637 287.084C94.1862 288.118 94.8078 289.058 95.5927 289.85C96.3776 290.643 97.3106 291.272 98.3381 291.702C99.3657 292.132 100.468 292.355 101.581 292.357H137.517C138.635 292.362 139.742 292.144 140.775 291.717C141.809 291.289 142.748 290.661 143.538 289.868C144.328 289.075 144.954 288.133 145.38 287.095C145.805 286.058 146.022 284.947 146.018 283.825C146.013 282.709 145.79 281.605 145.361 280.575C144.931 279.546 144.304 278.611 143.514 277.825C142.725 277.039 141.789 276.417 140.76 275.994C139.731 275.571 138.629 275.355 137.517 275.36L101.581 275.359ZM101.581 306.35C99.3439 306.355 97.1995 307.247 95.6161 308.834C94.0327 310.42 93.139 312.571 93.1302 314.816C93.1259 315.933 93.3411 317.041 93.7637 318.075C94.1862 319.109 94.8077 320.049 95.5927 320.841C96.3776 321.634 97.3106 322.263 98.3381 322.693C99.3657 323.123 100.468 323.346 101.581 323.348H137.517C138.635 323.352 139.742 323.135 140.775 322.707C141.809 322.28 142.748 321.652 143.538 320.859C144.328 320.066 144.954 319.123 145.38 318.086C145.805 317.049 146.022 315.938 146.018 314.816C146.013 313.7 145.79 312.596 145.361 311.566C144.931 310.537 144.304 309.602 143.514 308.816C142.725 308.03 141.789 307.408 140.76 306.985C139.731 306.562 138.629 306.346 137.517 306.35L101.581 306.35Z" fill="#30BF58" stroke-width="4" mask="url(#path-2-inside-1_354_522)"/>
</g>
</g>
<defs>
<clipPath id="clip0_354_522">
<rect width="348" height="344" rx="15" fill="white"/>
</clipPath>
</defs>
</svg>
