<svg width="399" height="371" viewBox="0 0 399 371" fill="none" xmlns="http://www.w3.org/2000/svg">
<g opacity="0.15">
<g clip-path="url(#clip0_350_486)">
<path d="M193.403 358.46V360.46H195.403H373.989C383.304 360.46 390.864 352.904 390.864 343.59V186.56V184.56H388.864H195.403H193.403V186.56V358.46ZM66.4283 184.56H64.4283V186.56V343.59C64.4283 352.904 71.9882 360.46 81.3034 360.46H173.907H175.907V358.46V186.56V184.56H173.907H66.4283ZM388.864 167.072H390.864V165.072V136.967C390.864 127.653 383.304 120.097 373.989 120.097H81.3034C71.9882 120.097 64.4283 127.653 64.4283 136.967V165.072V167.072H66.4283H388.864ZM81.3034 102.61H373.989C392.961 102.61 408.36 118.044 408.36 136.967V343.59C408.36 362.553 392.921 377.947 373.989 377.947H81.3034C62.3318 377.947 46.9326 362.513 46.9326 343.59V136.967C46.9326 118.004 62.3717 102.61 81.3034 102.61Z" fill="#30BF58" stroke-width="4"/>
<path d="M141.664 227.535H100.65C95.8207 227.535 91.9019 223.616 91.9019 218.791C91.9019 213.966 95.8207 210.047 100.65 210.047H141.664C146.493 210.047 150.411 213.966 150.411 218.791C150.411 223.616 146.493 227.535 141.664 227.535Z" fill="#30BF58" stroke-width="4"/>
<path d="M141.664 281.253H100.65C95.8207 281.253 91.9019 277.335 91.9019 272.51C91.9019 267.684 95.8207 263.766 100.65 263.766H141.664C146.493 263.766 150.411 267.684 150.411 272.51C150.411 277.335 146.493 281.253 141.664 281.253Z" fill="#30BF58" stroke-width="4"/>
<path d="M141.664 334.972H100.65C95.8207 334.972 91.9019 331.054 91.9019 326.228C91.9019 321.403 95.8207 317.485 100.65 317.485H141.664C146.493 317.485 150.411 321.403 150.411 326.228C150.411 331.054 146.493 334.972 141.664 334.972Z" fill="#30BF58" stroke-width="4"/>
<path d="M317.045 213.17L317.035 213.188L317.048 213.171L317.109 213.191L317.106 213.198C340.212 222.995 356.427 245.882 356.427 272.467C356.427 276.585 356.011 280.584 355.259 284.51L355.224 284.697V284.887V284.887V284.888V284.889V284.89V284.89V284.891V284.892V284.893V284.893V284.894V284.895V284.896V284.896V284.897V284.898V284.899V284.899V284.9V284.901V284.902V284.902V284.903V284.904V284.905V284.905V284.906V284.907V284.908V284.908V284.909V284.91V284.911V284.911V284.912V284.913V284.914V284.914V284.915V284.916V284.917V284.917V284.918V284.919V284.92V284.921V284.921V284.922V284.923V284.924V284.924V284.925V284.926V284.927V284.927V284.928V284.929V284.93V284.93V284.931V284.932V284.933V284.933V284.934V284.935V284.936V284.936V284.937V284.938V284.939V284.939V284.94V284.941V284.942V284.942V284.943V284.944V284.945V284.945V284.946V284.947V284.948V284.948V284.949V284.95V284.951V284.951V284.952V284.953V284.954V284.954V284.955V284.956V284.957V284.958V284.958V284.959V284.96V284.961V284.961V284.962V284.963V284.964V284.964V284.965V284.966V284.967V284.967V284.968V284.969V284.97V284.97V284.971V284.972V284.972C355.219 284.994 355.216 285.014 355.213 285.03C355.204 285.085 355.198 285.137 355.193 285.186C349.262 314.588 323.229 336.777 292.135 336.777C256.653 336.777 227.799 307.933 227.799 272.467C227.799 237 256.653 208.156 292.135 208.156C300.806 208.156 309.102 209.906 316.648 213.032L316.714 213.059L316.781 213.082L316.925 213.13C316.941 213.139 316.955 213.146 316.967 213.153C316.982 213.161 316.996 213.168 317.007 213.174L317.023 213.182L317.029 213.185L317.032 213.187L317.034 213.187L317.035 213.188L317.035 213.188C317.035 213.188 317.035 213.188 317.044 213.169L317.045 213.17ZM317.457 212.345L317.457 212.345C317.479 212.301 317.502 212.255 317.526 212.206L317.526 212.206L317.457 212.345ZM300.858 229.019L301.829 226.703L299.354 226.275C297.015 225.87 294.622 225.644 292.135 225.644C266.311 225.644 245.295 246.651 245.295 272.467C245.295 298.283 266.311 319.29 292.135 319.29C310.916 319.29 326.991 308.237 334.485 292.313L335.576 289.996L333.063 289.5L290.43 281.079C290.428 281.079 290.426 281.078 290.423 281.078C287.858 280.549 285.617 278.895 284.4 276.6C283.173 274.287 283.036 271.52 284.047 269.116L284.048 269.114L300.858 229.019ZM320.027 234.978L317.975 233.451L316.987 235.81L305.294 263.744L304.347 266.005L306.753 266.479L336.46 272.323L338.962 272.816L338.844 270.268C338.17 255.806 330.934 243.099 320.027 234.978Z" fill="#30BF58" stroke-width="4"/>
</g>
</g>
<defs>
<clipPath id="clip0_350_486">
<rect width="399" height="371" rx="15" fill="white"/>
</clipPath>
</defs>
</svg>
