<svg width="354" height="322" viewBox="0 0 354 322" fill="none" xmlns="http://www.w3.org/2000/svg">
<g opacity="0.15">
<g clip-path="url(#clip0_350_496)">
<path d="M297.112 57.7291L296.86 57.5615H296.558C296.563 57.5615 296.563 57.5615 296.557 57.5605C296.542 57.5583 296.493 57.5505 296.401 57.5243C296.286 57.4915 296.153 57.4441 296.02 57.3909C295.889 57.3385 295.769 57.2853 295.682 57.245C295.638 57.225 295.604 57.2086 295.581 57.1976L295.556 57.1854L295.551 57.1829L295.551 57.1828L295.551 57.1828L295.551 57.1827L295.55 57.1826L295.55 57.1825L295.34 57.0775H295.104H140.526C138.846 57.0775 137.367 57.6414 136.307 58.7009C135.246 59.7606 134.681 61.2378 134.681 62.9173V114.204C130.944 117.027 127.649 119.847 124.38 122.647L124.37 122.655L124.341 122.68L124.313 122.707C90.2401 156.739 88.0873 211.543 120.255 248.239L109.029 259.451L102.468 252.897C100.139 250.572 96.5989 250.572 94.2702 252.897L48.2361 298.875C40.0919 307.01 40.0919 319.743 48.2361 327.877L49.2052 328.845C57.3488 336.979 70.0955 336.979 78.239 328.845L124.273 282.867C126.599 280.545 126.603 277.015 124.285 274.688L117.691 267.663L128.965 256.402C129.885 257.165 130.748 257.93 131.625 258.709L131.633 258.716C132.607 259.58 133.598 260.46 134.681 261.343V339.269C134.681 340.949 135.246 342.426 136.307 343.486C137.367 344.545 138.846 345.109 140.526 345.109H348.891C350.572 345.109 352.05 344.545 353.111 343.486C354.172 342.426 354.737 340.949 354.737 339.269V117.724C354.996 116.577 354.844 115.528 354.389 114.618C353.942 113.726 353.231 113.019 352.438 112.476C323.412 83.4854 309.978 70.0684 303.621 63.7793C300.447 60.639 299.02 59.2595 298.295 58.6055C297.932 58.2775 297.71 58.0997 297.51 57.9695C297.424 57.9135 297.347 57.8698 297.294 57.8397L297.275 57.8286C297.222 57.7986 297.176 57.7717 297.112 57.7291ZM57.9326 320.219L57.9107 320.194L57.8871 320.171L56.918 319.203C53.4325 315.721 53.4325 310.547 56.918 307.066L98.8534 265.182L105.415 271.736L111.975 278.288L70.0417 320.171C66.5275 323.68 60.9016 323.608 57.9326 320.219ZM254.138 123.191C224.679 93.7686 180.933 88.5944 146.372 107.203V68.7571H289.258V117.123C289.258 118.802 289.823 120.28 290.884 121.339C291.945 122.399 293.423 122.963 295.104 122.963H343.046V333.913H146.372V268.828C180.929 286.971 224.672 281.808 254.132 252.866L254.138 252.861C289.902 217.139 289.902 158.912 254.138 123.191ZM300.95 76.9671L334.867 111.283H300.95V76.9671ZM132.511 131.382C163.613 100.317 214.347 100.308 245.943 131.384C277.042 162.448 277.05 213.116 245.938 244.672C214.836 275.734 164.106 275.743 132.511 244.67C101.4 213.113 101.41 162.445 132.511 131.382Z" fill="#30BF58" stroke="#30BF58" stroke-width="2"/>
<path d="M133.905 229.513L135.711 231.978V231.753C137.105 233.454 138.584 235.171 140.304 236.889C167.346 263.898 211.105 263.898 238.147 236.889C240.6 234.439 242.561 231.992 244.485 229.59L244.507 229.569L244.931 229.146L244.982 229.094L245.025 229.036C265.189 202.02 262.726 163.719 238.638 139.17L238.631 139.162C211.591 112.155 167.834 112.154 140.792 139.159C115.711 163.722 113.758 202.029 133.905 229.513ZM229.465 228.698L229.457 228.706C207.563 251.049 170.89 251.06 148.501 228.699C147.65 227.848 146.502 226.698 145.622 225.525C155.641 211.145 171.615 202.819 188.983 202.819C206.353 202.819 222.329 211.147 232.347 225.53C231.56 226.603 230.72 227.445 229.465 228.699L229.465 228.698ZM170.116 171.813C170.116 161.234 178.874 152.485 189.468 152.485C200.062 152.485 208.82 161.234 208.82 171.813C208.82 182.391 200.062 191.14 189.468 191.14C178.874 191.14 170.116 182.391 170.116 171.813ZM148.506 147.349C170.885 125.001 207.08 124.991 229.953 147.357C248.635 166.019 251.746 193.367 239.719 215.515C231.847 205.827 221.558 199.039 210.378 195.145C216.6 189.577 220.511 181.154 220.511 172.297C220.511 155.288 206.494 141.29 189.468 141.29C172.441 141.29 158.424 155.288 158.424 172.297C158.424 181.145 162.328 189.561 168.54 195.129C156.959 199.014 146.661 205.793 139.186 215.487C127.196 193.789 130.302 166.001 148.506 147.349Z" fill="#30BF58" stroke="#30BF58" stroke-width="2"/>
<path d="M162.301 307.327C162.301 309.006 162.866 310.483 163.927 311.543C164.988 312.603 166.466 313.166 168.146 313.166H325.632C327.312 313.166 328.79 312.603 329.851 311.543C330.912 310.483 331.477 309.006 331.477 307.327C331.477 305.647 330.912 304.17 329.851 303.11C328.79 302.051 327.312 301.487 325.632 301.487H168.146C166.61 301.487 165.157 302.244 164.108 303.292C163.059 304.339 162.301 305.791 162.301 307.327Z" fill="#30BF58" stroke="#30BF58" stroke-width="2"/>
<path d="M307.701 189.268H317.393C319.073 189.268 320.552 188.704 321.612 187.645C322.673 186.585 323.238 185.108 323.238 183.428C323.238 181.749 322.673 180.271 321.612 179.212C320.552 178.152 319.073 177.588 317.393 177.588H307.701C306.021 177.588 304.542 178.152 303.481 179.212C302.42 180.271 301.855 181.749 301.855 183.428C301.855 185.108 302.42 186.585 303.481 187.645C304.542 188.704 306.021 189.268 307.701 189.268Z" fill="#30BF58" stroke="#30BF58" stroke-width="2"/>
<path d="M307.701 158.293H317.393C319.073 158.293 320.552 157.729 321.612 156.67C322.673 155.61 323.238 154.133 323.238 152.453C323.238 150.774 322.673 149.297 321.612 148.237C320.552 147.177 319.073 146.614 317.393 146.614H307.701C306.021 146.614 304.542 147.177 303.481 148.237C302.42 149.297 301.855 150.774 301.855 152.453C301.855 155.361 304.179 158.293 307.701 158.293Z" fill="#30BF58" stroke="#30BF58" stroke-width="2"/>
<path d="M307.701 219.759H317.393C319.073 219.759 320.552 219.195 321.612 218.135C322.673 217.075 323.238 215.598 323.238 213.919C323.238 212.239 322.673 210.762 321.612 209.702C320.552 208.643 319.073 208.079 317.393 208.079H307.701C306.021 208.079 304.542 208.643 303.481 209.702C302.42 210.762 301.855 212.239 301.855 213.919C301.855 215.598 302.42 217.075 303.481 218.135C304.542 219.195 306.021 219.759 307.701 219.759Z" fill="#30BF58" stroke="#30BF58" stroke-width="2"/>
<path d="M307.701 250.733H317.393C319.073 250.733 320.552 250.169 321.612 249.11C322.673 248.05 323.238 246.573 323.238 244.893C323.238 243.214 322.673 241.737 321.612 240.677C320.552 239.617 319.073 239.053 317.393 239.053H307.701C306.021 239.053 304.542 239.617 303.481 240.677C302.42 241.737 301.855 243.214 301.855 244.893C301.855 246.573 302.42 248.05 303.481 249.11C304.542 250.169 306.021 250.733 307.701 250.733Z" fill="#30BF58" stroke="#30BF58" stroke-width="2"/>
<path d="M307.701 281.708H317.393C319.073 281.708 320.552 281.144 321.612 280.084C322.673 279.025 323.238 277.548 323.238 275.868C323.238 274.188 322.673 272.711 321.612 271.652C320.552 270.592 319.073 270.028 317.393 270.028H307.701C306.021 270.028 304.542 270.592 303.481 271.652C302.42 272.711 301.855 274.188 301.855 275.868C301.855 277.548 302.42 279.025 303.481 280.084C304.542 281.144 306.021 281.708 307.701 281.708Z" fill="#30BF58" stroke="#30BF58" stroke-width="2"/>
</g>
</g>
<defs>
<clipPath id="clip0_350_496">
<rect width="354" height="322" rx="15" fill="white"/>
</clipPath>
</defs>
</svg>
