<svg width="386" height="364" viewBox="0 0 386 364" fill="none" xmlns="http://www.w3.org/2000/svg">
<g opacity="0.15" clip-path="url(#clip0_311_36)">
<path d="M279.916 296.36C309.458 296.36 333.497 272.345 333.497 242.823C333.497 213.301 309.462 189.285 279.916 189.285C250.369 189.285 226.335 213.301 226.335 242.823C226.335 272.345 250.373 296.36 279.916 296.36ZM279.916 200.589C303.222 200.589 322.184 219.535 322.184 242.823C322.184 266.111 303.222 285.056 279.916 285.056C256.609 285.056 237.648 266.111 237.648 242.823C237.648 219.535 256.609 200.589 279.916 200.589ZM405.446 331.922L390.4 317.334C401.483 312.062 409 300.778 409 287.907V102.588C409 84.6159 394.368 70 376.385 70H79.6142C61.6279 70 47 84.6199 47 102.588V287.907C47 305.879 61.6318 320.495 79.6142 320.495H167.234V351.989H131.854C116.061 351.989 103.207 362.756 103.207 375.997V394.35C103.207 397.471 105.738 400 108.862 400H347.134C350.257 400 352.788 397.471 352.788 394.35V375.997C352.788 362.76 339.939 351.989 324.141 351.989H288.762V320.495H335.876C336.302 322.896 337.452 325.095 339.231 326.821L375.884 362.359C378.16 364.565 381.105 365.659 384.046 365.659C387.106 365.659 390.166 364.47 392.462 362.108L405.693 348.482C410.197 343.854 410.086 336.423 405.446 331.922ZM58.3091 287.907V102.588C58.3091 90.8504 67.8674 81.3039 79.6142 81.3039H376.381C388.128 81.3039 397.687 90.8544 397.687 102.588V287.907C397.687 297.835 390.838 306.316 381.387 308.591L368.797 296.384C366.557 294.209 363.572 293.036 360.456 293.084C358.924 293.108 357.44 293.426 356.071 293.999L341.865 280.226C342.872 278.568 343.811 276.862 344.686 275.116H380.798C383.922 275.116 386.453 272.588 386.453 269.466V101.916C386.453 96.7389 382.239 92.5283 377.058 92.5283H78.9378C73.7567 92.5283 69.5427 96.7389 69.5427 101.916V269.47C69.5427 272.592 72.0735 275.12 75.1972 275.12H215.149C222.749 290.273 235.519 302.404 251.133 309.195H79.6142C67.8674 309.195 58.3091 299.645 58.3091 287.907ZM210.632 263.816H80.8518V103.828H375.14V263.816H349.199C351.22 257.168 352.311 250.123 352.311 242.823C352.311 208.251 327.914 179.274 295.423 172.161L305.924 161.211C309.104 162.976 312.761 163.99 316.652 163.99C328.865 163.99 338.805 154.062 338.805 141.855C338.805 129.653 328.869 119.72 316.652 119.72C304.44 119.72 294.5 129.649 294.5 141.855C294.5 146.078 295.689 150.03 297.755 153.39L281.344 170.503C280.867 170.495 280.393 170.483 279.916 170.483C262.984 170.483 247.393 176.323 235.049 186.089L220.159 178.749C220.445 177.325 220.6 175.854 220.6 174.351C220.6 162.149 210.664 152.217 198.448 152.217C186.235 152.217 176.295 162.145 176.295 174.351C176.295 177.866 177.123 181.186 178.587 184.14L151.771 207.476C148.225 205.066 143.947 203.655 139.343 203.655C127.131 203.655 117.191 213.583 117.191 225.789C117.191 237.992 127.127 247.924 139.343 247.924C151.56 247.924 161.496 237.996 161.496 225.789C161.496 222.275 160.668 218.955 159.204 216L186.02 192.665C189.566 195.075 193.848 196.486 198.448 196.486C205.101 196.486 211.074 193.536 215.137 188.88L226.227 194.347C214.608 207.186 207.52 224.191 207.52 242.823C207.516 250.123 208.611 257.168 210.632 263.816ZM305.817 141.855C305.817 135.883 310.679 131.024 316.656 131.024C322.633 131.024 327.496 135.883 327.496 141.855C327.496 147.827 322.633 152.686 316.656 152.686C310.675 152.686 305.817 147.827 305.817 141.855ZM187.608 174.355C187.608 168.383 192.471 163.525 198.448 163.525C204.425 163.525 209.287 168.383 209.287 174.355C209.287 180.327 204.425 185.186 198.448 185.186C192.471 185.186 187.608 180.327 187.608 174.355ZM150.179 225.789C150.179 231.762 145.316 236.62 139.339 236.62C133.362 236.62 128.5 231.762 128.5 225.789C128.5 219.817 133.362 214.959 139.339 214.959C145.316 214.963 150.179 219.817 150.179 225.789ZM279.916 181.791C313.6 181.791 341.002 209.17 341.002 242.827C341.002 276.484 313.6 303.863 279.916 303.863C246.231 303.863 218.83 276.484 218.83 242.827C218.83 209.17 246.231 181.791 279.916 181.791ZM322.876 301.012L331.316 309.195H308.698C313.747 307 318.503 304.245 322.876 301.012ZM343.676 305.43L331.451 293.577C332.745 292.265 333.986 290.905 335.18 289.502L347.524 301.47L343.676 305.43ZM341.475 375.997V388.7H114.517V375.997C114.517 369.11 122.455 363.293 131.85 363.293H324.141C333.536 363.293 341.475 369.114 341.475 375.997ZM277.448 351.993H178.547V320.499H277.448V351.993ZM397.575 340.614L384.344 354.24C384.197 354.391 383.914 354.395 383.763 354.248L347.11 318.71C347.034 318.634 346.994 318.539 346.99 318.419C346.986 318.3 347.026 318.205 347.098 318.129L360.329 304.503C360.405 304.428 360.5 304.388 360.62 304.388H360.627C360.743 304.388 360.838 304.424 360.91 304.495L397.559 340.033C397.718 340.18 397.722 340.463 397.575 340.614Z" fill="#30BF58"/>
</g>
<defs>
<clipPath id="clip0_311_36">
<rect width="386" height="364" fill="white"/>
</clipPath>
</defs>
</svg>
