<svg width="476" height="185" viewBox="0 0 476 185" fill="none" xmlns="http://www.w3.org/2000/svg">
<g opacity="0.05">
<path d="M147.708 54.9032C154.061 53.9484 161.128 51.7204 168.911 48.2194C176.852 44.7183 184.238 40.7398 191.067 36.2839C198.055 31.6688 203.853 26.9742 208.458 22.2C213.223 17.4258 215.606 13.2882 215.606 9.7871C215.606 6.92258 213.859 5.49032 210.364 5.49032C205.6 5.49032 199.088 6.68387 190.829 9.07097C182.57 11.2989 173.279 14.5613 162.955 18.8581C152.79 23.1548 141.911 28.2473 130.316 34.1355C118.881 40.0237 107.525 46.5484 96.2483 53.7097C84.9716 60.7118 74.1715 68.271 63.8479 76.3871C53.5242 84.3441 44.3917 92.6194 36.4505 101.213C28.668 109.806 22.3944 118.559 17.6296 127.471C13.0237 136.383 10.7207 145.215 10.7207 153.968C10.7207 157.31 11.1178 160.492 11.9119 163.516C12.706 166.54 14.2149 169.166 16.4384 171.394C18.8208 173.622 22.1562 175.372 26.4444 176.645C30.7327 177.918 36.371 178.555 43.3594 178.555C54.1595 178.555 64.7214 176.804 75.045 173.303C85.5275 169.961 95.3747 165.665 104.587 160.413C113.798 155.161 122.216 149.512 129.84 143.465C137.622 137.417 144.293 131.768 149.852 126.516C155.57 121.265 160.096 116.888 163.431 113.387C166.767 109.727 168.593 107.817 168.911 107.658C169.07 107.658 169.149 107.658 169.149 107.658C169.308 107.499 169.546 107.419 169.864 107.419C171.134 107.419 172.564 108.056 174.152 109.329C175.74 110.602 176.535 111.875 176.535 113.148C176.535 114.103 174.47 116.57 170.34 120.548C166.37 124.527 160.97 129.221 154.14 134.632C147.311 139.884 139.369 145.454 130.316 151.342C121.422 157.23 112.051 162.641 102.204 167.574C92.357 172.667 82.351 176.804 72.1862 179.987C62.1802 183.329 52.6507 185 43.5976 185C37.8799 185 32.321 184.363 26.9209 183.09C21.6797 181.817 17.0737 179.669 13.1031 176.645C9.13247 173.622 5.95596 169.723 3.57357 164.948C1.19119 160.333 0 154.525 0 147.523C0 139.247 1.90591 130.892 5.71772 122.458C9.68836 113.865 15.0884 105.351 21.9179 96.9161C28.7474 88.3226 36.6887 80.0473 45.7417 72.0903C54.7948 63.9742 64.5626 56.3355 75.045 49.1742C85.5275 42.0129 96.3277 35.4086 107.445 29.3613C118.722 23.314 129.84 18.1419 140.799 13.8452C151.758 9.54839 162.24 6.20645 172.246 3.81935C182.411 1.27312 191.702 0 200.12 0C207.744 0 213.938 1.43226 218.703 4.29677C219.497 4.77419 220.529 6.44516 221.8 9.30968C223.229 12.1742 223.944 15.2774 223.944 18.6194C223.944 22.5978 222.594 26.5763 219.894 30.5548C217.353 34.5333 213.938 38.3527 209.65 42.0129C205.52 45.6731 200.835 49.1742 195.594 52.5161C190.352 55.6989 185.111 58.4839 179.87 60.871C174.787 63.2581 169.943 65.1677 165.337 66.6C160.731 67.8731 156.999 68.5097 154.14 68.5097H152.472C151.996 68.5097 151.202 68.1118 150.09 67.3161C149.137 66.5204 148.184 65.6452 147.231 64.6903C146.278 63.5763 145.405 62.4624 144.611 61.3484C143.816 60.0753 143.419 58.9613 143.419 58.0065C143.419 57.2108 143.737 56.5742 144.372 56.0968C145.008 55.4602 146.119 55.0624 147.708 54.9032Z" fill="white"/>
<path d="M249.674 116.013C249.833 115.695 250.23 115.456 250.865 115.297C251.5 114.978 251.818 115.297 251.818 116.252C251.818 117.843 251.5 119.116 250.865 120.071C250.388 120.867 250.071 121.344 249.912 121.503C242.129 129.938 234.903 137.417 228.232 143.942C221.72 150.467 215.685 155.877 210.126 160.174C204.726 164.471 200.517 166.619 197.5 166.619C194.799 166.619 192.576 165.267 190.829 162.561C189.082 159.856 188.208 156.753 188.208 153.252C188.208 151.024 189.161 147.841 191.067 143.703C192.973 139.566 195.435 134.951 198.452 129.858C195.117 133.359 191.623 136.86 187.97 140.361C184.476 143.703 181.061 146.727 177.726 149.432C174.549 151.978 171.611 154.047 168.911 155.639C166.37 157.389 164.305 158.265 162.717 158.265C161.764 158.265 160.414 157.946 158.667 157.31C157.078 156.832 155.411 155.877 153.664 154.445C152.075 153.172 150.725 151.342 149.614 148.955C148.343 146.409 147.708 143.226 147.708 139.406C147.708 136.224 148.661 132.563 150.567 128.426C152.472 124.129 155.014 119.832 158.19 115.535C161.367 111.239 164.94 107.022 168.911 102.884C172.882 98.7462 176.932 95.086 181.061 91.9032C185.191 88.5613 189.241 85.9355 193.211 84.0258C197.182 81.957 200.676 80.9226 203.694 80.9226C206.235 80.9226 208.538 81.4 210.603 82.3548C212.826 83.3097 214.732 84.5828 216.32 86.1742C217.909 87.7656 219.1 89.5161 219.894 91.4258C220.847 93.3355 221.323 95.3247 221.323 97.3935C221.323 97.5527 221.244 97.6323 221.085 97.6323C221.085 97.6323 221.085 97.7118 221.085 97.871C224.579 93.8925 227.041 91.9032 228.47 91.9032C229.265 91.9032 230.138 92.3806 231.091 93.3355C232.044 94.1312 232.918 95.2452 233.712 96.6774C234.506 97.9505 235.141 99.3032 235.618 100.735C236.094 102.168 236.332 103.361 236.332 104.316C236.332 104.794 235.379 106.385 233.473 109.09C231.726 111.637 229.503 114.74 226.803 118.4C224.262 122.06 221.403 126.039 218.226 130.335C215.05 134.473 212.111 138.531 209.411 142.51C206.87 146.329 204.647 149.83 202.741 153.013C200.994 156.196 200.12 158.503 200.12 159.935C200.12 160.254 200.279 160.413 200.597 160.413C201.55 160.413 203.614 159.06 206.791 156.355C209.967 153.809 213.7 150.546 217.988 146.568C222.276 142.43 226.882 137.895 231.806 132.961C236.888 128.028 240.541 124.527 242.765 122.458C245.147 120.23 247.45 118.082 249.674 116.013ZM161.287 151.103C163.193 151.103 165.734 150.148 168.911 148.239C172.087 146.17 175.582 143.544 179.393 140.361C183.364 137.178 187.493 133.518 191.782 129.381C196.07 125.084 200.279 120.787 204.408 116.49C203.614 116.172 202.9 115.695 202.264 115.058C201.788 114.422 201.55 113.705 201.55 112.91C201.55 112.432 202.185 111.557 203.455 110.284C204.885 109.011 206.394 107.578 207.982 105.987C209.57 104.237 211 102.327 212.27 100.258C213.7 98.1892 214.414 96.2 214.414 94.2903C214.414 92.5398 213.541 91.6645 211.794 91.6645C210.364 91.6645 208.061 92.6989 204.885 94.7677C201.708 96.8366 198.135 99.6215 194.164 103.123C190.352 106.465 186.382 110.284 182.252 114.581C178.282 118.718 174.549 122.935 171.055 127.232C167.72 131.529 164.94 135.587 162.717 139.406C160.652 143.226 159.62 146.488 159.62 149.194C159.62 150.467 160.176 151.103 161.287 151.103Z" fill="white"/>
<path d="M333.534 117.684C333.851 117.366 334.248 117.127 334.725 116.968C335.36 116.649 335.678 116.968 335.678 117.923C335.678 119.514 335.36 120.787 334.725 121.742C334.248 122.538 333.931 123.015 333.772 123.174C327.26 129.381 321.304 135.189 315.904 140.6C310.504 145.852 305.58 150.069 301.133 153.252C296.845 156.594 293.112 158.265 289.936 158.265C287.871 158.265 285.568 157.151 283.027 154.923C280.645 152.854 279.453 149.034 279.453 143.465C279.453 140.759 280.565 137.019 282.789 132.245C285.171 127.471 288.03 122.458 291.365 117.206C286.124 122.776 281.042 128.028 276.118 132.961C271.195 137.895 266.589 142.271 262.3 146.09C258.012 149.751 254.121 152.695 250.627 154.923C247.132 157.151 244.194 158.265 241.812 158.265C239.906 158.265 237.682 157.151 235.141 154.923C232.6 152.854 231.329 149.034 231.329 143.465C231.329 141.555 231.965 139.088 233.235 136.065C234.506 132.882 236.094 129.54 238 126.039C240.065 122.378 242.368 118.639 244.909 114.819C247.609 111 250.309 107.26 253.009 103.6C255.074 100.576 257.377 97.4731 259.918 94.2903C262.459 90.9484 264.842 87.9247 267.065 85.2194C269.447 82.514 271.512 80.286 273.259 78.5355C275.165 76.7849 276.515 75.9097 277.309 75.9097C278.103 75.9097 278.977 76.3871 279.93 77.3419C280.883 78.1376 281.756 79.2516 282.551 80.6839C283.345 81.957 283.98 83.3097 284.456 84.7419C284.933 86.1742 285.171 87.3677 285.171 88.3226C285.171 88.8 284.139 90.471 282.074 93.3355C280.168 96.2 277.706 99.7011 274.689 103.839C271.671 107.817 268.336 112.194 264.683 116.968C261.189 121.742 257.933 126.277 254.915 130.574C251.897 134.871 249.356 138.77 247.291 142.271C245.385 145.613 244.432 148 244.432 149.432C244.432 149.91 244.591 150.148 244.909 150.148C246.338 150.148 248.562 149.114 251.58 147.045C254.597 144.817 258.091 142.032 262.062 138.69C266.033 135.189 270.242 131.29 274.689 126.994C279.136 122.538 283.583 118.082 288.03 113.626C292.477 109.17 296.686 104.873 300.657 100.735C304.627 96.5978 308.121 93.0172 311.139 89.9935C313.363 87.2882 315.348 85.1398 317.095 83.5484C318.842 81.7979 320.113 80.9226 320.907 80.9226C321.701 80.9226 322.575 81.4 323.528 82.3548C324.48 83.3097 325.354 84.4237 326.148 85.6968C326.942 86.9699 327.578 88.4021 328.054 89.9935C328.531 91.4258 328.769 92.6194 328.769 93.5742C328.769 94.0516 327.816 95.643 325.91 98.3484C324.163 100.895 321.939 103.998 319.239 107.658C316.698 111.318 313.839 115.297 310.663 119.594C307.486 123.89 304.548 128.028 301.848 132.006C299.307 135.985 297.083 139.566 295.177 142.748C293.43 145.772 292.557 148 292.557 149.432C292.557 149.91 292.715 150.148 293.033 150.148C295.415 150.148 298.274 148.796 301.61 146.09C305.104 143.385 309.233 139.645 313.998 134.871C318.763 130.097 325.275 124.368 333.534 117.684ZM322.336 70.1806C321.86 70.4989 319.716 70.8172 315.904 71.1355C312.251 71.2946 308.201 71.3742 303.754 71.3742C299.307 71.215 295.257 70.9763 291.604 70.6581C287.951 70.1806 286.045 69.3054 285.886 68.0323C285.727 66.1226 286.045 64.2129 286.839 62.3032C287.633 60.3935 288.586 58.643 289.698 57.0516C290.968 55.4602 292.16 54.1871 293.271 53.2323C294.542 52.1183 295.415 51.4817 295.892 51.3226C297.163 50.5269 298.274 50.3677 299.227 50.8452C304.151 52.7548 308.28 54.028 311.616 54.6645C315.11 55.3011 317.969 55.6989 320.192 55.8581C322.575 56.0172 324.48 56.0968 325.91 56.0968C327.339 55.9376 328.531 55.9376 329.483 56.0968C330.436 56.2559 331.151 56.7333 331.628 57.529C332.104 58.3247 332.184 59.3591 331.866 60.6323C331.548 61.9054 330.595 63.4172 329.007 65.1677C327.578 66.7591 325.354 68.4301 322.336 70.1806Z" fill="white"/>
<path d="M473.856 118.161C474.174 117.843 474.571 117.604 475.047 117.445C475.682 117.127 476 117.445 476 118.4C476 119.991 475.762 121.265 475.285 122.219C474.809 123.015 474.412 123.492 474.094 123.652C471.712 126.039 469.965 127.869 468.853 129.142C467.741 130.256 464.882 133.12 460.276 137.735C455.829 142.191 451.461 146.249 447.173 149.91C442.885 153.57 438.835 156.514 435.023 158.742C431.37 161.129 428.273 162.323 425.732 162.323C422.873 162.323 420.57 160.97 418.823 158.265C417.235 155.559 416.44 152.535 416.44 149.194C416.44 146.17 417.552 142.351 419.776 137.735C422.158 133.12 424.779 128.585 427.638 124.129C430.655 119.514 433.514 115.376 436.214 111.716C438.914 108.056 440.661 105.669 441.455 104.555C442.726 102.804 443.679 101.372 444.314 100.258C445.108 99.1441 445.506 98.2688 445.506 97.6323C445.506 97.1548 445.267 96.9161 444.791 96.9161C442.726 96.9161 439.55 98.3484 435.261 101.213C431.132 103.918 426.526 107.419 421.443 111.716C416.52 115.854 411.358 120.469 405.958 125.561C400.717 130.495 395.873 135.11 391.425 139.406C386.978 143.703 383.325 147.363 380.466 150.387C377.608 153.411 376.099 155.082 375.94 155.4L376.178 154.445C376.019 154.763 375.94 155.082 375.94 155.4C373.081 155.4 370.778 154.047 369.031 151.342C367.443 148.637 366.649 145.533 366.649 142.032C366.649 139.009 367.919 135.11 370.46 130.335C373.16 125.561 376.178 120.787 379.514 116.013C382.849 111.239 386.025 106.942 389.043 103.123C392.061 99.3032 393.967 96.8366 394.761 95.7226C395.873 94.1312 396.746 92.7785 397.381 91.6645C398.176 90.3914 398.573 89.4366 398.573 88.8C398.573 88.3226 398.334 88.0839 397.858 88.0839C395.793 88.0839 392.458 89.7548 387.852 93.0968C383.246 96.4387 378.164 100.576 372.605 105.51C367.046 110.443 361.249 115.854 355.213 121.742C349.178 127.63 343.698 133.12 338.775 138.213C333.851 143.146 329.722 147.363 326.386 150.865C323.21 154.366 321.542 156.275 321.383 156.594L321.622 155.639C320.033 157.708 319.001 158.742 318.525 158.742C317.73 158.901 316.539 158.265 314.951 156.832C313.204 155.4 311.774 153.57 310.663 151.342C310.345 150.705 310.186 149.989 310.186 149.194C310.186 148.239 310.583 147.125 311.377 145.852C313.442 142.669 315.983 138.611 319.001 133.677C322.019 128.744 325.275 123.572 328.769 118.161C332.263 112.751 335.837 107.34 339.49 101.929C343.142 96.5183 346.557 91.6645 349.734 87.3677C351.004 85.6172 351.957 84.0258 352.593 82.5935C353.387 81.1613 354.022 79.9677 354.499 79.0129C354.975 78.0581 355.451 77.3419 355.928 76.8645C356.563 76.3871 357.516 76.1484 358.787 76.1484C360.216 76.1484 361.725 77.3419 363.313 79.729C365.06 81.957 366.252 84.2645 366.887 86.6516C367.205 88.0839 367.125 89.2774 366.649 90.2323C366.172 91.1871 365.299 92.5398 364.028 94.2903C362.916 95.8817 361.487 97.9505 359.74 100.497C357.993 102.884 356.087 105.51 354.022 108.374C352.116 111.239 350.051 114.262 347.828 117.445C345.604 120.628 343.46 123.731 341.395 126.755C345.843 122.458 350.925 117.604 356.643 112.194C362.519 106.783 368.316 101.69 374.034 96.9161C379.911 92.1419 385.311 88.0839 390.234 84.7419C395.158 81.4 398.89 79.729 401.431 79.729C404.131 79.729 406.832 81.4 409.532 84.7419C412.39 87.9247 413.82 92.3011 413.82 97.871C413.82 98.6667 413.105 100.178 411.676 102.406C410.405 104.475 408.737 106.942 406.673 109.806C404.608 112.671 402.226 115.774 399.526 119.116C396.984 122.458 394.443 125.88 391.902 129.381C395.714 125.88 400.32 121.742 405.72 116.968C411.12 112.194 416.52 107.738 421.92 103.6C427.479 99.4624 432.561 95.9613 437.167 93.0968C441.932 90.0731 445.664 88.5613 448.364 88.5613C449.635 88.5613 450.985 89.0387 452.414 89.9935C454.003 90.7892 455.353 91.9828 456.464 93.5742C457.735 95.0064 458.767 96.8366 459.562 99.0645C460.356 101.292 460.753 103.839 460.753 106.703C460.753 107.658 459.959 109.329 458.37 111.716C456.782 114.103 454.797 116.809 452.414 119.832C450.032 122.856 447.491 126.118 444.791 129.619C442.091 133.12 439.55 136.542 437.167 139.884C434.785 143.067 432.799 146.011 431.211 148.716C429.623 151.422 428.829 153.49 428.829 154.923C428.829 155.241 428.988 155.4 429.305 155.4C431.688 155.4 434.944 153.809 439.073 150.626C443.203 147.284 448.047 142.908 453.606 137.497C459.165 131.927 465.915 125.482 473.856 118.161Z" fill="white"/>
</g>
</svg>
