<svg width="549" height="136" viewBox="0 0 549 136" fill="none" xmlns="http://www.w3.org/2000/svg">
<path d="M163.066 0.0155362C165.344 -0.0983961 167.737 0.414299 170.243 1.55362C172.864 2.69295 175.199 4.34496 177.25 6.50968C179.415 8.56046 181.238 11.01 182.719 13.8583C184.2 16.5927 184.941 19.498 184.941 22.5741C185.168 27.0175 184.2 32.0305 182.035 37.6132C179.073 45.0188 174.972 51.7978 169.731 57.9501C164.49 63.9885 158.508 69.4573 151.786 74.3564C145.178 79.1415 138 83.357 130.253 87.0028C122.62 90.5347 114.872 93.497 107.011 95.8896C99.2635 98.2821 91.63 100.048 84.1105 101.187C76.7049 102.327 69.9259 102.839 63.7736 102.725C60.4696 102.725 57.1086 102.498 53.6906 102.042C50.2726 101.586 46.9686 100.903 43.7785 99.9911C38.1958 105.118 32.784 110.188 27.5431 115.201C22.3022 120.1 17.3462 124.885 12.675 129.557L12.5041 129.727C11.8205 130.525 11.0229 131.322 10.1115 132.12C9.31397 133.031 8.45947 133.772 7.54801 134.342C6.86442 134.684 6.06689 134.911 5.15544 135.025C4.24398 135.253 3.38949 135.31 2.59196 135.196C1.79443 135.082 1.16781 134.797 0.712077 134.342C0.142415 134 -0.0854492 133.487 0.0284831 132.804C0.142415 131.664 1.05387 129.727 2.76286 126.993C4.35791 124.373 6.46566 121.239 9.0861 117.594C11.7065 114.062 14.7257 110.131 18.1437 105.802C21.5617 101.472 25.0936 97.0858 28.7394 92.6425C26.4608 90.8196 24.467 88.6549 22.758 86.1483C22.1883 85.6926 21.8465 85.1799 21.7326 84.6103C21.5047 84.2685 21.5617 83.9267 21.9035 83.5849C22.1313 83.4709 22.2453 83.4709 22.2453 83.5849C22.3592 83.6988 22.5301 83.8127 22.758 83.9267C25.2645 85.7496 28.2267 87.4016 31.6447 88.8827C35.5184 84.0976 39.3351 79.4833 43.0949 75.0399C46.8547 70.4827 50.3296 66.3241 53.5197 62.5644C56.7098 58.8046 59.4442 55.6145 61.7228 52.9941C64.0015 50.3736 65.5395 48.5507 66.3371 47.5253C70.4386 42.7401 74.5402 38.012 78.6418 33.3407C82.7433 28.6695 86.4461 24.3401 89.7502 20.3524C93.1681 16.3648 96.0734 12.9469 98.466 10.0985C100.859 7.25024 102.511 5.19946 103.422 3.9462C103.992 3.37654 104.277 2.74991 104.277 2.06632C104.504 0.243401 105.416 -0.155362 107.011 0.870028C108.264 1.66755 109.176 2.52205 109.745 3.43351C110.201 3.88923 110.6 4.34496 110.942 4.80069C111.397 5.14249 111.796 5.59822 112.138 6.16788C114.189 8.90226 114.018 11.4657 111.625 13.8583L110.771 14.7128C107.125 18.8144 103.422 22.9729 99.6623 27.1884C96.3582 30.8342 92.7124 34.8788 88.7248 39.3222C84.7371 43.6516 80.8634 47.981 77.1037 52.3105C69.3563 61.0832 62.8052 68.6028 57.4504 74.869C52.0955 81.0214 47.1965 86.775 42.7531 92.1298C42.981 92.2437 43.2658 92.3007 43.6076 92.3007C43.9494 92.3007 44.2342 92.3577 44.4621 92.4716C48.5636 88.5979 52.8931 84.5533 57.4504 80.3378C62.1216 76.1223 66.8498 71.8498 71.6349 67.5204C76.4201 63.191 81.2052 58.8616 85.9904 54.5321C90.8895 50.2027 95.6746 46.0442 100.346 42.0566C110.942 32.942 119.657 25.7073 126.493 20.3524C133.443 14.8837 139.14 10.6682 143.583 7.70597C148.14 4.74373 151.843 2.80688 154.692 1.89542C157.54 0.870028 160.331 0.243401 163.066 0.0155362ZM35.4045 101.017C35.9741 100.561 36.4868 100.105 36.9425 99.6493C37.3983 99.1936 37.911 98.6809 38.4806 98.1112C38.2528 98.1112 38.0819 98.0543 37.9679 97.9403L35.4045 101.017ZM172.123 33.5116C174.06 29.524 175.313 25.8212 175.883 22.4032C176.453 18.8713 176.453 15.8521 175.883 13.3456C175.313 10.8391 174.174 8.95922 172.465 7.70597C170.756 6.33878 168.648 5.76912 166.142 5.99698C165.002 6.11091 163.863 6.28181 162.724 6.50968C161.584 6.62361 160.16 7.07934 158.451 7.87686C156.742 8.67439 154.578 9.87068 151.957 11.4657C149.337 13.0608 145.976 15.3394 141.874 18.3017C137.773 21.2639 132.76 25.0806 126.835 29.7519C121.025 34.3092 113.961 39.9488 105.644 46.6708C101.998 49.6331 98.0672 52.8801 93.8517 56.412C89.6362 59.9439 85.1929 63.7037 80.5216 67.6913C75.8504 71.6789 71.0083 75.8375 65.9953 80.1669C61.0962 84.4963 56.1971 88.8827 51.298 93.3261C53.5767 93.5539 55.8553 93.7248 58.134 93.8388C60.4126 93.8388 62.6912 93.7818 64.9699 93.6679C70.6665 93.44 76.8758 92.6425 83.5978 91.2753C90.3198 89.9081 97.0988 88.0282 103.935 85.6357C110.885 83.2431 117.778 80.3378 124.613 76.9198C131.563 73.5019 138 69.6282 143.925 65.2987C149.963 60.8554 155.432 56.0133 160.331 50.7724C165.23 45.4176 169.161 39.664 172.123 33.5116Z" fill="white" fill-opacity="0.05"/>
<path d="M222.06 84.2685C222.174 84.0406 222.459 83.8697 222.914 83.7558C223.37 83.5279 223.598 83.7558 223.598 84.4394C223.598 85.5787 223.37 86.4901 222.914 87.1737C222.572 87.7434 222.345 88.0852 222.231 88.1991C221.319 89.1106 220.237 90.136 218.984 91.2753C217.844 92.4146 215.452 94.6363 211.806 97.9403C208.046 101.13 204.172 104.093 200.185 106.827C196.197 109.447 192.096 111.669 187.88 113.492C183.778 115.201 179.791 116.056 175.917 116.056C171.816 116.056 168.625 114.973 166.347 112.809C164.182 110.644 163.1 107.625 163.1 103.751C163.1 100.789 163.726 97.6555 164.98 94.3515C166.119 91.0474 167.714 87.7434 169.765 84.4394C171.816 81.1353 174.208 78.0022 176.943 75.0399C179.563 71.9638 182.297 69.2864 185.146 67.0077C188.108 64.6151 191.07 62.7353 194.032 61.3681C196.995 60.0009 199.843 59.3173 202.577 59.3173C203.489 59.3173 204.685 59.4882 206.166 59.83C207.533 60.0579 208.901 60.5136 210.268 61.1972C211.635 61.8808 212.774 62.8492 213.686 64.1024C214.711 65.2418 215.224 66.7229 215.224 68.5458C215.224 71.508 214.483 74.2424 213.002 76.7489C211.407 79.2554 209.413 81.5341 207.021 83.5849C204.628 85.5217 202.008 87.2877 199.159 88.8827C196.197 90.3638 193.349 91.6171 190.614 92.6425C187.766 93.5539 185.146 94.2945 182.753 94.8642C180.474 95.3199 178.765 95.4908 177.626 95.3769C176.031 97.9973 174.835 100.447 174.037 102.725C173.126 105.004 172.67 107.112 172.67 109.049C172.67 109.732 172.841 110.245 173.183 110.587C173.525 110.815 174.55 110.929 176.259 110.929C182.183 110.929 187.823 109.504 193.178 106.656C198.647 103.808 203.774 100.39 208.559 96.4023C213.344 92.3007 217.844 88.2561 222.06 84.2685ZM210.61 67.3495C210.61 66.2102 210.04 65.6405 208.901 65.6405C207.306 65.6405 205.369 66.3811 203.09 67.8622C200.697 69.2294 198.191 71.1093 195.57 73.5019C192.95 75.7805 190.387 78.4579 187.88 81.5341C185.26 84.4963 182.867 87.5155 180.702 90.5917C184.006 89.7942 187.424 88.484 190.956 86.661C194.488 84.7242 197.678 82.6164 200.527 80.3378C203.489 78.0592 205.938 75.7805 207.875 73.5019C209.698 71.1093 210.61 69.0585 210.61 67.3495Z" fill="white" fill-opacity="0.05"/>
<path d="M254.052 119.644C253.254 119.303 252.457 118.733 251.659 117.935C249.836 116.454 248.925 113.72 248.925 109.732C248.925 107.795 249.722 105.118 251.318 101.7C253.027 98.2821 255.077 94.6933 257.47 90.9335C253.71 94.9211 250.064 98.6809 246.532 102.213C243 105.745 239.696 108.878 236.62 111.612C233.544 114.233 230.753 116.34 228.246 117.935C225.74 119.531 223.632 120.328 221.923 120.328C220.556 120.328 218.961 119.531 217.138 117.935C215.315 116.454 214.403 113.72 214.403 109.732C214.403 108.365 214.859 106.599 215.771 104.434C216.682 102.156 217.821 99.7633 219.189 97.2567C220.67 94.6363 222.322 91.9589 224.145 89.2245C226.082 86.4901 228.018 83.8127 229.955 81.1923C231.436 79.0276 233.088 76.8059 234.911 74.5273C236.734 72.1347 238.443 69.97 240.038 68.0331C241.747 66.0963 243.228 64.5012 244.482 63.248C245.849 61.9947 246.817 61.3681 247.387 61.3681C247.957 61.3681 248.583 61.7099 249.267 62.3935C249.95 62.9631 250.577 63.7607 251.147 64.786C251.716 65.6975 252.172 66.6659 252.514 67.6913C252.856 68.7167 253.027 69.5712 253.027 70.2548C253.027 70.5966 252.286 71.7929 250.805 73.8437C249.438 75.8944 247.672 78.401 245.507 81.3632C243.342 84.2115 240.95 87.3446 238.329 90.7626C235.823 94.1806 233.487 97.4276 231.322 100.504C229.158 103.58 227.335 106.371 225.854 108.878C224.486 111.27 223.803 112.979 223.803 114.005C223.803 114.347 223.917 114.517 224.145 114.517C225.17 114.517 226.765 113.777 228.93 112.296C231.095 110.701 233.601 108.707 236.449 106.314C239.298 103.808 242.317 101.017 245.507 97.9403C248.697 94.7502 251.887 91.5601 255.077 88.37C258.267 85.1799 261.287 82.1037 264.135 79.1415C266.983 76.1793 269.49 73.6158 271.654 71.4511C273.25 69.5142 274.674 67.9761 275.927 66.8368C277.18 65.5836 278.092 64.9569 278.661 64.9569C279.231 64.9569 279.858 65.2987 280.541 65.9823C281.225 66.6659 281.851 67.4635 282.421 68.3749C282.991 69.2864 283.446 70.3118 283.788 71.4511C284.13 72.4765 284.301 73.331 284.301 74.0146C284.301 74.3564 283.617 75.4957 282.25 77.4325C280.997 79.2554 279.402 81.4771 277.465 84.0976C275.642 86.718 273.591 89.5663 271.313 92.6425C269.034 95.7187 266.926 98.6809 264.989 101.529C263.166 104.378 261.628 106.884 260.375 109.049C260.033 109.618 259.692 110.188 259.35 110.758H259.521C258.837 112.239 258.495 113.321 258.495 114.005C258.495 114.347 258.609 114.517 258.837 114.517C259.862 114.517 261.458 113.777 263.622 112.296C265.787 110.701 268.293 108.707 271.142 106.314C273.99 103.808 277.009 101.017 280.199 97.9403C283.389 94.7502 286.58 91.5601 289.77 88.37C292.96 85.1799 295.979 82.1037 298.827 79.1415C301.676 76.1793 304.182 73.6158 306.347 71.4511C307.942 69.5142 309.366 67.9761 310.619 66.8368C311.873 65.5836 312.784 64.9569 313.354 64.9569C313.923 64.9569 314.55 65.2987 315.234 65.9823C315.917 66.6659 316.544 67.4635 317.113 68.3749C317.683 69.2864 318.139 70.3118 318.481 71.4511C318.822 72.4765 318.993 73.331 318.993 74.0146C318.993 74.3564 318.31 75.4957 316.943 77.4325C315.689 79.2554 314.094 81.4771 312.157 84.0976C310.334 86.718 308.284 89.5663 306.005 92.6425C303.726 95.7187 301.619 98.6809 299.682 101.529C297.859 104.378 296.264 106.941 294.897 109.22C293.643 111.384 293.017 112.979 293.017 114.005C293.017 114.347 293.131 114.517 293.359 114.517C295.068 114.517 297.118 113.549 299.511 111.612C302.017 109.675 304.98 106.998 308.398 103.58C311.816 100.162 316.487 96.0605 322.411 91.2753C322.639 91.0474 322.924 90.8765 323.266 90.7626C323.722 90.5347 323.949 90.7626 323.949 91.4462C323.949 92.5855 323.722 93.497 323.266 94.1806C322.924 94.7502 322.696 95.092 322.582 95.206C317.911 99.6493 313.638 103.808 309.765 107.682C305.891 111.441 302.359 114.461 299.169 116.739C296.093 119.132 293.416 120.328 291.137 120.328C289.656 120.328 288.004 119.531 286.181 117.935C284.472 116.454 283.617 113.72 283.617 109.732C283.617 107.795 284.415 105.118 286.01 101.7C287.719 98.2821 289.77 94.6933 292.162 90.9335C288.402 94.9211 284.757 98.6809 281.225 102.213C277.693 105.745 274.389 108.878 271.313 111.612C268.236 114.233 265.445 116.34 262.939 117.935C260.432 119.531 258.324 120.328 256.615 120.328C255.818 120.328 254.963 120.1 254.052 119.644Z" fill="white" fill-opacity="0.05"/>
<path d="M378.5 84.2685C378.614 84.0406 378.899 83.8697 379.355 83.7558C379.81 83.5279 380.038 83.7558 380.038 84.4394C380.038 85.5787 379.81 86.4901 379.355 87.1737C379.013 87.7434 378.785 88.0852 378.671 88.1991C377.76 89.1106 376.677 90.136 375.424 91.2753C374.285 92.4146 371.892 94.6363 368.246 97.9403C364.486 101.13 360.613 104.093 356.625 106.827C352.638 109.447 348.536 111.669 344.32 113.492C340.219 115.201 336.231 116.056 332.358 116.056C328.256 116.056 325.066 114.973 322.787 112.809C320.623 110.644 319.54 107.625 319.54 103.751C319.54 100.789 320.167 97.6555 321.42 94.3515C322.559 91.0474 324.154 87.7434 326.205 84.4394C328.256 81.1353 330.649 78.0022 333.383 75.0399C336.003 71.9638 338.738 69.2864 341.586 67.0077C344.548 64.6151 347.511 62.7353 350.473 61.3681C353.435 60.0009 356.283 59.3173 359.018 59.3173C359.929 59.3173 361.125 59.4882 362.607 59.83C363.974 60.0579 365.341 60.5136 366.708 61.1972C368.075 61.8808 369.215 62.8492 370.126 64.1024C371.152 65.2418 371.664 66.7229 371.664 68.5458C371.664 71.508 370.924 74.2424 369.443 76.7489C367.847 79.2554 365.854 81.5341 363.461 83.5849C361.069 85.5217 358.448 87.2877 355.6 88.8827C352.638 90.3638 349.789 91.6171 347.055 92.6425C344.207 93.5539 341.586 94.2945 339.194 94.8642C336.915 95.3199 335.206 95.4908 334.067 95.3769C332.472 97.9973 331.275 100.447 330.478 102.725C329.566 105.004 329.111 107.112 329.111 109.049C329.111 109.732 329.281 110.245 329.623 110.587C329.965 110.815 330.99 110.929 332.699 110.929C338.624 110.929 344.263 109.504 349.618 106.656C355.087 103.808 360.214 100.39 364.999 96.4023C369.784 92.3007 374.285 88.2561 378.5 84.2685ZM367.05 67.3495C367.05 66.2102 366.48 65.6405 365.341 65.6405C363.746 65.6405 361.809 66.3811 359.53 67.8622C357.138 69.2294 354.631 71.1093 352.011 73.5019C349.39 75.7805 346.827 78.4579 344.32 81.5341C341.7 84.4963 339.307 87.5155 337.143 90.5917C340.447 89.7942 343.865 88.484 347.397 86.661C350.929 84.7242 354.119 82.6164 356.967 80.3378C359.929 78.0592 362.379 75.7805 364.316 73.5019C366.138 71.1093 367.05 69.0585 367.05 67.3495Z" fill="white" fill-opacity="0.05"/>
<path d="M418.695 90.2499C420.177 87.8573 421.772 85.3508 423.481 82.7304C425.645 79.5403 427.696 76.635 429.633 74.0146C431.684 71.3941 433.507 69.2294 435.102 67.5204C436.811 65.8114 438.007 64.9569 438.691 64.9569C439.26 64.9569 439.887 65.2987 440.57 65.9823C441.254 66.6659 441.881 67.4635 442.45 68.3749C443.02 69.2864 443.476 70.3118 443.818 71.4511C444.159 72.4765 444.33 73.331 444.33 74.0146C444.33 74.4703 443.704 75.5526 442.45 77.2616C441.311 78.9706 439.83 81.0784 438.007 83.5849C436.184 85.9774 434.19 88.6549 432.026 91.6171C429.861 94.4654 427.867 97.2567 426.044 99.9911C424.221 102.612 422.683 105.004 421.43 107.169C420.291 109.334 419.721 110.929 419.721 111.954C419.721 112.182 419.892 112.296 420.234 112.296C422.284 112.296 424.905 111.043 428.095 108.536C431.399 105.916 434.532 103.181 437.494 100.333C440.457 97.3707 443.647 94.2375 447.065 90.9335C447.292 90.7056 447.577 90.5347 447.919 90.4208C448.375 90.1929 448.603 90.4208 448.603 91.1044C448.603 92.2437 448.375 93.1552 447.919 93.8388C447.577 94.4084 447.349 94.7502 447.236 94.8642C445.527 96.6871 443.305 99.0797 440.57 102.042C437.95 104.89 435.273 107.397 432.538 109.561C429.804 111.726 427.183 113.492 424.677 114.859C422.17 116.113 419.949 116.739 418.012 116.739C415.961 116.739 414.309 115.771 413.056 113.834C411.916 111.897 411.347 109.675 411.347 107.169C411.347 105.688 411.916 103.637 413.056 101.017C413.739 99.5354 414.48 97.9973 415.277 96.4023C413.682 97.1998 412.087 97.9403 410.492 98.6239C406.277 100.447 402.232 101.358 398.359 101.358C395.168 101.358 392.548 100.675 390.497 99.3075C389.016 101.472 387.364 103.922 385.541 106.656C380.072 114.745 377.281 118.904 377.167 119.132L377.509 118.448C376.256 119.929 375.458 120.67 375.116 120.67C374.547 120.784 373.692 120.328 372.553 119.303C371.414 118.277 370.388 116.967 369.477 115.372C369.021 114.233 369.249 112.922 370.16 111.441C371.527 109.163 373.293 106.257 375.458 102.725C377.737 99.1936 380.129 95.4908 382.636 91.6171C385.142 87.7434 387.649 83.8697 390.155 79.996C392.776 76.1223 395.225 72.6474 397.504 69.5712C398.529 68.3179 399.27 67.1786 399.726 66.1532C400.181 65.1278 400.58 64.2733 400.922 63.5898C401.378 62.9062 401.777 62.3935 402.118 62.0517C402.574 61.7099 403.201 61.539 403.998 61.539C405.024 61.539 406.163 62.3935 407.416 64.1024C408.669 65.6975 409.524 67.3495 409.98 69.0585C410.208 70.0839 410.151 70.9384 409.809 71.622C409.467 72.3056 408.84 73.274 407.929 74.5273C407.017 75.6666 405.935 77.1477 404.682 78.9706C403.429 80.6796 402.061 82.5595 400.58 84.6103C399.213 86.661 397.732 88.8258 396.137 91.1044C395.909 91.4462 395.624 91.9019 395.282 92.4716C395.168 93.0412 395.111 93.6679 395.111 94.3515C395.111 95.0351 395.282 95.5478 395.624 95.8896C395.966 96.1174 396.991 96.2314 398.7 96.2314C404.625 96.2314 410.321 94.8072 415.79 91.9589C416.816 91.3892 417.784 90.8196 418.695 90.2499Z" fill="white" fill-opacity="0.05"/>
<path d="M517.851 91.2753C518.079 91.0474 518.363 90.8765 518.705 90.7626C519.161 90.5347 519.389 90.7626 519.389 91.4462C519.389 92.5855 519.161 93.497 518.705 94.1806C518.363 94.7502 518.136 95.092 518.022 95.206C513.35 99.6493 509.078 103.808 505.204 107.682C501.331 111.441 497.799 114.461 494.609 116.739C491.532 119.132 488.855 120.328 486.576 120.328C485.095 120.328 483.443 119.531 481.62 117.935C479.911 116.454 479.057 113.72 479.057 109.732C479.057 107.795 479.854 105.118 481.449 101.7C483.158 98.2821 485.209 94.6933 487.602 90.9335C483.842 94.9211 480.196 98.6809 476.664 102.213C473.132 105.745 469.828 108.878 466.752 111.612C463.676 114.233 460.885 116.34 458.378 117.935C455.872 119.531 453.764 120.328 452.055 120.328C450.688 120.328 449.093 119.531 447.27 117.935C445.447 116.454 444.535 113.72 444.535 109.732C444.535 108.365 444.991 106.599 445.902 104.434C446.814 102.156 447.953 99.7633 449.32 97.2567C450.802 94.6363 452.454 91.9589 454.277 89.2245C456.213 86.4901 458.15 83.8127 460.087 81.1923C461.568 79.0276 463.22 76.8059 465.043 74.5273C466.866 72.1347 468.575 69.97 470.17 68.0331C471.879 66.0963 473.36 64.5012 474.613 63.248C475.981 61.9947 476.949 61.3681 477.519 61.3681C478.088 61.3681 478.715 61.7099 479.399 62.3935C480.082 62.9631 480.709 63.7607 481.278 64.786C481.848 65.6975 482.304 66.6659 482.646 67.6913C482.987 68.7167 483.158 69.5712 483.158 70.2548C483.158 70.5966 482.418 71.7929 480.937 73.8437C479.569 75.8944 477.804 78.401 475.639 81.3632C473.474 84.2115 471.082 87.3446 468.461 90.7626C465.955 94.1806 463.619 97.4276 461.454 100.504C459.29 103.58 457.467 106.371 455.986 108.878C454.618 111.27 453.935 112.979 453.935 114.005C453.935 114.347 454.049 114.517 454.277 114.517C455.302 114.517 456.897 113.777 459.062 112.296C461.226 110.701 463.733 108.707 466.581 106.314C469.43 103.808 472.449 101.017 475.639 97.9403C478.829 94.7502 482.019 91.5601 485.209 88.37C488.399 85.1799 491.418 82.1037 494.267 79.1415C497.115 76.1793 499.622 73.6158 501.786 71.4511C503.381 69.5142 504.805 67.9761 506.059 66.8368C507.312 65.5836 508.223 64.9569 508.793 64.9569C509.363 64.9569 509.989 65.2987 510.673 65.9823C511.357 66.6659 511.983 67.4635 512.553 68.3749C513.123 69.2864 513.578 70.3118 513.92 71.4511C514.262 72.4765 514.433 73.331 514.433 74.0146C514.433 74.3564 513.749 75.4957 512.382 77.4325C511.129 79.2554 509.534 81.4771 507.597 84.0976C505.774 86.718 503.723 89.5663 501.444 92.6425C499.166 95.7187 497.058 98.6809 495.121 101.529C493.298 104.378 491.703 106.941 490.336 109.22C489.083 111.384 488.456 112.979 488.456 114.005C488.456 114.347 488.57 114.517 488.798 114.517C490.507 114.517 492.558 113.549 494.95 111.612C497.457 109.675 500.419 106.998 503.837 103.58C507.255 100.162 511.926 96.0605 517.851 91.2753Z" fill="white" fill-opacity="0.05"/>
<path d="M573.94 84.2685C574.054 84.0406 574.338 83.8697 574.794 83.7558C575.25 83.5279 575.478 83.7558 575.478 84.4394C575.478 85.5787 575.25 86.4901 574.794 87.1737C574.452 87.7434 574.224 88.0852 574.111 88.1991C573.199 89.1106 572.117 90.136 570.863 91.2753C569.724 92.4146 567.332 94.6363 563.686 97.9403C559.926 101.13 556.052 104.093 552.065 106.827C548.077 109.447 543.975 111.669 539.76 113.492C535.658 115.201 531.671 116.056 527.797 116.056C523.695 116.056 520.505 114.973 518.227 112.809C516.062 110.644 514.98 107.625 514.98 103.751C514.98 100.789 515.606 97.6555 516.86 94.3515C517.999 91.0474 519.594 87.7434 521.645 84.4394C523.695 81.1353 526.088 78.0022 528.822 75.0399C531.443 71.9638 534.177 69.2864 537.026 67.0077C539.988 64.6151 542.95 62.7353 545.912 61.3681C548.875 60.0009 551.723 59.3173 554.457 59.3173C555.369 59.3173 556.565 59.4882 558.046 59.83C559.413 60.0579 560.78 60.5136 562.148 61.1972C563.515 61.8808 564.654 62.8492 565.566 64.1024C566.591 65.2418 567.104 66.7229 567.104 68.5458C567.104 71.508 566.363 74.2424 564.882 76.7489C563.287 79.2554 561.293 81.5341 558.901 83.5849C556.508 85.5217 553.888 87.2877 551.039 88.8827C548.077 90.3638 545.229 91.6171 542.494 92.6425C539.646 93.5539 537.026 94.2945 534.633 94.8642C532.354 95.3199 530.645 95.4908 529.506 95.3769C527.911 97.9973 526.715 100.447 525.917 102.725C525.006 105.004 524.55 107.112 524.55 109.049C524.55 109.732 524.721 110.245 525.063 110.587C525.404 110.815 526.43 110.929 528.139 110.929C534.063 110.929 539.703 109.504 545.058 106.656C550.527 103.808 555.654 100.39 560.439 96.4023C565.224 92.3007 569.724 88.2561 573.94 84.2685ZM562.489 67.3495C562.489 66.2102 561.92 65.6405 560.78 65.6405C559.185 65.6405 557.249 66.3811 554.97 67.8622C552.577 69.2294 550.071 71.1093 547.45 73.5019C544.83 75.7805 542.266 78.4579 539.76 81.5341C537.14 84.4963 534.747 87.5155 532.582 90.5917C535.886 89.7942 539.304 88.484 542.836 86.661C546.368 84.7242 549.558 82.6164 552.406 80.3378C555.369 78.0592 557.818 75.7805 559.755 73.5019C561.578 71.1093 562.489 69.0585 562.489 67.3495Z" fill="white" fill-opacity="0.05"/>
</svg>
