<svg width="556" height="191" viewBox="0 0 556 191" fill="none" xmlns="http://www.w3.org/2000/svg">
<path d="M177.563 6.49414C177.791 6.94987 177.563 7.5765 176.88 8.37402C176.31 9.17155 175.399 9.96908 174.146 10.7666C173.006 11.5641 171.639 12.2477 170.044 12.8174C168.449 13.387 166.797 13.6719 165.088 13.6719C164.974 13.6719 163.778 13.7288 161.499 13.8428C159.22 13.8428 156.201 13.9567 152.441 14.1846C148.796 14.2985 144.466 14.4694 139.453 14.6973C134.554 14.9251 129.313 15.21 123.73 15.5518C118.148 15.7796 112.394 16.0645 106.47 16.4062C100.659 16.748 94.9626 17.1468 89.3799 17.6025C87.7848 19.3115 85.791 21.3053 83.3984 23.584C81.0059 25.8626 78.2145 28.597 75.0244 31.7871C71.9482 34.8633 68.4733 38.5091 64.5996 42.7246C60.7259 46.8262 55.3141 52.9785 48.3643 61.1816C41.5283 69.2708 36.0026 75.9928 31.7871 81.3477C27.5716 86.5885 23.584 91.7155 19.8242 96.7285C16.0645 101.742 12.8743 106.299 10.2539 110.4C7.7474 114.502 6.49414 117.407 6.49414 119.116C6.49414 119.914 6.83594 120.369 7.51953 120.483C7.7474 120.597 7.91829 120.654 8.03223 120.654C8.26009 120.654 8.37402 120.768 8.37402 120.996C8.37402 121.224 8.03223 121.623 7.34863 122.192C6.66504 122.876 5.86751 123.218 4.95605 123.218C3.13314 123.218 1.82292 122.42 1.02539 120.825C0.341797 119.344 0 117.806 0 116.211C0 113.818 0.74056 110.913 2.22168 107.495C3.81673 103.963 5.92448 100.09 8.54492 95.874C11.1654 91.5446 14.1846 86.9303 17.6025 82.0312C21.1344 77.1322 26.4323 70.2962 33.4961 61.5234C40.6738 52.6367 47.2249 44.7754 53.1494 37.9395C59.1878 30.9896 64.6566 24.8942 69.5557 19.6533C61.6943 20.6787 54.6875 21.818 48.5352 23.0713C42.4967 24.3245 37.3698 25.6348 33.1543 27.002C29.0527 28.2552 25.9196 29.4515 23.7549 30.5908C21.7041 31.6162 20.7357 32.4707 20.8496 33.1543C20.9635 33.724 20.7926 33.9518 20.3369 33.8379C19.8812 33.61 19.5394 33.1543 19.3115 32.4707C18.6279 29.9642 19.3685 27.5716 21.5332 25.293C23.6979 23.0143 26.4893 21.0205 29.9072 19.3115C33.3252 17.4886 36.971 15.9505 40.8447 14.6973C44.7184 13.444 48.1364 12.5326 51.0986 11.9629C55.6559 11.0514 60.3271 10.3109 65.1123 9.74121C69.8975 9.05762 75.0814 8.43099 80.6641 7.86133C83.6263 4.67122 85.2783 3.07617 85.6201 3.07617H85.4492C85.6771 2.73438 85.9049 2.44954 86.1328 2.22168C86.3607 1.87988 86.5316 1.53809 86.6455 1.19629C86.9873 0.398763 87.5 0 88.1836 0C88.7533 0 89.7217 0.683594 91.0889 2.05078C92.57 3.30404 93.5954 4.84212 94.165 6.66504C104.191 6.09538 115.698 5.69661 128.687 5.46875C141.789 5.12695 157.227 4.95605 175 4.95605C176.367 4.95605 177.222 5.46875 177.563 6.49414Z" fill="white" fill-opacity="0.05"/>
<path d="M160.508 84.5947C160.622 84.3669 160.907 84.196 161.362 84.082C161.818 83.8542 162.046 84.082 162.046 84.7656C162.046 85.9049 161.818 86.8164 161.362 87.5C161.021 88.0697 160.793 88.4115 160.679 88.5254C155.096 94.5638 149.912 99.9186 145.127 104.59C140.456 109.261 136.126 113.135 132.139 116.211C128.265 119.287 125.246 120.825 123.081 120.825C121.144 120.825 119.549 119.857 118.296 117.92C117.043 115.983 116.416 113.761 116.416 111.255C116.416 109.66 117.1 107.381 118.467 104.419C119.834 101.457 121.6 98.1527 123.765 94.5068C121.372 97.0133 118.866 99.5199 116.245 102.026C113.739 104.419 111.289 106.584 108.896 108.521C106.618 110.343 104.51 111.825 102.573 112.964C100.75 114.217 99.2692 114.844 98.1299 114.844C97.4463 114.844 96.4779 114.616 95.2246 114.16C94.0853 113.818 92.889 113.135 91.6357 112.109C90.4964 111.198 89.528 109.888 88.7305 108.179C87.819 106.356 87.3633 104.077 87.3633 101.343C87.3633 99.0641 88.0469 96.4437 89.4141 93.4814C90.7812 90.4053 92.6042 87.3291 94.8828 84.2529C97.1615 81.1768 99.7249 78.1576 102.573 75.1953C105.422 72.2331 108.327 69.6126 111.289 67.334C114.251 64.9414 117.157 63.0615 120.005 61.6943C122.853 60.2132 125.36 59.4727 127.524 59.4727C129.347 59.4727 130.999 59.8145 132.48 60.498C134.076 61.1816 135.443 62.0931 136.582 63.2324C137.721 64.3717 138.576 65.625 139.146 66.9922C139.829 68.3594 140.171 69.7835 140.171 71.2646C140.171 71.3786 140.114 71.4355 140 71.4355C140 71.4355 140 71.4925 140 71.6064C142.507 68.7581 144.272 67.334 145.298 67.334C145.868 67.334 146.494 67.6758 147.178 68.3594C147.861 68.929 148.488 69.7266 149.058 70.752C149.627 71.6634 150.083 72.6318 150.425 73.6572C150.767 74.6826 150.938 75.5371 150.938 76.2207C150.938 76.5625 150.254 77.7018 148.887 79.6387C147.633 81.4616 146.038 83.6833 144.102 86.3037C142.279 88.9242 140.228 91.7725 137.949 94.8486C135.671 97.8109 133.563 100.716 131.626 103.564C129.803 106.299 128.208 108.805 126.841 111.084C125.588 113.363 124.961 115.015 124.961 116.04C124.961 116.268 125.075 116.382 125.303 116.382C125.986 116.382 127.467 115.413 129.746 113.477C132.025 111.654 134.702 109.318 137.778 106.47C140.854 103.507 144.159 100.26 147.69 96.7285C151.336 93.1966 153.957 90.6901 155.552 89.209C157.261 87.6139 158.913 86.0758 160.508 84.5947ZM97.1045 109.717C98.4717 109.717 100.295 109.033 102.573 107.666C104.852 106.185 107.358 104.305 110.093 102.026C112.941 99.7477 115.903 97.1273 118.979 94.165C122.056 91.0889 125.075 88.0127 128.037 84.9365C127.467 84.7087 126.955 84.3669 126.499 83.9111C126.157 83.4554 125.986 82.9427 125.986 82.373C125.986 82.0312 126.442 81.4046 127.354 80.4932C128.379 79.5817 129.461 78.5563 130.601 77.417C131.74 76.1637 132.765 74.7965 133.677 73.3154C134.702 71.8343 135.215 70.4102 135.215 69.043C135.215 67.7897 134.588 67.1631 133.335 67.1631C132.31 67.1631 130.658 67.9036 128.379 69.3848C126.1 70.8659 123.537 72.8597 120.688 75.3662C117.954 77.7588 115.106 80.4932 112.144 83.5693C109.295 86.5316 106.618 89.5508 104.111 92.627C101.719 95.7031 99.7249 98.6084 98.1299 101.343C96.6488 104.077 95.9082 106.413 95.9082 108.35C95.9082 109.261 96.307 109.717 97.1045 109.717Z" fill="white" fill-opacity="0.05"/>
<path d="M221.895 87.1582C219.73 91.0319 217.109 94.9056 214.033 98.7793C211.071 102.539 207.767 105.957 204.121 109.033C200.589 112.109 196.829 114.616 192.842 116.553C188.854 118.49 184.924 119.458 181.05 119.458C177.176 119.458 173.872 118.774 171.138 117.407C168.403 116.154 166.523 114.73 165.498 113.135C160.827 118.262 156.383 123.218 152.168 128.003C147.839 132.902 143.908 137.402 140.376 141.504C137.072 145.947 133.996 150.163 131.147 154.15C128.299 158.138 125.793 161.67 123.628 164.746C121.349 167.822 119.526 170.386 118.159 172.437C116.678 174.601 115.71 176.025 115.254 176.709C114.684 177.734 114.058 178.019 113.374 177.563C112.69 177.108 111.836 176.424 110.811 175.513C109.899 174.601 109.215 173.291 108.76 171.582C108.19 169.873 108.247 168.221 108.931 166.626C109.386 165.942 109.956 165.145 110.64 164.233C116.45 155.233 121.862 147.03 126.875 139.624C131.888 132.332 137.072 124.927 142.427 117.407C147.782 109.888 153.706 101.799 160.2 93.1396C166.694 84.4808 174.328 74.3408 183.101 62.7197C183.328 62.3779 183.499 62.0931 183.613 61.8652C183.727 61.5234 183.784 61.1247 183.784 60.6689C184.012 58.846 184.81 58.5042 186.177 59.6436C188.797 61.8083 190.449 64.2578 191.133 66.9922C191.93 69.6126 191.361 72.2331 189.424 74.8535C187.145 77.8158 184.753 81.0059 182.246 84.4238C179.74 87.8418 177.119 91.4307 174.385 95.1904C179.17 90.1774 183.841 85.3923 188.398 80.835C193.07 76.1637 197.342 72.0622 201.216 68.5303C205.203 64.8844 208.621 62.0361 211.47 59.9854C214.318 57.8206 216.369 56.7383 217.622 56.7383C218.989 56.7383 220.243 57.137 221.382 57.9346C222.635 58.6182 223.717 59.5866 224.629 60.8398C225.54 61.9792 226.281 63.3464 226.851 64.9414C227.42 66.5365 227.705 68.1885 227.705 69.8975C227.705 71.7204 227.363 73.7712 226.68 76.0498C226.11 78.2145 225.256 80.5501 224.116 83.0566L221.895 87.1582ZM176.094 101.514C172.106 106.299 169.884 109.261 169.429 110.4C169.543 110.4 169.827 110.457 170.283 110.571C170.739 110.571 171.309 110.571 171.992 110.571C177.575 110.571 182.816 109.033 187.715 105.957C192.728 102.767 197.228 98.8932 201.216 94.3359L204.805 90.0635C206.855 87.3291 208.735 84.5947 210.444 81.8604C212.153 79.126 213.577 76.5625 214.717 74.1699C215.856 71.6634 216.711 69.4417 217.28 67.5049C217.964 65.568 218.306 64.0299 218.306 62.8906C218.306 62.4349 218.078 62.207 217.622 62.207C216.711 62.207 214.945 63.2894 212.324 65.4541C209.704 67.6188 206.514 70.5241 202.754 74.1699C198.994 77.7018 194.836 81.8604 190.278 86.6455C185.721 91.3167 180.993 96.2728 176.094 101.514Z" fill="white" fill-opacity="0.05"/>
<path d="M303.447 84.5947C303.561 84.3669 303.846 84.196 304.302 84.082C304.757 83.8542 304.985 84.082 304.985 84.7656C304.985 85.9049 304.757 86.8164 304.302 87.5C303.96 88.0697 303.732 88.4115 303.618 88.5254C298.035 94.5638 292.852 99.9186 288.066 104.59C283.395 109.261 279.066 113.135 275.078 116.211C271.204 119.287 268.185 120.825 266.021 120.825C264.084 120.825 262.489 119.857 261.235 117.92C259.982 115.983 259.355 113.761 259.355 111.255C259.355 109.66 260.039 107.381 261.406 104.419C262.773 101.457 264.539 98.1527 266.704 94.5068C264.312 97.0133 261.805 99.5199 259.185 102.026C256.678 104.419 254.229 106.584 251.836 108.521C249.557 110.343 247.45 111.825 245.513 112.964C243.69 114.217 242.209 114.844 241.069 114.844C240.386 114.844 239.417 114.616 238.164 114.16C237.025 113.818 235.828 113.135 234.575 112.109C233.436 111.198 232.467 109.888 231.67 108.179C230.758 106.356 230.303 104.077 230.303 101.343C230.303 99.0641 230.986 96.4437 232.354 93.4814C233.721 90.4053 235.544 87.3291 237.822 84.2529C240.101 81.1768 242.664 78.1576 245.513 75.1953C248.361 72.2331 251.266 69.6126 254.229 67.334C257.191 64.9414 260.096 63.0615 262.944 61.6943C265.793 60.2132 268.299 59.4727 270.464 59.4727C272.287 59.4727 273.939 59.8145 275.42 60.498C277.015 61.1816 278.382 62.0931 279.521 63.2324C280.661 64.3717 281.515 65.625 282.085 66.9922C282.769 68.3594 283.11 69.7835 283.11 71.2646C283.11 71.3786 283.053 71.4355 282.939 71.4355C282.939 71.4355 282.939 71.4925 282.939 71.6064C285.446 68.7581 287.212 67.334 288.237 67.334C288.807 67.334 289.434 67.6758 290.117 68.3594C290.801 68.929 291.427 69.7266 291.997 70.752C292.567 71.6634 293.022 72.6318 293.364 73.6572C293.706 74.6826 293.877 75.5371 293.877 76.2207C293.877 76.5625 293.193 77.7018 291.826 79.6387C290.573 81.4616 288.978 83.6833 287.041 86.3037C285.218 88.9242 283.167 91.7725 280.889 94.8486C278.61 97.8109 276.502 100.716 274.565 103.564C272.743 106.299 271.147 108.805 269.78 111.084C268.527 113.363 267.9 115.015 267.9 116.04C267.9 116.268 268.014 116.382 268.242 116.382C268.926 116.382 270.407 115.413 272.686 113.477C274.964 111.654 277.642 109.318 280.718 106.47C283.794 103.507 287.098 100.26 290.63 96.7285C294.276 93.1966 296.896 90.6901 298.491 89.209C300.2 87.6139 301.852 86.0758 303.447 84.5947ZM240.044 109.717C241.411 109.717 243.234 109.033 245.513 107.666C247.791 106.185 250.298 104.305 253.032 102.026C255.881 99.7477 258.843 97.1273 261.919 94.165C264.995 91.0889 268.014 88.0127 270.977 84.9365C270.407 84.7087 269.894 84.3669 269.438 83.9111C269.097 83.4554 268.926 82.9427 268.926 82.373C268.926 82.0312 269.382 81.4046 270.293 80.4932C271.318 79.5817 272.401 78.5563 273.54 77.417C274.679 76.1637 275.705 74.7965 276.616 73.3154C277.642 71.8343 278.154 70.4102 278.154 69.043C278.154 67.7897 277.528 67.1631 276.274 67.1631C275.249 67.1631 273.597 67.9036 271.318 69.3848C269.04 70.8659 266.476 72.8597 263.628 75.3662C260.894 77.7588 258.045 80.4932 255.083 83.5693C252.235 86.5316 249.557 89.5508 247.051 92.627C244.658 95.7031 242.664 98.6084 241.069 101.343C239.588 104.077 238.848 106.413 238.848 108.35C238.848 109.261 239.246 109.717 240.044 109.717Z" fill="white" fill-opacity="0.05"/>
<path d="M346.89 84.7656C348.371 82.373 349.966 79.8665 351.675 77.2461C353.84 74.056 355.89 71.1507 357.827 68.5303C359.878 65.9098 361.701 63.7451 363.296 62.0361C365.005 60.3271 366.201 59.4727 366.885 59.4727C367.454 59.4727 368.081 59.8145 368.765 60.498C369.448 61.1816 370.075 61.9792 370.645 62.8906C371.214 63.8021 371.67 64.8275 372.012 65.9668C372.354 66.9922 372.524 67.8467 372.524 68.5303C372.524 68.986 371.898 70.0684 370.645 71.7773C369.505 73.4863 368.024 75.5941 366.201 78.1006C364.378 80.4932 362.384 83.1706 360.22 86.1328C358.055 88.9811 356.061 91.7725 354.238 94.5068C352.415 97.1273 350.877 99.5199 349.624 101.685C348.485 103.849 347.915 105.444 347.915 106.47C347.915 106.698 348.086 106.812 348.428 106.812C350.479 106.812 353.099 105.558 356.289 103.052C359.593 100.431 362.726 97.6969 365.688 94.8486C368.651 91.8864 371.841 88.7533 375.259 85.4492C375.487 85.2214 375.771 85.0505 376.113 84.9365C376.569 84.7087 376.797 84.9365 376.797 85.6201C376.797 86.7594 376.569 87.6709 376.113 88.3545C375.771 88.9242 375.544 89.266 375.43 89.3799C373.721 91.2028 371.499 93.5954 368.765 96.5576C366.144 99.4059 363.467 101.912 360.732 104.077C357.998 106.242 355.378 108.008 352.871 109.375C350.365 110.628 348.143 111.255 346.206 111.255C344.155 111.255 342.503 110.286 341.25 108.35C340.111 106.413 339.541 104.191 339.541 101.685C339.541 100.203 340.111 98.1527 341.25 95.5322C341.934 94.0511 342.674 92.513 343.472 90.918C341.877 91.7155 340.282 92.4561 338.687 93.1396C334.471 94.9626 330.426 95.874 326.553 95.874C323.363 95.874 320.742 95.1904 318.691 93.8232C317.21 95.988 315.558 98.4375 313.735 101.172C308.267 109.261 305.475 113.42 305.361 113.647L305.703 112.964C304.45 114.445 303.652 115.186 303.311 115.186C302.741 115.299 301.886 114.844 300.747 113.818C299.608 112.793 298.582 111.483 297.671 109.888C297.215 108.748 297.443 107.438 298.354 105.957C299.722 103.678 301.488 100.773 303.652 97.2412C305.931 93.7093 308.324 90.0065 310.83 86.1328C313.337 82.2591 315.843 78.3854 318.35 74.5117C320.97 70.638 323.42 67.1631 325.698 64.0869C326.724 62.8337 327.464 61.6943 327.92 60.6689C328.376 59.6436 328.774 58.7891 329.116 58.1055C329.572 57.4219 329.971 56.9092 330.312 56.5674C330.768 56.2256 331.395 56.0547 332.192 56.0547C333.218 56.0547 334.357 56.9092 335.61 58.6182C336.864 60.2132 337.718 61.8652 338.174 63.5742C338.402 64.5996 338.345 65.4541 338.003 66.1377C337.661 66.8213 337.035 67.7897 336.123 69.043C335.212 70.1823 334.129 71.6634 332.876 73.4863C331.623 75.1953 330.256 77.0752 328.774 79.126C327.407 81.1768 325.926 83.3415 324.331 85.6201C324.103 85.9619 323.818 86.4176 323.477 86.9873C323.363 87.557 323.306 88.1836 323.306 88.8672C323.306 89.5508 323.477 90.0635 323.818 90.4053C324.16 90.6331 325.186 90.7471 326.895 90.7471C332.819 90.7471 338.516 89.3229 343.984 86.4746C345.01 85.9049 345.978 85.3353 346.89 84.7656Z" fill="white" fill-opacity="0.05"/>
<path d="M488.428 86.1328C488.656 85.9049 488.94 85.734 489.282 85.6201C489.738 85.3923 489.966 85.6201 489.966 86.3037C489.966 87.443 489.795 88.3545 489.453 89.0381C489.111 89.6077 488.826 89.9495 488.599 90.0635C486.89 91.7725 485.636 93.0827 484.839 93.9941C484.041 94.7917 481.991 96.8424 478.687 100.146C475.496 103.337 472.363 106.242 469.287 108.862C466.211 111.483 463.306 113.59 460.571 115.186C457.951 116.895 455.729 117.749 453.906 117.749C451.855 117.749 450.203 116.781 448.95 114.844C447.811 112.907 447.241 110.742 447.241 108.35C447.241 106.185 448.039 103.451 449.634 100.146C451.343 96.8424 453.223 93.5954 455.273 90.4053C457.438 87.1012 459.489 84.139 461.426 81.5186C463.363 78.8981 464.616 77.1891 465.186 76.3916C466.097 75.1383 466.781 74.113 467.236 73.3154C467.806 72.5179 468.091 71.8913 468.091 71.4355C468.091 71.0938 467.92 70.9229 467.578 70.9229C466.097 70.9229 463.818 71.9482 460.742 73.999C457.78 75.9359 454.476 78.4424 450.83 81.5186C447.298 84.4808 443.595 87.7848 439.722 91.4307C435.962 94.9626 432.487 98.2666 429.297 101.343C426.107 104.419 423.486 107.039 421.436 109.204C419.385 111.369 418.302 112.565 418.188 112.793L418.359 112.109C418.245 112.337 418.188 112.565 418.188 112.793C416.138 112.793 414.486 111.825 413.232 109.888C412.093 107.951 411.523 105.729 411.523 103.223C411.523 101.058 412.435 98.2666 414.258 94.8486C416.195 91.4307 418.359 88.0127 420.752 84.5947C423.145 81.1768 425.423 78.1006 427.588 75.3662C429.753 72.6318 431.12 70.8659 431.689 70.0684C432.487 68.929 433.114 67.9606 433.569 67.1631C434.139 66.2516 434.424 65.568 434.424 65.1123C434.424 64.7705 434.253 64.5996 433.911 64.5996C432.43 64.5996 430.037 65.7959 426.733 68.1885C423.429 70.5811 419.784 73.5433 415.796 77.0752C411.808 80.6071 407.65 84.4808 403.32 88.6963C398.991 92.9118 395.06 96.8424 391.528 100.488C387.996 104.02 385.034 107.039 382.642 109.546C380.363 112.052 379.167 113.42 379.053 113.647L379.224 112.964C378.084 114.445 377.344 115.186 377.002 115.186C376.432 115.299 375.578 114.844 374.438 113.818C373.185 112.793 372.16 111.483 371.362 109.888C371.134 109.432 371.021 108.919 371.021 108.35C371.021 107.666 371.305 106.868 371.875 105.957C373.356 103.678 375.179 100.773 377.344 97.2412C379.508 93.7093 381.844 90.0065 384.351 86.1328C386.857 82.2591 389.421 78.3854 392.041 74.5117C394.661 70.638 397.111 67.1631 399.39 64.0869C400.301 62.8337 400.985 61.6943 401.44 60.6689C402.01 59.6436 402.466 58.7891 402.808 58.1055C403.149 57.4219 403.491 56.9092 403.833 56.5674C404.289 56.2256 404.972 56.0547 405.884 56.0547C406.909 56.0547 407.992 56.9092 409.131 58.6182C410.384 60.2132 411.239 61.8652 411.694 63.5742C411.922 64.5996 411.865 65.4541 411.523 66.1377C411.182 66.8213 410.555 67.7897 409.644 69.043C408.846 70.1823 407.821 71.6634 406.567 73.4863C405.314 75.1953 403.947 77.0752 402.466 79.126C401.099 81.1768 399.618 83.3415 398.022 85.6201C396.427 87.8988 394.889 90.1204 393.408 92.2852C396.598 89.209 400.244 85.734 404.346 81.8604C408.561 77.9867 412.72 74.3408 416.821 70.9229C421.037 67.5049 424.91 64.5996 428.442 62.207C431.974 59.8145 434.652 58.6182 436.475 58.6182C438.411 58.6182 440.348 59.8145 442.285 62.207C444.336 64.4857 445.361 67.6188 445.361 71.6064C445.361 72.1761 444.849 73.2585 443.823 74.8535C442.912 76.3346 441.715 78.1006 440.234 80.1514C438.753 82.2021 437.044 84.4238 435.107 86.8164C433.285 89.209 431.462 91.6585 429.639 94.165C432.373 91.6585 435.677 88.6963 439.551 85.2783C443.424 81.8604 447.298 78.6702 451.172 75.708C455.16 72.7458 458.805 70.2393 462.109 68.1885C465.527 66.0238 468.205 64.9414 470.142 64.9414C471.053 64.9414 472.021 65.2832 473.047 65.9668C474.186 66.5365 475.155 67.391 475.952 68.5303C476.864 69.5557 477.604 70.8659 478.174 72.4609C478.743 74.056 479.028 75.8789 479.028 77.9297C479.028 78.6133 478.459 79.8096 477.319 81.5186C476.18 83.2275 474.756 85.1644 473.047 87.3291C471.338 89.4938 469.515 91.8294 467.578 94.3359C465.641 96.8424 463.818 99.292 462.109 101.685C460.4 103.963 458.976 106.071 457.837 108.008C456.698 109.945 456.128 111.426 456.128 112.451C456.128 112.679 456.242 112.793 456.47 112.793C458.179 112.793 460.514 111.654 463.477 109.375C466.439 106.982 469.914 103.849 473.901 99.9756C477.889 95.988 482.731 91.3737 488.428 86.1328Z" fill="white" fill-opacity="0.05"/>
<path d="M562.29 85.791C562.518 85.5632 562.803 85.3923 563.145 85.2783C563.6 85.0505 563.828 85.2783 563.828 85.9619C563.828 87.1012 563.6 88.0127 563.145 88.6963C562.803 89.266 562.575 89.6077 562.461 89.7217C557.79 94.165 553.517 98.3236 549.644 102.197C545.77 105.957 542.238 108.976 539.048 111.255C535.972 113.647 533.294 114.844 531.016 114.844C529.535 114.844 527.882 114.046 526.06 112.451C524.351 110.97 523.496 108.236 523.496 104.248C523.496 102.311 524.294 99.6338 525.889 96.2158C527.598 92.7979 529.648 89.209 532.041 85.4492C528.281 89.4368 524.635 93.1966 521.104 96.7285C517.572 100.26 514.268 103.394 511.191 106.128C508.115 108.748 505.324 110.856 502.817 112.451C500.311 114.046 498.203 114.844 496.494 114.844C495.127 114.844 493.532 114.046 491.709 112.451C489.886 110.97 488.975 108.236 488.975 104.248C488.975 102.881 489.43 101.115 490.342 98.9502C491.253 96.6715 492.393 94.279 493.76 91.7725C495.241 89.152 496.893 86.4746 498.716 83.7402C500.653 81.0059 502.59 78.3285 504.526 75.708C506.007 73.5433 507.66 71.3216 509.482 69.043C511.305 66.6504 513.014 64.4857 514.609 62.5488C516.318 60.612 517.799 59.0169 519.053 57.7637C520.42 56.5104 521.388 55.8838 521.958 55.8838C522.528 55.8838 523.154 56.2256 523.838 56.9092C524.521 57.4788 525.148 58.2764 525.718 59.3018C526.287 60.2132 526.743 61.1816 527.085 62.207C527.427 63.2324 527.598 64.0869 527.598 64.7705C527.598 65.1123 526.857 66.3086 525.376 68.3594C524.009 70.4102 522.243 72.9167 520.078 75.8789C517.913 78.7272 515.521 81.8604 512.9 85.2783C510.394 88.6963 508.058 91.9434 505.894 95.0195C503.729 98.0957 501.906 100.887 500.425 103.394C499.058 105.786 498.374 107.495 498.374 108.521C498.374 108.862 498.488 109.033 498.716 109.033C499.741 109.033 501.336 108.293 503.501 106.812C505.666 105.216 508.172 103.223 511.021 100.83C513.869 98.3236 516.888 95.5322 520.078 92.4561C523.268 89.266 526.458 86.0758 529.648 82.8857C532.839 79.6956 535.858 76.6195 538.706 73.6572C541.554 70.695 544.061 68.1315 546.226 65.9668C547.821 64.0299 549.245 62.4919 550.498 61.3525C551.751 60.0993 552.663 59.4727 553.232 59.4727C553.802 59.4727 554.429 59.8145 555.112 60.498C555.796 61.1816 556.423 61.9792 556.992 62.8906C557.562 63.8021 558.018 64.8275 558.359 65.9668C558.701 66.9922 558.872 67.8467 558.872 68.5303C558.872 68.8721 558.188 70.0114 556.821 71.9482C555.568 73.7712 553.973 75.9928 552.036 78.6133C550.213 81.2337 548.162 84.082 545.884 87.1582C543.605 90.2344 541.497 93.1966 539.561 96.0449C537.738 98.8932 536.143 101.457 534.775 103.735C533.522 105.9 532.896 107.495 532.896 108.521C532.896 108.862 533.009 109.033 533.237 109.033C534.946 109.033 536.997 108.065 539.39 106.128C541.896 104.191 544.858 101.514 548.276 98.0957C551.694 94.6777 556.366 90.5762 562.29 85.791Z" fill="white" fill-opacity="0.05"/>
<path d="M621.797 87.1582C619.632 91.0319 617.012 94.9056 613.936 98.7793C610.973 102.539 607.669 105.957 604.023 109.033C600.492 112.109 596.732 114.616 592.744 116.553C588.757 118.49 584.826 119.458 580.952 119.458C577.078 119.458 573.774 118.774 571.04 117.407C568.306 116.154 566.426 114.73 565.4 113.135C560.729 118.262 556.286 123.218 552.07 128.003C547.741 132.902 543.81 137.402 540.278 141.504C536.974 145.947 533.898 150.163 531.05 154.15C528.201 158.138 525.695 161.67 523.53 164.746C521.252 167.822 519.429 170.386 518.062 172.437C516.58 174.601 515.612 176.025 515.156 176.709C514.587 177.734 513.96 178.019 513.276 177.563C512.593 177.108 511.738 176.424 510.713 175.513C509.801 174.601 509.118 173.291 508.662 171.582C508.092 169.873 508.149 168.221 508.833 166.626C509.289 165.942 509.858 165.145 510.542 164.233C516.353 155.233 521.764 147.03 526.777 139.624C531.79 132.332 536.974 124.927 542.329 117.407C547.684 109.888 553.608 101.799 560.103 93.1396C566.597 84.4808 574.23 74.3408 583.003 62.7197C583.231 62.3779 583.402 62.0931 583.516 61.8652C583.63 61.5234 583.687 61.1247 583.687 60.6689C583.914 58.846 584.712 58.5042 586.079 59.6436C588.7 61.8083 590.352 64.2578 591.035 66.9922C591.833 69.6126 591.263 72.2331 589.326 74.8535C587.048 77.8158 584.655 81.0059 582.148 84.4238C579.642 87.8418 577.021 91.4307 574.287 95.1904C579.072 90.1774 583.743 85.3923 588.301 80.835C592.972 76.1637 597.244 72.0622 601.118 68.5303C605.106 64.8844 608.524 62.0361 611.372 59.9854C614.22 57.8206 616.271 56.7383 617.524 56.7383C618.892 56.7383 620.145 57.137 621.284 57.9346C622.537 58.6182 623.62 59.5866 624.531 60.8398C625.443 61.9792 626.183 63.3464 626.753 64.9414C627.323 66.5365 627.607 68.1885 627.607 69.8975C627.607 71.7204 627.266 73.7712 626.582 76.0498C626.012 78.2145 625.158 80.5501 624.019 83.0566L621.797 87.1582ZM575.996 101.514C572.008 106.299 569.787 109.261 569.331 110.4C569.445 110.4 569.73 110.457 570.186 110.571C570.641 110.571 571.211 110.571 571.895 110.571C577.477 110.571 582.718 109.033 587.617 105.957C592.63 102.767 597.131 98.8932 601.118 94.3359L604.707 90.0635C606.758 87.3291 608.638 84.5947 610.347 81.8604C612.056 79.126 613.48 76.5625 614.619 74.1699C615.758 71.6634 616.613 69.4417 617.183 67.5049C617.866 65.568 618.208 64.0299 618.208 62.8906C618.208 62.4349 617.98 62.207 617.524 62.207C616.613 62.207 614.847 63.2894 612.227 65.4541C609.606 67.6188 606.416 70.5241 602.656 74.1699C598.896 77.7018 594.738 81.8604 590.181 86.6455C585.623 91.3167 580.895 96.2728 575.996 101.514Z" fill="white" fill-opacity="0.05"/>
<path d="M628.667 149.878C629.806 148.511 631.344 146.403 633.281 143.555C635.218 140.82 637.497 137.63 640.117 133.984C635.902 136.605 631.401 139.396 626.616 142.358C621.831 145.321 616.647 148.568 611.064 152.1C604.342 156.315 598.817 160.018 594.487 163.208C590.044 166.512 586.569 169.36 584.062 171.753C581.442 174.146 579.676 176.139 578.765 177.734C577.739 179.443 577.227 180.811 577.227 181.836C577.227 183.089 577.682 183.944 578.594 184.399C579.505 184.855 580.531 185.083 581.67 185.083C582.581 185.083 583.208 185.026 583.55 184.912C592.664 182.406 600.754 178.19 607.817 172.266C614.767 166.341 621.717 158.879 628.667 149.878ZM667.461 116.895L677.202 109.204C679.709 107.153 682.101 105.16 684.38 103.223C686.772 101.172 689.051 99.0641 691.216 96.8994C695.203 93.0257 700.9 87.7279 708.306 81.0059C708.42 80.778 708.704 80.6071 709.16 80.4932C709.616 80.2653 709.844 80.4932 709.844 81.1768C709.958 82.3161 709.844 83.2275 709.502 83.9111C709.16 84.4808 708.932 84.8226 708.818 84.9365C701.982 92.1143 696.571 97.583 692.583 101.343C689.507 104.419 686.203 107.438 682.671 110.4C679.253 113.249 675.436 116.325 671.221 119.629L658.916 128.857C656.523 132.048 654.302 135.124 652.251 138.086C649.858 141.276 647.637 144.181 645.586 146.802C643.649 149.422 641.997 151.587 640.63 153.296C635.503 159.79 630.718 165.373 626.274 170.044C621.717 174.829 617.274 178.76 612.944 181.836C608.615 184.912 604.285 187.191 599.956 188.672C595.513 190.153 590.898 190.894 586.113 190.894C583.037 190.894 580.303 189.868 577.91 187.817C575.404 185.767 574.15 183.203 574.15 180.127C574.15 176.481 576.258 172.55 580.474 168.335C584.575 164.119 590.044 159.676 596.88 155.005C603.602 150.448 611.292 145.605 619.951 140.479C628.61 135.465 637.497 130.225 646.611 124.756C650.827 118.717 655.327 112.394 660.112 105.786C664.897 99.0641 669.455 92.627 673.784 86.4746C670.138 90.3483 666.549 93.9941 663.018 97.4121C659.6 100.83 656.353 103.849 653.276 106.47C650.314 109.09 647.58 111.141 645.073 112.622C642.681 114.217 640.687 115.015 639.092 115.015C637.725 115.015 636.13 114.217 634.307 112.622C632.484 111.141 631.572 108.35 631.572 104.248C631.572 102.881 632.028 101.115 632.939 98.9502C633.737 96.7855 634.876 94.4499 636.357 91.9434C637.839 89.3229 639.491 86.6455 641.313 83.9111C643.136 81.1768 645.016 78.4993 646.953 75.8789C648.434 73.7142 650.086 71.4355 651.909 69.043C653.732 66.6504 655.498 64.4857 657.207 62.5488C658.916 60.612 660.397 59.0169 661.65 57.7637C663.018 56.5104 663.929 55.8838 664.385 55.8838C665.068 55.8838 665.695 56.2256 666.265 56.9092C666.948 57.5928 667.575 58.3903 668.145 59.3018C668.714 60.2132 669.17 61.1816 669.512 62.207C669.854 63.2324 670.024 64.1439 670.024 64.9414C670.024 65.2832 669.284 66.4795 667.803 68.5303C666.436 70.5811 664.67 73.0876 662.505 76.0498C660.34 78.8981 658.005 82.0312 655.498 85.4492C652.992 88.8672 650.656 92.1143 648.491 95.1904C646.326 98.2666 644.504 101.058 643.022 103.564C641.655 105.957 640.972 107.666 640.972 108.691C640.972 108.919 641.086 109.033 641.313 109.033C642.339 109.033 644.048 108.179 646.44 106.47C648.833 104.761 651.51 102.539 654.473 99.8047C657.549 97.0703 660.796 94.0511 664.214 90.7471C667.632 87.3291 670.993 83.9681 674.297 80.6641C677.601 77.36 680.677 74.2269 683.525 71.2646C686.374 68.3024 688.766 65.9098 690.703 64.0869C692.298 62.1501 693.608 60.612 694.634 59.4727C695.773 58.3333 696.571 57.7637 697.026 57.7637C697.596 57.7637 698.223 58.1055 698.906 58.7891C699.59 59.4727 700.216 60.2702 700.786 61.1816C701.356 62.0931 701.812 63.1185 702.153 64.2578C702.495 65.2832 702.666 66.1377 702.666 66.8213C702.666 67.277 701.755 68.8151 699.932 71.4355C698.109 73.9421 695.887 77.0182 693.267 80.6641C693.381 80.5501 692.925 81.1768 691.899 82.5439C690.988 83.7972 689.621 85.6771 687.798 88.1836C686.089 90.5762 684.095 93.3675 681.816 96.5576C679.652 99.5199 675.094 105.957 668.145 115.869L667.461 116.895Z" fill="white" fill-opacity="0.05"/>
<path d="M763.369 78.7842C763.483 78.5563 763.768 78.3854 764.224 78.2715C764.679 78.0436 764.907 78.2715 764.907 78.9551C764.907 80.0944 764.679 81.0059 764.224 81.6895C763.882 82.2591 763.654 82.6009 763.54 82.7148C762.629 83.6263 761.546 84.6517 760.293 85.791C759.154 86.9303 756.761 89.152 753.115 92.4561C749.355 95.6462 745.482 98.6084 741.494 101.343C737.507 103.963 733.405 106.185 729.189 108.008C725.088 109.717 721.1 110.571 717.227 110.571C713.125 110.571 709.935 109.489 707.656 107.324C705.492 105.16 704.409 102.14 704.409 98.2666C704.409 95.3044 705.036 92.1712 706.289 88.8672C707.428 85.5632 709.023 82.2591 711.074 78.9551C713.125 75.651 715.518 72.5179 718.252 69.5557C720.872 66.4795 723.607 63.8021 726.455 61.5234C729.417 59.1309 732.38 57.251 735.342 55.8838C738.304 54.5166 741.152 53.833 743.887 53.833C744.798 53.833 745.994 54.0039 747.476 54.3457C748.843 54.5736 750.21 55.0293 751.577 55.7129C752.944 56.3965 754.084 57.3649 754.995 58.6182C756.021 59.7575 756.533 61.2386 756.533 63.0615C756.533 66.0238 755.793 68.7581 754.312 71.2646C752.716 73.7712 750.723 76.0498 748.33 78.1006C745.938 80.0374 743.317 81.8034 740.469 83.3984C737.507 84.8796 734.658 86.1328 731.924 87.1582C729.076 88.0697 726.455 88.8102 724.062 89.3799C721.784 89.8356 720.075 90.0065 718.936 89.8926C717.34 92.513 716.144 94.9626 715.347 97.2412C714.435 99.5199 713.979 101.628 713.979 103.564C713.979 104.248 714.15 104.761 714.492 105.103C714.834 105.33 715.859 105.444 717.568 105.444C723.493 105.444 729.132 104.02 734.487 101.172C739.956 98.3236 745.083 94.9056 749.868 90.918C754.653 86.8164 759.154 82.7718 763.369 78.7842ZM751.919 61.8652C751.919 60.7259 751.349 60.1562 750.21 60.1562C748.615 60.1562 746.678 60.8968 744.399 62.3779C742.007 63.7451 739.5 65.625 736.88 68.0176C734.259 70.2962 731.696 72.9736 729.189 76.0498C726.569 79.012 724.176 82.0312 722.012 85.1074C725.316 84.3099 728.734 82.9997 732.266 81.1768C735.798 79.2399 738.988 77.1322 741.836 74.8535C744.798 72.5749 747.248 70.2962 749.185 68.0176C751.007 65.625 751.919 63.5742 751.919 61.8652Z" fill="white" fill-opacity="0.05"/>
<path d="M802.197 113.477V113.647C800.602 114.445 799.121 114.844 797.754 114.844C796.273 114.844 794.621 114.046 792.798 112.451C791.089 110.97 790.234 108.236 790.234 104.248C790.234 102.311 791.032 99.6338 792.627 96.2158C794.336 92.7979 796.387 89.209 798.779 85.4492C795.02 89.4368 791.374 93.1966 787.842 96.7285C784.31 100.26 781.006 103.394 777.93 106.128C774.854 108.748 772.062 110.856 769.556 112.451C767.049 114.046 764.941 114.844 763.232 114.844C761.865 114.844 760.27 114.046 758.447 112.451C756.624 110.97 755.713 108.236 755.713 104.248C755.713 102.881 756.169 101.115 757.08 98.9502C757.992 96.6715 759.131 94.279 760.498 91.7725C761.979 89.152 764.144 86.1328 766.992 82.7148C769.954 79.1829 771.72 77.417 772.29 77.417C772.86 77.417 773.486 77.7588 774.17 78.4424C774.854 79.012 775.48 79.8096 776.05 80.835C776.619 81.7464 777.075 82.7148 777.417 83.7402C777.759 84.7656 777.93 85.6201 777.93 86.3037C777.93 86.6455 777.189 87.8418 775.708 89.8926C774.341 91.9434 773.258 93.4245 772.461 94.3359C771.777 95.2474 771.094 96.3867 770.41 97.7539C769.727 99.0072 768.644 100.887 767.163 103.394C765.796 105.786 765.112 107.495 765.112 108.521C765.112 108.862 765.226 109.033 765.454 109.033C766.479 109.033 768.075 108.293 770.239 106.812C772.404 105.216 774.91 103.223 777.759 100.83C780.607 98.3236 783.626 95.5322 786.816 92.4561C790.007 89.266 793.197 86.0758 796.387 82.8857C799.577 79.6956 802.596 76.6195 805.444 73.6572C808.293 70.695 810.799 68.1315 812.964 65.9668C814.559 64.0299 815.983 62.4919 817.236 61.3525C818.49 60.0993 819.401 59.4727 819.971 59.4727C820.54 59.4727 821.167 59.8145 821.851 60.498C822.534 61.1816 823.161 61.9792 823.73 62.8906C824.3 63.8021 824.756 64.8275 825.098 65.9668C825.439 66.9922 825.61 67.8467 825.61 68.5303C825.61 68.8721 824.927 70.0114 823.56 71.9482C822.306 73.7712 820.711 75.9928 818.774 78.6133C816.951 81.2337 814.901 84.082 812.622 87.1582C810.343 90.2344 808.236 93.1966 806.299 96.0449C804.476 98.8932 802.938 101.4 801.685 103.564C800.659 105.16 800.033 106.47 799.805 107.495V107.666C799.691 108.008 799.634 108.293 799.634 108.521C799.634 108.862 799.748 109.033 799.976 109.033C801.001 109.033 802.596 108.293 804.761 106.812C806.925 105.216 809.432 103.223 812.28 100.83C815.129 98.3236 818.148 95.5322 821.338 92.4561C824.528 89.266 827.718 86.0758 830.908 82.8857C834.098 79.6956 837.118 76.6195 839.966 73.6572C842.814 70.695 845.321 68.1315 847.485 65.9668C849.08 64.0299 850.505 62.4919 851.758 61.3525C853.011 60.0993 853.923 59.4727 854.492 59.4727C855.062 59.4727 855.688 59.8145 856.372 60.498C857.056 61.1816 857.682 61.9792 858.252 62.8906C858.822 63.8021 859.277 64.8275 859.619 65.9668C859.961 66.9922 860.132 67.8467 860.132 68.5303C860.132 68.8721 859.448 70.0114 858.081 71.9482C856.828 73.7712 855.233 75.9928 853.296 78.6133C851.473 81.2337 849.422 84.082 847.144 87.1582C844.865 90.2344 842.757 93.1966 840.82 96.0449C838.997 98.8932 837.402 101.457 836.035 103.735C834.782 105.9 834.155 107.495 834.155 108.521C834.155 108.862 834.269 109.033 834.497 109.033C836.206 109.033 838.257 108.065 840.649 106.128C843.156 104.191 846.118 101.514 849.536 98.0957C852.954 94.6777 857.625 90.5762 863.55 85.791C863.778 85.5632 864.062 85.3923 864.404 85.2783C864.86 85.0505 865.088 85.2783 865.088 85.9619C865.088 87.1012 864.86 88.0127 864.404 88.6963C864.062 89.266 863.835 89.6077 863.721 89.7217C859.049 94.165 854.777 98.3236 850.903 102.197C847.03 105.957 843.498 108.976 840.308 111.255C837.231 113.647 834.554 114.844 832.275 114.844C830.794 114.844 829.142 114.046 827.319 112.451C825.61 110.97 824.756 108.236 824.756 104.248C824.756 102.311 825.553 99.6338 827.148 96.2158C828.857 92.7979 830.908 89.209 833.301 85.4492C829.541 89.4368 825.895 93.1966 822.363 96.7285C818.831 100.26 815.527 103.394 812.451 106.128C809.375 108.748 806.584 110.856 804.077 112.451C803.394 112.907 802.767 113.249 802.197 113.477Z" fill="white" fill-opacity="0.05"/>
</svg>
