<svg width="19" height="18" viewBox="0 0 19 18" fill="none" xmlns="http://www.w3.org/2000/svg">
<g clip-path="url(#clip0_164_969)">
<path d="M9.2834 0C4.42522 0 0.483398 3.94183 0.483398 8.8C0.483398 10.7453 1.11307 12.5371 2.17787 13.996L1.05676 17.3133L4.55321 16.2229C5.92005 17.0932 7.54285 17.6 9.2834 17.6C14.1416 17.6 18.0834 13.6582 18.0834 8.8C18.0834 3.94183 14.1416 0 9.2834 0ZM13.3123 13.52C11.715 14.1599 9.81068 13.5404 7.72715 11.9586C5.64361 10.3767 4.27165 8.14985 4.1795 6.49634C4.08735 4.84282 5.43372 4.00838 6.16577 4.0135C6.89783 4.01862 7.70155 6.35812 7.71179 6.71646C7.72203 7.07993 6.81592 7.72496 6.78008 8.03211C6.74425 8.33927 8.01382 9.85457 8.55135 10.2641C9.08375 10.6685 10.1844 11.4467 10.7526 11.375C11.3157 11.2982 11.6894 10.1668 12.0478 10.0952C12.4061 10.0235 14.3617 10.9962 14.5562 11.247C14.7508 11.503 14.7303 12.9568 13.3123 13.52Z" fill="white"/>
</g>
<defs>
<clipPath id="clip0_164_969">
<rect width="17.6" height="17.6" fill="white" transform="translate(0.483398)"/>
</clipPath>
</defs>
</svg>
