<svg width="26" height="25" viewBox="0 0 26 25" fill="none" xmlns="http://www.w3.org/2000/svg">
<path fill-rule="evenodd" clip-rule="evenodd" d="M0.971085 0.969132C2.26326 -0.323044 4.35829 -0.323044 5.65047 0.969132L12.502 7.82062L19.3534 0.969132C20.6456 -0.323044 22.7406 -0.323044 24.0328 0.969132C25.325 2.26131 25.325 4.35634 24.0328 5.64852L17.1813 12.5L24.0328 19.3515C25.325 20.6437 25.325 22.7387 24.0328 24.0309C22.7406 25.323 20.6456 25.323 19.3534 24.0309L12.502 17.1794L5.65047 24.0309C4.35829 25.323 2.26326 25.323 0.971085 24.0309C-0.321091 22.7387 -0.321091 20.6437 0.971085 19.3515L7.82257 12.5L0.971085 5.64852C-0.321091 4.35634 -0.321091 2.26131 0.971085 0.969132Z" fill="white"/>
</svg>
