<svg width="992" height="232" viewBox="0 0 992 232" fill="none" xmlns="http://www.w3.org/2000/svg">
<g opacity="0.05">
<path d="M68.1416 99.4464C68.1416 100.069 68.577 100.38 69.448 100.38C71.0656 100.38 74.1762 98.8863 78.7799 95.8991C83.3837 92.7876 88.9828 88.7425 95.5774 83.7639C101.176 79.4077 106.651 75.0515 112.002 70.6953C117.476 66.3391 122.204 62.3562 126.186 58.7468C133.278 52.3991 139.686 46.7361 145.41 41.7575C151.258 36.779 156.173 32.7339 160.154 29.6223C162.021 28.1288 163.638 27.0086 165.007 26.2618C165.878 24.8927 166.749 23.5236 167.62 22.1545C169.486 19.1674 170.606 16.2425 170.979 13.3798C171.228 11.1395 171.104 9.64592 170.606 8.89914C170.233 8.0279 169.486 7.53004 168.366 7.40558C165.131 6.90773 161.212 7.77897 156.608 10.0193C152.129 12.2597 147.214 15.3712 141.864 19.3541C136.513 23.3369 130.79 28.1288 124.693 33.7296C118.72 39.206 107.833 50.9056 92.0312 68.8283C76.3536 86.7511 68.3904 96.9571 68.1416 99.4464ZM102.483 86.0043C100.368 87.7468 98.3769 89.427 96.5105 91.0451C90.4137 95.8991 85.0634 99.7575 80.4597 102.62C75.8559 105.483 72.1854 106.914 69.448 106.914C67.0839 106.914 64.8443 106.043 62.7291 104.3C60.7383 102.558 59.9295 99.882 60.3028 96.2725C60.676 92.7876 62.3558 88.4936 65.342 83.3906C68.4526 78.1631 72.372 72.5 77.1002 66.4013C79.4643 63.5386 81.8906 60.676 84.3791 57.8133H84.1924L84.3791 57.6266L84.0058 57.4399C86.6187 54.5773 89.2317 51.7768 91.8446 49.0386C91.969 48.9142 92.0934 48.7897 92.2179 48.6652C98.3147 41.9442 104.598 35.5343 111.068 29.4356C117.538 23.3369 123.76 18.0472 129.732 13.5665C135.829 8.96137 141.49 5.47639 146.716 3.11159C152.066 0.622318 156.608 -0.373391 160.341 0.124464C162.332 0.373391 164.26 0.933476 166.127 1.80472C167.993 2.5515 169.673 3.42275 171.166 4.41845C172.659 5.2897 173.903 6.22318 174.899 7.21888C175.894 8.21459 176.516 8.96137 176.765 9.45923C177.014 10.5794 177.2 11.6373 177.325 12.633C177.449 13.5043 177.449 14.4378 177.325 15.4335C176.827 18.6695 175.272 22.2167 172.659 26.0751C172.534 26.324 172.348 26.573 172.099 26.8219C172.97 27.4442 173.841 28.191 174.712 29.0622C174.836 29.1867 175.458 30.1824 176.578 32.0494C177.698 33.7918 175.147 38.8326 168.926 47.1717C162.705 55.5107 157.043 62.9163 151.942 69.3884C146.965 75.8605 141.801 82.6438 136.451 89.7382C131.101 96.7082 125.937 103.74 120.96 110.835C116.854 116.56 113.121 121.974 109.762 127.077C106.651 131.931 104.163 136.101 102.296 139.586C99.9322 143.693 98.1903 146.991 97.0705 149.481C95.9506 152.094 95.0797 154.335 94.4575 156.202C93.9598 158.193 93.4621 160.06 92.9644 161.803C92.5911 163.67 91.9068 165.91 90.9114 168.524C90.6626 168.897 90.2271 169.333 89.6049 169.83C89.1072 170.328 88.5473 170.577 87.9252 170.577C87.3031 170.577 86.7432 170.079 86.2455 169.084C85.7477 168.212 85.3123 167.092 84.939 165.723C84.5657 164.479 84.2546 163.109 84.0058 161.616C83.8814 160.247 83.8192 159.127 83.8192 158.255C83.8192 154.148 84.5657 149.854 86.0588 145.373C87.6763 141.017 89.7294 136.536 92.2179 131.931C93.8354 128.944 95.6396 125.895 97.6304 122.783C100.617 117.68 103.976 112.328 107.709 106.727C111.939 100.255 116.294 93.8455 120.773 87.4978C122.142 85.5064 123.573 83.515 125.066 81.5236C123.946 82.6438 122.827 83.7639 121.707 84.8841C116.356 90.3605 110.819 96.3348 105.096 102.807C99.3723 109.155 93.5866 115.564 87.7386 122.036C81.8906 128.384 75.9804 134.545 70.0079 140.519C64.0355 146.494 58.1253 151.721 52.2773 156.202C46.4293 160.682 40.768 164.23 35.2933 166.843C29.8185 169.582 24.5927 170.888 19.6157 170.764C17.1272 170.639 14.6386 170.142 12.1501 169.27C9.78606 168.399 7.67083 167.155 5.80444 165.536C4.06249 163.918 2.6316 161.927 1.51177 159.562C0.39194 157.322 -0.105762 154.833 0.0186638 152.094C0.143089 147.738 1.51177 142.884 4.1247 137.532C5.61781 134.296 7.42197 131.06 9.5372 127.824C12.8967 122.472 16.6917 118.303 20.9221 115.315C24.0328 113.2 27.2056 111.768 30.4407 111.021C31.3116 110.773 32.5559 110.773 34.1734 111.021C35.791 111.146 36.8486 111.519 37.3463 112.142C37.844 112.888 37.7196 113.511 36.973 114.009C36.973 114.133 36.8486 114.195 36.5997 114.195C36.4753 114.195 36.3509 114.258 36.2265 114.382C35.7287 114.382 35.2933 114.382 34.92 114.382C34.5467 114.258 34.049 114.258 33.4269 114.382C32.9292 114.382 32.2448 114.631 31.3739 115.129C30.5029 115.627 29.3208 116.311 27.8277 117.182C23.5973 120.294 20.0511 124.215 17.1894 128.944C14.3276 133.549 12.1501 137.47 10.657 140.706C8.16853 145.809 6.79985 150.414 6.551 154.521C6.551 156.264 6.73763 157.944 7.11091 159.562C7.48419 161.305 8.5418 162.238 10.2838 162.363C16.1318 162.487 22.2286 160.62 28.5743 156.762C34.92 153.028 41.4523 148.112 48.1713 142.013C54.8903 135.914 61.4848 129.318 67.9549 122.223C74.5495 115.004 80.9574 108.159 87.1786 101.687C87.4275 101.438 88.7962 100.069 91.2847 97.5794C93.7732 94.9657 96.8838 91.7918 100.617 88.0579C101.239 87.4356 101.861 86.7511 102.483 86.0043Z" fill="white"/>
<path d="M186.097 116.062C187.714 113.449 189.456 110.71 191.323 107.848C193.687 104.363 195.926 101.189 198.042 98.3262C200.281 95.4635 202.272 93.0987 204.014 91.2318C205.88 89.3648 207.187 88.4313 207.933 88.4313C208.556 88.4313 209.24 88.8047 209.986 89.5515C210.733 90.2983 211.417 91.1695 212.04 92.1652C212.662 93.1609 213.159 94.2811 213.533 95.5257C213.906 96.6459 214.093 97.5794 214.093 98.3262C214.093 98.824 213.408 100.006 212.04 101.873C210.795 103.74 209.178 106.043 207.187 108.781C205.196 111.395 203.019 114.32 200.655 117.556C198.291 120.667 196.113 123.717 194.122 126.704C192.131 129.567 190.452 132.18 189.083 134.545C187.839 136.91 187.217 138.652 187.217 139.773C187.217 140.021 187.403 140.146 187.777 140.146C190.016 140.146 192.878 138.777 196.362 136.039C199.97 133.176 203.392 130.189 206.627 127.077C209.862 123.841 213.346 120.418 217.079 116.809C217.328 116.56 217.639 116.373 218.012 116.249C218.51 116 218.758 116.249 218.758 116.996C218.758 118.24 218.51 119.236 218.012 119.983C217.639 120.605 217.39 120.979 217.265 121.103C215.399 123.094 212.973 125.708 209.986 128.944C207.125 132.056 204.201 134.794 201.215 137.159C198.228 139.524 195.367 141.453 192.629 142.946C189.892 144.315 187.465 145 185.35 145C183.111 145 181.306 143.942 179.938 141.826C178.694 139.71 178.071 137.283 178.071 134.545C178.071 132.927 178.694 130.687 179.938 127.824C180.684 126.206 181.493 124.526 182.364 122.783C180.622 123.655 178.88 124.464 177.138 125.21C172.534 127.202 168.117 128.197 163.887 128.197C160.403 128.197 157.541 127.451 155.302 125.957C153.684 128.322 151.88 130.998 149.889 133.985C143.917 142.822 140.868 147.365 140.744 147.614L141.117 146.867C139.748 148.485 138.877 149.294 138.504 149.294C137.882 149.418 136.949 148.921 135.705 147.8C134.46 146.68 133.34 145.249 132.345 143.506C131.847 142.262 132.096 140.83 133.092 139.212C134.585 136.723 136.513 133.549 138.877 129.691C141.366 125.833 143.979 121.788 146.716 117.556C149.454 113.324 152.191 109.092 154.928 104.861C157.79 100.629 160.465 96.8326 162.954 93.4721C164.074 92.103 164.882 90.8584 165.38 89.7382C165.878 88.618 166.313 87.6845 166.686 86.9378C167.184 86.191 167.62 85.6309 167.993 85.2575C168.491 84.8841 169.175 84.6974 170.046 84.6974C171.166 84.6974 172.41 85.6309 173.779 87.4978C175.147 89.2403 176.081 91.0451 176.578 92.912C176.827 94.0322 176.765 94.9657 176.392 95.7124C176.018 96.4592 175.334 97.5172 174.339 98.8863C173.343 100.131 172.161 101.749 170.792 103.74C169.424 105.607 167.931 107.661 166.313 109.901C164.82 112.142 163.203 114.506 161.461 116.996C161.212 117.369 160.901 117.867 160.527 118.489C160.403 119.112 160.341 119.796 160.341 120.543C160.341 121.29 160.527 121.85 160.901 122.223C161.274 122.472 162.394 122.597 164.26 122.597C170.73 122.597 176.952 121.041 182.924 117.929C184.044 117.307 185.101 116.685 186.097 116.062Z" fill="white"/>
<path d="M214.652 143.32C216.146 143.32 218.136 142.573 220.625 141.079C223.238 139.461 226.037 137.408 229.024 134.918C232.134 132.429 235.307 129.567 238.542 126.33C241.902 122.97 245.199 119.609 248.434 116.249C247.065 115.627 246.381 114.693 246.381 113.449C246.381 113.075 246.879 112.391 247.874 111.395C248.994 110.399 250.114 109.279 251.234 108.034C252.478 106.665 253.598 105.172 254.593 103.554C255.713 101.936 256.273 100.38 256.273 98.8863C256.273 97.5172 255.588 96.8326 254.22 96.8326C253.1 96.8326 251.296 97.6416 248.807 99.2597C246.319 100.878 243.519 103.056 240.408 105.794C237.422 108.408 234.312 111.395 231.077 114.755C227.966 117.991 225.042 121.29 222.305 124.65C219.692 128.011 217.514 131.185 215.772 134.172C214.155 137.159 213.346 139.71 213.346 141.826C213.346 142.822 213.781 143.32 214.652 143.32ZM149.702 225.279C155.675 223.661 161.212 221.358 166.313 218.371C171.29 215.509 176.205 211.775 181.058 207.17C185.91 202.689 190.887 197.275 195.989 190.927C200.966 184.704 206.503 177.423 212.599 169.084C207.871 171.946 202.832 175.058 197.482 178.418C192.007 181.779 186.097 185.451 179.751 189.433C172.41 194.163 166.375 198.27 161.647 201.755C156.795 205.365 153 208.476 150.262 211.09C147.401 213.704 145.472 215.882 144.477 217.624C143.357 219.491 142.797 220.985 142.797 222.105C142.797 223.474 143.294 224.408 144.29 224.906C145.285 225.403 146.405 225.652 147.649 225.652C148.271 225.652 148.956 225.528 149.702 225.279ZM234.996 160.309C226.908 171.262 219.692 180.908 213.346 189.247C205.88 198.955 198.85 206.921 192.256 213.144C185.661 219.491 179.191 224.221 172.846 227.333C166.5 230.444 159.719 232 152.502 232C149.142 232 146.156 230.88 143.543 228.639C140.806 226.399 139.437 223.536 139.437 220.051C139.437 215.944 141.739 211.588 146.343 206.983C150.947 202.378 157.043 197.524 164.633 192.421C172.223 187.318 180.871 181.903 190.576 176.178C200.157 170.577 209.924 164.79 219.878 158.815C222.865 154.584 226.037 150.103 229.397 145.373C232.756 140.768 236.302 135.852 240.035 130.624C237.671 132.989 235.245 135.292 232.756 137.532C230.392 139.773 228.153 141.764 226.037 143.506C223.922 145.124 221.994 146.431 220.252 147.427C218.51 148.423 217.079 148.921 215.959 148.921C215.212 148.921 214.155 148.672 212.786 148.174C211.417 147.8 210.049 147.054 208.68 145.933C207.436 144.938 206.378 143.506 205.507 141.639C204.512 139.648 204.014 137.159 204.014 134.172C204.014 131.682 204.761 128.82 206.254 125.584C207.747 122.223 209.738 118.863 212.226 115.502C214.715 112.142 217.514 108.843 220.625 105.607C223.735 102.371 226.908 99.5086 230.143 97.0193C233.503 94.4056 236.738 92.3519 239.849 90.8584C242.959 89.2403 245.697 88.4313 248.061 88.4313C250.051 88.4313 251.856 88.8047 253.473 89.5515C255.215 90.2983 256.646 91.294 257.766 92.5386C259.01 93.7833 259.943 95.1524 260.565 96.6459C261.312 98.1395 261.685 99.6953 261.685 101.313V101.687C264.423 98.5751 266.289 97.0193 267.284 97.0193C267.906 97.0193 268.591 97.3927 269.337 98.1395C270.084 98.7618 270.768 99.633 271.39 100.753C272.013 101.749 272.51 102.807 272.884 103.927C273.257 105.047 273.443 105.981 273.443 106.727C273.443 107.101 273.008 107.91 272.137 109.155C271.39 110.399 270.333 111.955 268.964 113.822C267.471 116.062 265.729 118.489 263.738 121.103C261.996 123.343 260.005 126.019 257.766 129.131C256.024 131.496 252.913 135.79 248.434 142.013C251.42 139.773 253.909 137.781 255.899 136.039C258.388 133.674 260.814 131.309 263.178 128.944C267.533 124.837 273.754 119.049 281.842 111.582C281.842 111.333 282.091 111.084 282.589 110.835C283.086 110.586 283.397 110.835 283.522 111.582C283.646 112.826 283.522 113.822 283.149 114.569C282.775 115.315 282.526 115.751 282.402 115.876C275.061 123.717 269.213 129.753 264.858 133.985C261.374 137.345 257.766 140.644 254.033 143.88C250.3 147.116 243.955 152.592 234.996 160.309Z" fill="white"/>
<path d="M332.234 109.528C332.359 109.279 332.67 109.092 333.168 108.968C333.665 108.719 333.914 108.968 333.914 109.715C333.914 110.959 333.665 111.955 333.168 112.702C332.794 113.324 332.546 113.697 332.421 113.822C331.426 114.818 330.244 115.938 328.875 117.182C327.631 118.427 325.018 120.854 321.036 124.464C316.93 127.949 312.7 131.185 308.345 134.172C303.99 137.034 299.511 139.461 294.907 141.453C290.427 143.32 286.073 144.253 281.842 144.253C277.363 144.253 273.879 143.071 271.39 140.706C269.026 138.341 267.844 135.043 267.844 130.811C267.844 127.575 268.529 124.152 269.897 120.543C271.142 116.933 272.884 113.324 275.123 109.715C277.363 106.105 279.976 102.682 282.962 99.4464C285.824 96.0858 288.81 93.1609 291.921 90.6717C295.156 88.0579 298.391 86.0043 301.626 84.5107C304.861 83.0172 307.971 82.2704 310.958 82.2704C311.953 82.2704 313.26 82.4571 314.877 82.8305C316.37 83.0794 317.863 83.5772 319.356 84.324C320.85 85.0708 322.094 86.1288 323.089 87.4978C324.209 88.7425 324.769 90.3605 324.769 92.3519C324.769 95.588 323.96 98.5751 322.343 101.313C320.601 104.052 318.423 106.541 315.81 108.781C313.197 110.897 310.336 112.826 307.225 114.569C303.99 116.187 300.879 117.556 297.893 118.676C294.782 119.672 291.921 120.481 289.308 121.103C286.819 121.601 284.953 121.788 283.709 121.663C281.967 124.526 280.66 127.202 279.789 129.691C278.794 132.18 278.296 134.483 278.296 136.599C278.296 137.345 278.483 137.906 278.856 138.279C279.229 138.528 280.349 138.652 282.215 138.652C288.686 138.652 294.845 137.097 300.693 133.985C306.665 130.873 312.264 127.139 317.49 122.783C322.716 118.303 327.631 113.884 332.234 109.528ZM319.73 91.0451C319.73 89.8004 319.108 89.1781 317.863 89.1781C316.121 89.1781 314.006 89.9871 311.518 91.6051C308.905 93.0987 306.167 95.1524 303.306 97.7661C300.444 100.255 297.644 103.18 294.907 106.541C292.045 109.777 289.432 113.075 287.068 116.436C290.676 115.564 294.409 114.133 298.266 112.142C302.123 110.026 305.607 107.723 308.718 105.234C311.953 102.745 314.628 100.255 316.743 97.7661C318.734 95.1524 319.73 92.912 319.73 91.0451Z" fill="white"/>
<path d="M358.177 91.4184C358.177 91.6674 357.866 92.2897 357.244 93.2854C356.622 94.2811 355.813 95.4635 354.818 96.8326L337.087 122.41C341.193 118.427 345.299 114.693 349.405 111.208C353.636 107.599 357.617 104.363 361.35 101.5C365.207 98.5129 368.753 95.9614 371.988 93.8455C375.223 91.6051 377.899 89.9249 380.014 88.8047C380.76 88.4313 381.631 88.4313 382.627 88.8047C383.622 89.0536 384.493 89.5515 385.24 90.2983C385.986 91.0451 386.546 91.9163 386.919 92.912C387.417 93.7833 387.604 94.5923 387.479 95.3391C387.355 95.588 387.044 95.8369 386.546 96.0858C386.173 96.3348 384.306 97.3927 380.947 99.2597C377.712 101.002 374.041 103.118 369.935 105.607C365.829 107.972 361.848 110.399 357.99 112.888C354.133 115.378 351.458 117.369 349.965 118.863C349.716 119.112 349.467 119.298 349.219 119.423C350.463 119.672 351.645 120.045 352.765 120.543C353.884 120.916 354.693 121.663 355.191 122.783C356.311 125.273 357.555 128.197 358.924 131.558C360.417 134.918 362.159 138.155 364.15 141.266C366.14 144.378 368.318 146.991 370.682 149.107C373.046 151.348 375.721 152.468 378.707 152.468C379.703 152.468 381.009 152.157 382.627 151.534C384.244 151.036 385.24 150.788 385.613 150.788C386.359 150.788 386.733 151.099 386.733 151.721C386.733 152.094 386.359 152.592 385.613 153.215C384.866 153.837 383.871 154.397 382.627 154.895C381.507 155.517 380.2 156.015 378.707 156.388C377.214 156.886 375.659 157.135 374.041 157.135C369.686 157.135 365.767 155.953 362.283 153.588C358.799 151.223 355.751 148.361 353.138 145C350.525 141.764 348.285 138.341 346.419 134.732C344.677 131.122 343.371 128.073 342.5 125.584C342.5 125.708 342.437 125.77 342.313 125.77C342.064 126.019 341.069 126.953 339.327 128.571C337.585 130.189 335.532 132.118 333.168 134.358C330.928 136.599 328.626 138.901 326.262 141.266C323.898 143.631 321.969 145.747 320.476 147.614C319.356 149.232 318.548 150.476 318.05 151.348C317.428 152.219 316.992 152.841 316.743 153.215C316.495 153.588 316.308 153.837 316.184 153.961C316.059 154.086 315.872 154.148 315.624 154.148C315.002 154.273 314.317 153.961 313.571 153.215C312.7 152.592 311.829 151.41 310.958 149.667C310.584 148.796 310.771 147.365 311.518 145.373C312.886 141.888 315.002 137.532 317.863 132.305C320.725 127.077 324.085 121.352 327.942 115.129C331.799 108.906 336.154 102.185 341.006 94.9657C345.983 87.6223 348.783 83.6395 349.405 83.0172C350.649 82.0215 351.52 81.5236 352.018 81.5236C352.64 81.5236 353.325 81.897 354.071 82.6438C354.818 83.3906 355.502 84.2618 356.124 85.2575C356.746 86.2532 357.244 87.3112 357.617 88.4313C357.99 89.5515 358.177 90.5472 358.177 91.4184Z" fill="white"/>
<path d="M437.125 114.009C437.249 113.76 437.561 113.573 438.058 113.449C438.556 113.2 438.805 113.449 438.805 114.195C438.805 115.44 438.556 116.436 438.058 117.182C437.685 117.805 437.436 118.178 437.312 118.303C434.325 121.414 430.033 125.584 424.434 130.811C418.835 136.039 412.987 140.395 406.89 143.88C400.793 147.24 394.696 148.921 388.599 148.921C384.12 148.921 380.698 147.738 378.334 145.373C375.846 143.009 374.601 139.71 374.601 135.479C374.601 130.624 376.094 125.273 379.081 119.423C382.191 113.449 386.048 107.91 390.652 102.807C395.256 97.5794 400.171 93.2232 405.397 89.7382C410.747 86.2532 415.599 84.5107 419.954 84.5107C420.701 84.5107 421.821 84.6974 423.314 85.0708C424.931 85.3197 426.487 85.8176 427.98 86.5644C429.473 87.3112 430.779 88.3691 431.899 89.7382C433.143 90.9828 433.766 92.6009 433.766 94.5923C433.766 97.0815 433.019 99.7575 431.526 102.62C430.033 105.483 428.291 108.097 426.3 110.461C424.434 112.826 422.505 114.818 420.514 116.436C418.648 117.929 417.341 118.676 416.595 118.676C415.599 118.676 414.666 118.303 413.795 117.556C412.924 116.809 412.489 116.062 412.489 115.315C412.489 114.818 412.738 114.382 413.235 114.009C415.475 112.266 417.59 110.337 419.581 108.221C421.572 106.105 423.252 104.052 424.62 102.06C426.113 100.069 427.295 98.264 428.166 96.6459C429.037 94.9034 429.473 93.4721 429.473 92.3519C429.473 91.1073 428.851 90.485 427.607 90.485C425.865 90.485 423.563 91.4184 420.701 93.2854C417.964 95.0279 414.977 97.3927 411.742 100.38C408.632 103.242 405.459 106.541 402.224 110.275C399.113 114.009 396.251 117.742 393.638 121.476C391.15 125.21 389.097 128.82 387.479 132.305C385.862 135.79 385.053 138.777 385.053 141.266C385.053 142.013 385.24 142.573 385.613 142.946C385.986 143.195 387.106 143.32 388.972 143.32C394.82 143.32 400.606 141.826 406.33 138.839C412.053 135.727 417.652 131.745 423.127 126.891C428.726 122.036 433.392 117.742 437.125 114.009Z" fill="white"/>
<path d="M534.55 150.041C519.619 155.144 509.603 158.193 504.501 159.189C499.4 160.185 496.04 160.745 494.423 160.869C494.05 161.616 493.614 161.989 493.116 161.989C491.872 161.989 490.504 161.305 489.01 159.936C487.517 158.567 486.771 156.824 486.771 154.708C486.771 152.592 488.326 149.107 491.437 144.253C494.547 139.399 498.653 133.736 503.755 127.264C508.856 120.667 516.446 111.395 526.525 99.4464C536.728 87.4979 544.38 78.7232 549.481 73.1223C554.583 67.397 558.689 62.7918 561.799 59.3069C564.91 55.6974 566.465 53.7682 566.465 53.5193C566.465 53.3948 566.527 53.2082 566.652 52.9592C566.901 52.4614 567.274 52.2124 567.772 52.2124C568.145 52.2124 568.767 52.5236 569.638 53.1459C570.509 53.7682 571.38 54.5773 572.251 55.573C573.246 56.5687 574.117 57.6888 574.864 58.9335C575.61 60.1781 575.984 61.4227 575.984 62.6674C575.984 63.7876 575.735 64.721 575.237 65.4678C574.74 66.0901 574.304 66.6502 573.931 67.1481C571.442 69.8863 561.675 80.4034 544.629 98.6996C527.707 116.871 513.025 134.545 500.582 151.721C515.389 148.361 529.013 144.502 541.456 140.146C554.023 135.665 567.709 128.633 582.516 119.049C597.447 109.341 608.956 100.567 617.044 92.7253C625.256 84.7597 631.913 76.794 637.014 68.8283C642.24 60.8627 644.853 53.3326 644.853 46.2382C644.853 41.633 643.982 37.8369 642.24 34.8498C640.498 31.8627 638.072 29.5601 634.961 27.9421C631.975 26.1996 628.305 25.0172 623.95 24.3948C619.595 23.7725 614.805 23.4614 609.579 23.4614C598.38 23.4614 586.933 25.2039 575.237 28.6888C563.666 32.1738 552.405 36.7167 541.456 42.3176C530.506 47.9185 520.179 54.2661 510.474 61.3605C500.893 68.4549 492.432 75.5494 485.091 82.6438C477.874 89.7382 472.213 96.5837 468.107 103.18C463.876 109.652 461.761 115.191 461.761 119.796C461.761 121.165 462.135 122.099 462.881 122.597C464.623 123.717 466.241 124.339 467.734 124.464C468.356 124.464 468.978 124.65 469.6 125.024C469.973 125.273 470.16 125.459 470.16 125.584L469.787 125.77C468.045 126.517 466.489 126.891 465.121 126.891C462.259 126.891 459.895 125.521 458.029 122.783C456.162 120.045 455.229 117.12 455.229 114.009C455.229 106.665 457.593 99.0107 462.321 91.0451C467.049 83.0794 473.333 75.3004 481.172 67.7082C489.01 60.1159 498.031 52.897 508.234 46.0515C518.437 39.206 529.013 33.2318 539.963 28.1288C550.912 22.9013 561.862 18.794 572.811 15.8069C583.76 12.8197 593.963 11.3262 603.42 11.3262C611.383 11.3262 618.351 12.4464 624.323 14.6867C630.42 16.927 635.397 19.9142 639.254 23.6481C643.236 27.382 646.222 31.7382 648.213 36.7167C650.203 41.5708 651.199 46.6116 651.199 51.8391C651.199 57.5644 649.644 63.4764 646.533 69.5751C643.422 75.5494 639.192 81.5858 633.842 87.6845C628.491 93.6588 622.27 99.5086 615.178 105.234C608.21 110.959 600.807 116.436 592.968 121.663C585.253 126.766 577.352 131.496 569.265 135.852C561.177 140.208 549.606 144.938 534.55 150.041Z" fill="white"/>
<path d="M698.418 117.182C698.667 116.933 698.978 116.747 699.352 116.622C699.849 116.373 700.098 116.622 700.098 117.369C700.098 118.614 699.849 119.609 699.352 120.356C698.978 120.979 698.729 121.352 698.605 121.476C693.504 126.33 688.838 130.873 684.607 135.105C680.377 139.212 676.519 142.511 673.036 145C669.676 147.614 666.752 148.921 664.264 148.921C662.646 148.921 660.842 148.049 658.851 146.307C656.985 144.689 656.052 141.702 656.052 137.345C656.052 135.23 656.922 132.305 658.664 128.571C660.531 124.837 662.77 120.916 665.383 116.809C661.277 121.165 657.296 125.273 653.439 129.131C649.581 132.989 645.973 136.412 642.614 139.399C639.254 142.262 636.206 144.564 633.468 146.307C630.731 148.049 628.429 148.921 626.563 148.921C625.07 148.921 623.328 148.049 621.337 146.307C619.346 144.689 618.351 141.702 618.351 137.345C618.351 135.852 618.848 133.923 619.844 131.558C620.839 129.069 622.083 126.455 623.576 123.717C625.194 120.854 626.998 117.929 628.989 114.942C631.104 111.955 633.219 109.03 635.335 106.167C636.952 103.803 638.756 101.376 640.747 98.8863C642.738 96.2725 644.604 93.9077 646.346 91.7918C648.213 89.676 649.83 87.9335 651.199 86.5644C652.692 85.1953 653.75 84.5107 654.372 84.5107C654.994 84.5107 655.678 84.8841 656.425 85.6309C657.171 86.2532 657.856 87.1245 658.478 88.2446C659.1 89.2403 659.598 90.2983 659.971 91.4184C660.344 92.5386 660.531 93.4721 660.531 94.2189C660.531 94.5923 659.722 95.8991 658.105 98.1395C656.611 100.38 654.683 103.118 652.319 106.354C649.955 109.466 647.342 112.888 644.48 116.622C641.743 120.356 639.192 123.903 636.828 127.264C634.464 130.624 632.473 133.674 630.855 136.412C629.362 139.026 628.616 140.893 628.616 142.013C628.616 142.386 628.74 142.573 628.989 142.573C630.109 142.573 631.851 141.764 634.215 140.146C636.579 138.403 639.316 136.225 642.427 133.612C645.538 130.873 648.835 127.824 652.319 124.464C655.803 120.979 659.287 117.494 662.77 114.009C666.254 110.524 669.552 107.163 672.662 103.927C675.773 100.691 678.51 97.8906 680.874 95.5257C682.616 93.4099 684.172 91.7296 685.54 90.485C686.909 89.1159 687.904 88.4313 688.527 88.4313C689.149 88.4313 689.833 88.8047 690.58 89.5515C691.326 90.2983 692.01 91.1695 692.633 92.1652C693.255 93.1609 693.752 94.2811 694.126 95.5257C694.499 96.6459 694.686 97.5794 694.686 98.3262C694.686 98.6996 693.939 99.9442 692.446 102.06C691.077 104.052 689.335 106.479 687.22 109.341C685.229 112.204 682.99 115.315 680.501 118.676C678.013 122.036 675.711 125.273 673.595 128.384C671.605 131.496 669.863 134.296 668.37 136.785C667.001 139.15 666.317 140.893 666.317 142.013C666.317 142.386 666.441 142.573 666.69 142.573C668.556 142.573 670.796 141.515 673.409 139.399C676.146 137.283 679.381 134.358 683.114 130.624C686.847 126.891 691.948 122.41 698.418 117.182Z" fill="white"/>
<path d="M753.85 118.676C751.486 122.908 748.624 127.139 745.265 131.371C742.029 135.479 738.421 139.212 734.44 142.573C730.582 145.933 726.476 148.672 722.121 150.788C717.766 152.903 713.474 153.961 709.243 153.961C705.013 153.961 701.405 153.215 698.418 151.721C695.432 150.352 693.379 148.796 692.259 147.054C687.158 152.655 682.305 158.069 677.702 163.296C672.973 168.648 668.681 173.564 664.823 178.045C661.215 182.899 657.856 187.504 654.745 191.861C651.634 196.217 648.897 200.075 646.533 203.436C644.044 206.796 642.054 209.597 640.561 211.837C638.943 214.202 637.885 215.758 637.388 216.504C636.766 217.624 636.081 217.936 635.335 217.438C634.588 216.94 633.655 216.193 632.535 215.197C631.54 214.202 630.793 212.77 630.295 210.903C629.673 209.036 629.736 207.232 630.482 205.489C630.98 204.742 631.602 203.871 632.348 202.876C638.694 193.043 644.604 184.082 650.079 175.991C655.554 168.026 661.215 159.936 667.063 151.721C672.911 143.506 679.381 134.67 686.474 125.21C693.566 115.751 701.902 104.674 711.483 91.9785C711.732 91.6051 711.919 91.294 712.043 91.0451C712.167 90.6717 712.23 90.236 712.23 89.7382C712.478 87.7468 713.349 87.3734 714.842 88.618C717.704 90.9828 719.508 93.6588 720.255 96.6459C721.126 99.5086 720.504 102.371 718.389 105.234C715.9 108.47 713.287 111.955 710.55 115.689C707.812 119.423 704.951 123.343 701.964 127.451C707.19 121.974 712.292 116.747 717.269 111.768C722.37 106.665 727.036 102.185 731.267 98.3262C735.622 94.3434 739.354 91.2318 742.465 88.9914C745.576 86.6266 747.815 85.4442 749.184 85.4442C750.677 85.4442 752.046 85.8798 753.29 86.7511C754.659 87.4978 755.841 88.5558 756.836 89.9249C757.831 91.1695 758.64 92.6631 759.262 94.4056C759.884 96.1481 760.196 97.9528 760.196 99.8197C760.196 101.811 759.822 104.052 759.076 106.541C758.454 108.906 757.52 111.457 756.276 114.195L753.85 118.676ZM703.831 134.358C699.476 139.586 697.05 142.822 696.552 144.067C696.676 144.067 696.987 144.129 697.485 144.253C697.983 144.253 698.605 144.253 699.352 144.253C705.448 144.253 711.172 142.573 716.522 139.212C721.997 135.727 726.912 131.496 731.267 126.517L735.186 121.85C737.426 118.863 739.479 115.876 741.345 112.888C743.211 109.901 744.767 107.101 746.011 104.487C747.255 101.749 748.188 99.3219 748.811 97.206C749.557 95.0901 749.93 93.4099 749.93 92.1652C749.93 91.6674 749.682 91.4184 749.184 91.4184C748.188 91.4184 746.26 92.6009 743.398 94.9657C740.536 97.3305 737.052 100.504 732.946 104.487C728.84 108.345 724.299 112.888 719.322 118.116C714.345 123.219 709.181 128.633 703.831 134.358Z" fill="white"/>
<path d="M821.599 109.528C821.724 109.279 822.035 109.092 822.533 108.968C823.03 108.719 823.279 108.968 823.279 109.715C823.279 110.959 823.03 111.955 822.533 112.702C822.159 113.324 821.911 113.697 821.786 113.822C820.791 114.818 819.609 115.938 818.24 117.182C816.996 118.427 814.383 120.854 810.401 124.464C806.295 127.949 802.065 131.185 797.71 134.172C793.355 137.034 788.876 139.461 784.272 141.453C779.793 143.32 775.438 144.253 771.207 144.253C766.728 144.253 763.244 143.071 760.755 140.706C758.391 138.341 757.209 135.043 757.209 130.811C757.209 127.575 757.894 124.152 759.262 120.543C760.507 116.933 762.249 113.324 764.488 109.715C766.728 106.105 769.341 102.682 772.327 99.4464C775.189 96.0858 778.175 93.1609 781.286 90.6717C784.521 88.0579 787.756 86.0043 790.991 84.5107C794.226 83.0172 797.337 82.2704 800.323 82.2704C801.318 82.2704 802.625 82.4571 804.242 82.8305C805.735 83.0794 807.228 83.5772 808.721 84.324C810.215 85.0708 811.459 86.1288 812.454 87.4978C813.574 88.7425 814.134 90.3605 814.134 92.3519C814.134 95.588 813.325 98.5751 811.708 101.313C809.966 104.052 807.788 106.541 805.175 108.781C802.562 110.897 799.701 112.826 796.59 114.569C793.355 116.187 790.244 117.556 787.258 118.676C784.147 119.672 781.286 120.481 778.673 121.103C776.184 121.601 774.318 121.788 773.074 121.663C771.332 124.526 770.025 127.202 769.154 129.691C768.159 132.18 767.661 134.483 767.661 136.599C767.661 137.345 767.848 137.906 768.221 138.279C768.594 138.528 769.714 138.652 771.58 138.652C778.051 138.652 784.21 137.097 790.058 133.985C796.03 130.873 801.629 127.139 806.855 122.783C812.081 118.303 816.996 113.884 821.599 109.528ZM809.095 91.0451C809.095 89.8004 808.473 89.1781 807.228 89.1781C805.486 89.1781 803.371 89.9871 800.883 91.6051C798.27 93.0987 795.532 95.1524 792.671 97.7661C789.809 100.255 787.009 103.18 784.272 106.541C781.41 109.777 778.797 113.075 776.433 116.436C780.041 115.564 783.774 114.133 787.631 112.142C791.489 110.026 794.972 107.723 798.083 105.234C801.318 102.745 803.993 100.255 806.109 97.7661C808.099 95.1524 809.095 92.912 809.095 91.0451Z" fill="white"/>
<path d="M847.542 91.4184C847.542 91.6674 847.231 92.2897 846.609 93.2854C845.987 94.2811 845.178 95.4635 844.183 96.8326L826.452 122.41C830.558 118.427 834.664 114.693 838.77 111.208C843.001 107.599 846.982 104.363 850.715 101.5C854.572 98.5129 858.118 95.9614 861.353 93.8455C864.588 91.6051 867.264 89.9249 869.379 88.8047C870.125 88.4313 870.996 88.4313 871.992 88.8047C872.987 89.0536 873.858 89.5515 874.605 90.2983C875.351 91.0451 875.911 91.9163 876.284 92.912C876.782 93.7833 876.969 94.5923 876.844 95.3391C876.72 95.588 876.409 95.8369 875.911 96.0858C875.538 96.3348 873.672 97.3927 870.312 99.2597C867.077 101.002 863.406 103.118 859.3 105.607C855.194 107.972 851.213 110.399 847.356 112.888C843.498 115.378 840.823 117.369 839.33 118.863C839.081 119.112 838.832 119.298 838.584 119.423C839.828 119.672 841.01 120.045 842.13 120.543C843.25 120.916 844.058 121.663 844.556 122.783C845.676 125.273 846.92 128.197 848.289 131.558C849.782 134.918 851.524 138.155 853.515 141.266C855.505 144.378 857.683 146.991 860.047 149.107C862.411 151.348 865.086 152.468 868.072 152.468C869.068 152.468 870.374 152.157 871.992 151.534C873.609 151.036 874.605 150.788 874.978 150.788C875.724 150.788 876.098 151.099 876.098 151.721C876.098 152.094 875.724 152.592 874.978 153.215C874.231 153.837 873.236 154.397 871.992 154.895C870.872 155.517 869.565 156.015 868.072 156.388C866.579 156.886 865.024 157.135 863.406 157.135C859.052 157.135 855.132 155.953 851.648 153.588C848.164 151.223 845.116 148.361 842.503 145C839.89 141.764 837.65 138.341 835.784 134.732C834.042 131.122 832.736 128.073 831.865 125.584C831.865 125.708 831.802 125.77 831.678 125.77C831.429 126.019 830.434 126.953 828.692 128.571C826.95 130.189 824.897 132.118 822.533 134.358C820.293 136.599 817.991 138.901 815.627 141.266C813.263 143.631 811.334 145.747 809.841 147.614C808.721 149.232 807.913 150.476 807.415 151.348C806.793 152.219 806.357 152.841 806.109 153.215C805.86 153.588 805.673 153.837 805.549 153.961C805.424 154.086 805.238 154.148 804.989 154.148C804.367 154.273 803.682 153.961 802.936 153.215C802.065 152.592 801.194 151.41 800.323 149.667C799.949 148.796 800.136 147.365 800.883 145.373C802.251 141.888 804.367 137.532 807.228 132.305C810.09 127.077 813.45 121.352 817.307 115.129C821.164 108.906 825.519 102.185 830.371 94.9657C835.348 87.6223 838.148 83.6395 838.77 83.0172C840.014 82.0215 840.885 81.5236 841.383 81.5236C842.005 81.5236 842.69 81.897 843.436 82.6438C844.183 83.3906 844.867 84.2618 845.489 85.2575C846.111 86.2532 846.609 87.3112 846.982 88.4313C847.356 89.5515 847.542 90.5472 847.542 91.4184Z" fill="white"/>
<path d="M990.32 117.556C990.569 117.307 990.88 117.12 991.253 116.996C991.751 116.747 992 116.996 992 117.742C992 118.987 991.813 119.983 991.44 120.73C991.067 121.352 990.756 121.725 990.507 121.85C988.641 123.717 987.272 125.148 986.401 126.144C985.53 127.015 983.29 129.255 979.682 132.865C976.198 136.35 972.776 139.524 969.417 142.386C966.057 145.249 962.885 147.551 959.898 149.294C957.036 151.161 954.61 152.094 952.619 152.094C950.38 152.094 948.576 151.036 947.207 148.921C945.963 146.805 945.341 144.44 945.341 141.826C945.341 139.461 946.211 136.474 947.953 132.865C949.82 129.255 951.873 125.708 954.112 122.223C956.477 118.614 958.716 115.378 960.831 112.515C962.947 109.652 964.315 107.785 964.938 106.914C965.933 105.545 966.679 104.425 967.177 103.554C967.799 102.682 968.11 101.998 968.11 101.5C968.11 101.127 967.924 100.94 967.55 100.94C965.933 100.94 963.444 102.06 960.085 104.3C956.85 106.416 953.242 109.155 949.26 112.515C945.403 115.751 941.359 119.361 937.128 123.343C933.022 127.202 929.227 130.811 925.744 134.172C922.26 137.532 919.398 140.395 917.158 142.76C914.919 145.124 913.736 146.431 913.612 146.68L913.799 145.933C913.674 146.182 913.612 146.431 913.612 146.68C911.372 146.68 909.568 145.622 908.2 143.506C906.955 141.391 906.333 138.964 906.333 136.225C906.333 133.861 907.329 130.811 909.319 127.077C911.435 123.343 913.799 119.609 916.412 115.876C919.025 112.142 921.513 108.781 923.877 105.794C926.241 102.807 927.734 100.878 928.356 100.006C929.227 98.7618 929.912 97.7039 930.409 96.8326C931.032 95.8369 931.343 95.0901 931.343 94.5923C931.343 94.2189 931.156 94.0322 930.783 94.0322C929.165 94.0322 926.552 95.3391 922.944 97.9528C919.336 100.567 915.354 103.803 910.999 107.661C906.644 111.519 902.103 115.751 897.375 120.356C892.646 124.961 888.354 129.255 884.497 133.238C880.639 137.097 877.404 140.395 874.791 143.133C872.303 145.871 870.996 147.365 870.872 147.614L871.059 146.867C869.814 148.485 869.006 149.294 868.632 149.294C868.01 149.418 867.077 148.921 865.833 147.8C864.464 146.68 863.344 145.249 862.473 143.506C862.224 143.009 862.1 142.449 862.1 141.826C862.1 141.079 862.411 140.208 863.033 139.212C864.651 136.723 866.641 133.549 869.006 129.691C871.37 125.833 873.92 121.788 876.658 117.556C879.395 113.324 882.195 109.092 885.056 104.861C887.918 100.629 890.593 96.8326 893.082 93.4721C894.077 92.103 894.824 90.8584 895.322 89.7382C895.944 88.618 896.441 87.6845 896.815 86.9378C897.188 86.191 897.561 85.6309 897.934 85.2575C898.432 84.8841 899.179 84.6974 900.174 84.6974C901.294 84.6974 902.476 85.6309 903.72 87.4978C905.089 89.2403 906.022 91.0451 906.52 92.912C906.769 94.0322 906.706 94.9657 906.333 95.7124C905.96 96.4592 905.276 97.5172 904.28 98.8863C903.409 100.131 902.289 101.749 900.921 103.74C899.552 105.607 898.059 107.661 896.441 109.901C894.948 112.142 893.331 114.506 891.589 116.996C889.847 119.485 888.167 121.912 886.549 124.277C890.033 120.916 894.015 117.12 898.494 112.888C903.098 108.657 907.64 104.674 912.119 100.94C916.723 97.206 920.953 94.0322 924.81 91.4184C928.668 88.8047 931.591 87.4978 933.582 87.4978C935.698 87.4978 937.813 88.8047 939.928 91.4184C942.168 93.9077 943.287 97.3305 943.287 101.687C943.287 102.309 942.728 103.491 941.608 105.234C940.612 106.852 939.306 108.781 937.688 111.021C936.071 113.262 934.204 115.689 932.089 118.303C930.098 120.916 928.108 123.592 926.117 126.33C929.103 123.592 932.711 120.356 936.942 116.622C941.172 112.888 945.403 109.403 949.633 106.167C953.988 102.931 957.97 100.193 961.578 97.9528C965.311 95.588 968.235 94.4056 970.35 94.4056C971.345 94.4056 972.403 94.779 973.523 95.5257C974.767 96.1481 975.825 97.0816 976.696 98.3262C977.691 99.4464 978.5 100.878 979.122 102.62C979.744 104.363 980.055 106.354 980.055 108.594C980.055 109.341 979.433 110.648 978.189 112.515C976.945 114.382 975.389 116.498 973.523 118.863C971.656 121.227 969.666 123.779 967.55 126.517C965.435 129.255 963.444 131.931 961.578 134.545C959.712 137.034 958.156 139.337 956.912 141.453C955.668 143.569 955.046 145.187 955.046 146.307C955.046 146.556 955.17 146.68 955.419 146.68C957.285 146.68 959.836 145.436 963.071 142.946C966.306 140.333 970.101 136.91 974.456 132.678C978.811 128.322 984.099 123.281 990.32 117.556Z" fill="white"/>
</g>
</svg>
